<svg width="200" height="40" viewBox="0 0 200 40" fill="none" xmlns="http://www.w3.org/2000/svg">
<rect x="0.5" y="0.5" width="199" height="39" rx="3.5" fill="white" stroke="#DDDDDD"/>
<path fill-rule="evenodd" clip-rule="evenodd" d="M23.999 24H31.999V30C31.999 31.1046 31.1036 32 29.999 32H23.999V24Z" fill="#FF46FB"/>
<path fill-rule="evenodd" clip-rule="evenodd" d="M16.001 24H24.001V32H16.001V24Z" fill="#CA41FC"/>
<path fill-rule="evenodd" clip-rule="evenodd" d="M8 24H16V32H10C8.89543 32 8 31.1046 8 30V24Z" fill="#8B48FE"/>
<path fill-rule="evenodd" clip-rule="evenodd" d="M32 15.9999H24V23.9999H32V15.9999Z" fill="#81E650"/>
<path fill-rule="evenodd" clip-rule="evenodd" d="M23.999 15.9999H15.999V23.9999H23.999V15.9999Z" fill="#00D267"/>
<path fill-rule="evenodd" clip-rule="evenodd" d="M16.001 15.9999H8.00099V23.9999H16.001V15.9999Z" fill="#00C0FF"/>
<path fill-rule="evenodd" clip-rule="evenodd" d="M23.999 8H29.999C31.1036 8 31.999 8.89543 31.999 10V16H23.999V8Z" fill="#FFD200"/>
<path fill-rule="evenodd" clip-rule="evenodd" d="M16.001 8H24.001V16H16.001V8Z" fill="#FF8E00"/>
<path fill-rule="evenodd" clip-rule="evenodd" d="M8.00016 10C8.00016 8.89543 8.89559 8 10.0002 8H16.0001V16H8.00016V10Z" fill="#FF5400"/>
<path fill="#1A1A1A" d="M42.842 19.862L42.408 21.262H45.166L44.732 19.862C44.564 19.3487 44.4053 18.84 44.256 18.336C44.1067 17.8227 43.9573 17.3 43.808 16.768H43.752C43.612 17.3 43.4673 17.8227 43.318 18.336C43.1687 18.84 43.01 19.3487 42.842 19.862ZM40.042 25L43.15 15.816H44.466L47.574 25H46.328L45.46 22.2H42.114L41.232 25H40.042ZM51.7732 25.168C51.4559 25.168 51.1246 25.0933 50.7792 24.944C50.4432 24.7853 50.1259 24.5707 49.8272 24.3H49.7852L49.6872 25H48.7632V15.032H49.9112V17.748L49.8832 18.98C50.1912 18.7093 50.5272 18.4853 50.8912 18.308C51.2552 18.1213 51.6286 18.028 52.0112 18.028C52.4499 18.028 52.8372 18.112 53.1732 18.28C53.5092 18.4387 53.7892 18.672 54.0132 18.98C54.2466 19.2787 54.4192 19.6427 54.5312 20.072C54.6526 20.492 54.7132 20.9633 54.7132 21.486C54.7132 22.0647 54.6339 22.5827 54.4752 23.04C54.3166 23.4973 54.1019 23.8847 53.8312 24.202C53.5606 24.5193 53.2479 24.762 52.8932 24.93C52.5386 25.0887 52.1652 25.168 51.7732 25.168ZM51.5772 24.202C51.8572 24.202 52.1139 24.1413 52.3472 24.02C52.5899 23.8893 52.7952 23.712 52.9632 23.488C53.1406 23.2547 53.2759 22.97 53.3692 22.634C53.4719 22.298 53.5232 21.92 53.5232 21.5C53.5232 21.1267 53.4906 20.786 53.4252 20.478C53.3599 20.17 53.2526 19.9087 53.1032 19.694C52.9632 19.47 52.7766 19.2973 52.5432 19.176C52.3192 19.0547 52.0486 18.994 51.7312 18.994C51.1806 18.994 50.5739 19.302 49.9112 19.918V23.488C50.2099 23.7493 50.5039 23.936 50.7932 24.048C51.0919 24.1507 51.3532 24.202 51.5772 24.202ZM56.5015 25V18.196H57.4535L57.5515 19.428H57.5935C57.8269 18.9987 58.1069 18.658 58.4335 18.406C58.7695 18.154 59.1335 18.028 59.5255 18.028C59.7962 18.028 60.0389 18.0747 60.2535 18.168L60.0295 19.176C59.9175 19.1387 59.8149 19.1107 59.7215 19.092C59.6282 19.0733 59.5115 19.064 59.3715 19.064C59.0822 19.064 58.7789 19.1807 58.4615 19.414C58.1535 19.6473 57.8829 20.0533 57.6495 20.632V25H56.5015ZM61.355 25V18.196H62.503V25H61.355ZM61.943 16.796C61.719 16.796 61.5277 16.726 61.369 16.586C61.2197 16.446 61.145 16.2687 61.145 16.054C61.145 15.83 61.2197 15.6527 61.369 15.522C61.5277 15.382 61.719 15.312 61.943 15.312C62.167 15.312 62.3537 15.382 62.503 15.522C62.6617 15.6527 62.741 15.83 62.741 16.054C62.741 16.2687 62.6617 16.446 62.503 16.586C62.3537 16.726 62.167 16.796 61.943 16.796ZM64.8004 25V18.196H65.7524L65.8504 19.428H65.8924C66.1257 18.9987 66.4057 18.658 66.7324 18.406C67.0684 18.154 67.4324 18.028 67.8244 18.028C68.095 18.028 68.3377 18.0747 68.5524 18.168L68.3284 19.176C68.2164 19.1387 68.1137 19.1107 68.0204 19.092C67.927 19.0733 67.8104 19.064 67.6704 19.064C67.381 19.064 67.0777 19.1807 66.7604 19.414C66.4524 19.6473 66.1817 20.0533 65.9484 20.632V25H64.8004ZM75.1446 25.168C74.6966 25.168 74.2766 25.0887 73.8846 24.93C73.4926 24.7713 73.1519 24.5427 72.8626 24.244C72.5826 23.936 72.3586 23.5627 72.1906 23.124C72.0319 22.676 71.9526 22.172 71.9526 21.612C71.9526 21.0427 72.0413 20.5387 72.2186 20.1C72.3959 19.652 72.6339 19.274 72.9326 18.966C73.2313 18.658 73.5766 18.4247 73.9686 18.266C74.3699 18.1073 74.7899 18.028 75.2286 18.028C75.6766 18.028 76.0593 18.1073 76.3766 18.266C76.6939 18.4247 76.9739 18.6113 77.2166 18.826L76.6286 19.582C76.4326 19.4047 76.2226 19.26 75.9986 19.148C75.7839 19.036 75.5413 18.98 75.2706 18.98C74.9626 18.98 74.6779 19.0453 74.4166 19.176C74.1553 19.2973 73.9313 19.4747 73.7446 19.708C73.5579 19.9413 73.4086 20.2213 73.2966 20.548C73.1939 20.8653 73.1426 21.22 73.1426 21.612C73.1426 22.004 73.1939 22.3587 73.2966 22.676C73.3993 22.9933 73.5393 23.2687 73.7166 23.502C73.9033 23.726 74.1273 23.9033 74.3886 24.034C74.6499 24.1553 74.9346 24.216 75.2426 24.216C75.5599 24.216 75.8493 24.1507 76.1106 24.02C76.3813 23.88 76.6239 23.7167 76.8386 23.53L77.3426 24.3C77.0346 24.5707 76.6939 24.7853 76.3206 24.944C75.9473 25.0933 75.5553 25.168 75.1446 25.168ZM81.1866 25.168C80.7666 25.168 80.3653 25.0887 79.9826 24.93C79.6093 24.7713 79.2779 24.5427 78.9886 24.244C78.6993 23.936 78.4659 23.5627 78.2886 23.124C78.1206 22.676 78.0366 22.172 78.0366 21.612C78.0366 21.0427 78.1206 20.5387 78.2886 20.1C78.4659 19.652 78.6993 19.274 78.9886 18.966C79.2779 18.658 79.6093 18.4247 79.9826 18.266C80.3653 18.1073 80.7666 18.028 81.1866 18.028C81.6066 18.028 82.0033 18.1073 82.3766 18.266C82.7593 18.4247 83.0953 18.658 83.3846 18.966C83.6739 19.274 83.9026 19.652 84.0706 20.1C84.2479 20.5387 84.3366 21.0427 84.3366 21.612C84.3366 22.172 84.2479 22.676 84.0706 23.124C83.9026 23.5627 83.6739 23.936 83.3846 24.244C83.0953 24.5427 82.7593 24.7713 82.3766 24.93C82.0033 25.0887 81.6066 25.168 81.1866 25.168ZM81.1866 24.216C81.4759 24.216 81.7419 24.1553 81.9846 24.034C82.2273 23.9033 82.4326 23.726 82.6006 23.502C82.7779 23.2687 82.9133 22.9933 83.0066 22.676C83.0999 22.3587 83.1466 22.004 83.1466 21.612C83.1466 21.22 83.0999 20.8653 83.0066 20.548C82.9133 20.2213 82.7779 19.9413 82.6006 19.708C82.4326 19.4747 82.2273 19.2973 81.9846 19.176C81.7419 19.0453 81.4759 18.98 81.1866 18.98C80.8973 18.98 80.6313 19.0453 80.3886 19.176C80.1459 19.2973 79.9359 19.4747 79.7586 19.708C79.5906 19.9413 79.4599 20.2213 79.3666 20.548C79.2733 20.8653 79.2266 21.22 79.2266 21.612C79.2266 22.004 79.2733 22.3587 79.3666 22.676C79.4599 22.9933 79.5906 23.2687 79.7586 23.502C79.9359 23.726 80.1459 23.9033 80.3886 24.034C80.6313 24.1553 80.8973 24.216 81.1866 24.216ZM86.1285 25V18.196H87.0805L87.1785 19.176H87.2205C87.5471 18.8493 87.8878 18.5787 88.2425 18.364C88.6065 18.14 89.0265 18.028 89.5025 18.028C90.2211 18.028 90.7438 18.252 91.0705 18.7C91.4065 19.148 91.5745 19.8107 91.5745 20.688V25H90.4265V20.842C90.4265 20.198 90.3238 19.736 90.1185 19.456C89.9131 19.1667 89.5865 19.022 89.1385 19.022C88.7838 19.022 88.4711 19.1107 88.2005 19.288C87.9298 19.4653 87.6218 19.7267 87.2765 20.072V25H86.1285ZM99.3035 25.168C98.7061 25.168 98.1088 25.0607 97.5115 24.846C96.9235 24.622 96.3961 24.2907 95.9295 23.852L97.1055 22.438C97.4321 22.718 97.7915 22.9467 98.1835 23.124C98.5848 23.3013 98.9768 23.39 99.3595 23.39C99.7888 23.39 100.106 23.3107 100.311 23.152C100.526 22.9933 100.633 22.7787 100.633 22.508C100.633 22.368 100.601 22.2467 100.535 22.144C100.479 22.0413 100.391 21.9527 100.269 21.878C100.157 21.794 100.017 21.7193 99.8495 21.654C99.6908 21.5793 99.5135 21.5 99.3175 21.416L98.1275 20.912C97.8941 20.8187 97.6655 20.6973 97.4415 20.548C97.2268 20.3987 97.0308 20.226 96.8535 20.03C96.6855 19.8247 96.5501 19.5913 96.4475 19.33C96.3448 19.0593 96.2935 18.756 96.2935 18.42C96.2935 18.0467 96.3728 17.6967 96.5315 17.37C96.6901 17.034 96.9141 16.7447 97.2035 16.502C97.4928 16.25 97.8335 16.054 98.2255 15.914C98.6268 15.774 99.0655 15.704 99.5415 15.704C100.073 15.704 100.596 15.8067 101.109 16.012C101.632 16.2173 102.089 16.516 102.481 16.908L101.431 18.21C101.133 17.9767 100.834 17.7993 100.535 17.678C100.237 17.5473 99.9055 17.482 99.5415 17.482C99.1868 17.482 98.9021 17.5567 98.6875 17.706C98.4821 17.846 98.3795 18.0467 98.3795 18.308C98.3795 18.448 98.4121 18.5693 98.4775 18.672C98.5521 18.7653 98.6501 18.854 98.7715 18.938C98.9021 19.0127 99.0515 19.0873 99.2195 19.162C99.3875 19.2273 99.5695 19.302 99.7655 19.386L100.941 19.862C101.501 20.086 101.94 20.394 102.257 20.786C102.584 21.178 102.747 21.696 102.747 22.34C102.747 22.7227 102.668 23.0867 102.509 23.432C102.36 23.768 102.136 24.0667 101.837 24.328C101.548 24.58 101.189 24.7853 100.759 24.944C100.33 25.0933 99.8448 25.168 99.3035 25.168ZM104.129 25V18.056H105.809L105.949 18.952H106.005C106.294 18.6627 106.602 18.4153 106.929 18.21C107.255 17.9953 107.647 17.888 108.105 17.888C108.599 17.888 108.996 17.9907 109.295 18.196C109.603 18.392 109.845 18.6767 110.023 19.05C110.331 18.7327 110.653 18.462 110.989 18.238C111.334 18.0047 111.74 17.888 112.207 17.888C112.953 17.888 113.499 18.14 113.845 18.644C114.199 19.1387 114.377 19.82 114.377 20.688V25H112.319V20.954C112.319 20.45 112.249 20.1047 112.109 19.918C111.978 19.7313 111.763 19.638 111.465 19.638C111.119 19.638 110.723 19.862 110.275 20.31V25H108.217V20.954C108.217 20.45 108.147 20.1047 108.007 19.918C107.876 19.7313 107.661 19.638 107.363 19.638C107.008 19.638 106.616 19.862 106.187 20.31V25H104.129ZM117.883 25.168C117.565 25.168 117.276 25.112 117.015 25C116.763 24.8973 116.548 24.7527 116.371 24.566C116.193 24.37 116.053 24.146 115.951 23.894C115.857 23.642 115.811 23.3667 115.811 23.068C115.811 22.34 116.119 21.7707 116.735 21.36C117.351 20.9493 118.345 20.674 119.717 20.534C119.698 20.226 119.605 19.9833 119.437 19.806C119.278 19.6193 119.007 19.526 118.625 19.526C118.326 19.526 118.027 19.582 117.729 19.694C117.439 19.806 117.127 19.96 116.791 20.156L116.049 18.798C116.497 18.5273 116.963 18.308 117.449 18.14C117.943 17.972 118.466 17.888 119.017 17.888C119.913 17.888 120.594 18.1447 121.061 18.658C121.537 19.162 121.775 19.9507 121.775 21.024V25H120.095L119.955 24.286H119.899C119.6 24.5473 119.287 24.762 118.961 24.93C118.634 25.0887 118.275 25.168 117.883 25.168ZM118.583 23.572C118.816 23.572 119.017 23.5207 119.185 23.418C119.353 23.3153 119.53 23.1707 119.717 22.984V21.766C118.989 21.8687 118.485 22.018 118.205 22.214C117.925 22.41 117.785 22.6433 117.785 22.914C117.785 23.138 117.855 23.306 117.995 23.418C118.144 23.5207 118.34 23.572 118.583 23.572ZM125.405 25.168C125.051 25.168 124.752 25.112 124.509 25C124.267 24.888 124.071 24.734 123.921 24.538C123.781 24.3327 123.679 24.09 123.613 23.81C123.548 23.5207 123.515 23.1987 123.515 22.844V15.186H125.573V22.928C125.573 23.1427 125.611 23.292 125.685 23.376C125.769 23.46 125.853 23.502 125.937 23.502C125.984 23.502 126.021 23.502 126.049 23.502C126.087 23.502 126.133 23.4927 126.189 23.474L126.441 25C126.329 25.0467 126.185 25.084 126.007 25.112C125.839 25.1493 125.639 25.168 125.405 25.168ZM129.411 25.168C129.057 25.168 128.758 25.112 128.515 25C128.273 24.888 128.077 24.734 127.927 24.538C127.787 24.3327 127.685 24.09 127.619 23.81C127.554 23.5207 127.521 23.1987 127.521 22.844V15.186H129.579V22.928C129.579 23.1427 129.617 23.292 129.691 23.376C129.775 23.46 129.859 23.502 129.943 23.502C129.99 23.502 130.027 23.502 130.055 23.502C130.093 23.502 130.139 23.4927 130.195 23.474L130.447 25C130.335 25.0467 130.191 25.084 130.013 25.112C129.845 25.1493 129.645 25.168 129.411 25.168ZM131.527 27.576V18.056H133.207L133.347 18.742H133.403C133.674 18.4993 133.977 18.2987 134.313 18.14C134.659 17.972 135.013 17.888 135.377 17.888C135.797 17.888 136.175 17.972 136.511 18.14C136.847 18.308 137.132 18.546 137.365 18.854C137.599 19.162 137.776 19.5353 137.897 19.974C138.028 20.4033 138.093 20.884 138.093 21.416C138.093 22.0133 138.009 22.5453 137.841 23.012C137.683 23.4693 137.463 23.8613 137.183 24.188C136.913 24.5053 136.6 24.748 136.245 24.916C135.9 25.084 135.541 25.168 135.167 25.168C134.869 25.168 134.579 25.1073 134.299 24.986C134.019 24.8553 133.758 24.6733 133.515 24.44L133.585 25.546V27.576H131.527ZM134.691 23.488C135.046 23.488 135.349 23.3293 135.601 23.012C135.853 22.6853 135.979 22.1627 135.979 21.444C135.979 20.1933 135.578 19.568 134.775 19.568C134.374 19.568 133.977 19.778 133.585 20.198V23.04C133.772 23.208 133.959 23.3247 134.145 23.39C134.332 23.4553 134.514 23.488 134.691 23.488ZM142.031 25.168C141.601 25.168 141.209 25.084 140.855 24.916C140.509 24.748 140.211 24.51 139.959 24.202C139.716 23.8847 139.525 23.502 139.385 23.054C139.254 22.606 139.189 22.0973 139.189 21.528C139.189 20.9587 139.268 20.45 139.427 20.002C139.595 19.554 139.809 19.176 140.071 18.868C140.341 18.5507 140.649 18.308 140.995 18.14C141.349 17.972 141.709 17.888 142.073 17.888C142.465 17.888 142.787 17.9533 143.039 18.084C143.291 18.2147 143.538 18.392 143.781 18.616L143.697 17.552V15.186H145.755V25H144.075L143.935 24.314H143.879C143.636 24.5567 143.351 24.762 143.025 24.93C142.698 25.0887 142.367 25.168 142.031 25.168ZM142.563 23.488C142.787 23.488 142.987 23.4413 143.165 23.348C143.351 23.2547 143.529 23.0913 143.697 22.858V20.016C143.51 19.848 143.319 19.7313 143.123 19.666C142.927 19.6007 142.735 19.568 142.549 19.568C142.222 19.568 141.933 19.7267 141.681 20.044C141.429 20.352 141.303 20.8373 141.303 21.5C141.303 22.1907 141.41 22.6947 141.625 23.012C141.849 23.3293 142.161 23.488 142.563 23.488ZM147.928 25V19.666H147.004V18.14L147.928 18.07V17.692C147.928 17.328 147.97 16.9827 148.054 16.656C148.147 16.3293 148.297 16.0447 148.502 15.802C148.707 15.5593 148.973 15.368 149.3 15.228C149.627 15.088 150.023 15.018 150.49 15.018C150.779 15.018 151.041 15.046 151.274 15.102C151.517 15.158 151.717 15.214 151.876 15.27L151.498 16.782C151.237 16.6887 150.999 16.642 150.784 16.642C150.532 16.642 150.336 16.7213 150.196 16.88C150.056 17.0293 149.986 17.2813 149.986 17.636V18.056H151.232V19.666H149.986V25H147.928Z"/>
<path fill-rule="evenodd" clip-rule="evenodd" d="M176.25 25.75L182.5 20L176.25 14.25L177 13.5L184 20L177 26.5L176.25 25.75Z" fill="#1A1A1A"/>
</svg>