<?xml version="1.0" encoding="UTF-8" standalone="no"?>
<!-- Created with Inkscape (http://www.inkscape.org/) -->
<svg xmlns:dc="http://purl.org/dc/elements/1.1/" xmlns:cc="http://creativecommons.org/ns#" xmlns:rdf="http://www.w3.org/1999/02/22-rdf-syntax-ns#" xmlns:svg="http://www.w3.org/2000/svg" xmlns="http://www.w3.org/2000/svg" version="1.0" width="578" height="626" id="svg1905">
  <metadata id="metadata3279">
    <rdf:RDF>
      <cc:Work rdf:about="">
        <dc:format>image/svg+xml</dc:format>
        <dc:type rdf:resource="http://purl.org/dc/dcmitype/StillImage"/>
        <dc:title/>
      </cc:Work>
    </rdf:RDF>
  </metadata>
  <defs id="defs1908"/>
  <rect width="573.77893" height="579.63403" ry="18.281483" x="2.339853" y="19.870811" id="rect4074" style="fill:#b3b3b3;fill-opacity:1;stroke:#000000;stroke-width:0.86759114;stroke-miterlimit:4;stroke-opacity:1;stroke-dasharray:none"/>
  <path d="m 239.65906,8.2804225 c 0.004,4.3144945 -3.49271,7.8141045 -7.80721,7.8141045 -4.3145,0 -7.81103,-3.49961 -7.80722,-7.8141045 -0.004,-4.314494 3.49272,-7.81410303 7.80722,-7.81410303 4.3145,0 7.81102,3.49960903 7.80721,7.81410303 l 0,0 z" id="path1932" style="fill:#000000;fill-rule:evenodd;stroke:#000000;stroke-width:1.12552536px;stroke-linecap:butt;stroke-linejoin:miter;stroke-opacity:1"/>
  <rect width="18.525293" height="18.525293" x="192.15437" y="-135.73375" transform="matrix(0.707107,0.707107,-0.707107,0.707107,0,0)" id="rect3799" style="fill:#ffffff;fill-opacity:1;stroke:#000000;stroke-width:0.835706;stroke-opacity:1"/>
  <rect width="18.525293" height="18.525293" x="298.71805" y="-24.486103" transform="matrix(0.707107,0.707107,-0.707107,0.707107,0,0)" id="rect2099" style="fill:#ffffff;fill-opacity:1;stroke:#000000;stroke-width:0.835706;stroke-opacity:1"/>
  <rect width="18.525293" height="18.525293" x="200.93709" y="73.294884" transform="matrix(0.707107,0.707107,-0.707107,0.707107,0,0)" id="rect2101" style="fill:#ffffff;fill-opacity:1;stroke:#000000;stroke-width:0.835706;stroke-opacity:1"/>
  <rect width="18.525293" height="18.525293" x="432.80087" y="109.59671" transform="matrix(0.707107,0.707107,-0.707107,0.707107,0,0)" id="rect2103" style="fill:#ffffff;fill-opacity:1;stroke:#000000;stroke-width:0.835706;stroke-opacity:1"/>
  <rect width="18.525293" height="18.525293" x="487.25366" y="162.87863" transform="matrix(0.707107,0.707107,-0.707107,0.707107,0,0)" id="rect2105" style="fill:#ffffff;fill-opacity:1;stroke:#000000;stroke-width:0.835706;stroke-opacity:1"/>
  <rect width="18.525293" height="18.525293" x="409.38025" y="286.42218" transform="matrix(0.707107,0.707107,-0.707107,0.707107,0,0)" id="rect2107" style="fill:#ffffff;fill-opacity:1;stroke:#000000;stroke-width:0.835706;stroke-opacity:1"/>
  <rect width="99.109901" height="20.171349" ry="10.085674" x="182.29691" y="82.65506" id="rect2006" style="fill:#ffffff;fill-opacity:1;stroke:#000000;stroke-width:0.97638834;stroke-opacity:1"/>
  <rect width="99.109901" height="20.171349" ry="10.085674" x="41.529705" y="82.65506" id="rect2110" style="fill:#ffffff;fill-opacity:1;stroke:#000000;stroke-width:0.97638834;stroke-opacity:1"/>
  <rect width="99.93399" height="20.167395" ry="10.083697" x="41.531685" y="121.57503" id="rect2112" style="fill:#ffffff;fill-opacity:1;stroke:#000000;stroke-width:0.9803431;stroke-opacity:1"/>
  <rect width="113.12157" height="20.106295" ry="10.053147" x="34.109856" y="158.86749" id="rect2114" style="fill:#ffffff;fill-opacity:1;stroke:#000000;stroke-width:1.04144251;stroke-opacity:1"/>
  <rect width="99.93399" height="20.167395" ry="10.083697" x="41.531693" y="237.50096" id="rect2116" style="fill:#ffffff;fill-opacity:1;stroke:#000000;stroke-width:0.9803431;stroke-opacity:1"/>
  <rect width="183.63069" height="19.829994" ry="9.9149971" x="299.60614" y="197.09558" id="rect2118" style="fill:#ffffff;fill-opacity:1;stroke:#000000;stroke-width:1.31774247;stroke-opacity:1"/>
  <rect width="196.83438" height="19.784992" ry="9.8924961" x="291.59076" y="237.69218" id="rect2120" style="fill:#ffffff;fill-opacity:1;stroke:#000000;stroke-width:1.36274624;stroke-opacity:1"/>
  <rect width="80.161118" height="20.267542" ry="10.133771" x="145.81496" y="322.73926" id="rect2122" style="fill:#ffffff;fill-opacity:1;stroke:#000000;stroke-width:0.88019526;stroke-opacity:1"/>
  <rect width="75.219856" height="20.294535" ry="10.147267" x="233.57393" y="321.89771" id="rect2124" style="fill:#ffffff;fill-opacity:1;stroke:#000000;stroke-width:0.85320306;stroke-opacity:1"/>
  <rect width="99.109901" height="20.171349" ry="10.085674" x="178.98473" y="428.77673" id="rect2126" style="fill:#ffffff;fill-opacity:1;stroke:#000000;stroke-width:0.97638834;stroke-opacity:1"/>
  <rect width="151.05421" height="19.949001" ry="9.9745007" x="243.68323" y="500.09955" id="rect2128" style="fill:#ffffff;fill-opacity:1;stroke:#000000;stroke-width:1.19873619;stroke-opacity:1"/>
  <rect width="155.17865" height="19.933226" ry="9.9666128" x="396.87894" y="500.10745" id="rect2130" style="fill:#ffffff;fill-opacity:1;stroke:#000000;stroke-width:1.2145108;stroke-opacity:1"/>
  <rect width="171.43097" height="6.8695517" ry="0" x="142.8242" y="303.76892" id="rect2910" style="fill:#000000;fill-opacity:1;stroke:none"/>
  <rect width="171.43097" height="6.8695517" ry="0" x="142.8242" y="364.216" id="rect2133" style="fill:#000000;fill-opacity:1;stroke:none"/>
  <rect width="310.54208" height="6.8695517" ry="0" x="241.36124" y="482.62607" id="rect2135" style="fill:#000000;fill-opacity:1;stroke:none"/>
  <rect width="310.54208" height="6.8695517" ry="0" x="241.36124" y="534.79272" id="rect2137" style="fill:#000000;fill-opacity:1;stroke:none"/>
  <path d="m 231.43783,16.146825 0.41402,24.013227" id="path2139" style="fill:none;stroke:#000000;stroke-width:1px;stroke-linecap:butt;stroke-linejoin:miter;stroke-opacity:1"/>
  <path d="m 231.02381,65.829364 0.41402,16.146826" id="path2141" style="fill:none;stroke:#000000;stroke-width:1px;stroke-linecap:butt;stroke-linejoin:miter;stroke-opacity:1"/>
  <path d="m 219.0172,52.994708 -127.932544,0 -0.414021,28.981482" id="path2145" style="fill:none;stroke:#000000;stroke-width:1px;stroke-linecap:butt;stroke-linejoin:miter;stroke-opacity:1"/>
  <path d="m 181.75529,92.74074 -41.40212,0" id="path2147" style="fill:none;stroke:#000000;stroke-width:1px;stroke-linecap:butt;stroke-linejoin:miter;stroke-opacity:1"/>
  <path d="m 91.498677,102.67725 0,19.04497" id="path2149" style="fill:none;stroke:#000000;stroke-width:1px;stroke-linecap:butt;stroke-linejoin:miter;stroke-opacity:1"/>
  <path d="m 90.670635,141.59524 0.414021,16.97487" id="path2151" style="fill:none;stroke:#000000;stroke-width:1px;stroke-linecap:butt;stroke-linejoin:miter;stroke-opacity:1"/>
  <path d="m 91.084656,178.85714 -0.414021,14.49074" id="path2153" style="fill:none;stroke:#000000;stroke-width:1px;stroke-linecap:butt;stroke-linejoin:miter;stroke-opacity:1"/>
  <path d="m 103.50529,207.01058 111.78572,0" id="path2155" style="fill:none;stroke:#000000;stroke-width:1px;stroke-linecap:butt;stroke-linejoin:miter;stroke-opacity:1"/>
  <path d="m 241.73595,206.59656 54.11125,0" id="path2157" style="fill:none;stroke:#000000;stroke-width:0.94614148px;stroke-linecap:butt;stroke-linejoin:miter;stroke-opacity:1"/>
  <path d="m 390.00794,216.94709 0,19.87302" id="path2159" style="fill:none;stroke:#000000;stroke-width:1px;stroke-linecap:butt;stroke-linejoin:miter;stroke-opacity:1"/>
  <path d="m 390.00794,257.93518 0,180.09921 -110.95768,0" id="path2161" style="fill:none;stroke:#000000;stroke-width:1px;stroke-linecap:butt;stroke-linejoin:miter;stroke-opacity:1"/>
  <path d="m 185.8955,310.92989 0,11.17858" id="path2163" style="fill:none;stroke:#000000;stroke-width:1px;stroke-linecap:butt;stroke-linejoin:miter;stroke-opacity:1"/>
  <path d="m 271.59788,310.92989 0,11.17858" id="path2165" style="fill:none;stroke:#000000;stroke-width:1px;stroke-linecap:butt;stroke-linejoin:miter;stroke-opacity:1"/>
  <path d="m 271.59788,341.98148 0,22.35714" id="path2167" style="fill:none;stroke:#000000;stroke-width:1px;stroke-linecap:butt;stroke-linejoin:miter;stroke-opacity:1"/>
  <path d="m 185.48148,342.3955 0.41402,22.35715" id="path2169" style="fill:none;stroke:#000000;stroke-width:1px;stroke-linecap:butt;stroke-linejoin:miter;stroke-opacity:1"/>
  <path d="m 228.9537,370.96296 0,12.83466" id="path2171" style="fill:none;stroke:#000000;stroke-width:1px;stroke-linecap:butt;stroke-linejoin:miter;stroke-opacity:1"/>
  <path d="m 228.53968,409.46693 0.41402,19.04497" id="path2173" style="fill:none;stroke:#000000;stroke-width:1px;stroke-linecap:butt;stroke-linejoin:miter;stroke-opacity:1"/>
  <path d="m 228.53968,448.79894 0,12.00662" id="path2175" style="fill:none;stroke:#000000;stroke-width:1px;stroke-linecap:butt;stroke-linejoin:miter;stroke-opacity:1"/>
  <path d="m 228.9537,485.64683 -0.41402,19.04497 -127.10449,-0.41402" id="path2177" style="fill:none;stroke:#000000;stroke-width:1px;stroke-linecap:butt;stroke-linejoin:miter;stroke-opacity:1"/>
  <path d="m 87.358466,517.52645 -0.414021,44.30027" id="path2179" style="fill:none;stroke:#000000;stroke-width:1px;stroke-linecap:butt;stroke-linejoin:miter;stroke-opacity:1"/>
  <path d="m 215.71875,396.625 -87,-0.21875 c -0.14386,-2.51596 -1.48863,-3.91213 -3.79728,-3.93362 -2.65053,0.0631 -3.46274,1.96368 -3.54647,3.90237 l -60.5,-0.15625 -0.4375,148.21875 26.5,0" id="path2181" style="fill:none;stroke:#000000;stroke-width:1px;stroke-linecap:butt;stroke-linejoin:miter;stroke-opacity:1"/>
  <path d="m 90.256614,219.43122 0,18.21693" id="path2183" style="fill:none;stroke:#000000;stroke-width:1px;stroke-linecap:butt;stroke-linejoin:miter;stroke-opacity:1"/>
  <path d="m 40.988095,247.58466 -7.452381,0 -0.171493,-40.81661 44.057737,0.24253" id="path2185" style="fill:none;stroke:#000000;stroke-width:1px;stroke-linecap:butt;stroke-linejoin:miter;stroke-opacity:1"/>
  <path d="m 241.23462,472.75319 154.41513,-0.66313 1.32627,10.45622" id="path2187" style="fill:none;stroke:#000000;stroke-width:1.0054245px;stroke-linecap:butt;stroke-linejoin:miter;stroke-opacity:1"/>
  <path d="m 317.93429,488.98964 0,10.53926" id="path2189" style="fill:none;stroke:#000000;stroke-width:1px;stroke-linecap:butt;stroke-linejoin:miter;stroke-opacity:1"/>
  <path d="m 474.85213,488.98964 0,10.53926" id="path2191" style="fill:none;stroke:#000000;stroke-width:1px;stroke-linecap:butt;stroke-linejoin:miter;stroke-opacity:1"/>
  <path d="m 473.09559,519.43639 0,14.63786" id="path2193" style="fill:none;stroke:#000000;stroke-width:1px;stroke-linecap:butt;stroke-linejoin:miter;stroke-opacity:1"/>
  <path d="m 318.5198,520.0219 -0.58551,15.80889" id="path2195" style="fill:none;stroke:#000000;stroke-width:1px;stroke-linecap:butt;stroke-linejoin:miter;stroke-opacity:1"/>
  <path d="m 396.40625,540.5 -0.008,17.59375 163.94574,0 0,-271.76892 c -1.48262,-0.0227 -164.7377,0.26848 -166.28125,0.28043 -0.15976,-4.95835 -7.27338,-5.58218 -7.59375,-0.54276 l -127.95314,-0.59407 -0.82821,17.84965" id="path2197" style="fill:none;stroke:#000000;stroke-width:1px;stroke-linecap:butt;stroke-linejoin:miter;stroke-opacity:1"/>
  <rect width="99.748238" height="20.168283" ry="10.084142" x="36.88702" y="562.63995" id="rect2199" style="fill:#ffffff;fill-opacity:1;stroke:#000000;stroke-width:0.97945321;stroke-opacity:1"/>
  <path d="m 33.125,169.75 -17.40625,0.32728 0,335.01647 40.65625,-0.5625 c -9.8e-5,-0.0111 0,-0.0202 0,-0.0312 2e-6,-2.13973 1.808512,-3.90625 4.0625,-3.90625 2.226525,0 4.05114,1.69924 4.09375,3.8125 l 10.685808,-0.125" id="path2201" style="fill:none;stroke:#000000;stroke-width:1px;stroke-linecap:butt;stroke-linejoin:miter;stroke-opacity:1"/>
  <path d="m 235.76244,32.688647 -4.32461,0 -4.32461,0 2.1623,3.74522 2.16231,3.74521 2.1623,-3.74521 2.16231,-3.74522 z" id="path6513" style="fill:#000000;fill-opacity:1;stroke:none"/>
  <path d="m 235.34842,74.918806 -4.32461,0 -4.32461,0 2.1623,3.74522 2.16231,3.74521 2.1623,-3.74521 2.16231,-3.74522 z" id="path2204" style="fill:#000000;fill-opacity:1;stroke:none"/>
  <path d="m 95.823289,74.918806 -4.32461,0 -4.32461,0 2.1623,3.74522 2.16231,3.74521 2.1623,-3.74521 2.16231,-3.74522 z" id="path2206" style="fill:#000000;fill-opacity:1;stroke:none"/>
  <path d="m 147.82458,96.651329 0,-4.32461 0,-4.32461 -3.74522,2.1623 -3.74521,2.16231 3.74521,2.1623 3.74522,2.16231 z" id="path2208" style="fill:#000000;fill-opacity:1;stroke:none"/>
  <path d="m 95.823292,114.25081 -4.32461,0 -4.32461,0 2.1623,3.74522 2.16231,3.74521 2.1623,-3.74521 2.16231,-3.74522 z" id="path2210" style="fill:#000000;fill-opacity:1;stroke:none"/>
  <path d="m 95.409267,151.51272 -4.324611,0 -4.32461,0 2.1623,3.74522 2.16231,3.74521 2.162301,-3.74521 2.16231,-3.74522 z" id="path2212" style="fill:#000000;fill-opacity:1;stroke:none"/>
  <path d="m 94.995248,187.11854 -4.324613,0 -4.32461,0 2.1623,3.74522 2.16231,3.74521 2.162303,-3.74521 2.16231,-3.74522 z" id="path2214" style="fill:#000000;fill-opacity:1;stroke:none"/>
  <path d="m 94.99524,230.17675 -4.32461,0 -4.32461,0 2.1623,3.74522 2.16231,3.74521 2.1623,-3.74521 2.16231,-3.74522 z" id="path2216" style="fill:#000000;fill-opacity:1;stroke:none"/>
  <path d="m 69.536531,202.68597 0,4.32462 0,4.3246 3.74522,-2.1623 3.74521,-2.1623 -3.74521,-2.16231 -3.74522,-2.16231 z" id="path2218" style="fill:#000000;fill-opacity:1;stroke:none"/>
  <path d="m 207.8196,202.68596 0,4.32461 0,4.32461 3.74522,-2.1623 3.74521,-2.16231 -3.74521,-2.16229 -3.74522,-2.16232 z" id="path2220" style="fill:#000000;fill-opacity:1;stroke:none"/>
  <path d="m 291.42245,202.44345 0,4.3246 0,4.32462 3.74523,-2.16231 3.7452,-2.16231 -3.7452,-2.1623 -3.74523,-2.1623 z" id="path2222" style="fill:#000000;fill-opacity:1;stroke:none"/>
  <path d="m 233.27831,296.42012 -4.32461,0 -4.32461,0 2.1623,3.74522 2.16231,3.74521 2.1623,-3.74521 2.16231,-3.74522 z" id="path2224" style="fill:#000000;fill-opacity:1;stroke:none"/>
  <path d="m 394.33254,230.59077 -4.32461,0 -4.32461,0 2.1623,3.74522 2.16231,3.74521 2.1623,-3.74521 2.16231,-3.74522 z" id="path2226" style="fill:#000000;fill-opacity:1;stroke:none"/>
  <path d="m 276.33652,314.63706 -4.32461,0 -4.32461,0 2.1623,3.74522 2.16231,3.74521 2.1623,-3.74521 2.16231,-3.74522 z" id="path2228" style="fill:#000000;fill-opacity:1;stroke:none"/>
  <path d="m 190.63413,315.4651 -4.32461,0 -4.32461,0 2.1623,3.74522 2.16231,3.74521 2.1623,-3.74521 2.16231,-3.74522 z" id="path2230" style="fill:#000000;fill-opacity:1;stroke:none"/>
  <path d="m 190.22012,357.28124 -4.32461,0 -4.32461,0 2.1623,3.74522 2.16231,3.74521 2.1623,-3.74521 2.16231,-3.74522 z" id="path2232" style="fill:#000000;fill-opacity:1;stroke:none"/>
  <path d="m 275.9225,356.4532 -4.32461,0 -4.32461,0 2.1623,3.74522 2.16231,3.74521 2.1623,-3.74521 2.16231,-3.74522 z" id="path2234" style="fill:#000000;fill-opacity:1;stroke:none"/>
  <path d="m 233.27831,376.32621 -4.32461,0 -4.32461,0 2.1623,3.74522 2.16231,3.74521 2.1623,-3.74521 2.16231,-3.74522 z" id="path2236" style="fill:#000000;fill-opacity:1;stroke:none"/>
  <path d="m 232.86429,421.45452 -4.32461,0 -4.32461,0 2.1623,3.74522 2.16231,3.74521 2.1623,-3.74521 2.16231,-3.74522 z" id="path2238" style="fill:#000000;fill-opacity:1;stroke:none"/>
  <path d="m 232.8643,452.92013 -4.32461,0 -4.32461,0 2.1623,3.74522 2.16231,3.74521 2.1623,-3.74521 2.16231,-3.74522 z" id="path2240" style="fill:#000000;fill-opacity:1;stroke:none"/>
  <path d="m 284.86559,442.77303 0,-4.32461 0,-4.32462 -3.74523,2.16231 -3.74521,2.16231 3.74521,2.16229 3.74523,2.16232 z" id="path2242" style="fill:#000000;fill-opacity:1;stroke:none"/>
  <path d="m 106.83649,509.0164 0,-4.32461 0,-4.3246 -3.74522,2.16229 -3.745214,2.16231 3.745214,2.1623 3.74522,2.16231 z" id="path2244" style="fill:#000000;fill-opacity:1;stroke:none"/>
  <path d="m 91.269058,555.18336 -4.32461,0 -4.32461,0 2.1623,3.74522 2.16231,3.74521 2.1623,-3.74521 2.16231,-3.74522 z" id="path2246" style="fill:#000000;fill-opacity:1;stroke:none"/>
  <path d="m 91.26905,602.38177 -4.32461,0 -4.32461,0 2.1623,3.74522 2.16231,3.74521 2.1623,-3.74521 2.16231,-3.74522 z" id="path2248" style="fill:#000000;fill-opacity:1;stroke:none"/>
  <path d="m 322.70688,528.27198 -4.32461,0 -4.32461,0 2.1623,3.74522 2.16231,3.74521 2.1623,-3.74521 2.16231,-3.74522 z" id="path2250" style="fill:#000000;fill-opacity:1;stroke:none"/>
  <path d="m 322.29286,493.08018 -4.32461,0 -4.32461,0 2.1623,3.74522 2.16231,3.74521 2.1623,-3.74521 2.16231,-3.74522 z" id="path2252" style="fill:#000000;fill-opacity:1;stroke:none"/>
  <path d="m 401.3709,475.27728 -4.32461,0 -4.32461,0 2.1623,3.74522 2.16231,3.74521 2.1623,-3.74521 2.16231,-3.74522 z" id="path2254" style="fill:#000000;fill-opacity:1;stroke:none"/>
  <path d="m 478.79286,492.66615 -4.32461,0 -4.32461,0 2.1623,3.74522 2.16231,3.74521 2.1623,-3.74521 2.16231,-3.74522 z" id="path2256" style="fill:#000000;fill-opacity:1;stroke:none"/>
  <path d="m 477.5508,527.85796 -4.32461,0 -4.32461,0 2.1623,3.74522 2.16231,3.74521 2.1623,-3.74521 2.16231,-3.74522 z" id="path2258" style="fill:#000000;fill-opacity:1;stroke:none"/>
  <path d="m 86.944445,582.52778 0.414021,26.91137 0,0.41403" id="path2260" style="fill:none;stroke:#000000;stroke-width:1px;stroke-linecap:butt;stroke-linejoin:miter;stroke-opacity:1"/>
  <path d="m 94.751656,617.30555 c 0.0038,4.3145 -3.49272,7.81411 -7.80722,7.81411 -4.3145,0 -7.81102,-3.49961 -7.80721,-7.81411 -0.0038,-4.31449 3.49271,-7.8141 7.80721,-7.8141 4.3145,0 7.81102,3.49961 7.80722,7.8141 l 0,0 z" id="path2837" style="fill:#000000;fill-rule:evenodd;stroke:#000000;stroke-width:1.12552536px;stroke-linecap:butt;stroke-linejoin:miter;stroke-opacity:1"/>
  <path d="m 93.981036,617.30555 c 0.0034,3.88867 -3.148,7.04288 -7.03667,7.04288 -3.88867,0 -7.0401,-3.15421 -7.03667,-7.04288 -0.0034,-3.88867 3.148,-7.04288 7.03667,-7.04288 3.88867,0 7.0401,3.15421 7.03667,7.04288 l 0,0 z" id="path2839" style="fill:#000000;fill-opacity:1;fill-rule:evenodd;stroke:#ffffff;stroke-width:1.01443994px;stroke-linecap:butt;stroke-linejoin:miter;stroke-opacity:1"/>
  <text x="53.806793" y="40.393162" id="text4627" xml:space="preserve" style="font-size:15.49483299px;font-style:normal;font-weight:normal;text-align:center;writing-mode:lr-tb;text-anchor:middle;opacity:0.9;fill:#000000;fill-opacity:1;stroke:none;font-family:Arial"><tspan x="53.806793" y="40.393162" id="tspan4629">Conducting</tspan></text>
  <text x="171.93694" y="48.691772" id="text6559" xml:space="preserve" style="font-size:11.62112522px;font-style:normal;font-weight:normal;fill:#000000;fill-opacity:1;stroke:none;font-family:Bitstream Vera Sans"><tspan x="171.93694" y="48.691772" id="tspan6563">[else]</tspan></text>
  <text x="240.44211" y="73.283379" id="text4971" xml:space="preserve" style="font-size:11.62112522px;font-style:normal;font-weight:normal;fill:#000000;fill-opacity:1;stroke:none;font-family:Bitstream Vera Sans"><tspan x="240.44211" y="73.283379" id="tspan4973">[inexperienced participants in the group]</tspan></text>
  <text x="105.7738" y="200.92551" id="text4975" xml:space="preserve" style="font-size:11.62112522px;font-style:normal;font-weight:normal;fill:#000000;fill-opacity:1;stroke:none;font-family:Bitstream Vera Sans"><tspan x="105.7738" y="200.92551" id="tspan4977">[idea(s) available]</tspan></text>
  <text x="96.991089" y="230.78674" id="text4979" xml:space="preserve" style="font-size:11.62112522px;font-style:normal;font-weight:normal;fill:#000000;fill-opacity:1;stroke:none;font-family:Bitstream Vera Sans"><tspan x="96.991089" y="230.78674" id="tspan4981">[no idea(s)]</tspan></text>
  <text x="241.02762" y="202.09654" id="text4983" xml:space="preserve" style="font-size:11.62112522px;font-style:normal;font-weight:normal;fill:#000000;fill-opacity:1;stroke:none;font-family:Bitstream Vera Sans"><tspan x="241.02762" y="202.09654" id="tspan4985">[more]</tspan></text>
  <path d="m 228.9361,219.65304 1e-5,84.31407 0.58551,0" id="path4987" style="fill:none;stroke:#000000;stroke-width:1px;stroke-linecap:butt;stroke-linejoin:miter;stroke-opacity:1"/>
  <text x="232.83041" y="239.56946" id="text4993" xml:space="preserve" style="font-size:11.62112522px;font-style:normal;font-weight:normal;fill:#000000;fill-opacity:1;stroke:none;font-family:Bitstream Vera Sans"><tspan x="232.83041" y="239.56946" id="tspan4995">[one]</tspan></text>
  <text x="144.41776" y="391.80316" id="text5001" xml:space="preserve" style="font-size:11.62112522px;font-style:normal;font-weight:normal;fill:#000000;fill-opacity:1;stroke:none;font-family:Bitstream Vera Sans"><tspan x="144.41776" y="391.80316" id="tspan5003">[no time left]</tspan></text>
  <text x="234.00145" y="420.49338" id="text5005" xml:space="preserve" style="font-size:11.62112522px;font-style:normal;font-weight:normal;fill:#000000;fill-opacity:1;stroke:none;font-family:Bitstream Vera Sans"><tspan x="234.00145" y="420.49338" id="tspan5007">[time left]</tspan></text>
  <text x="242.19865" y="466.74899" id="text5009" xml:space="preserve" style="font-size:11.62112522px;font-style:normal;font-weight:normal;fill:#000000;fill-opacity:1;stroke:none;font-family:Bitstream Vera Sans"><tspan x="242.19865" y="466.74899" id="tspan5011">[more]</tspan></text>
  <text x="174.86449" y="467.33453" id="text5013" xml:space="preserve" style="font-size:11.62112522px;font-style:normal;font-weight:normal;fill:#000000;fill-opacity:1;stroke:none;font-family:Bitstream Vera Sans"><tspan x="174.86449" y="467.33453" id="tspan5015">[one]</tspan></text>
  <text x="190.81824" y="500.12335" id="text5017" xml:space="preserve" style="font-size:11.62112522px;font-style:normal;font-weight:normal;fill:#000000;fill-opacity:1;stroke:none;font-family:Bitstream Vera Sans"><tspan x="190.81824" y="500.12335" id="tspan5019">[none]</tspan></text>
  <text x="90.55043" y="537.59625" id="text5021" xml:space="preserve" style="font-size:11.62112522px;font-style:normal;font-weight:normal;fill:#000000;fill-opacity:1;stroke:none;font-family:Bitstream Vera Sans"><tspan x="90.55043" y="537.59625" id="tspan5023">[no time left]</tspan></text>
  <text x="8.5784254" y="516.51776" id="text5025" xml:space="preserve" style="font-size:11.62112522px;font-style:normal;font-weight:normal;fill:#000000;fill-opacity:1;stroke:none;font-family:Bitstream Vera Sans"><tspan x="8.5784254" y="516.51776" id="tspan5027">[time left]</tspan></text>
  <text x="231.98285" y="95.671944" id="text6527" xml:space="preserve" style="font-size:11.62112522px;font-style:normal;font-weight:normal;text-align:center;writing-mode:lr-tb;text-anchor:middle;opacity:0.9;fill:#000000;fill-opacity:1;stroke:none;font-family:Arial"><tspan x="231.98285" y="95.671944" id="tspan6529" style="font-size:11.62112522px">Warm-up practice</tspan></text>
  <text x="90.873886" y="95.671944" id="text5031" xml:space="preserve" style="font-size:11.62112522px;font-style:normal;font-weight:normal;text-align:center;writing-mode:lr-tb;text-anchor:middle;opacity:0.9;fill:#000000;fill-opacity:1;stroke:none;font-family:Arial"><tspan x="90.873886" y="95.671944" id="tspan5033" style="font-size:11.62112522px">Explain problem</tspan></text>
  <text x="90.873886" y="134.31589" id="text5035" xml:space="preserve" style="font-size:11.62112522px;font-style:normal;font-weight:normal;text-align:center;writing-mode:lr-tb;text-anchor:middle;opacity:0.9;fill:#000000;fill-opacity:1;stroke:none;font-family:Arial"><tspan x="90.873886" y="134.31589" id="tspan5037" style="font-size:11.62112522px">Present rules</tspan></text>
  <text x="90.873886" y="171.7888" id="text5039" xml:space="preserve" style="font-size:11.62112522px;font-style:normal;font-weight:normal;text-align:center;writing-mode:lr-tb;text-anchor:middle;opacity:0.9;fill:#000000;fill-opacity:1;stroke:none;font-family:Arial"><tspan x="90.873886" y="171.7888" id="tspan5041" style="font-size:11.62112522px">Call for ideas</tspan></text>
  <text x="90.873886" y="250.83325" id="text5043" xml:space="preserve" style="font-size:11.62112522px;font-style:normal;font-weight:normal;text-align:center;writing-mode:lr-tb;text-anchor:middle;opacity:0.9;fill:#000000;fill-opacity:1;stroke:none;font-family:Arial"><tspan x="90.873886" y="250.83325" id="tspan5045" style="font-size:11.62112522px">Suggest lead</tspan></text>
  <text x="390.65723" y="210.43275" id="text5047" xml:space="preserve" style="font-size:11.62112522px;font-style:normal;font-weight:normal;text-align:center;writing-mode:lr-tb;text-anchor:middle;opacity:0.9;fill:#000000;fill-opacity:1;stroke:none;font-family:Arial"><tspan x="390.65723" y="210.43275" id="tspan5049" style="font-size:11.62112522px">Participants write down their idea</tspan></text>
  <text x="390.07172" y="250.83325" id="text5051" xml:space="preserve" style="font-size:11.62112522px;font-style:normal;font-weight:normal;text-align:center;writing-mode:lr-tb;text-anchor:middle;opacity:0.9;fill:#000000;fill-opacity:1;stroke:none;font-family:Arial"><tspan x="390.07172" y="250.83325" id="tspan5053" style="font-size:11.62112522px">Everybody presents their idea in turn</tspan></text>
  <text x="271.79782" y="335.73282" id="text5055" xml:space="preserve" style="font-size:11.62112522px;font-style:normal;font-weight:normal;text-align:center;writing-mode:lr-tb;text-anchor:middle;opacity:0.9;fill:#000000;fill-opacity:1;stroke:none;font-family:Arial"><tspan x="271.79782" y="335.73282" id="tspan5057" style="font-size:11.62112522px">Record idea</tspan></text>
  <text x="185.7272" y="336.31833" id="text5059" xml:space="preserve" style="font-size:11.62112522px;font-style:normal;font-weight:normal;text-align:center;writing-mode:lr-tb;text-anchor:middle;opacity:0.9;fill:#000000;fill-opacity:1;stroke:none;font-family:Arial"><tspan x="185.7272" y="336.31833" id="tspan5061" style="font-size:11.62112522px">Present idea</tspan></text>
  <text x="229.05527" y="442.29642" id="text5063" xml:space="preserve" style="font-size:11.62112522px;font-style:normal;font-weight:normal;text-align:center;writing-mode:lr-tb;text-anchor:middle;opacity:0.9;fill:#000000;fill-opacity:1;stroke:none;font-family:Arial"><tspan x="229.05527" y="442.29642" id="tspan5065" style="font-size:11.62112522px">Elaborate on idea</tspan></text>
  <text x="319.81" y="514.3147" id="text5067" xml:space="preserve" style="font-size:11.62112522px;font-style:normal;font-weight:normal;text-align:center;writing-mode:lr-tb;text-anchor:middle;opacity:0.9;fill:#000000;fill-opacity:1;stroke:none;font-family:Arial"><tspan x="319.81" y="514.3147" id="tspan5069" style="font-size:11.62112522px">Select most associated idea</tspan></text>
  <text x="473.21475" y="513.72919" id="text5071" xml:space="preserve" style="font-size:11.62112522px;font-style:normal;font-weight:normal;text-align:center;writing-mode:lr-tb;text-anchor:middle;opacity:0.9;fill:#000000;fill-opacity:1;stroke:none;font-family:Arial"><tspan x="473.21475" y="513.72919" id="tspan5073" style="font-size:11.62112522px">Others write down their idea</tspan></text>
  <text x="86.189774" y="575.7937" id="text5075" xml:space="preserve" style="font-size:11.62112522px;font-style:normal;font-weight:normal;text-align:center;writing-mode:lr-tb;text-anchor:middle;opacity:0.9;fill:#000000;fill-opacity:1;stroke:none;font-family:Arial"><tspan x="86.189774" y="575.7937" id="tspan5077" style="font-size:11.62112522px">Wrap up</tspan></text>
  <path d="m 215.69753,473.1361 -90.96809,-0.23445 0.23445,-186.3908 76.78363,0.11723 0.11724,9.72983" id="path3281" style="fill:none;stroke:#000000;stroke-width:1px;stroke-linecap:butt;stroke-linejoin:miter;stroke-opacity:1"/>
  <path d="m 262.88007,296.36395 -4.32461,0 -4.32461,0 2.1623,3.74522 2.16231,3.74521 2.1623,-3.74521 2.16231,-3.74522 z" id="path2224-4" style="fill:#000000;fill-opacity:1;stroke:none"/>
  <path d="m 205.486,296.36395 -4.32461,0 -4.32461,0 2.1623,3.74522 2.16231,3.74521 2.1623,-3.74521 2.16231,-3.74522 z" id="path2224-0" style="fill:#000000;fill-opacity:1;stroke:none"/>
  <path d="m 26.585723,165.57956 0,4.32462 0,4.3246 3.74522,-2.1623 3.74521,-2.1623 -3.74521,-2.16231 -3.74522,-2.16231 z" id="path2218-1" style="fill:#000000;fill-opacity:1;stroke:none"/>
</svg>