<?xml version="1.0" encoding="UTF-8" standalone="no"?>
<!-- Created with Inkscape (http://www.inkscape.org/) -->
<svg xmlns:svg="http://www.w3.org/2000/svg" xmlns="http://www.w3.org/2000/svg" version="1.1" width="612.61139" height="190.76254" id="svg3763">
  <defs id="defs3765"/>
  <g transform="translate(169.87852,-1.5689974)" id="layer1">
    <g id="g3834">
      <g transform="matrix(0.90510648,0,0,0.90510648,-121.22263,-509.57137)" id="layer1-1" style="fill:#29779d;fill-opacity:1">
        <g transform="matrix(10.461388,0,0,10.461388,-3494.9451,-6502.5944)" id="g7938" style="fill:#29779d;fill-opacity:1">
          <path d="m 339.93944,680.38297 -2.9249,7.82704 6.20079,0 -3.27589,-7.82704 z m 11.81659,15.32648 -5.38181,0 -1.63795,-3.98956 -9.00869,0 -1.52094,3.98956 -5.26482,0 8.07272,-20.14671 5.8498,0 8.89169,20.14671" id="path6949" style="fill:#29779d;fill-opacity:1;fill-rule:nonzero;stroke:none"/>
          <path d="m 357.95682,683.83436 2.69091,0 c 1.40395,0 2.69091,-0.58498 2.69091,-2.30482 0,-1.49755 -0.93597,-2.26973 -2.80791,-2.26973 l -2.57391,0 0,4.57455 z m 3.97787,-8.27162 c 4.09486,0 6.55177,2.7845 6.55177,5.7913 0,2.21123 -1.05296,3.87257 -3.39288,4.93723 1.98893,1.02957 2.6909,3.50988 5.49881,9.41818 l -5.49881,0 c -2.22293,-4.31715 -2.9249,-8.17802 -5.73281,-8.17802 l -1.40395,0 0,8.17802 -5.03083,0 0,-20.14671 9.0087,0" id="path6951" style="fill:#29779d;fill-opacity:1;fill-rule:nonzero;stroke:none"/>
          <path d="m 389.31175,675.56274 4.32885,0 0,20.14671 -5.03083,0 0,-12.58877 -5.38181,6.32948 -0.81898,0 -5.38181,-6.32948 0,12.58877 -5.03083,0 0,-20.14671 4.32885,0 6.55178,7.47604 6.43478,-7.47604" id="path6953" style="fill:#29779d;fill-opacity:1;fill-rule:nonzero;stroke:none"/>
        </g>
      </g>
    </g>
  </g>
</svg>