<?xml version="1.0" encoding="UTF-8" standalone="no"?>
<svg
   xmlns:dc="http://purl.org/dc/elements/1.1/"
   xmlns:cc="http://creativecommons.org/ns#"
   xmlns:rdf="http://www.w3.org/1999/02/22-rdf-syntax-ns#"
   xmlns:svg="http://www.w3.org/2000/svg"
   xmlns="http://www.w3.org/2000/svg"
   xmlns:sodipodi="http://sodipodi.sourceforge.net/DTD/sodipodi-0.dtd"
   xmlns:inkscape="http://www.inkscape.org/namespaces/inkscape"
   height="591"
   width="592"
   version="1.1"
   id="svg186"
   sodipodi:docname="beastie.svg"
   inkscape:version="1.0.2 (e86c870879, 2021-01-15, custom)">
  <metadata
     id="metadata192">
    <rdf:RDF>
      <cc:Work
         rdf:about="">
        <dc:format>image/svg+xml</dc:format>
        <dc:type
           rdf:resource="http://purl.org/dc/dcmitype/StillImage" />
        <dc:title />
      </cc:Work>
    </rdf:RDF>
  </metadata>
  <defs
     id="defs190" />
  <sodipodi:namedview
     pagecolor="#ffffff"
     bordercolor="#666666"
     borderopacity="1"
     objecttolerance="10"
     gridtolerance="10"
     guidetolerance="10"
     inkscape:pageopacity="0"
     inkscape:pageshadow="2"
     inkscape:window-width="1361"
     inkscape:window-height="1205"
     id="namedview188"
     showgrid="false"
     inkscape:zoom="0.95454545"
     inkscape:cx="408"
     inkscape:cy="528"
     inkscape:window-x="26"
     inkscape:window-y="23"
     inkscape:window-maximized="0"
     inkscape:current-layer="svg186"
     inkscape:document-rotation="0" />
  <path
     d="m 364.02715,188.96012 c 41.626,-21.12 62.321,-48.97399 56.8,-81.59999 -1.614,-9.547005 -15.494,-36.080005 -40.6,-52.000005 -10.8,-4.2 -9.467,2.8 -7.4,6.4 5.586,9.76 10,30.8 8.6,42.600005 -8.427,8.453 -24.2,10.6 -34.4,11 -3.174,-9.667 -29.987,-29.400005 -50.8,-33.000005 -20.68,-3.587 -49,-0.32 -62.4,8.28 -4.4,-5 -8.427,-9.854 -7.934,-15.694 1.214,-14.293 22.734,-23.386 25.56,-34.6 -1.986,-10.306 -28.653,8.547 -39.146,16.614 -29.334,22.546 -52.214,46.985995 -30.547,84.653005 -0.733,3.147 -5.72,17.07999 -5.76,23.4 -0.04,5.213 -2.227,10.067 -5.12,14.747 -3.933,6.36 -9.32,10.4 -12.573,14.746 -8.84,11.774 -4.16,35.6 8.84,47.18699 9.466,8.44 18.746,9.573 29.96,16 5.746,6.667 19.573,14.76 29.813,18.62701 1.133,1.6 2.28,3.213 3.413,4.81299 0.707,17.17201 -13.08,26.693 -20.813,18.80001 -5.027,-5.21301 -12.373,-4.693 -16.467,-2.76 -0.6,-0.787 -0.96,-1.507 -1.44,-2.32 3.04,-2.813 5.427,-7.76 5.014,-12.093 -0.6,-6.13401 -4.014,-13.32 -10.2,-15.4 -12.214,-3.174 -22.4,-0.6 -27,6.2 -3.187,-3.347 -7.6,-7.2 -11.4,-10.8 1.333,-4.80001 3.973,-9.12001 4,-14.4 0.333,-8.774 -2.8,-13.8 -7.2,-20.6 -6.307,-9.74701 -28.36,-26.74701 -32.2,-23.6 0.8,5 6.24,9.28 8.4,14.4 1.933,4.586 2.8,7.2 4,14.39999 3.24,1.24001 5.466,-3.73399 8.4,-5.6 3.413,5.266 7.253,10.733 7.733,17.28 0.293,4.02601 -2.253,8.226 -2.933,10.12001 -5.334,-1.32 -15,-7.2 -24,-11.60001 -2.334,-1.747 2.826,-5.17399 4.6,-6.8 -8.8,-2.934 -18.52,-5.454 -27.773001,-8.187 2.853,5.773 10.773001,23.587 13.373001,26.387 1.2,-3.4 1.613,-5.88 4.4,-5.8 4.666,4.666 11.533,11.733 16.4,16.6 -1.427,7.253 -26.627001,9.64 -36.200001,5 0.12,-3.454 5,-5.6 5.8,-9.8 -2.534,0.24 -10.28,0.386 -15.4,0 -5.094,-0.387 -8.4,-2 -15.147,-2.32 1.947,10.72 33.573,35.813 55.547001,27.12 4.413,-0.254 16.36,-10.84 16.4,-10.8 5.333,3.6 12.133,11.266 17.6,16 -11.147,10.88 -12.347,30.666 9.2,36.8 -0.8,9.612 11.4,12.8 22.8,9.6 -1,4.80001 6.04,8.88 10.4,9 -2.4,9.2 3.88,12.813 8.2,18 -10.4,17.2 -6.2,36 4.6,49 4.053,4.88 7.706,9.373 11.573,14.053 -2.613,-0.13299 -9.307,-5.427 -10.933,-3.107 -0.8,1.747 7.533,15.894 2.92,21.427 -8.094,9.707 -25.174,9.493 -37.76,10.627 -29.547,2.626 -78.014001,6.34501 -80.774001,22.44 -0.906,5.28 1.987,9.798 4.787,12.798 10.693001,11.468 46.187001,8.882 58.067001,7.962 1.146,4.586 3.866,7.92 9.44,10.30601 30.146,12 78.08,6.014 101.213,4.294 9.52,-0.707 28.52,-4.13401 42.067,-8.8 10.813,-3.747 29.2,-9.8 30.8,-15.2 1,-6 -2.76,-10.895 -5,-16 -5,-11.4 -11.4,-26.2 -11.4,-35 4.546,7.293 32.253,24.30599 53.4,28.39999 15.694,3.026 44.506,8.573 89.4,19.12 8.48,2.746 16.28,6.08001 22.2,12.08001 2.106,2.133 5.346,5.21299 4.2,8 -6.212,6.186 -22.6,10.4 -35.2,11.2 -3,-8 -6,-21.6 -13.814,-18.255 -1.48,16.281 -43.386,27.255 -63.186,36.655 0.933,6.64 43.893,5.8 63.2,4 13.2,-0.774 37.2,-0.2 61.4,-3.8 -2.854,-4.2 -5.787,-6.534 -7.734,-9.8 29.627,-5.467 27.8,-39.894 -4.266,-48.6 -8.08,-2.827 -39.027,-11.947 -54.8,-16.2 -32.6,-8.8 -63.4,-13.387 -85.2,-35 -15.254,-15.134 -19.8,-39.2 -25,-59.4 17.2,-20.6 3.08,-52.134 -2,-67 -2.214,-8.067 -7.427,-14.734 -5.8,-22.2 1.946,-8.987 10.48,-15.214 17.4,-21.4 11.4,-10.2 33,-26.4 25.8,-67.6"
     id="path122" />
  <path
     d="m 231.80015,90.080125 c -4.2,-5.307 -7.32,-8.934 -6.96,-15.44 1.733,-15.28 28.04,-27.267 24.773,-35.187 -2.36,-5.72 -25.2,9.707 -35.386,17.613 -28.72,22.307 -52.88,46.706995 -31.507,83.159995 4.413,-14.346 30.187,-53.305995 49.08,-50.145995"
     fill="#cc0000"
     id="path124" />
  <path
     d="m 231.80015,90.080125 c -4.2,-5.307 -7.32,-8.934 -6.96,-15.44 1.733,-15.28 28.04,-27.267 24.773,-35.187 -2.36,-5.72 -25.2,9.707 -35.386,17.613 -28.72,22.307 -52.88,46.706995 -31.507,83.159995 4.413,-14.346 30.187,-53.305995 49.08,-50.145995 z"
     fill="none"
     stroke="#000000"
     stroke-width="0.66665"
     id="path126" />
  <path
     d="m 249.38715,390.88013 c -8.227,0.466 -16.467,-2.04001 -22.8,-5.12 5.186,-0.334 8.373,-1.334 10.053,-2.387 -6.107,1.747 -9.96,1.44 -12.747,0.81299 -9.36,-1.45299 -17.946,-13.666 -18.093,-19.07999 0,-1.77301 3.2,1.66699 13.507,-1.373 -4.054,1.01299 -9.667,0.79899 -13.787,-1.33301 -4.133,-3.41399 -10.56,-10.17399 -7.853,-16.095 23,-4.892 25.026,-26.879 18.933,-30.773 2.707,-7.586 21.72,-7.894 31.627,-3.212 12.506,5.92 20.626,17.253 31.066,18.44 8.68,1 14.162,-2.64 14.574,-3.147 0.254,-0.32 1,-2.493 -0.84,-1.933 -2.774,0.852 -4.227,4.226 -14.787,3.133 -9.2,-0.96 -19.573,-14.76 -29.907,-18.04 -8.853,-2.933 -15.28,-3.747 -22.693,-2.093 -3.987,0.88 -8.36,2.973 -10.56,6.185 1.693,-3.56 0.813,-10.799 -2.027,-10.825 7.107,1.346 18.974,-4.147 18.16,-23.64 8.894,5.706 29.867,2.426 40.414,-2.227 0.48,-0.773 -35.654,9.933 -43.254,-3.253 -12.026,-4.8 -24.413,-11.974 -30.16,-18.654 -3.906,-4.053 -17.16,-5.89299 -26.826,-13.266 -12.667,-7.214 -21.307,-34.254 -12.027,-47.56 3.107,-4.44 8.853,-8.44 12.787,-14.8 2.893,-4.667 5,-9.254 5.36,-13.307 1.173,-13.08 6.106,-28.2 15.853,-43.96 13.267,-21.013 37.827,-42.906995 43.853,-24.199995 0.08,-2.413 -0.813,-8.12 -1.693,-6.987 13.413,-8.6 40.627,-11.773 62.36,-7.666 19.12,3.626 44.813,22.945995 48.241,32.172995 10.199,-0.4 28.452,-3.04 36.866,-11.507 1.16,-12.279995 -2.72,-32.999995 -7.547,-41.105995 -2.6,-4.374 -5.64,-11.827 6.2,-5.894 19.44,12.347 36.093,39 37.708,48.533995 5.519,32.626 -15.188,59.866 -56.815,80.986 7.2,41.2 -13.293,56.08 -24.693,66.28001 -6.92,6.19999 -14.907,12.827 -18.093,21.307 -2.534,9.973 2.866,18.747 5.92,27.733 3.04,8.96 18.893,41.96 1.693,62.56 -20.8,13.027 -33.4,12.734 -51.493,14.76 -9.294,7.48 -18.134,10.067 -26.48,10.534 m -11.56,-118.08 c 1.746,-0.08 3.426,-0.374 4.986,-0.907 10.867,-2.453 19.747,-15.813 31.2,-18.44 7.36,-3.36 10.587,0.96 15.6,-0.427 1.107,-0.306 2.894,-0.533 3,-1.68 0.12,-1.053 -1.4,-1.76 -2.4,-2.09301 -5.72,-1.13299 -11.786,-0.027 -17,1.253 -12.16,3.267 -19.2,17.054 -30.6,19.08 -22.6,4.04 -45.653,-17.56 -58.213,-35.88 -1.32,-1.773 -6.72,-2.706 -7.387,-0.6 -0.8,2.587 5.52,1.667 7.2,3.774 4.2,5.28 10.6,12.68 15.4,17.28 10.054,9.626 25.96,19.21301 38.214,18.64 m -13.48,-40.934 c 2.04,0.054 4.173,-0.333 5.546,-1.69299 2.32,-2.293 3.147,-6.507 2.04,-9.587 -0.466,-1.32 -2.573,-3.226 -3.32,-2.626 -0.773,0.8 1.147,2.973 1.427,4.44 0.467,2.466 0.16,4.253 -1.64,6 -1.787,1.746 -3.4,1.24 -5.853,0.813 -2.627,-0.44 -4.667,-3.507 -7.227,-3.947 -6.2,-2 -14.8,3.467 -21.253,0.547 -6.64,-2.907 -11.48,-8.267 -11.44,-15.533 0.453,-6.44 4.986,-9.387 10.626,-10.894 4.96,-1.093 11.947,-0.506 16.387,3.214 1.04,1.826 2.613,0.653 1.2,-1.4 -2.92,-4.254 -13.853,-5.64 -18.027,-4.36 -7.08,1.96 -12.613,7.6 -12.92,13.92 -0.36,7.626 6.974,15.066 13.934,18.213 6.386,2.24 13.666,-2.56 20.986,-1.413 2.827,0.706 4.707,3.69299 7.534,4.12 0.64,0.106 1.32,0.173 2,0.18599 m 59.08,-15.506 c -3.214,-3.15999 -13.467,-3.31999 -16.8,-3.19999 6.8,-8.2 12.813,-21.067 14.8,-30.4 4.666,-22.06701 1.48,-55.467 -17.4,-63.6 -8.814,-3.8 -22.36,7.04 -27.4,16.6 -11.867,19.75999 -29.2,49.52 -16.2,69.59999 5.773,8.933 18.573,10.97301 28.8,10.6 10.8,-0.4 27.106,-3.934 34.2,0.4 m -86.48,-22.81399 c 2.6,-0.12 5.306,-1.29301 7.946,-3.933 7.454,-7.46701 10.894,-23.56 14.187,-33.88 3.76,-11.76 9.093,-23.093 13.253,-34.44 1.107,-3.027 4.04,-9.84 -0.573,-9.84 -12.96,0 -17.16,5.04 -23.653,10.787 -7.094,6.266 -12.72,15.08 -17.974,24.026 -5.52,9.4 -10.933,21.494 -9.093,31.427 1.32,7.107 8.133,16.213 15.907,15.853 m 90.266,-67.146 c 10.974,-17.974 -21.386,-37.280005 -33.693,-19.867 7.053,-10.253005 38.747,-0.027 33.693,19.867"
     fill="#cc0000"
     id="path128" />
  <path
     d="m 249.38715,390.88013 c -8.227,0.466 -16.467,-2.04001 -22.8,-5.12 5.186,-0.334 8.373,-1.334 10.053,-2.387 -6.107,1.747 -9.96,1.44 -12.747,0.81299 -9.36,-1.45299 -17.946,-13.666 -18.093,-19.07999 0,-1.77301 3.2,1.66699 13.507,-1.373 -4.054,1.01299 -9.667,0.79899 -13.787,-1.33301 -4.133,-3.41399 -10.56,-10.17399 -7.853,-16.095 23,-4.892 25.026,-26.879 18.933,-30.773 2.707,-7.586 21.72,-7.894 31.627,-3.212 12.506,5.92 20.626,17.253 31.066,18.44 8.68,1 14.162,-2.64 14.574,-3.147 0.254,-0.32 1,-2.493 -0.84,-1.933 -2.774,0.852 -4.227,4.226 -14.787,3.133 -9.2,-0.96 -19.573,-14.76 -29.907,-18.04 -8.853,-2.933 -15.28,-3.747 -22.693,-2.093 -3.987,0.88 -8.36,2.973 -10.56,6.185 1.693,-3.56 0.813,-10.799 -2.027,-10.825 7.107,1.346 18.974,-4.147 18.16,-23.64 8.894,5.706 29.867,2.426 40.414,-2.227 0.48,-0.773 -35.654,9.933 -43.254,-3.253 -12.026,-4.8 -24.413,-11.974 -30.16,-18.654 -3.906,-4.053 -17.16,-5.89299 -26.826,-13.266 -12.667,-7.214 -21.307,-34.254 -12.027,-47.56 3.107,-4.44 8.853,-8.44 12.787,-14.8 2.893,-4.667 5,-9.254 5.36,-13.307 1.173,-13.08 6.106,-28.2 15.853,-43.96 13.267,-21.013 37.827,-42.906995 43.853,-24.199995 0.08,-2.413 -0.813,-8.12 -1.693,-6.987 13.413,-8.6 40.627,-11.773 62.36,-7.666 19.12,3.626 44.813,22.945995 48.241,32.172995 10.199,-0.4 28.452,-3.04 36.866,-11.507 1.16,-12.279995 -2.72,-32.999995 -7.547,-41.105995 -2.6,-4.374 -5.64,-11.827 6.2,-5.894 19.44,12.347 36.093,39 37.708,48.533995 5.519,32.626 -15.188,59.866 -56.815,80.986 7.2,41.2 -13.293,56.08 -24.693,66.28001 -6.92,6.19999 -14.907,12.827 -18.093,21.307 -2.534,9.973 2.866,18.747 5.92,27.733 3.04,8.96 18.893,41.96 1.693,62.56 -20.8,13.027 -33.4,12.734 -51.493,14.76 -9.294,7.48 -18.134,10.067 -26.48,10.534 m -11.56,-118.08 c 1.746,-0.08 3.426,-0.374 4.986,-0.907 10.867,-2.453 19.747,-15.813 31.2,-18.44 7.36,-3.36 10.587,0.96 15.6,-0.427 1.107,-0.306 2.894,-0.533 3,-1.68 0.12,-1.053 -1.4,-1.76 -2.4,-2.09301 -5.72,-1.13299 -11.786,-0.027 -17,1.253 -12.16,3.267 -19.2,17.054 -30.6,19.08 -22.6,4.04 -45.653,-17.56 -58.213,-35.88 -1.32,-1.773 -6.72,-2.706 -7.387,-0.6 -0.8,2.587 5.52,1.667 7.2,3.774 4.2,5.28 10.6,12.68 15.4,17.28 10.054,9.626 25.96,19.21301 38.214,18.64 m -13.48,-40.934 c 2.04,0.054 4.173,-0.333 5.546,-1.69299 2.32,-2.293 3.147,-6.507 2.04,-9.587 -0.466,-1.32 -2.573,-3.226 -3.32,-2.626 -0.773,0.8 1.147,2.973 1.427,4.44 0.467,2.466 0.16,4.253 -1.64,6 -1.787,1.746 -3.4,1.24 -5.853,0.813 -2.627,-0.44 -4.667,-3.507 -7.227,-3.947 -6.2,-2 -14.8,3.467 -21.253,0.547 -6.64,-2.907 -11.48,-8.267 -11.44,-15.533 0.453,-6.44 4.986,-9.387 10.626,-10.894 4.96,-1.093 11.947,-0.506 16.387,3.214 1.04,1.826 2.613,0.653 1.2,-1.4 -2.92,-4.254 -13.853,-5.64 -18.027,-4.36 -7.08,1.96 -12.613,7.6 -12.92,13.92 -0.36,7.626 6.974,15.066 13.934,18.213 6.386,2.24 13.666,-2.56 20.986,-1.413 2.827,0.706 4.707,3.69299 7.534,4.12 0.64,0.106 1.32,0.173 2,0.18599 m 59.08,-15.506 c -3.214,-3.15999 -13.467,-3.31999 -16.8,-3.19999 6.8,-8.2 12.813,-21.067 14.8,-30.4 4.666,-22.06701 1.48,-55.467 -17.4,-63.6 -8.814,-3.8 -22.36,7.04 -27.4,16.6 -11.867,19.75999 -29.2,49.52 -16.2,69.59999 5.773,8.933 18.573,10.97301 28.8,10.6 10.8,-0.4 27.106,-3.934 34.2,0.4 m -86.48,-22.81399 c 2.6,-0.12 5.306,-1.29301 7.946,-3.933 7.454,-7.46701 10.894,-23.56 14.187,-33.88 3.76,-11.76 9.093,-23.093 13.253,-34.44 1.107,-3.027 4.04,-9.84 -0.573,-9.84 -12.96,0 -17.16,5.04 -23.653,10.787 -7.094,6.266 -12.72,15.08 -17.974,24.026 -5.52,9.4 -10.933,21.494 -9.093,31.427 1.32,7.107 8.133,16.213 15.907,15.853 m 90.266,-67.146 c 10.974,-17.974 -21.386,-37.280005 -33.693,-19.867 7.053,-10.253005 38.747,-0.027 33.693,19.867 z"
     fill="none"
     stroke="#000000"
     stroke-width="0.66665"
     id="path130" />
  <path
     d="m 204.52015,365.52012 c -8.88,17.80001 -3.973,34.186 5.44,46.933 3.76,5.10701 8.013,9.2 11.867,13.89301 2.2,-3.573 15.36,-1.693 18.226,7.654 0.227,0.74599 1.014,-5.08 3.747,-3.74701 3.533,1.707 5.293,3.4 7.053,6.17301 2.574,-2.866 10.614,-9.34601 16.76,-8.053 4.427,0.34699 8.974,1.83999 12.787,5.187 0.613,-2.147 0.16,-1.92201 0.88,-1.774 11.307,2.44 25.92,2.027 33.735,-1.21301 6.398,-2.63999 8.758,5.53301 8.492,5.41301 4.293,8.04 32.12,25.41399 53.306,30 15.627,3.374 44.12,8.334 89.014,18.879 8.48,2.76099 17.64,6.241 23.893,12.735 2.427,2.52 5.973,6.24 4.587,9.453 -6.214,6.2 -24.334,10.787 -36.934,11.585 -3,-8 -5.293,-20.465 -12.44,-18.598 -1.093,16.413 -44.506,28.52 -61.826,36.066 2.574,5.426 40.933,4 60.533,2.574 13.2,-0.774 36.053,0.16 60.253,-3.44 -3.013,-3.427 -6.36,-6.467 -8.306,-9.73401 30.546,-4.293 30.173,-37.493 -3.427,-47.36 -8.08,-2.826 -38.893,-11.48 -54.667,-15.746 -32.6,-8.8 -63.053,-13.46699 -84.866,-34.92 -15.4,-15.147 -20.454,-39.32 -25.654,-59.52 -10.333,6.012 -16.852,8.986 -32.306,11.94601 6.706,6.187 21.413,15.507 24.76,20.68 8.133,12.56 -2.6,16.719 -13.027,10.44 -4.267,-2.573 -27.333,-20.933 -33.48,-25.893 -18.68,11.893 -36.933,8.213 -47.8,1.467 -0.267,-0.467 -1.213,-0.667 -2.013,-1 -9.667,-1.32 -18.107,-13.2 -18.587,-20.08"
     fill="#cc0000"
     id="path132" />
  <path
     d="m 204.52015,365.52012 c -8.88,17.80001 -3.973,34.186 5.44,46.933 3.76,5.10701 8.013,9.2 11.867,13.89301 2.2,-3.573 15.36,-1.693 18.226,7.654 0.227,0.74599 1.014,-5.08 3.747,-3.74701 3.533,1.707 5.293,3.4 7.053,6.17301 2.574,-2.866 10.614,-9.34601 16.76,-8.053 4.427,0.34699 8.974,1.83999 12.787,5.187 0.613,-2.147 0.16,-1.92201 0.88,-1.774 11.307,2.44 25.92,2.027 33.735,-1.21301 6.398,-2.63999 8.758,5.53301 8.492,5.41301 4.293,8.04 32.12,25.41399 53.306,30 15.627,3.374 44.12,8.334 89.014,18.879 8.48,2.76099 17.64,6.241 23.893,12.735 2.427,2.52 5.973,6.24 4.587,9.453 -6.214,6.2 -24.334,10.787 -36.934,11.585 -3,-8 -5.293,-20.465 -12.44,-18.598 -1.093,16.413 -44.506,28.52 -61.826,36.066 2.574,5.426 40.933,4 60.533,2.574 13.2,-0.774 36.053,0.16 60.253,-3.44 -3.013,-3.427 -6.36,-6.467 -8.306,-9.73401 30.546,-4.293 30.173,-37.493 -3.427,-47.36 -8.08,-2.826 -38.893,-11.48 -54.667,-15.746 -32.6,-8.8 -63.053,-13.46699 -84.866,-34.92 -15.4,-15.147 -20.454,-39.32 -25.654,-59.52 -10.333,6.012 -16.852,8.986 -32.306,11.94601 6.706,6.187 21.413,15.507 24.76,20.68 8.133,12.56 -2.6,16.719 -13.027,10.44 -4.267,-2.573 -27.333,-20.933 -33.48,-25.893 -18.68,11.893 -36.933,8.213 -47.8,1.467 -0.267,-0.467 -1.213,-0.667 -2.013,-1 -9.667,-1.32 -18.107,-13.2 -18.587,-20.08001 z"
     fill="none"
     stroke="#000000"
     stroke-width="0.66665"
     id="path134" />
  <path
     d="m 186.20015,183.94612 c -6.147,-5.186 -3.373,-24.04 5.36,-36.546 5.32,-7.627 7.933,-14.067 14.827,-20.70699 5.413,-5.213 10.906,-13.107 24.026,-14.053 4.267,0 -0.253,8.386 -1.28,11.24 -3.853,10.75999 -8.28,20.293 -11.76,31.44 -1.8,5.773 0.054,0.666 -2.04,7.413 -0.626,-6.013 -5.053,-10.053 -10.253,-10.693 h -0.387 l -0.386,0.82599 c -2,4.387 -4.867,11.2 -5.04,12.36001 -0.467,-2.146 -0.2,-7.066 0.733,-10.906 l 0.573,-1.90701 -0.866,0.18701 c -7.214,2.386 -14.08,11.693 -13.507,31.346"
     fill="#ffffff"
     id="path136" />
  <path
     d="m 186.20015,183.94612 c -6.147,-5.186 -3.373,-24.04 5.36,-36.546 5.32,-7.627 7.933,-14.067 14.827,-20.70699 5.413,-5.213 10.906,-13.107 24.026,-14.053 4.267,0 -0.253,8.386 -1.28,11.24 -3.853,10.75999 -8.28,20.293 -11.76,31.44 -1.8,5.773 0.054,0.666 -2.04,7.413 -0.626,-6.013 -5.053,-10.053 -10.253,-10.693 h -0.387 l -0.386,0.82599 c -2,4.387 -4.867,11.2 -5.04,12.36001 -0.467,-2.146 -0.2,-7.066 0.733,-10.906 l 0.573,-1.90701 -0.866,0.18701 c -7.214,2.386 -14.08,11.693 -13.507,31.34599 z"
     fill="none"
     stroke="#000000"
     stroke-width="0.66665"
     id="path138" />
  <path
     d="m 248.42715,214.36012 c -1.654,0.013 -3.4,-0.067 -5.24,-0.26699 -4.867,-0.50701 -3.214,-0.147 -7.414,-1.78701 19.907,-19.013 17.427,-43.253 6.36,-50.426 l -2.866,-1.347 -0.574,0.653 c -2.066,2.747 -4.68,8.6 -5.426,12.92 -0.987,-3.986 -0.027,-10.586 1.666,-14.013 l 0.174,-0.28 -1.694,0.08 c -3.24,0.4 -6.773,1.933 -10.413,4.88 4.227,-8.347 9.707,-20.187 15.333,-27.853 4.854,-8.454 15.28,-18.4 23.774,-15.854 19.026,5.707 21.093,39.72 16.866,61.347 -1.653,8.413 -5.76,31.667 -30.546,31.947"
     fill="#ffffff"
     id="path140" />
  <path
     d="m 248.42715,214.36012 c -1.654,0.013 -3.4,-0.067 -5.24,-0.26699 -4.867,-0.50701 -3.214,-0.147 -7.414,-1.78701 19.907,-19.013 17.427,-43.253 6.36,-50.426 l -2.866,-1.347 -0.574,0.653 c -2.066,2.747 -4.68,8.6 -5.426,12.92 -0.987,-3.986 -0.027,-10.586 1.666,-14.013 l 0.174,-0.28 -1.694,0.08 c -3.24,0.4 -6.773,1.933 -10.413,4.88 4.227,-8.347 9.707,-20.187 15.333,-27.853 4.854,-8.454 15.28,-18.4 23.774,-15.854 19.026,5.707 21.093,39.72 16.866,61.347 -1.653,8.413 -5.76,31.667 -30.546,31.947 z"
     fill="none"
     stroke="#000000"
     stroke-width="0.66665"
     id="path142" />
  <path
     d="m 159.06715,274.73312 c -3.787,-3.573 -8.48,-7.787 -12.254,-11.36 1.6,-5.053 4.56,-11.067 4.254,-16.853 -0.374,-6.68 -2.96,-13.467 -6.987,-18.814 -7.48,-9.933 -26.187,-25.28 -30.013,-22.146 1.026,4.506 6,7.666 7.853,12.586 1.84,4.44 2.547,6.947 4.107,14.107 3.186,-0.587 4.306,-4.92 7.586,-6.067 3.387,5.254 7.867,12 8.347,18.52 0.293,4 -2.667,9.347 -3.347,11.227 -5.293,-1.307 -16.386,-8.067 -25.333,-12.44 -2.333,-1.733 2.027,-5.213 3.787,-6.84 -8.747,-2.907 -15.254,-4.493 -24.454001,-7.2 2.84,5.733 9.120001,20.653 11.707001,23.44 1.187,-3.373 1.773,-5.24 4.547,-5.16 4.653,4.64 12.613,12.467 17.453,17.307 -2.267,9.106 -27.773001,10.92 -38.240001,5.613 0.12,-3.427 4.253,-5.613 5.613,-9.253 -2.506,0.226 -8.44,0.533 -12.653,0.266 -5.067,-0.333 -8.346,-2 -15.067,-2.306 2.987,10.68 31.974,32.533 53.214001,25.253 4.4,-0.24 17.12,-11.427 17.16,-11.387 5.306,3.587 12.733,11.187 18.573,16.494 2.28,-2.094 3.533,-2.68 5.547,-3.134 -1.774,-3.026 -2.467,-7.146 -1.4,-11.853"
     fill="#999999"
     id="path144" />
  <path
     d="m 159.06715,274.73312 c -3.787,-3.573 -8.48,-7.787 -12.254,-11.36 1.6,-5.053 4.56,-11.067 4.254,-16.853 -0.374,-6.68 -2.96,-13.467 -6.987,-18.814 -7.48,-9.933 -26.187,-25.28 -30.013,-22.146 1.026,4.506 6,7.666 7.853,12.586 1.84,4.44 2.547,6.947 4.107,14.107 3.186,-0.587 4.306,-4.92 7.586,-6.067 3.387,5.254 7.867,12 8.347,18.52 0.293,4 -2.667,9.347 -3.347,11.227 -5.293,-1.307 -16.386,-8.067 -25.333,-12.44 -2.333,-1.733 2.027,-5.213 3.787,-6.84 -8.747,-2.907 -15.254,-4.493 -24.454001,-7.2 2.84,5.733 9.120001,20.653 11.707001,23.44 1.187,-3.373 1.773,-5.24 4.547,-5.16 4.653,4.64 12.613,12.467 17.453,17.307 -2.267,9.106 -27.773001,10.92 -38.240001,5.613 0.12,-3.427 4.253,-5.613 5.613,-9.253 -2.506,0.226 -8.44,0.533 -12.653,0.266 -5.067,-0.333 -8.346,-2 -15.067,-2.306 2.987,10.68 31.974,32.533 53.214001,25.253 4.4,-0.24 17.12,-11.427 17.16,-11.387 5.306,3.587 12.733,11.187 18.573,16.494 2.28,-2.094 3.533,-2.68 5.547,-3.134 -1.774,-3.026 -2.467,-7.146 -1.4,-11.853 z"
     fill="none"
     stroke="#000000"
     stroke-width="0.66665"
     id="path146" />
  <path
     d="m 160.77315,275.01312 c -4.213,7.96 4.2,18.493 11.88,21.027 9.854,3.253 18.88,-0.68 22.12,-7.694 2.827,-6.146 -1.4,-16.226 -7.6,-18.813 -8.68,-3.627 -22.666,-2.587 -26.4,5.48"
     fill="#cc0000"
     id="path148" />
  <path
     d="m 160.77315,275.01312 c -4.213,7.96 4.2,18.493 11.88,21.027 9.854,3.253 18.88,-0.68 22.12,-7.694 2.827,-6.146 -1.4,-16.226 -7.6,-18.813 -8.68,-3.627 -22.666,-2.587 -26.4,5.48 z"
     fill="none"
     stroke="#000000"
     stroke-width="0.66665"
     id="path150" />
  <path
     d="m 161.08015,288.41312 c -7,0.493 -14.76,13.28 -13.507,21.6 0.934,8.12 9.6,15.507 17.507,15.4 8.707,1.119 19.507,-4.24 23.4,-12.108 2.347,-3.972 3.6,-8.599 3.52,-14.265 -0.853,-0.76 -1.067,-2.402 -1.827,-3.027 -14.293,7.2 -25.893,-1 -29.093,-7.6"
     fill="#cc0000"
     id="path152" />
  <path
     d="m 161.08015,288.41312 c -7,0.493 -14.76,13.28 -13.507,21.6 0.934,8.12 9.6,15.507 17.507,15.4 8.707,1.119 19.507,-4.24 23.4,-12.108 2.347,-3.972 3.6,-8.599 3.52,-14.265 -0.853,-0.76 -1.067,-2.402 -1.827,-3.027 -14.293,7.2 -25.893,-1 -29.093,-7.6 z"
     fill="none"
     stroke="#000000"
     stroke-width="0.66665"
     id="path154" />
  <path
     d="m 164.97315,327.19812 c -1.746,2.762 1.894,6.78801 5.2,8.375 4.947,2.387 11.187,1.399 16.507,0 7.293,-1.92 14,-6.213 19.693,-11.16 2.894,-2.507 6.387,-5.307 7,-9.067 3.12,-5.68 0.04,-10.906 -4.133,-13.906 -4.32,-3.094 -7.76,-6.32 -15.76,-2.734 0,17.932 -13.2,28.2 -28.507,28.492"
     fill="#cc0000"
     id="path156" />
  <path
     d="m 164.97315,327.19812 c -1.746,2.762 1.894,6.78801 5.2,8.375 4.947,2.387 11.187,1.399 16.507,0 7.293,-1.92 14,-6.213 19.693,-11.16 2.894,-2.507 6.387,-5.307 7,-9.067 3.12,-5.68 0.04,-10.906 -4.133,-13.906 -4.32,-3.094 -7.76,-6.32 -15.76,-2.734 0,17.932 -13.2,28.2 -28.507,28.492 z"
     fill="none"
     stroke="#000000"
     stroke-width="0.66665"
     id="path158" />
  <path
     d="m 187.28015,336.81313 c 0.093,1.8 -0.067,2.68 0.8,3.8 5.827,7.56 17.813,2.83999 23.493,-2.60001 4.6,-4.39999 7.8,-12.107 6.2,-17.90699 -0.813,-2.96 -1.8,-3.493 -3.2,-3.801 -1.8,6.308 -15.973,17.081 -27.293,20.508"
     fill="#cc0000"
     id="path160" />
  <path
     d="m 187.28015,336.81313 c 0.093,1.8 -0.067,2.68 0.8,3.8 5.827,7.56 17.813,2.83999 23.493,-2.60001 4.6,-4.39999 7.8,-12.107 6.2,-17.90699 -0.813,-2.96 -1.8,-3.493 -3.2,-3.801 -1.8,6.308 -15.973,17.081 -27.293,20.508 z"
     fill="none"
     stroke="#000000"
     stroke-width="0.66665"
     id="path162" />
  <path
     d="m 274.13315,384.36012 2.654,-2.427 c 5.386,-0.373 11.066,-0.68 16.24,-1.707 l 23.16,18.12 c 7.893,7.667 7.546,19.427 -9.374,11.774 l -32.68,-25.76"
     fill="#999999"
     id="path164" />
  <path
     d="m 274.13315,384.36012 2.654,-2.427 c 5.386,-0.373 11.066,-0.68 16.24,-1.707 l 23.16,18.12 c 7.893,7.667 7.546,19.427 -9.374,11.774 z"
     fill="none"
     stroke="#000000"
     stroke-width="0.66665"
     id="path166" />
  <path
     d="m 246.25315,497.17313 c -3.013,-21.333 -19.24,-28.44 -39.04,-30.827 8.24,-2.041 18.48,-0.986 27.32,-3.36 6.067,-1.626 13.134,-2.58601 16.547,-7.60001 3.133,-4.62599 2.413,-11.226 0.88,-16.76 8.253,-10.45299 16.813,-13.04 28.653,-3.30599 3.214,7.27999 7.987,20.226 1.88,26.24 -6.706,6.6 -17.613,4.813 -27.12,7.346 l 0.12,0.64 c 9.694,-2.44 20.08,-0.133 27.68,-6.733 7.254,-6.29301 2.387,-19.65301 -1.453,-29.467 5.08,0.90699 20.667,3.39999 34.893,-1.38601 2.814,-0.947 5.32,3.53301 5.68,7 2.2,13.80001 5.4,25.786 11.854,38 -29.026,14.56 -58.334,20.92001 -87.894,20.21301 m 63.467,-29.067 c 5.173,0 9.36,-4.986 9.36,-11.14601 0,-6.16 -4.187,-11.14699 -9.36,-11.14699 -5.16,0 -9.347,4.987 -9.347,11.14699 0,6.16001 4.187,11.14601 9.347,11.14601"
     fill="#990000"
     id="path168" />
  <path
     d="m 246.25315,497.17313 c -3.013,-21.333 -19.24,-28.44 -39.04,-30.827 8.24,-2.041 18.48,-0.986 27.32,-3.36 6.067,-1.626 13.134,-2.58601 16.547,-7.60001 3.133,-4.62599 2.413,-11.226 0.88,-16.76 8.253,-10.45299 16.813,-13.04 28.653,-3.30599 3.214,7.27999 7.987,20.226 1.88,26.24 -6.706,6.6 -17.613,4.813 -27.12,7.346 l 0.12,0.64 c 9.694,-2.44 20.08,-0.133 27.68,-6.733 7.254,-6.29301 2.387,-19.65301 -1.453,-29.467 5.08,0.90699 20.667,3.39999 34.893,-1.38601 2.814,-0.947 5.32,3.53301 5.68,7 2.2,13.80001 5.4,25.786 11.854,38 -29.026,14.56 -58.334,20.92001 -87.894,20.21301 m 63.467,-29.067 c 5.173,0 9.36,-4.986 9.36,-11.14601 0,-6.16 -4.187,-11.14699 -9.36,-11.14699 -5.16,0 -9.347,4.987 -9.347,11.14699 0,6.16001 4.187,11.14601 9.347,11.14601 z"
     fill="none"
     stroke="#000000"
     stroke-width="0.66665"
     id="path170" />
  <path
     d="m 309.72015,446.69312 c 4.76,0 8.613,4.60001 8.613,10.267 0,5.666 -3.853,10.253 -8.613,10.253 -4.747,0 -8.599,-4.587 -8.599,-10.253 0,-5.66699 3.852,-10.267 8.599,-10.267 m -26.84,2.32 c 0.573,1.292 0.373,2.60001 0.093,3.893 -5.733,-3.693 -19.466,-6.293 -28.4,-4.493 -0.48,-1.16 -0.72,-2.52 -0.4,-4.2 10.134,-0.45299 20.414,1.04 28.707,4.8 m -0.907,7.893 c 0.347,1.854 -1.093,3.6 -2.8,4.6 -7.333,-2.95999 -14.08,-4.213 -25.4,-4 -0.293,-1.534 -0.133,-3.06599 0.907,-4.6 9.227,-0.12 18.32,1.24 27.293,4 m -34.693,3.8 c 8.853,0.587 16.24,1.8 23.2,3.2 -0.88,1.027 -3.133,1.8 -6.907,2.307 -6.52,-1.427 -14,-2.373 -22.093,-3 0.76,-0.987 2.907,-1.78699 5.8,-2.507 m -14.107,4 c 8.6,0.574 15.107,1.574 18.707,3.2 -0.573,1.227 -3.093,2.2 -7.6,2.907 -5.427,-2.533 -13.587,-3.56 -22.107,-4.4 3.774,-0.573 7.507,-1.133 11,-1.707"
     fill="#ffffff"
     id="path172" />
  <path
     d="m 250.57315,438.90612 c -6.266,-9.133 -9.133,-9.133 -9.893,-1.2 -0.707,-2.89299 -2.853,-5.546 -4.907,-7 -7.066,-5.026 -11.92,-5.8 -13.8,-2.693 -3.44,-0.293 -11.8,-5.867 -10.6,-2.307 2.8,8.307 4.774,12.854 3,17.8 -4.8,13.4 -35.493,12.107 -57.093,15 10.067,2.49401 14.333,6.88 18.2,12.507 9.347,-3.01299 19.6,-4.507 29.68,-4.987 0.347,-0.453 0.813,-0.893 2.32,-1.32 13.253,-1.413 30.16,-1.96 38.893,-6.8 5.52,-3.053 6.8,-10.453 4.2,-19"
     fill="#990000"
     id="path174" />
  <path
     d="m 250.57315,438.90612 c -6.266,-9.133 -9.133,-9.133 -9.893,-1.2 -0.707,-2.89299 -2.853,-5.546 -4.907,-7 -7.066,-5.026 -11.92,-5.8 -13.8,-2.693 -3.44,-0.293 -11.8,-5.867 -10.6,-2.307 2.8,8.307 4.774,12.854 3,17.8 -4.8,13.4 -35.493,12.107 -57.093,15 10.067,2.49401 14.333,6.88 18.2,12.507 9.347,-3.01299 19.6,-4.507 29.68,-4.987 0.347,-0.453 0.813,-0.893 2.32,-1.32 13.253,-1.413 30.16,-1.96 38.893,-6.8 5.52,-3.053 6.8,-10.453 4.2,-19 z"
     fill="none"
     stroke="#000000"
     stroke-width="0.66665"
     id="path176" />
  <path
     d="m 217.37315,439.21312 c 9.44,0.373 18.56,1.613 27.2,4.092 1.014,2.708 0.827,4.948 -0.8,6.601 -8.266,-2.493 -17.213,-4.041 -26.8,-4.693 0.654,-2.39999 0.8,-4.39999 0.4,-6 m 22,15.293 c -6.506,-2.493 -14.493,-4.32 -23.893,-5.493 -0.787,1.54701 -2.493,2.54701 -4.6,3.292 8.347,1.521 16.227,3.308 22.693,5.908 3.027,-0.827 4.88,-2.093 5.8,-3.707 m -15.4,6.4 c -1.786,0.707 -5.133,0.934 -8,1.107 -6.653,-1.78699 -12.386,-3.76 -17.693,-5.8 3.04,-0.575 5.813,-1.133 7.493,-1.707 5.72,2.25401 11.68,4.414 18.2,6.4 m -18.493,1.907 c -4.973,-2.04 -10.427,-3.907 -17,-5.4 l -8.8,1.293 c 6.813,1.654 13.107,3.52 18.6,5.707 3.787,-0.12 6.04,-0.693 7.2,-1.6 m -32.053,8.547 c -4.24,2.08 -8.2,5.6 -10.76,8.22601 -12.454,4.946 -56.174,2.946 -56.067,-1.38801 0.013,-0.625 -0.08,0.708 -0.12,0.81501 -1.427,3.292 34.387,6.027 53.72,2.92 -3.64,4.12 -4.907,10.72 -3.76,15.91999 -20.787,1.653 -41.04,2.012 -53.813,-5.293 -5.667001,-4.48 -9.454001,-10.667 -6.000001,-16.2 5.360001,-11.6 37.960001,-14.254 57.600001,-17 9.466,2.6 15.533,6.746 19.2,12"
     fill="#ffffff"
     id="path178" />
  <path
     d="m 173.42715,471.36012 c -4.24,2.08 -8.2,5.6 -10.76,8.22601 -12.454,4.946 -56.174,2.946 -56.067,-1.38801 0.013,-0.625 -0.08,0.708 -0.12,0.81501 -1.427,3.292 34.387,6.027 53.72,2.92 -3.64,4.12 -4.907,10.72 -3.76,15.91999 -20.787,1.653 -41.04,2.012 -53.813,-5.293 -5.667001,-4.48 -9.454001,-10.667 -6.000001,-16.2 5.360001,-11.6 37.960001,-14.254 57.600001,-17 9.466,2.6 15.533,6.746 19.2,12 z"
     fill="none"
     stroke="#000000"
     stroke-width="0.66665"
     id="path180" />
  <path
     d="m 205.82715,467.76013 c -10.987,0.906 -22.627,1.62599 -30.2,5.19999 -11.734,5.50601 -19.974,13.09301 -17,25.2 2.2,9 12.92,12.506 24.8,13.8 66.546,7.2 118.694,-1.8 153.2,-21.2 l 0.8,-3.8 c -0.454,-2.734 -1.04,-5.467 -2.6,-8.2 -28.054,14.026 -58.254,20.066 -89.8,19.8 -19.8,5.893 -68.68,1.412 -81.014,-6.894 16.814,5.614 62.334,12.107 80.48,4.214 -2,-17.667 -19.32,-26.507 -38.666,-28.12"
     fill="#ffffff"
     id="path182" />
  <path
     d="m 205.82715,467.76013 c -10.987,0.906 -22.627,1.62599 -30.2,5.19999 -11.734,5.50601 -19.974,13.09301 -17,25.2 2.2,9 12.92,12.506 24.8,13.8 66.546,7.2 118.694,-1.8 153.2,-21.2 l 0.8,-3.8 c -0.454,-2.734 -1.04,-5.467 -2.6,-8.2 -28.054,14.026 -58.254,20.066 -89.8,19.8 -19.8,5.893 -68.68,1.412 -81.014,-6.894 16.814,5.614 62.334,12.107 80.48,4.214 -2,-17.667 -19.32,-26.507 -38.666,-28.11999 z"
     fill="none"
     stroke="#000000"
     stroke-width="0.66665"
     id="path184" />
</svg>
