<?xml version="1.0" encoding="UTF-8" standalone="no"?>
<svg
   xmlns:dc="http://purl.org/dc/elements/1.1/"
   xmlns:cc="http://creativecommons.org/ns#"
   xmlns:rdf="http://www.w3.org/1999/02/22-rdf-syntax-ns#"
   xmlns:svg="http://www.w3.org/2000/svg"
   xmlns="http://www.w3.org/2000/svg"
   viewBox="0 0 106.3 25.4625"
   height="25.4625"
   width="106.3"
   xml:space="preserve"
   version="1.1"
   id="svg2"><metadata
     id="metadata8"><rdf:RDF><cc:Work
         rdf:about=""><dc:format>image/svg+xml</dc:format><dc:type
           rdf:resource="http://purl.org/dc/dcmitype/StillImage" /></cc:Work></rdf:RDF></metadata><defs
     id="defs6" /><g
     transform="matrix(1.25,0,0,-1.25,0,25.4625)"
     id="g10"><g
       transform="scale(0.1,0.1)"
       id="g12"><path
         id="path14"
         style="fill:#188c47;fill-opacity:1;fill-rule:evenodd;stroke:none"
         d="m 793.781,156.391 11.231,-19.25 -44.914,-27.274 -13.633,17.656 47.316,28.868 0,0 z M 719.199,89.0234 c 0,-4.0117 2.414,-8.0234 5.617,-8.0234 3.204,0 5.606,3.2109 5.606,8.0234 0,4.8047 -2.402,8.0196 -5.606,8.0196 -2.414,0 -4.824,-3.2149 -5.617,-8.0196 0,0 0.793,4.8047 0,0 l 0,0 z m -52.136,20.0396 c -0.793,-6.415 0,-12.8286 2.41,-12.8286 1.613,0 4.816,4.8206 5.617,12.0316 0.801,7.226 0,12.828 -1.602,12.828 -2.402,0.812 -4.804,-4.805 -6.425,-12.031 0,0 1.621,7.226 0,0 l 0,0 z M 607.727,30.4805 c -0.801,-3.2149 1.601,-5.6133 4.011,-5.6133 2.414,0 4.805,1.6016 4.805,4.8047 0.812,3.2187 -1.602,5.625 -4.012,5.625 -2.402,0.7969 -4.804,-1.6133 -4.804,-4.8164 0,0 0,3.2031 0,0 l 0,0 z m 0,-28.06644 C 635.793,0 639.797,26.4688 637.395,42.5 l 25.671,17.6484 c 8.02,-16.0351 44.914,-14.4336 62.551,-4.0039 7.215,-5.6132 25.653,-3.2148 31.278,1.6016 l 51.32,30.4805 c 16.035,9.6172 20.047,-5.625 15.242,-10.4297 -8.016,-8.0196 -22.461,-12.0313 -25.664,-12.836 l -0.809,-23.2578 c 58.543,2.4102 70.575,72.1879 28.075,72.1879 -22.461,2.398 -60.145,-31.2894 -78.594,-35.2972 21.652,50.5312 -65.75,54.5312 -45.711,-8.8165 -8.82,-4.0117 -16.836,-0.8007 -20.039,4.004 19.238,25.664 28.055,66.5627 -4.016,72.1797 -20.047,4.012 -40.105,-30.469 -25.672,-70.5704 -4.004,-2.4101 -12.832,-4.8203 -12.832,-4.8203 l 0.809,29.6757 -21.649,0 c -6.425,-15.2343 -22.46,-24.0507 -24.863,-20.8476 -3.215,11.2266 12.02,24.0626 40.899,24.8596 l 0,23.265 C 595.695,125.91 571.633,106.664 567.629,84.2109 566.027,51.3281 595.695,52.9297 614.152,65.7656 l 0,-7.2187 C 578.059,45.7148 578.059,4.81641 607.727,2.41406 l 0,0 z M 456.953,56.9375 c -0.801,-12.0234 0.801,-22.4531 2.402,-22.4531 2.415,-0.8008 4.817,9.6289 5.618,22.4531 0.8,12.8398 -0.801,22.4609 -3.203,23.2578 -1.602,0 -4.016,-10.418 -4.817,-23.2578 0,0 0.801,12.8398 0,0 l 0,0 z m -1.601,146.7655 5.617,-85.008 C 428.887,87.4219 424.875,2.41406 458.566,0 c 36.082,3.21484 25.664,85.8125 24.852,93.0313 -4.012,16.8357 14.445,9.6167 16.035,-2.4063 l 0.813,-38.4922 21.648,-0.8047 0.801,32.8828 c 0.801,13.6329 16.848,13.6329 16.848,-0.8007 l -0.801,-26.4727 23.25,0 0.812,25.6641 c -3.222,45.7114 -37.695,38.4924 -46.523,25.6644 -8.028,19.257 -24.863,21.656 -35.293,20.859 l -4.805,74.578 -20.851,0 0,0 z m -72.176,-95.437 c -2.406,-3.203 -3.207,-7.211 -1.602,-8.02 1.602,-1.6015 5.614,0 8.016,4.012 2.41,3.203 3.203,7.219 1.609,8.031 -1.609,1.602 -5.613,0 -8.023,-4.023 0,0 2.41,4.023 0,0 l 0,0 z m -45.715,45.711 -3.203,-44.914 -7.219,0 0,-20.0396 4.809,0 -0.801,-32.8789 20.047,-0.8086 0,24.8594 c 0,3.2149 5.617,4.8164 8.82,-4 9.629,-29.6797 43.309,-31.2812 56.941,-18.4492 l 0,23.2539 c -10.429,-7.2187 -24.062,-12.0234 -32.078,0 66.563,27.266 6.422,87.422 -25.66,24.859 l -6.414,0 4.813,48.118 -20.055,0 0,0 z m -81.797,-42.5 c 0,-2.414 1.602,-4.016 4.012,-4.016 1.605,0 3.207,1.602 3.207,4.016 0,1.601 -1.602,3.211 -3.207,3.211 -2.41,0 -4.012,-1.61 -4.012,-3.211 0,0 0,1.601 0,0 l 0,0 z m -43.309,61.75 C 91.2617,191.672 116.926,-0.796875 225.992,66.5625 c 27.266,-17.6328 52.93,4.8164 52.93,20.8594 8.019,0.8047 12.027,-3.211 12.027,-8.8281 l 0,-20.0469 17.645,0 0.801,20.8515 c 0,7.2149 4.812,9.625 11.226,10.4297 l 0.805,20.0389 c -7.219,1.61 -15.238,-3.203 -16.043,-7.219 -5.61,8.829 -14.434,12.04 -24.059,12.04 -23.258,48.117 -67.363,-10.43 -28.066,-23.2583 9.625,-1.6016 4.008,-12.0313 -4.809,-11.2344 -9.625,0.8047 -10.429,12.836 -9.625,20.8597 -0.804,16.039 -29.672,8.008 -25.664,-14.4417 -66.562,-49.7149 -88.219,85.8087 -1.605,63.3597 l 0.8,23.254 0,0 z M 89.6602,114.688 c -1.6055,-8.024 0,-13.633 1.6015,-14.442 2.4024,0 4.8125,5.613 6.4141,12.832 0.8008,7.219 0,13.633 -2.4024,14.445 -2.4101,0 -4.8125,-5.617 -5.6132,-12.835 0,0 0.8007,7.218 0,0 l 0,0 z M 35.125,106.664 c 0,-3.203 2.4063,-5.609 4.8125,-5.609 3.207,0 4.8086,2.406 4.8086,4.804 0,3.204 -1.6016,5.618 -4.8086,5.618 -2.4062,0 -4.8125,-2.414 -4.8125,-4.813 0,0 0,2.399 0,0 l 0,0 z M 34.3242,85.8125 C 40.7383,74.582 57.5781,76.1953 72.8125,85.0117 58.3789,182.852 149.004,178.84 103.293,81.7969 c -4.0157,-4.8047 10.426,-6.4063 19.246,0.8047 l 0,-20.0391 C 107.301,52.9297 91.2617,57.7461 84.8438,64.9609 48.7617,40.8984 0.640625,56.9375 9.46484,101.055 -22.6172,165.207 34.3242,194.074 69.6094,178.039 L 68.8086,152.375 C 41.5391,165.207 19.082,145.961 26.3008,123.508 63.1953,149.973 87.2539,81.7969 34.3242,85.8125 l 0,0" /></g></g></svg>