<?xml version="1.0" encoding="UTF-8" standalone="no"?>
<!-- Created with Inkscape (http://www.inkscape.org/) -->

<svg
   width="33.925877mm"
   height="32.80912mm"
   version="1.1"
   viewBox="0 0 33.925876 32.809122"
   id="svg3"
   sodipodi:docname="framework.svg"
   inkscape:version="1.4 (e7c3feb100, 2024-10-09)"
   xmlns:inkscape="http://www.inkscape.org/namespaces/inkscape"
   xmlns:sodipodi="http://sodipodi.sourceforge.net/DTD/sodipodi-0.dtd"
   xmlns="http://www.w3.org/2000/svg"
   xmlns:svg="http://www.w3.org/2000/svg">
  <defs
     id="defs3" />
  <sodipodi:namedview
     id="namedview3"
     pagecolor="#ffffff"
     bordercolor="#666666"
     borderopacity="1.0"
     inkscape:showpageshadow="2"
     inkscape:pageopacity="0.0"
     inkscape:pagecheckerboard="0"
     inkscape:deskcolor="#d1d1d1"
     inkscape:document-units="mm"
     inkscape:zoom="2.5540488"
     inkscape:cx="471.01684"
     inkscape:cy="61.862561"
     inkscape:window-width="2560"
     inkscape:window-height="1371"
     inkscape:window-x="0"
     inkscape:window-y="0"
     inkscape:window-maximized="1"
     inkscape:current-layer="svg3" />
  <path
     d="M 32.774604,12.263609 30.266619,10.77624 C 29.092432,10.077484 28.366653,8.7892732 28.366653,7.3956062 V 4.4209781 c 0,-0.6089754 -0.269792,-1.1828648 -0.729624,-1.5653625 -1.367962,-1.1359588 -2.90696,-2.05727079 -4.571298,-2.71692004 -0.554852,-0.2186015 -1.174186,-0.17566113 -1.687186,0.1288211 l -2.51172,1.49121374 c -1.174187,0.6987668 -2.62201,0.6987668 -3.799931,0 L 12.555064,0.26751666 C 12.042064,-0.03696557 11.418885,-0.0838166 10.867878,0.13869556 9.1996958,0.7984217 7.6645421,1.7196567 6.3003149,2.8517709 5.8405267,3.2343235 5.5707351,3.8081689 5.5707351,4.4171333 v 2.9746282 c 0,1.3935571 -0.7219891,2.6818775 -1.8999656,3.3806335 L 1.1627842,12.259654 C 0.64978472,12.564159 0.30019808,13.091219 0.20900061,13.692318 0.06840359,14.578478 0,15.484191 0,16.405393 c 0,0.921312 0.0683992,1.826916 0.2051998,2.709121 0.0911986,0.601209 0.44079509,1.132114 0.9537836,1.436618 l 2.5079853,1.48726 c 1.1741867,0.698755 1.8999656,1.986966 1.8999656,3.380633 v 2.974628 c 0,0.608899 0.2697916,1.182755 0.7295798,1.565363 1.3642271,1.132004 2.9031158,2.053316 4.5675629,2.713075 0.554775,0.218602 1.174186,0.17565 1.687186,-0.128854 l 2.51172,-1.491214 c 1.174187,-0.698755 2.6219,-0.698755 3.799931,0 l 2.511721,1.491214 c 0.512999,0.304504 1.136178,0.347456 1.687186,0.128854 1.664447,-0.659759 3.203336,-1.581071 4.567563,-2.713075 0.459832,-0.382608 0.729623,-0.956464 0.729623,-1.565363 v -2.974628 c 0,-1.393667 0.725779,-2.681878 1.899966,-3.380633 l 2.507876,-1.48726 c 0.512999,-0.304504 0.862652,-0.831454 0.953827,-1.436618 0.133028,-0.882205 0.2052,-1.787809 0.2052,-2.709121 0,-0.921202 -0.06844,-1.826915 -0.2052,-2.70912 -0.08744,-0.601209 -0.433248,-1.12816 -0.946138,-1.432664 z M 16.967189,26.879152 c -5.627725,0 -10.1914433,-4.688399 -10.1914433,-10.469694 0,-5.781406 4.5637183,-10.4696938 10.1914433,-10.4696938 5.627615,0 10.191334,4.6882878 10.191334,10.4696938 0,5.781295 -4.563719,10.469694 -10.191334,10.469694 z"
     id="path2"
     style="fill:#1f1f1f;stroke-width:1.0985" />
</svg>
