<svg xmlns="http://www.w3.org/2000/svg" xmlns:xlink="http://www.w3.org/1999/xlink" width="70.402" height="51.91" viewBox="0 0 70.402 51.91">
  <defs>
    <linearGradient id="linear-gradient" x1="1" y1="0.098" x2="-0.071" y2="1" gradientUnits="objectBoundingBox">
      <stop offset="0" stop-color="#c9d7e9"/>
      <stop offset="0.393" stop-color="#8ed6e7"/>
      <stop offset="1" stop-color="#e6d6d1"/>
    </linearGradient>
  </defs>
  <path id="Path_143" data-name="Path 143" d="M69.361,26.134l-.024-2.778A11.753,11.753,0,0,0,70.4,17.4a14.061,14.061,0,0,0-.956-4.612A19.267,19.267,0,0,1,67.059,16.6c-1.543,1.913-4.14,3.066-7.926,3.066-5.32,0-12.628-2.357-16.957-7.619C37.4,6.241,28.458,0,20.08,0a12.842,12.842,0,0,0-9.527,3.88,6.434,6.434,0,0,0-2.826-.7A6.168,6.168,0,0,0,3.209,5.45c-2.223,2.444-2.113,5.4.334,9l-.878,2.2-.047.13a3.021,3.021,0,0,0,.5,2.794l1.373,1.578-.346.83a3.051,3.051,0,0,0,.134,2.629l.48.889c-.783.106-3.282,1.547-4.754.862a7.562,7.562,0,0,0,.287,2.357,5.774,5.774,0,0,0,2.094,3.113,11.948,11.948,0,0,0-1,8.181c2.275,8.787,8.174,9.232,9.334,9.232.213,0,.327-.012.327-.012L13.362,49a17.821,17.821,0,0,0,9.161,2.912,9.252,9.252,0,0,0,5.041-1.275L30.1,48.9,27.36,47.511a8.525,8.525,0,0,1-1.617-1.039,8.654,8.654,0,0,0,1.7.173,6.33,6.33,0,0,0,3.136-.74l2.873-1.72-3.007-1.472a3.125,3.125,0,0,1-1.657-2.255,7.158,7.158,0,0,1-.047-2.77A21.04,21.04,0,0,0,41.983,42.45c.3,0,2.306-.114,2.621-.126l-1.46-1.385a32.309,32.309,0,0,0,7.052.811c10.645,0,14.938-4.793,16.481-6.041A8.065,8.065,0,0,0,68.9,32.324l-2.845.268a8.919,8.919,0,0,0,1.051-.9A7.689,7.689,0,0,0,69.361,26.134ZM39.764,38.1A7.5,7.5,0,0,0,42.818,40.6a19.316,19.316,0,0,1-14.824-6.111c-1.307,1.712-2.4,7.867,1.641,9.85,0,0-2.967,1.779-7.422-1.5,0,0-.673,3.762,4.317,6.292,0,0-6.206,4.242-16.867-5.132,0,0-.272,1.3,1.216,3.42,0,0-5.58.48-7.741-7.867-1.2-4.667,1.92-8.662,1.92-8.662a3.189,3.189,0,0,1-2.971-2.471c1.5.319,3.211-1.669,5.332-1.842L5.889,23.745a1.25,1.25,0,0,1-.055-1.066l.634-1.527a.612.612,0,0,0-.1-.63L4.5,18.378a1.235,1.235,0,0,1-.138-1.055l1.247-3.129C2.6,10.228,3.189,8.174,4.555,6.67s3.239-2.645,6.383-.456c7.253-9.531,22.525-1.9,29.825,6.977,7.387,8.984,23.58,10.991,27.822,4.38C69.31,24.989,61.971,28.96,54.4,28.334c-6.064-.5-10.531-4.451-15.643-8.8C32.33,14.065,24.656,4.16,15.09,10.6a7.649,7.649,0,0,0-3.01,3.739l.091-.138a10.9,10.9,0,0,1,9.622-4.88c4.514.409,9.874,4.624,17.925,14.82,8.713,11.038,18.929,10.716,25.63,10.306C65.351,34.449,56.548,43.756,39.764,38.1Zm7.528-9.94c9.441,4.057,16.1,2.416,20.251-2.007C67.6,33.17,56.41,35.988,47.292,28.157Zm-1.916,6.934c-8.437-1.051-12.132-8.756-14.092-13.5C35.022,27.016,41.5,33.993,45.375,35.091ZM11.772,31.1a8.088,8.088,0,0,0,3.321,1.11c-1.688,1.181-4.286,1.389-5.816-.228C10.895,31.439,11.772,31.1,11.772,31.1Zm13.262-9.653a4.356,4.356,0,0,0-.523-6.249c-2.306-2.058-6.942-2.471-13.022.429a.977.977,0,0,1-.779.035A2.41,2.41,0,0,1,9.163,13.9,24.429,24.429,0,0,0,8.03,18.386a1.4,1.4,0,0,0,.523,1.267l2.038,1.6a1.047,1.047,0,0,1,.362,1.1,24.247,24.247,0,0,0-.771,4.423,1.337,1.337,0,0,0,.791,1.326l.181.079a1.637,1.637,0,0,0,1.519-.106,6.847,6.847,0,0,1,5.092-.909c.2.043.394.094.582.153a12.766,12.766,0,0,1,2.074,1.011,5.792,5.792,0,0,0,6.753-.779,3.4,3.4,0,0,0,1.106-2.68C28.1,22.23,25.034,21.451,25.034,21.451Zm-3.286-.307a1.082,1.082,0,0,1-1.173.287l-2.18-.8a1.349,1.349,0,0,1,.087.46,1.327,1.327,0,0,1-2.574.456l-1.806.807a.627.627,0,0,1-.819-.3l-.716-1.436a1,1,0,0,1,.122-1.082l.641,1.212a.39.39,0,0,0,.523.165l4.1-2.09a1.231,1.231,0,0,1,.98-.059l3.739,1.366Z" transform="translate(-0.003)" fill="url(#linear-gradient)"/>
</svg>