<?xml version="1.0" encoding="utf-8"?>
<!-- Generator: Adobe Illustrator 19.0.0, SVG Export Plug-In . SVG Version: 6.00 Build 0)  -->
<svg version="1.1" id="Layer_1" xmlns="http://www.w3.org/2000/svg" xmlns:xlink="http://www.w3.org/1999/xlink" x="0px" y="0px"
	 viewBox="-393 31 500 500" style="enable-background:new -393 31 500 500;" xml:space="preserve">
<style type="text/css">
	.st0{clip-path:url(#SVGID_3_);}
	.st1{clip-path:url(#SVGID_4_);fill:url(#XMLID_6_);}
	.st2{clip-path:url(#SVGID_7_);}
	.st3{clip-path:url(#SVGID_8_);fill:url(#XMLID_7_);}
	.st4{clip-path:url(#SVGID_11_);}
	.st5{clip-path:url(#SVGID_12_);fill:url(#XMLID_9_);}
	.st6{fill:#F79836;}
	.st7{fill:#FFCF3D;}
	.st8{fill:#EC852E;}
</style>
<g id="XMLID_81_">
</g>
<g id="XMLID_87_">
</g>
<g id="XMLID_92_">
</g>
<g id="XMLID_97_">
</g>
<g id="XMLID_71_">
	<g>
		<defs>
			<polygon id="SVGID_1_" points="-392,32 -391,32 -392,33 			"/>
		</defs>
		<defs>
			<polygon id="SVGID_2_" points="-394,30 -395,30 -394,29 			"/>
		</defs>
		<clipPath id="SVGID_3_">
			<use xlink:href="#SVGID_1_"  style="overflow:visible;"/>
		</clipPath>
		<clipPath id="SVGID_4_" class="st0">
			<use xlink:href="#SVGID_2_"  style="overflow:visible;"/>
		</clipPath>
		
			<linearGradient id="XMLID_6_" gradientUnits="userSpaceOnUse" x1="-718.5" y1="308" x2="-353.4" y2="308" gradientTransform="matrix(1 0 0 1 0 4)">
			<stop  offset="0" style="stop-color:#1A1A1A"/>
			<stop  offset="1" style="stop-color:#000000"/>
		</linearGradient>
		<path id="XMLID_75_" class="st1" d="M-383,129.6h-66.5c-16.1,0-29.3,13.2-29.3,29.3v85.9H-575c-15.6,0-28.3,12.7-28.3,28.6v96.2
			h-86.6c-15.8,0-28.6,12.7-28.6,28.6v67.2c0,15.8,12.7,28.6,28.6,29h211.4h29.3l0,0h66.5c16.1,0,29.3-13.2,29.3-29.3V158.9
			C-353.7,142.8-366.9,129.6-383,129.6z"/>
	</g>
</g>
<g id="XMLID_63_">
	<g>
		<defs>
			<polygon id="SVGID_5_" points="-392,32 -391,32 -392,33 			"/>
		</defs>
		<defs>
			<polygon id="SVGID_6_" points="-394,30 -395,30 -394,29 			"/>
		</defs>
		<clipPath id="SVGID_7_">
			<use xlink:href="#SVGID_5_"  style="overflow:visible;"/>
		</clipPath>
		<clipPath id="SVGID_8_" class="st2">
			<use xlink:href="#SVGID_6_"  style="overflow:visible;"/>
		</clipPath>
		
			<linearGradient id="XMLID_7_" gradientUnits="userSpaceOnUse" x1="-718.5" y1="308" x2="-353.4" y2="308" gradientTransform="matrix(1 0 0 1 0 4)">
			<stop  offset="0" style="stop-color:#1A1A1A"/>
			<stop  offset="1" style="stop-color:#000000"/>
		</linearGradient>
		<path id="XMLID_67_" class="st3" d="M-383,129.6h-66.5c-16.1,0-29.3,13.2-29.3,29.3v85.9H-575c-15.6,0-28.3,12.7-28.3,28.6v96.2
			h-86.6c-15.8,0-28.6,12.7-28.6,28.6v67.2c0,15.8,12.7,28.6,28.6,29h211.4h29.3l0,0h66.5c16.1,0,29.3-13.2,29.3-29.3V158.9
			C-353.7,142.8-366.9,129.6-383,129.6z"/>
	</g>
</g>
<g id="XMLID_29_">
	<g>
		<defs>
			<polygon id="SVGID_9_" points="-392,32 -391,32 -392,33 			"/>
		</defs>
		<defs>
			<polygon id="SVGID_10_" points="-394,30 -395,30 -394,29 			"/>
		</defs>
		<clipPath id="SVGID_11_">
			<use xlink:href="#SVGID_9_"  style="overflow:visible;"/>
		</clipPath>
		<clipPath id="SVGID_12_" class="st4">
			<use xlink:href="#SVGID_10_"  style="overflow:visible;"/>
		</clipPath>
		
			<linearGradient id="XMLID_9_" gradientUnits="userSpaceOnUse" x1="-596.1722" y1="248.0653" x2="-360.216" y2="484.0216" gradientTransform="matrix(1 0 0 1 0 4)">
			<stop  offset="0" style="stop-color:#1A1A1A"/>
			<stop  offset="1" style="stop-color:#000000"/>
		</linearGradient>
		<path id="XMLID_30_" class="st5" d="M-383,129.6h-66c-16.1,0-29.3,13.2-29.3,29.3v85.9h-96c-15.8,0-28.8,13-28.8,28.8v96h-86.6
			c-15.8,0-28.8,13-28.8,28.8v67.2c0,15.8,13,28.8,28.8,28.8H-383c16.1,0,29.3-13.2,29.3-29.3V158.9
			C-353.7,142.8-366.9,129.6-383,129.6z"/>
	</g>
</g>
<g>
	<path id="XMLID_73_" class="st6" d="M11,98.6h-66c-16.1,0-29.3,13.2-29.3,29.3v85.9v249.6l0,0H-55l0,0h66
		c16.1,0,29.3-13.2,29.3-29.3V127.9C40.3,111.8,27.1,98.6,11,98.6z"/>
	<g id="XMLID_21_">
		<g>
			<path id="XMLID_25_" class="st7" d="M-209.3,242.6v96h-86.4c-15.8,0-28.8,13-28.8,28.8v67.2c0,15.8,13,28.8,28.8,28.8h211.2
				V213.8h-96C-196.4,213.8-209.3,226.8-209.3,242.6z"/>
		</g>
	</g>
	<path class="st8" d="M-84.5,215.2v248.2l29.3,0h66c6.3,0,12.2-2,17-5.5c7.4-5.3,12.3-14,12.3-23.8v-94.3L-84.5,215.2z"/>
</g>
</svg>
