<?xml version="1.0" encoding="utf-8"?><svg version="1.1" id="Livello_1" xmlns="http://www.w3.org/2000/svg" xmlns:xlink="http://www.w3.org/1999/xlink" x="0px" y="0px" viewBox="0 0 1201.05 1063.3" style="enable-background:new 0 0 1201.05 1063.3" xml:space="preserve"><style type="text/css">.st0{fill-rule:evenodd;clip-rule:evenodd;fill:#FBBC04;} .st1{fill-rule:evenodd;clip-rule:evenodd;fill:#34A853;} .st2{fill-rule:evenodd;clip-rule:evenodd;fill:#4285F4;}</style><g><path class="st0" d="M759.11,291.62c54.33-93,22.07-211.85-72.04-265.56C592.91-27.58,472.56,4.22,418.22,97.22 c-2.39,4.17-4.65,8.41-6.75,12.73L227.79,424.17c-4.06,6.25-7.82,12.69-11.27,19.29L25.78,772.63l340.85,191.05L556.41,637.3 c4.14-6.2,7.9-12.64,11.27-19.29l183.68-314.26C754.02,299.8,756.68,295.79,759.11,291.62"/><path class="st1" d="M368.21,962.67c-54.02,94.5-175.89,129.27-269.46,74.75C5.14,982.85-28.09,864.54,25.98,770.08 s174.84-129.39,268.46-74.86c93.61,54.56,127.8,172.99,73.78,267.42"/><path class="st2" d="M1103.74,353.83c-93.04-53.62-211.92-21.87-265.83,71l-194.6,336.26c-53.61,92.68-21.95,211.27,70.73,264.89 c0.17,0.1,0.33,0.19,0.5,0.29c93.06,53.64,211.97,21.87,265.87-71.04l194.56-336.22c53.61-92.71,21.91-211.32-70.8-264.93 C1104.03,354,1103.89,353.91,1103.74,353.83"/></g></svg>