<svg id="LOGOS" xmlns="http://www.w3.org/2000/svg" viewBox="0 0 245 258"><defs><style>.cls-1{fill:#f04e54;}</style></defs><path d="M32.93,189.82V185H28.51v4.82H26.26V178.23h2.25v4.86h4.42v-4.86h2.25v11.59Zm10.52,0H41.66l-.16-.56a5,5,0,0,1-2.6.73c-1.59,0-2.27-1-2.27-2.49,0-1.7.77-2.35,2.54-2.35h2.09v-.88c0-.92-.26-1.25-1.66-1.25a12.1,12.1,0,0,0-2.41.26l-.27-1.6a11.79,11.79,0,0,1,3-.39c2.74,0,3.55.92,3.55,3Zm-2.19-3.16H39.65c-.71,0-.91.19-.91.83s.2.84.88.84a3.57,3.57,0,0,0,1.64-.43ZM48,190a10.54,10.54,0,0,1-3-.48l.31-1.59a10.38,10.38,0,0,0,2.59.36c1,0,1.11-.21,1.11-.85s-.11-.77-1.52-1.09c-2.13-.5-2.38-1-2.38-2.63s.77-2.42,3.25-2.42a11.89,11.89,0,0,1,2.62.29l-.22,1.66a16,16,0,0,0-2.4-.24c-.94,0-1.1.21-1.1.72,0,.67,0,.73,1.23,1,2.43.62,2.67.93,2.67,2.64S50.65,190,48,190Zm10-.17V184c0-.44-.2-.67-.7-.67A6.12,6.12,0,0,0,55,184v5.8H52.86V178.06l2.18.33v3.7a7.9,7.9,0,0,1,3.18-.8c1.45,0,2,1,2,2.47v6.06Zm4-9.55v-2h2.19v2Zm0,9.55v-8.36h2.19v8.36ZM66,181.53c0-2.1,1.27-3.32,4.24-3.32a14.1,14.1,0,0,1,3.24.38l-.26,1.87a18.36,18.36,0,0,0-2.91-.29c-1.56,0-2.06.51-2.06,1.73v4.4c0,1.22.5,1.74,2.06,1.74a17.32,17.32,0,0,0,2.91-.3l.26,1.88a14.1,14.1,0,0,1-3.24.37c-3,0-4.24-1.22-4.24-3.31ZM78.25,190c-3,0-3.8-1.58-3.8-3.29v-2.12c0-1.71.81-3.29,3.8-3.29S82,182.87,82,184.58v2.12C82,188.41,81.23,190,78.25,190Zm0-6.92c-1.17,0-1.61.5-1.61,1.44v2.25c0,1,.44,1.45,1.61,1.45s1.61-.5,1.61-1.45v-2.25C79.86,183.57,79.41,183.07,78.25,183.07Zm9.93.14a16.87,16.87,0,0,0-2.3,1.22v5.39H83.69v-8.36h1.85l.14.92A10,10,0,0,1,88,181.29ZM96.91,187c0,1.85-.86,3-2.88,3a12.34,12.34,0,0,1-2.33-.24v3.42l-2.18.33v-12h1.73l.22.7a4.71,4.71,0,0,1,2.75-.87c1.76,0,2.69,1,2.69,2.9ZM91.7,188a10.09,10.09,0,0,0,1.93.23c.79,0,1.09-.36,1.09-1.12v-3c0-.69-.26-1.07-1.07-1.07a3.2,3.2,0,0,0-2,.76Z"/><path d="M45,214.74c2.63-1.14,3.82-2.74,3.82-5.58v-3.57c0-4.64-2.63-7.33-9.14-7.33H26.19v34.39H40.65c6.25,0,9.4-3,9.4-7.89v-3.67A6,6,0,0,0,45,214.74ZM32.69,203.63H39c2.37,0,3.4.88,3.4,2.79v3.05c0,2-.92,3.2-3.46,3.2h-6.2Zm10.85,20.3c0,2.53-1.24,3.36-4.18,3.36H32.69v-9.4h7.24c2.58,0,3.61,1.13,3.61,3.46Z"/><path d="M63.73,207c-8.62,0-10.94,4.75-10.94,9.92v6.35c0,5.16,2.32,9.91,10.94,9.91s11-4.75,11-9.91v-6.35C74.68,211.74,72.35,207,63.73,207Zm4.65,16.48c0,2.83-1.29,4.33-4.65,4.33s-4.64-1.5-4.64-4.33V216.7c0-2.84,1.29-4.34,4.64-4.34s4.65,1.5,4.65,4.34Z"/><path d="M93.58,207.51V225A17.34,17.34,0,0,1,87,227.08c-1.44,0-2-.67-2-2V207.51h-6.3v18.23c0,4.49,1.49,7.43,5.68,7.43a25.19,25.19,0,0,0,10.07-2.63l.62,2.11h4.8V207.51Z"/><path d="M120.8,207a25.27,25.27,0,0,0-10.07,2.63l-.62-2.11H105.3v25.14h6.3V215.2a17.48,17.48,0,0,1,6.56-2.11c1.45,0,2,.67,2,2v17.55h6.3V214.43C126.47,209.93,125,207,120.8,207Z"/><path d="M145.63,197.23v10.49a34.14,34.14,0,0,0-6.71-.73c-5.83,0-8.31,3.31-8.31,8.89v8.57c0,5.73,2.68,8.72,7.74,8.72a13.24,13.24,0,0,0,8-2.63l.61,2.11h5V196.36Zm0,28.3A8.89,8.89,0,0,1,140,227.8c-2.33,0-3.1-1.13-3.1-3.2v-8.88c0-2.28.87-3.36,3.15-3.36a27.3,27.3,0,0,1,5.57.68Z"/><path d="M165.52,207a33,33,0,0,0-8.63,1.19l.78,4.8a35.43,35.43,0,0,1,7-.77c4,0,4.8,1,4.8,3.77v2.63h-6c-5.12,0-7.34,2-7.34,7.08,0,4.34,2,7.48,6.56,7.48a13.73,13.73,0,0,0,7.49-2.22l.47,1.7h5.16V216.08C175.74,209.78,173.42,207,165.52,207Zm3.92,19.88a9.93,9.93,0,0,1-4.75,1.29c-2,0-2.53-.77-2.53-2.53,0-1.91.57-2.47,2.63-2.47h4.65Z"/><path d="M193,207a28.29,28.29,0,0,0-6.61,3.31l-.41-2.79h-5.32v25.14H187V216.44a48,48,0,0,1,6.66-3.66Z"/><path d="M212.35,207.51l-5.78,19.1-5.73-19.1h-6.46l8,25.14h2.21l-3.14,10.18h6l3.36-10.18,8.05-25.14Z"/><polygon class="cls-1" points="87.81 149.93 87.81 140.34 107.72 140.34 107.72 134.42 98.08 134.42 98.08 124.77 143.67 124.77 122.49 88.09 143.67 51.4 96.93 51.4 96.93 102.28 71.78 102.28 71.78 26.25 158.34 26.25 172.79 51.27 151.54 88.09 173.22 125.65 159.21 149.93 87.81 149.93"/><rect class="cls-1" x="82.04" y="124.77" width="9.65" height="9.65"/><rect class="cls-1" x="71.78" y="140.28" width="9.65" height="9.65"/></svg>