<svg id="LOGOS" xmlns="http://www.w3.org/2000/svg" viewBox="0 0 198 258"><defs><style>.cls-1{fill:#00bc7f;}.cls-2{fill:#009a69;}</style></defs><path d="M33.43,202.87v26.07H27.08V194.55h8.67l13.06,26.13V194.55h6.36v34.39H46.49Z"/><path d="M70.65,229.46c-8.62,0-10.94-4.75-10.94-9.92v-6.35c0-5.16,2.32-9.91,10.94-9.91S81.6,208,81.6,213.19v6.35C81.6,224.71,79.28,229.46,70.65,229.46Zm0-20.81c-3.35,0-4.64,1.5-4.64,4.34v6.76c0,2.84,1.29,4.34,4.64,4.34s4.65-1.5,4.65-4.34V213C75.3,210.15,74,208.65,70.65,208.65Z"/><path d="M100.76,228.94V211.39c0-1.35-.57-2-2-2a17.39,17.39,0,0,0-6.56,2.12v17.45h-6.3V203.8h4.81l.62,2.11a25.14,25.14,0,0,1,10.07-2.63,4.79,4.79,0,0,1,4.75,2.68,24.6,24.6,0,0,1,10.12-2.68c4.18,0,5.68,2.94,5.68,7.43v18.23h-6.3V211.39c0-1.35-.57-2-2-2a16.56,16.56,0,0,0-6.55,2.12v17.45Z"/><path d="M145.73,228.94h-5.17l-.46-1.7a13.73,13.73,0,0,1-7.49,2.22c-4.59,0-6.56-3.15-6.56-7.49,0-5.11,2.23-7.07,7.34-7.07h6v-2.64c0-2.79-.78-3.77-4.8-3.77a34.7,34.7,0,0,0-7,.78l-.78-4.8a32.57,32.57,0,0,1,8.62-1.19c7.9,0,10.23,2.79,10.23,9.09Zm-6.3-9.5h-4.65c-2.06,0-2.63.57-2.63,2.48s.57,2.53,2.53,2.53a9.93,9.93,0,0,0,4.75-1.29Z"/><path d="M149.6,212.16c0-5.58,2.48-8.88,8.31-8.88a35.12,35.12,0,0,1,6.72.72V193.52l6.29-.88v36.3h-5l-.62-2.11a13.26,13.26,0,0,1-8,2.63c-5.06,0-7.74-3-7.74-8.73Zm15-2.84a28.12,28.12,0,0,0-5.58-.67c-2.27,0-3.15,1.08-3.15,3.36v8.88c0,2.06.77,3.2,3.1,3.2a8.94,8.94,0,0,0,5.63-2.27Z"/><path d="M33.81,186.12V181.3H29.4v4.82H27.14V174.53H29.4v4.86h4.41v-4.86h2.26v11.59Zm10.52,0H42.54l-.16-.56a4.94,4.94,0,0,1-2.59.74c-1.59,0-2.27-1.05-2.27-2.5,0-1.7.77-2.35,2.54-2.35h2.09v-.87c0-.93-.27-1.26-1.66-1.26a12.28,12.28,0,0,0-2.42.26L37.8,178a11.87,11.87,0,0,1,3-.39c2.74,0,3.54.92,3.54,3ZM42.15,183H40.54c-.72,0-.91.19-.91.83s.19.84.87.84a3.58,3.58,0,0,0,1.65-.43Zm6.75,3.34a10.41,10.41,0,0,1-3-.49l.3-1.59a10.46,10.46,0,0,0,2.6.36c1,0,1.11-.21,1.11-.84s-.11-.78-1.52-1.1c-2.13-.5-2.38-1-2.38-2.63s.77-2.42,3.25-2.42a11.8,11.8,0,0,1,2.61.29l-.21,1.66a16,16,0,0,0-2.4-.24c-.95,0-1.11.21-1.11.73s.06.72,1.24,1c2.43.62,2.66.93,2.66,2.64S51.53,186.3,48.9,186.3Zm10-.18v-5.84c0-.44-.19-.67-.69-.67a6.07,6.07,0,0,0-2.27.71v5.8H53.74V174.37l2.19.32v3.7a7.9,7.9,0,0,1,3.18-.8c1.45,0,2,1,2,2.47v6.06Zm4-9.55v-2h2.18v2Zm0,9.55v-8.36h2.18v8.36Zm3.93-8.29c0-2.1,1.27-3.32,4.24-3.32a14,14,0,0,1,3.23.38l-.25,1.87a18.36,18.36,0,0,0-2.91-.29c-1.56,0-2.06.52-2.06,1.74v4.39c0,1.22.5,1.74,2.06,1.74a18.36,18.36,0,0,0,2.91-.29l.25,1.87a14,14,0,0,1-3.23.38c-3,0-4.24-1.22-4.24-3.32Zm12.3,8.47c-3,0-3.8-1.58-3.8-3.3v-2.12c0-1.71.81-3.29,3.8-3.29s3.79,1.58,3.79,3.29V183C82.93,184.72,82.12,186.3,79.14,186.3Zm0-6.93c-1.17,0-1.61.5-1.61,1.45v2.25c0,.94.44,1.44,1.61,1.44s1.61-.5,1.61-1.44v-2.25C80.75,179.87,80.3,179.37,79.14,179.37Zm9.93.14a16.87,16.87,0,0,0-2.3,1.22v5.39H84.58v-8.36h1.85l.14.93a9.58,9.58,0,0,1,2.29-1.1Zm8.73,3.83c0,1.86-.86,3-2.88,3a12.32,12.32,0,0,1-2.33-.25v3.42l-2.18.33v-12h1.73l.22.7a4.71,4.71,0,0,1,2.75-.87c1.76,0,2.69,1,2.69,2.9Zm-5.21.95a10.09,10.09,0,0,0,1.93.22c.79,0,1.09-.36,1.09-1.12v-2.95c0-.69-.26-1.07-1.07-1.07a3.2,3.2,0,0,0-2,.76Z"/><polygon class="cls-1" points="98.51 25.48 39.74 59.44 79.39 82.72 87.41 77.84 106.9 88.71 106.9 66.13 125.58 54.91 125.58 77.54 158.26 59.42 158.26 59.34 98.51 25.48"/><polygon class="cls-2" points="125.58 77.54 125.58 100.01 109.94 109.04 99 102.28 99 160.93 99.31 160.94 158.26 127.07 158.26 59.42 157.16 59.42 125.58 77.54"/><polygon class="cls-1" points="91.1 97.76 91.1 120.33 73.32 131.6 73.32 86.47 80.06 82.31 40.08 59.43 39.74 59.44 39.74 127.07 99 160.93 99 102.28 91.1 97.76"/></svg>