<?xml version="1.0" encoding="UTF-8"?>
<!-- Generator: Adobe Illustrator 15.1.0, SVG Export Plug-In . SVG Version: 6.00 Build 0)  -->
<!DOCTYPE svg PUBLIC "-//W3C//DTD SVG 1.1//EN" "http://www.w3.org/Graphics/SVG/1.1/DTD/svg11.dtd">
<svg version="1.1" id="Capa_1" xmlns="http://www.w3.org/2000/svg" xmlns:xlink="http://www.w3.org/1999/xlink" x="0px" y="0px" width="179px" height="53px" viewBox="36 15 179 46" enable-background="new 36 15 179 46" xml:space="preserve">
<g>
	<g>
		<defs>
			<path id="SVGID_1_" d="M159.592,48.54v1.993c0,6.828,3.418,11.65,10.589,11.65c3.621,0,6.501-1.539,8.177-3.817l0.67,3.146h6.904     V48.54h-8.043v0.853c0,3.282-2.078,5.759-5.428,5.759c-3.149,0-4.759-2.141-4.759-5.087V48.54H159.592z M145.819,61.515h8.043     V48.54h-8.043V61.515z M113.155,48.54v0.922c0,7.433,3.819,12.722,11.192,12.722c3.553,0,6.301-1.474,7.975-3.749l0.604,3.08     h6.904V48.54h-8.043v0.853c0,3.282-2.078,5.759-5.429,5.759s-5.093-2.409-5.093-5.622V48.54H113.155z M99.947,61.515h8.042V48.54     h-8.042V61.515z M68.127,48.54v0.452c0,8.103,5.428,13.191,13.403,13.191c7.977,0,13.338-5.088,13.338-13.191V48.54h-8.042v1.054     c0,3.349-1.944,5.76-5.296,5.76c-3.351,0-5.294-2.41-5.294-5.76V48.54H68.127z M55.312,61.515h8.042V48.54h-8.042V61.515z      M36.682,61.515h8.108V48.54h-8.108V61.515z M63.354,41.715v-1.427c0-7.164-3.484-12.252-10.856-12.252     c-3.352,0-5.965,1.339-7.708,3.281V16.184h-8.108v25.531h8.108v-0.823c0-3.348,2.078-5.826,5.428-5.826     c3.352,0,5.094,2.411,5.094,5.691v0.958H63.354z M94.867,41.715v-0.488c0-8.035-5.361-13.191-13.338-13.191     c-7.975,0-13.403,5.156-13.403,13.191v0.488h8.108V40.69c0-3.347,1.943-5.826,5.294-5.826c3.352,0,5.295,2.478,5.295,5.826v1.024     H94.867z M107.988,16.184h-8.042v25.531h8.042V16.184z M139.83,41.715v-13.01h-6.904l-0.604,3.079     c-1.675-2.21-4.422-3.749-7.975-3.749c-7.372,0-11.192,5.289-11.192,12.722v0.958h8.109v-0.958c0-3.281,1.743-5.691,5.092-5.691     c3.352,0,5.429,2.478,5.429,5.826v0.823H139.83z M153.862,16.184h-8.043v25.531h8.043V16.184z M167.701,28.705h-8.109v13.009     h8.109V28.705z M185.931,28.705h-8.043v13.009h8.043V28.705z M208.913,41.715l5.432-8.323v-4.687h-23.59v6.628h13.604     l-4.198,6.381H208.913z M214.682,61.515v-6.562h-14.41l4.185-6.411h-8.786l-5.452,8.285v4.688H214.682L214.682,61.515z"/>
		</defs>
		<clipPath id="SVGID_2_">
			<use xlink:href="#SVGID_1_" overflow="visible"/>
		</clipPath>

			<linearGradient id="SVGID_3_" gradientUnits="userSpaceOnUse" x1="-192.6377" y1="801.2891" x2="-14.3428" y2="801.2891" gradientTransform="matrix(-1 0 0 1 22.1143 -761.7861)">
			<stop offset="0" style="stop-color:#E6007D"/>
			<stop offset="1" style="stop-color:#FFDC00"/>
		</linearGradient>
		<rect x="0" y="0" clip-path="url(#SVGID_2_)" fill="url(#SVGID_3_)" width="215" height="63"/>
	</g>
</g>
</svg>