<svg xmlns:svg="http://www.w3.org/2000/svg" xmlns="http://www.w3.org/2000/svg" version="1.1" width="260" height="194.46213" viewBox="0 0 208 155.5697">
<title>Kuhn Rikon</title>
<defs id="defs4">
<clipPath id="clip1">
<path d="M 0,908.79687 0,990 l 108.57031,0 0,-81.20313 -108.57031,0 z m 0,0" id="path7"/>
</clipPath>
<clipPath id="clip2">
<path d="m 0,990 108.57031,0 0,-81.20313 L 0,908.79687 0,990 z m 0,0" id="path10"/>
</clipPath>
</defs>
<g transform="matrix(1.9158092,0,0,1.9158092,-1.25e-6,-1741.0814)" id="misc2svg">
<g clip-path="url(#clip1)" id="g13">
<path d="m 43.691406,990 20.953125,0 0,-20.95313 -20.953125,0 0,20.95313 z m 0,0" id="path15" style="fill:#ed1c24;fill-opacity:1;fill-rule:nonzero;stroke:none"/>
<path d="m 51.75,986.77344 4.832031,0 0,-14.50391 -4.832031,0 0,14.50391 z m 0,0" id="path17" style="fill:#ffffff;fill-opacity:1;fill-rule:nonzero;stroke:none"/>
<path d="m 46.914062,981.9375 14.507813,0 0,-4.83203 -14.507813,0 0,4.83203 z m 0,0" id="path19" style="fill:#ffffff;fill-opacity:1;fill-rule:nonzero;stroke:none"/>
</g>
<g clip-path="url(#clip2)" id="g21">
<path d="m 0.0195312,961.4375 c 0,1.92969 1.6406248,2.47656 3.2226568,2.47656 1.410156,0 3.007812,-0.50781 3.007812,-2.29297 0,-1.42968 -1.558594,-1.69531 -2.109375,-1.79687 L 2.425781,959.53125 C 1.5625,959.38281 1.28125,959.04297 1.28125,958.60937 c 0,-0.82812 0.859375,-1.14843 1.625,-1.14843 1.679688,0 1.992188,0.74609 2.078125,1.29687 l 1.039063,0 c -0.09375,-1.6875 -1.578126,-2.19922 -2.980469,-2.19922 -1.792969,0 -2.804688,0.85547 -2.804688,2.13282 0,1.35546 1.246094,1.69531 2.082031,1.83203 l 1.585938,0.26172 c 0.804688,0.13671 1.304688,0.40625 1.304688,1.04296 0,0.76563 -0.78125,1.1836 -1.890626,1.1836 -1.0625,0 -2.242187,-0.32031 -2.261718,-1.57422 l -1.0390628,0" id="path23" style="fill:#231f20;fill-opacity:1;fill-rule:evenodd;stroke:none"/>
<path d="m 16.882812,963.74219 1.132813,0 2.378906,-7.00391 -1.078125,0 -1.785156,5.6875 -0.02344,0 -1.921874,-5.6875 -1.234376,0 -1.875,5.6875 -0.01562,0 -1.796876,-5.6875 -1.132812,0 2.308594,7.00391 1.148437,0 1.933594,-5.8125 0.01953,0 1.941406,5.8125" id="path25" style="fill:#231f20;fill-opacity:1;fill-rule:evenodd;stroke:none"/>
<path d="m 24.367188,963.74219 1.039062,0 0,-7.00391 -1.039062,0 0,7.00391 z m 0,0" id="path27" style="fill:#231f20;fill-opacity:1;fill-rule:evenodd;stroke:none"/>
<path d="m 32.09375,963.74219 1.046875,0 0,-6.10547 2.644531,0 0,-0.89844 -6.335937,0 0,0.89844 2.644531,0 0,6.10547" id="path29" style="fill:#231f20;fill-opacity:1;fill-rule:evenodd;stroke:none"/>
<path d="m 39.125,963.74219 6.445312,0 0,-0.90625 -5.097656,0 5.019532,-5.19922 0,-0.89844 -6.007813,0 0,0.89844 4.648437,0 -5.007812,5.17187 0,0.9336" id="path31" style="fill:#231f20;fill-opacity:1;fill-rule:evenodd;stroke:none"/>
<path d="m 49.65625,963.74219 5.730469,0 0,-0.90625 -4.6875,0 0,-2.26563 4.453125,0 0,-0.90234 -4.453125,0 0,-2.03125 4.589843,0 0,-0.89844 -5.632812,0 0,7.00391" id="path33" style="fill:#231f20;fill-opacity:1;fill-rule:evenodd;stroke:none"/>
<path d="m 59.796875,963.74219 1.039063,0 0,-2.97657 2.71875,0 c 0.859374,0 1.285156,0.38282 1.351562,1.64063 0.05078,0.83984 0.05078,1.14062 0.214844,1.33594 l 1.097656,0 c -0.234375,-0.27344 -0.273438,-0.60157 -0.328125,-1.90625 -0.04687,-0.82422 -0.40625,-1.40235 -1.023437,-1.48828 l 0,-0.0195 c 0.765624,-0.24609 1.179687,-0.875 1.179687,-1.73046 0,-0.89454 -0.515625,-1.85938 -1.914063,-1.85938 l -4.335937,0 0,7.00391 z m 1.039063,-3.87891 0,-2.22656 2.933593,0 c 0.832031,0 1.234375,0.45312 1.234375,1.12109 0,0.49219 -0.246094,1.10547 -1.261718,1.10547 l -2.90625,0" id="path35" style="fill:#231f20;fill-opacity:1;fill-rule:evenodd;stroke:none"/>
<path d="m 70.433594,963.74219 5.300781,0 0,-0.90625 -4.257813,0 0,-6.09766 -1.042968,0 0,7.00391" id="path37" style="fill:#231f20;fill-opacity:1;fill-rule:evenodd;stroke:none"/>
<path d="m 84.03125,960.79687 -2.65625,0 1.316406,-3.10156 1.339844,3.10156 z m 1.28125,2.94532 1.1875,0 -3.171875,-7.00391 -1.183594,0 -3.167969,7.00391 1.117188,0 0.890625,-2.04297 3.433594,0 0.894531,2.04297" id="path39" style="fill:#231f20;fill-opacity:1;fill-rule:evenodd;stroke:none"/>
<path d="m 96.011719,963.74219 1.207031,0 0,-7.00391 -1.042969,0 0,5.57031 -0.01953,0 -4.5,-5.57031 -1.210938,0 0,7.00391 1.042969,0 0,-5.57422 0.01953,0 4.503907,5.57422" id="path41" style="fill:#231f20;fill-opacity:1;fill-rule:evenodd;stroke:none"/>
<path d="m 101.95703,963.74219 3.61328,0 c 2.14844,0 3,-1.65235 3,-3.60157 0,-2.03125 -0.95703,-3.40234 -3.05859,-3.40234 l -3.55469,0 0,7.00391 z M 103,962.83594 l 0,-5.19922 2.32813,0 c 1.80078,0 2.20312,1.28906 2.20312,2.52344 0,1.24609 -0.30469,2.67578 -2.00781,2.67578 l -2.52344,0" id="path43" style="fill:#231f20;fill-opacity:1;fill-rule:evenodd;stroke:none"/>
<path d="m 10.707031,920.21875 -2.652343,2.12891 0,4.98046 -8.05078175,0 0,-18.53125 8.05078175,0 0,6.54688 7.476562,-6.54688 10.679688,0 -9.105469,7.16407 9.882812,11.36718 -10.707031,0 -5.574219,-7.10937" id="path45" style="fill:#231f20;fill-opacity:1;fill-rule:nonzero;stroke:none"/>
<path d="m 27.152344,908.79687 8.050781,0 0,11.21094 c 0,2.39063 1.515625,3.14844 4.140625,3.14844 2.628906,0 4.140625,-0.75781 4.140625,-3.14844 l 0,-11.21094 8.046875,0 0,11.5 c 0,5.89454 -3.90625,7.67969 -12.1875,7.67969 -8.28125,0 -12.191406,-1.78515 -12.191406,-7.67969 l 0,-11.5" id="path47" style="fill:#231f20;fill-opacity:1;fill-rule:nonzero;stroke:none"/>
<path d="m 71.722656,919.9375 -9.050781,0 0,7.39062 -8.054687,0 0,-18.53125 8.054687,0 0,6.46875 9.050781,0 0,-6.46875 8.050782,0 0,18.53125 -8.050782,0 0,-7.39062" id="path49" style="fill:#231f20;fill-opacity:1;fill-rule:nonzero;stroke:none"/>
<path d="m 83.285156,908.79687 9.191406,0 8.164068,10.28125 0.0859,0 0,-10.28125 7.71094,0 0,18.53125 -8.824219,0 -8.5625,-10.3789 -0.05859,0 0,10.3789 -7.707032,0 0,-18.53125" id="path51" style="fill:#231f20;fill-opacity:1;fill-rule:nonzero;stroke:none"/>
<path d="m 7.320312,937.27344 5.085938,0 c 1.222656,0 2.128906,0.33984 2.128906,1.74218 0,1.16407 -0.59375,1.73438 -2.019531,1.73438 l -5.195313,0 0,-3.47656 z M 0,951.13281 l 7.320312,0 0,-5.70703 5.195313,0 c 1.347656,0 1.816406,0.82813 1.894531,2.19922 0.125,2.16016 0.125,2.96484 0.386719,3.50781 l 7.992187,0 c -0.464843,-0.57031 -0.832031,-1.34765 -0.910156,-2.17969 l -0.308594,-4.04687 c -0.128906,-1.60938 -1.015624,-2.54297 -2.101562,-2.85547 l 0,-0.0547 c 2.128906,-0.625 2.855469,-2.48828 2.855469,-4.22656 0,-2.02734 -1.144531,-3.82031 -2.519531,-4.49219 -1.011719,-0.49609 -2.285157,-0.67578 -4.382813,-0.67578 L 0,932.60155 0,951.1328" id="path53" style="fill:#231f20;fill-opacity:1;fill-rule:nonzero;stroke:none"/>
<path d="m 24.785156,951.13281 7.320313,0 0,-18.53125 -7.320313,0 0,18.53125 z m 0,0" id="path55" style="fill:#231f20;fill-opacity:1;fill-rule:nonzero;stroke:none"/>
<path d="m 45.238281,944.02344 -2.410156,2.125 0,4.98437 -7.320313,0 0,-18.53125 7.320313,0 0,6.54297 6.796875,-6.54297 9.707031,0 -8.277343,7.16406 8.980468,11.36719 -9.738281,0 -5.058594,-7.10937" id="path57" style="fill:#231f20;fill-opacity:1;fill-rule:nonzero;stroke:none"/>
<path d="m 65.953125,941.86719 c 0,-3.76172 1.894531,-5.24219 4.875,-5.24219 2.984375,0 4.882813,1.48047 4.882813,5.24219 0,3.76562 -1.898438,5.24218 -4.882813,5.24218 -2.980469,0 -4.875,-1.47656 -4.875,-5.24218 m -7.789063,0 c 0,9.60156 8.226563,9.91406 12.664063,9.91406 4.441406,0 12.667969,-0.3125 12.667969,-9.91406 0,-9.60157 -8.226563,-9.91407 -12.667969,-9.91407 -4.4375,0 -12.664063,0.3125 -12.664063,9.91407" id="path59" style="fill:#231f20;fill-opacity:1;fill-rule:nonzero;stroke:none"/>
<path d="m 85.578125,932.60156 8.351563,0 7.421872,10.28125 0.0781,0 0,-10.28125 7.00781,0 0,18.53125 -8.01562,0 -7.789068,-10.38281 -0.05469,0 0,10.38281 -7,0 0,-18.53125" id="path61" style="fill:#231f20;fill-opacity:1;fill-rule:nonzero;stroke:none"/>
</g>
</g>
</svg>