<?xml version="1.0" encoding="UTF-8"?>
<!-- Generator: Adobe Illustrator 13.0.2, SVG Export Plug-In  -->
<!DOCTYPE svg PUBLIC "-//W3C//DTD SVG 1.1//EN" "http://www.w3.org/Graphics/SVG/1.1/DTD/svg11.dtd">
<svg version="1.1" xmlns="http://www.w3.org/2000/svg" xmlns:xlink="http://www.w3.org/1999/xlink" xmlns:a="http://ns.adobe.com/AdobeSVGViewerExtensions/3.0/" x="0px" y="0px" width="475px" height="475px" viewBox="-13.589 -12.875 475 475" enable-background="new -13.589 -12.875 475 475" xml:space="preserve">
<defs>
</defs>
<path d="M225,0C100.736,0,0,100.736,0,225c0,124.263,100.736,225,225,225c124.263,0,225-100.737,225-225  C450,100.736,349.263,0,225,0z M225,428.455c-112.365,0-203.456-91.09-203.456-203.455S112.635,21.544,225,21.544  S428.455,112.635,428.455,225S337.365,428.455,225,428.455z"/>
<path fill="none" d="M320.201,349.178c-0.758-7.205-2.688-23.354-4.752-22.98c-2.19,0.4-6.015,18.191-7.277,24.356  C312.225,350.239,316.234,349.772,320.201,349.178z"/>
<g>
	<path d="M340.694,344.777c-2.481-1.344-5.427-2.879-5.929-3.717c-0.724-1.205-1.69-34.248,0.483-38.106   c2.17-3.861,8.922-13.512,10.852-19.539c1.932-6.031,0.24-22.91-0.722-27.253c-0.966-4.342,5.091-7.482,7.938-8.051   c1.735-0.348,5.552-1.735,6.293-4.492c1.001-3.734,4.581-6.031,4.34-11.577c-0.123-2.865-3.077-4.94-5.239-8.244   c-2.023-3.093-3.231-7.471-4.165-8.639c-1.929-2.41-9.384-7.059-9.714-9.247c-0.333-2.188-5.738-15.167-9.79-14.589   c-4.301,0.615-4.436,15.051-4.436,15.051s-11.799,3.933-14.575,11.682c-1.974,5.516-3.335,10.859-5.899,14.574   c-4.799,6.962-10.945,10.233-12.989,12.436c-3.135,3.376-6.27,9.165-11.577,10.129c-5.308,0.967-13.179,3.691-23.546,9.238   c-10.373,5.55-17.978,18.857-19.667,27.298c-1.686,8.439-4.259,22.788-1.849,31.23c2.411,8.44,2.373,9.654,2.614,12.791   c0.238,3.137-11.904-6.91-14.7-11.348c-3.562-5.653-10.131-14.773-8.85-24.173c1.619-11.875,8.437-17.698,10.583-23.02   c7.632-18.908-16.864-33.873-19.778-28.451c-2.891,5.379,20.124,11.102,12.317,25.506c-3.652,6.734-9.715,12.839-11.622,24.46   c-2.183,13.305,8.525,30.955,11.525,36.025c-56.779-27.073-96.017-84.997-96.017-152.089c0-53.428,24.888-101.041,63.695-131.891   C110.974,68.192,51.626,138.847,51.626,223.376c0,97.607,79.125,176.731,176.731,176.731c54.757,0,103.692-24.903,136.11-64   C356.832,339.57,348.885,342.472,340.694,344.777z M315.449,326.197c2.063-0.374,3.994,15.775,4.752,22.98   c-3.967,0.595-7.977,1.062-12.029,1.376C309.435,344.389,313.259,326.598,315.449,326.197z"/>
</g>
</svg>