<?xml version="1.0" encoding="UTF-8" standalone="no"?>
<svg xmlns:dc="http://purl.org/dc/elements/1.1/" xmlns:cc="http://creativecommons.org/ns#" xmlns:rdf="http://www.w3.org/1999/02/22-rdf-syntax-ns#" xmlns:svg="http://www.w3.org/2000/svg" xmlns="http://www.w3.org/2000/svg" xmlns:sodipodi="http://sodipodi.sourceforge.net/DTD/sodipodi-0.dtd" xmlns:inkscape="http://www.inkscape.org/namespaces/inkscape" viewBox="0 0 157.24001 36" height="36" width="157.24001" id="svg3750" version="1.1" sodipodi:docname="snapcraft-logo.svg" inkscape:version="0.92.2 (30a58d1, 2017-08-07)">
  
  
  <defs id="defs3754">
    
  </defs>
  <g transform="translate(-25.38,-12)" id="g3921">
    <path style="fill:#464646" class="cls-1" d="m 77.61,36.63 a 6,6 0 0 0 2.69,-0.54 1.88,1.88 0 0 0 1.06,-1.82 2.63,2.63 0 0 0 -0.19,-1 2.07,2.07 0 0 0 -0.63,-0.79 5.37,5.37 0 0 0 -1.15,-0.67 L 77.64,31 q -0.85,-0.35 -1.6,-0.71 a 6.51,6.51 0 0 1 -1.34,-0.84 3.67,3.67 0 0 1 -0.93,-1.15 3.49,3.49 0 0 1 -0.35,-1.63 3.66,3.66 0 0 1 1.38,-3 5.82,5.82 0 0 1 3.8,-1.14 10.31,10.31 0 0 1 2.55,0.26 8.08,8.08 0 0 1 1.41,0.47 L 82.13,25 a 11.37,11.37 0 0 0 -1.18,-0.47 7.75,7.75 0 0 0 -2.43,-0.29 5.36,5.36 0 0 0 -1.21,0.13 3.22,3.22 0 0 0 -1,0.41 2.19,2.19 0 0 0 -0.7,0.7 1.93,1.93 0 0 0 -0.26,1 2.21,2.21 0 0 0 0.23,1.05 2.33,2.33 0 0 0 0.69,0.77 5.76,5.76 0 0 0 1.11,0.63 l 1.5,0.64 q 0.87,0.35 1.68,0.71 a 6.18,6.18 0 0 1 1.41,0.87 4,4 0 0 1 1,1.22 3.8,3.8 0 0 1 0.38,1.79 3.5,3.5 0 0 1 -1.53,3.09 7.3,7.3 0 0 1 -4.18,1 10.52,10.52 0 0 1 -3,-0.34 11.53,11.53 0 0 1 -1.4,-0.51 l 0.5,-1.72 a 3.06,3.06 0 0 0 0.38,0.19 7.92,7.92 0 0 0 0.79,0.29 8.47,8.47 0 0 0 1.18,0.28 9.58,9.58 0 0 0 1.52,0.19 z" id="path3876" inkscape:connector-curvature="0"/>
    <path style="fill:#464646" class="cls-1" d="m 85.92,23.44 q 0.84,-0.23 2.27,-0.52 a 17.87,17.87 0 0 1 3.5,-0.29 7.28,7.28 0 0 1 2.87,0.5 4.4,4.4 0 0 1 1.84,1.41 5.77,5.77 0 0 1 1,2.2 12.78,12.78 0 0 1 0.29,2.83 V 38 h -1.92 v -7.83 a 14.31,14.31 0 0 0 -0.22,-2.71 4.53,4.53 0 0 0 -0.73,-1.81 2.83,2.83 0 0 0 -1.34,-1 6.09,6.09 0 0 0 -2.08,-0.31 15.86,15.86 0 0 0 -2.32,0.15 7.11,7.11 0 0 0 -1.27,0.26 V 38 h -1.89 z" id="path3878" inkscape:connector-curvature="0"/>
    <path style="fill:#464646" class="cls-1" d="m 105.92,22.56 a 6.68,6.68 0 0 1 2.52,0.42 4.33,4.33 0 0 1 1.67,1.17 4.59,4.59 0 0 1 0.93,1.76 8,8 0 0 1 0.29,2.21 v 9.5 a 8.56,8.56 0 0 1 -0.84,0.19 l -1.28,0.22 q -0.73,0.12 -1.62,0.19 -0.89,0.07 -1.82,0.07 a 8.69,8.69 0 0 1 -2.2,-0.26 4.86,4.86 0 0 1 -1.75,-0.83 3.91,3.91 0 0 1 -1.16,-1.46 5,5 0 0 1 -0.42,-2.17 4.4,4.4 0 0 1 0.47,-2.1 4,4 0 0 1 1.29,-1.47 5.86,5.86 0 0 1 2,-0.83 11.56,11.56 0 0 1 2.53,-0.26 c 0.27,0 0.56,0 0.86,0 0.3,0 0.59,0.07 0.87,0.12 l 0.73,0.15 a 2.3,2.3 0 0 1 0.42,0.13 v -0.93 a 9.92,9.92 0 0 0 -0.12,-1.53 3.35,3.35 0 0 0 -0.51,-1.34 2.83,2.83 0 0 0 -1.11,-1 4.15,4.15 0 0 0 -1.88,-0.36 9.72,9.72 0 0 0 -2.48,0.23 q -0.82,0.23 -1.19,0.38 l -0.26,-1.66 a 7,7 0 0 1 1.53,-0.44 13.07,13.07 0 0 1 2.53,-0.1 z m 0.18,14 q 1.11,0 1.94,-0.07 a 13.15,13.15 0 0 0 1.41,-0.19 V 31 a 5.8,5.8 0 0 0 -1,-0.31 9,9 0 0 0 -1.92,-0.16 10.93,10.93 0 0 0 -1.46,0.1 4.23,4.23 0 0 0 -1.4,0.44 2.91,2.91 0 0 0 -1,0.92 2.64,2.64 0 0 0 -0.41,1.54 3.31,3.31 0 0 0 0.28,1.43 2.3,2.3 0 0 0 0.79,0.93 3.49,3.49 0 0 0 1.22,0.51 7.39,7.39 0 0 0 1.55,0.2 z" id="path3880" inkscape:connector-curvature="0"/>
    <path style="fill:#464646" class="cls-1" d="m 116.51,43.36 h -1.89 V 23.44 a 17.12,17.12 0 0 1 2.16,-0.55 17.39,17.39 0 0 1 3.32,-0.26 8.1,8.1 0 0 1 3,0.54 6.53,6.53 0 0 1 2.33,1.56 7.1,7.1 0 0 1 1.57,2.46 9.45,9.45 0 0 1 0.54,3.29 10.53,10.53 0 0 1 -0.45,3.16 7,7 0 0 1 -1.33,2.48 6.09,6.09 0 0 1 -2.14,1.62 6.87,6.87 0 0 1 -2.9,0.58 7.14,7.14 0 0 1 -2.58,-0.42 6.72,6.72 0 0 1 -1.59,-0.8 z m 0,-8.1 a 6.3,6.3 0 0 0 0.66,0.44 6.2,6.2 0 0 0 0.92,0.44 7.41,7.41 0 0 0 1.14,0.33 6.09,6.09 0 0 0 1.28,0.13 5.14,5.14 0 0 0 2.34,-0.48 4.1,4.1 0 0 0 1.53,-1.31 5.56,5.56 0 0 0 0.84,-2 10.38,10.38 0 0 0 0.26,-2.37 6.43,6.43 0 0 0 -1.48,-4.51 5.13,5.13 0 0 0 -3.93,-1.59 15.61,15.61 0 0 0 -2.26,0.13 8.47,8.47 0 0 0 -1.3,0.28 z" id="path3882" inkscape:connector-curvature="0"/>
    <path style="fill:#464646" class="cls-1" d="m 140.25,37.22 a 3.83,3.83 0 0 1 -0.76,0.36 9.82,9.82 0 0 1 -0.95,0.29 9.2,9.2 0 0 1 -1,0.2 7.64,7.64 0 0 1 -1,0.07 6.45,6.45 0 0 1 -5,-2 8.08,8.08 0 0 1 -1.78,-5.61 10.77,10.77 0 0 1 0.47,-3.29 7.19,7.19 0 0 1 1.33,-2.48 5.65,5.65 0 0 1 2.1,-1.56 6.9,6.9 0 0 1 2.78,-0.54 10.87,10.87 0 0 1 2.1,0.17 5.75,5.75 0 0 1 1.54,0.52 l -0.29,0.9 a 5.14,5.14 0 0 0 -1.46,-0.5 9.67,9.67 0 0 0 -1.89,-0.17 5,5 0 0 0 -4.17,1.81 8,8 0 0 0 -1.46,5.13 7.34,7.34 0 0 0 1.47,5 5.39,5.39 0 0 0 4.3,1.69 7.56,7.56 0 0 0 1.86,-0.26 6.46,6.46 0 0 0 1.66,-0.64 z" id="path3884" inkscape:connector-curvature="0"/>
    <path style="fill:#464646" class="cls-1" d="m 144.07,38 h -1 V 23.78 a 9.74,9.74 0 0 1 2.2,-0.79 10.4,10.4 0 0 1 2.32,-0.26 7.7,7.7 0 0 1 2.68,0.38 l -0.2,0.87 a 6.06,6.06 0 0 0 -1.11,-0.23 11,11 0 0 0 -1.43,-0.09 8.86,8.86 0 0 0 -1.79,0.19 7.73,7.73 0 0 0 -1.68,0.54 z" id="path3886" inkscape:connector-curvature="0"/>
    <path style="fill:#464646" class="cls-1" d="m 161.87,37.48 a 15.76,15.76 0 0 1 -2.35,0.5 18.31,18.31 0 0 1 -2.49,0.17 6.85,6.85 0 0 1 -4.31,-1.15 4.1,4.1 0 0 1 -1.46,-3.42 3.85,3.85 0 0 1 1.52,-3.31 7.67,7.67 0 0 1 4.57,-1.12 11.75,11.75 0 0 1 1.86,0.16 10.05,10.05 0 0 1 1.66,0.39 v -1.14 a 5.89,5.89 0 0 0 -1,-3.79 4.19,4.19 0 0 0 -3.37,-1.17 10,10 0 0 0 -1.91,0.19 6.22,6.22 0 0 0 -1.56,0.48 l -0.15,-0.93 a 9.26,9.26 0 0 1 3.79,-0.67 5,5 0 0 1 3.92,1.38 5.73,5.73 0 0 1 1.28,3.95 z m -1,-6.9 a 8.51,8.51 0 0 0 -1.57,-0.41 11.76,11.76 0 0 0 -1.92,-0.15 q -5.07,0 -5.07,3.55 a 3.22,3.22 0 0 0 1.18,2.75 6.15,6.15 0 0 0 3.69,0.89 17.73,17.73 0 0 0 1.85,-0.1 12,12 0 0 0 1.85,-0.33 z" id="path3888" inkscape:connector-curvature="0"/>
    <path style="fill:#464646" class="cls-1" d="m 165.91,38 h -1 V 21.1 a 6.31,6.31 0 0 1 1.27,-4.36 5,5 0 0 1 3.82,-1.38 7.41,7.41 0 0 1 1.56,0.16 5.1,5.1 0 0 1 1.15,0.36 l -0.23,0.9 a 5.58,5.58 0 0 0 -1.21,-0.36 6.75,6.75 0 0 0 -1.27,-0.12 4,4 0 0 0 -3.09,1.09 5.5,5.5 0 0 0 -1,3.77 V 23 h 6.29 v 1 h -6.29 z" id="path3890" inkscape:connector-curvature="0"/>
    <path style="fill:#464646" class="cls-1" d="m 182.62,37.36 a 7.22,7.22 0 0 1 -1.49,0.55 6.67,6.67 0 0 1 -1.72,0.23 A 4.48,4.48 0 0 1 176,37 q -1.11,-1.2 -1.11,-4.14 V 18.37 l 1,-0.23 V 23 h 6.09 v 0.87 h -6.09 V 33 a 7.85,7.85 0 0 0 0.23,2.08 3,3 0 0 0 0.7,1.31 2.49,2.49 0 0 0 1.12,0.67 5.38,5.38 0 0 0 1.5,0.19 6,6 0 0 0 1.68,-0.23 6.17,6.17 0 0 0 1.27,-0.5 z" id="path3892" inkscape:connector-curvature="0"/>
    <polygon style="fill:#82bea0" class="cls-2" points="47.06,20.14 47.06,32.14 55.37,23.83 " id="polygon3894"/>
    <polygon style="fill:#82bea0" class="cls-2" points="41.38,28.9 31.19,48 45.85,33.34 " id="polygon3896"/>
    <polygon style="fill:#82bea0" class="cls-2" points="46.35,19.58 25.38,12 46.35,32.84 " id="polygon3898"/>
    <polygon style="fill:#fa6441" class="cls-3" points="63.06,26.48 59.62,19.58 47.54,19.58 " id="polygon3900"/>
  </g>
</svg>