<?xml version="1.0" encoding="UTF-8" standalone="no"?>
<!-- Generator: Adobe Illustrator 24.0.0, SVG Export Plug-In . SVG Version: 6.00 Build 0)  -->

<svg
   version="1.1"
   id="Layer_3"
   x="0px"
   y="0px"
   viewBox="0 0 386 386"
   xml:space="preserve"
   sodipodi:docname="temporal.svg"
   width="386"
   height="386"
   inkscape:version="1.4.3 (0d15f75042, 2025-12-25)"
   xmlns:inkscape="http://www.inkscape.org/namespaces/inkscape"
   xmlns:sodipodi="http://sodipodi.sourceforge.net/DTD/sodipodi-0.dtd"
   xmlns="http://www.w3.org/2000/svg"
   xmlns:svg="http://www.w3.org/2000/svg"><defs
   id="defs1" /><sodipodi:namedview
   id="namedview1"
   pagecolor="#ffffff"
   bordercolor="#000000"
   borderopacity="0.25"
   inkscape:showpageshadow="2"
   inkscape:pageopacity="0.0"
   inkscape:pagecheckerboard="0"
   inkscape:deskcolor="#d1d1d1"
   inkscape:zoom="1.2066667"
   inkscape:cx="210.08287"
   inkscape:cy="208.01105"
   inkscape:window-width="3072"
   inkscape:window-height="1659"
   inkscape:window-x="0"
   inkscape:window-y="0"
   inkscape:window-maximized="1"
   inkscape:current-layer="Layer_3"
   inkscape:clip-to-page="false" />
<style
   type="text/css"
   id="style1">
	.st0{fill:#141414;}
</style>
<path
   class="st0"
   d="M 260.65,125.35 C 251.53,57.03 228.45,0 193,0 157.55,0 134.47,57.03 125.35,125.35 57.03,134.47 0,157.55 0,193 0,228.45 57.04,251.53 125.35,260.65 134.47,328.96 157.55,386 193,386 228.45,386 251.53,328.96 260.65,260.65 328.97,251.53 386,228.45 386,193 386,157.55 328.96,134.47 260.65,125.35 Z M 123.12,240.75 C 57.69,231.3 19.53,209.67 19.53,193 c 0,-16.67 38.16,-38.3 103.59,-47.75 -1.44,15.75 -2.19,31.83 -2.19,47.75 0,15.92 0.75,32.01 2.19,47.75 z M 193,19.53 c 16.67,0 38.3,38.16 47.75,103.59 -15.74,-1.44 -31.83,-2.19 -47.75,-2.19 -15.92,0 -32.01,0.75 -47.75,2.19 C 154.7,57.69 176.33,19.53 193,19.53 Z m 69.88,221.22 c -3.22,0.47 -16.43,2.02 -19.77,2.35 -0.33,3.35 -1.89,16.55 -2.35,19.77 -9.45,65.43 -31.08,103.59 -47.75,103.59 -16.67,0 -38.3,-38.16 -47.75,-103.59 -0.46,-3.22 -2.02,-16.43 -2.35,-19.77 -1.52,-15.51 -2.44,-32.17 -2.44,-50.1 0,-17.93 0.92,-34.59 2.44,-50.11 15.51,-1.52 32.17,-2.44 50.1,-2.44 17.93,0 34.59,0.92 50.1,2.44 3.35,0.33 16.55,1.89 19.77,2.35 65.43,9.45 103.6,31.09 103.6,47.75 0,16.66 -38.17,38.31 -103.6,47.76 z"
   id="path1" />
</svg>
