<?xml version="1.0" encoding="UTF-8"?>
<svg width="72px" height="22px" viewBox="0 0 72 22" version="1.1" xmlns="http://www.w3.org/2000/svg" xmlns:xlink="http://www.w3.org/1999/xlink">
    <!-- Generator: Sketch 41.2 (35397) - http://www.bohemiancoding.com/sketch -->
    <title>logo</title>
    <desc>Created with Sketch.</desc>
    <defs></defs>
    <g id="Page-1" stroke="none" stroke-width="1" fill="none" fill-rule="evenodd">
        <g id="Home" transform="translate(-203.000000, -22.000000)" fill="#13CB4F">
            <g id="nav" transform="translate(203.000000, 22.000000)">
                <g id="nav_branding">
                    <g id="logo">
                        <path d="M53.3052075,9.56096054 C53.3052075,12.2539401 53.3110697,14.9469197 53.3031031,17.6397497 C53.2979925,19.3324027 52.5353035,20.617083 51.0753119,21.4541306 C49.6073537,22.2958177 46.6556543,22.2265252 45.2807399,20.0572054 C43.2097253,16.7892327 41.0665603,13.5664571 38.9340676,10.3373959 C38.735504,10.0365796 38.3941428,9.82915102 38.1190697,9.57832109 C38.0380509,9.94453878 37.888339,10.3104571 37.8866856,10.6771238 C37.8716543,14.068117 37.8862347,17.4592599 37.8821762,20.8504027 C37.881124,21.7084027 37.6750447,21.908498 36.8132994,21.915532 C35.6614497,21.9251102 34.5091491,21.9257088 33.3572994,21.9104435 C32.5268192,21.899668 32.2628693,21.6521306 32.2621177,20.8355864 C32.2567065,15.2751238 32.2467858,9.71451156 32.2757962,4.15419864 C32.285266,2.32415782 33.5328651,0.675355102 35.3005478,0.210212245 C37.3493161,-0.328862585 38.9572159,0.15004898 40.1216919,1.8656 C41.8740426,4.44738231 43.5485311,7.08139592 45.2539841,9.6946068 C45.7452075,10.4472463 46.2125311,11.216049 46.7272033,11.9520762 C46.8806731,12.1716272 47.1580008,12.3052735 47.3786605,12.4782803 C47.4723056,12.2159265 47.6466689,11.9537224 47.6475708,11.6910694 C47.6591449,8.27508299 47.6493745,4.85894694 47.6371992,1.44296054 C47.6328401,0.197191837 47.7935248,0.0306204082 49.0701344,0.0328653061 C50.0468693,0.0346612245 51.0236042,0.0292734694 52.000339,0.0343619048 C53.1320468,0.0401986395 53.3187357,0.225028571 53.319337,1.33251156 C53.3206898,4.07532789 53.3197879,6.81814422 53.3197879,9.56096054 L53.3052075,9.56096054 Z" id="Fill-1"></path>
                        <path d="M30.222218,12.6589646 C30.222218,15.3019578 30.2219173,17.944951 30.2223683,20.5880939 C30.2225186,21.7424204 30.0468025,21.9170735 28.8635374,21.9187197 C27.8116459,21.9200667 26.7597545,21.9215633 25.7080134,21.913332 C24.742101,21.905849 24.5251992,21.6886925 24.5244476,20.7061755 C24.5220426,17.365019 24.5268526,14.0238626 24.5291073,10.6827061 C24.5292576,10.5580395 24.5636793,10.4231959 24.5273035,10.3108014 C24.4489904,10.0688014 24.335053,9.83817551 24.235696,9.6029102 C24.027362,9.74643401 23.7495833,9.84461088 23.6210656,10.0402163 C21.5511031,13.1904068 19.513458,16.361849 17.4406397,19.5102435 C15.5472952,22.3861075 16.3950614,21.8425429 13.0689319,21.9134816 C12.2429612,21.9309918 11.414886,21.9387741 10.5904184,21.897019 C10.2696501,21.8808558 9.95654781,21.7151823 9.639838,21.6176041 C9.73543716,21.325019 9.77301545,20.995019 9.93505303,20.7450871 C13.7258004,14.9022163 17.5302263,9.06817551 21.3314956,3.23203946 C21.5631282,2.87644762 21.7819841,2.51232517 22.0203808,2.16137279 C23.3904852,0.144257143 24.9925228,-0.288559184 27.0095749,0.176733333 C28.8300175,0.596529252 30.1490154,2.36610748 30.194861,4.43111429 C30.2555875,7.17258367 30.209742,9.91629796 30.209742,12.6589646 L30.222218,12.6589646" id="Fill-3"></path>
                        <path d="M0.000405845511,9.60035102 C0.000405845511,6.83388844 -0.000796659708,4.06742585 0.00100709812,1.30096327 C0.00175866388,0.213684354 0.178827557,0.0355891156 1.25852693,0.0321469388 C2.28486514,0.0290040816 3.31120334,0.0273578231 4.33739123,0.0336435374 C5.39258956,0.0400789116 5.56199248,0.20694966 5.56304468,1.25142585 C5.56620125,4.61592925 5.56454781,7.98058231 5.56484843,11.3450857 C5.56484843,11.5444327 5.53418455,11.7506639 5.57552067,11.941181 C5.61460209,12.1203238 5.73004259,12.2830041 5.81181294,12.452868 C5.99714906,12.3534939 6.24591733,12.2996163 6.35639749,12.1466639 C6.77952902,11.5605959 7.15831816,10.9426503 7.55364175,10.3365279 C9.61157912,7.18035102 11.677934,4.02971156 13.7196376,0.863208163 C14.0800885,0.304078912 14.5116376,0.0179292517 15.1892493,0.0282557823 C16.6907273,0.0513034014 18.1931073,0.0225687075 19.6945854,0.0480108844 C19.9672534,0.0526503401 20.3613745,0.1408 20.4723056,0.325480272 C20.5746689,0.495942857 20.4386355,0.891194558 20.2937336,1.11388844 C16.2788693,7.28361633 12.2154539,13.4223646 8.24297787,19.6190313 C7.02784635,21.5146231 5.41633904,22.176868 3.27753319,21.8624327 C1.59492777,21.6150449 0.0366313152,19.801317 0.0169402923,17.974419 C-0.0134229645,15.1832626 0.0089736952,12.3916571 0.0089736952,9.60035102 L0.000405845511,9.60035102" id="Fill-5"></path>
                        <path d="M66.4950213,13.7917401 C66.4950213,16.0857265 66.4954722,18.3798626 66.494871,20.673849 C66.4945704,21.7576857 66.338395,21.913781 65.2224701,21.9175224 C64.170729,21.9209646 63.1188376,21.9155769 62.0670965,21.9118354 C61.0509795,21.9080939 60.8331758,21.6964748 60.8328752,20.6790871 C60.831823,16.0909646 60.8346789,11.5028422 60.8370839,6.91486939 C60.8376852,5.71504626 60.704658,5.57900544 59.5063616,5.57780816 C58.4546205,5.57661088 57.402729,5.57167211 56.3509879,5.57930476 C55.6599983,5.58424354 55.3514054,5.25858367 55.359372,4.56984898 C55.3724493,3.4231551 55.344942,2.27586259 55.3533595,1.12901905 C55.359823,0.266379592 55.5710129,0.036352381 56.4054013,0.0348557823 C61.1886664,0.0267741497 65.9720818,0.0270734694 70.7554973,0.0342571429 C71.6280651,0.0356040816 71.882395,0.289726531 71.8927666,1.14982177 C71.9062948,2.27167211 71.904942,3.39412109 71.8831466,4.51582177 C71.8669127,5.34837959 71.6370839,5.56493741 70.7845077,5.57646122 C69.7578689,5.59008027 68.7309294,5.57421633 67.7041403,5.57810748 C66.7210923,5.58184898 66.5029879,5.78987619 66.5002823,6.75997143 C66.4941194,9.10394422 66.4983282,11.4477673 66.4983282,13.7917401 L66.4950213,13.7917401 Z" id="Fill-7"></path>
                    </g>
                </g>
            </g>
        </g>
    </g>
</svg>