<?xml version="1.0" encoding="utf-8"?>
<!-- Generator: Adobe Illustrator 19.0.0, SVG Export Plug-In . SVG Version: 6.00 Build 0)  -->
<svg version="1.1" id="Layer_1" xmlns="http://www.w3.org/2000/svg" xmlns:xlink="http://www.w3.org/1999/xlink" x="0px" y="0px"
	 viewBox="0 0 500 500" style="enable-background:new 0 0 500 500;" xml:space="preserve">
<style type="text/css">
	.st0{fill:#0D0D0D;}
	.st1{fill:#E1001B;}
	.st2{fill:#FFFFFF;}
</style>
<g id="XMLID_1_">
	<path id="XMLID_8_" class="st0" d="M122,256.7c3.1-3,6.3-5.9,9.3-8.9c6.9-6.9,13.6-13.9,20.5-20.9c9.1-9.3,18.1-18.6,27.2-27.7
		c4.6-4.6,10.1-8,16.6-9.1c13.2-2.4,27.6,6.6,28.5,22c0.5,8-2,15-7.7,20.6c-10.9,10.8-21.8,21.6-32.8,32.3c-0.8,0.8-0.7,1.2-0.2,2
		c13.2,22.7,26.3,45.4,39.5,68.1c3.3,5.7,5.3,11.8,5,18.6c-0.7,14.5-13.3,25.4-27.7,24.1c-10.7-0.9-18.4-6.4-23.6-15.5
		c-10.7-18.9-21.2-37.9-31.7-56.9c-0.8-1.4-0.8-1.4-1.9-0.3c-6.7,6.6-13.4,13.3-20.2,19.9c-0.6,0.6-0.9,1.2-0.9,2.1
		c0,7.4,0.1,14.7,0,22.1c-0.1,7.9-2.2,15.1-7.9,21c-5.5,5.6-12.3,7.9-20,7.7c-7.8-0.2-14.6-2.9-19.8-9c-4.5-5.2-6.5-11.4-6.7-18.2
		c-0.2-7.1-0.1-14.3-0.1-21.4c0-59.3,0-118.6,0-177.9c0-6.7,1.4-13,5.5-18.5c5.6-7.6,13.4-10.9,22.7-10.6c14,0.4,24.2,9.9,25.9,23.8
		c0.2,2,0.4,3.9,0.4,5.9c0,34.6,0,69.1,0,103.7C122,256,121.8,256.5,122,256.7z M211.8,351c0-6-4.9-10.9-11-10.8
		c-5.9,0-10.9,5-10.8,10.9c0.1,6.1,5,10.9,11,10.9C206.9,361.9,211.8,357,211.8,351z M94.7,140.2c-5,0-9.1,4-9.1,9c0,4.9,4.1,9,9,9
		c5,0,9-4,9-9C103.7,144.3,99.7,140.2,94.7,140.2z M94.6,341.9c-5,0-9,4-9,8.9c0,4.9,4,9,9,9.1c5,0,9.1-4.1,9.1-9
		C103.6,345.9,99.6,341.9,94.6,341.9z M190.6,214.1c0,4.9,4,9,8.9,9.1c4.9,0,9-4.1,9-9c0-5-4-9.1-9-9.1
		C194.6,205.1,190.6,209.1,190.6,214.1z"/>
	<path id="XMLID_11_" class="st0" d="M349.7,359.2c-0.2,1.7-0.9,2.4-2.1,2.3c-1.1-0.1-1.7-0.9-1.7-2.4c0-8.5,0-16.9,0-25.4
		c0-1.6,0.6-2.3,1.8-2.4c1.3,0,1.9,0.7,1.9,2.3c0,2.9,0,5.7,0,8.7c2.4-2.7,5.4-3.1,8.5-2.2c3.1,0.9,4.5,3.3,5,6.4
		c0.6,3.4,0.7,6.8-0.5,10.2C360.8,362.2,353.6,363.6,349.7,359.2z M359.7,350.7c0-1.4,0-2.9-0.5-4.3c-0.8-2.1-2.3-3.2-4.5-3.2
		c-2.2,0-3.9,1.2-4.5,3.3c-0.8,2.7-0.8,5.5,0,8.2c0.6,2.4,2.5,3.6,4.8,3.5c2.4-0.1,3.9-1.5,4.5-3.9
		C359.7,353.2,359.7,352,359.7,350.7z"/>
	<path id="XMLID_14_" class="st0" d="M336,359.3c-2.4,2.3-5.2,2.7-8.2,2.2c-3.7-0.6-5.7-2.9-5.6-6.3c0.1-3.5,2.3-5.8,6-6.2
		c2.1-0.2,4.1-0.1,6.2-0.1c0.8,0,1-0.2,1-1c0-3.4-1.8-5-5.3-4.8c-1.4,0.1-2.7,0.4-3.9,1c-1,0.5-1.9,0.6-2.5-0.5
		c-0.5-0.9-0.1-1.9,1-2.5c3.5-1.7,7.1-2,10.7-0.5c2.1,0.9,3.1,2.7,3.4,4.8c0.4,3.1,0.2,6.2,0.2,9.2c0,1.2,0.2,2.2,0.8,3.3
		c0.9,1.5,0.8,2.5-0.2,3.1c-1.1,0.6-2.1,0.3-3-1.2C336.4,359.8,336.2,359.6,336,359.3z M332,351.9c-1.4,0-2.9-0.1-4.4,0.5
		c-1.1,0.5-1.7,1.3-1.8,2.4c-0.1,1.2,0.2,2.2,1.2,2.9c1.8,1.3,5.7,0.9,7.3-0.7c0.8-0.8,1.6-4.2,1-4.8c-0.7-0.7-1.8-0.2-2.8-0.3
		C332.4,351.9,332.3,351.9,332,351.9z"/>
	<path id="XMLID_17_" class="st0" d="M385.1,351.2c0,1.1,0,2.2,0,3.3c-0.1,1.4,0.2,2.6,0.9,3.8c0.8,1.3,0.6,2.3-0.3,2.9
		c-1.1,0.7-2.2,0.4-3-1c-0.5-0.8-0.7-0.7-1.4-0.2c-2.6,2.2-7.6,2.4-10.5,0.5c-2.2-1.4-2.7-3.6-2.5-6c0.2-2.2,1.3-3.8,3.3-4.7
		c1.4-0.6,2.9-0.8,4.4-0.9c1.5,0,2.9-0.1,4.4,0c0.9,0,1.1-0.3,1.1-1.2c-0.1-3.3-1.9-4.9-5.3-4.6c-1.4,0.1-2.7,0.4-3.9,1
		c-1,0.5-1.9,0.6-2.5-0.5c-0.5-0.9-0.1-1.9,1.1-2.5c3.3-1.6,6.8-1.9,10.2-0.6c2.9,1,3.8,3.4,4,6.3
		C385.1,348.3,385.1,349.7,385.1,351.2L385.1,351.2z M378.2,352c-1.4,0-2.7-0.1-4,0.3c-1.4,0.4-2.1,1.4-2.2,2.8
		c-0.1,1.2,0.4,2.2,1.5,2.9c0.8,0.4,1.7,0.6,2.5,0.6c2.7,0,5.7-0.8,5.6-4.9c-0.1-1.7,0-1.7-1.8-1.7
		C379.2,351.9,378.7,351.9,378.2,352z"/>
	<path id="XMLID_18_" class="st0" d="M247.2,350.3c2.7-3,5.1-5.8,7.6-8.5c0.3-0.3,0.5-0.6,0.8-0.9c0.9-0.9,2-1.1,2.7-0.4
		c0.7,0.6,0.6,1.7-0.2,2.6c-1.2,1.4-2.4,2.8-3.8,4.1c-0.7,0.7-0.8,1.2-0.2,2.1c2,3,3.8,6.1,5.7,9.2c0.8,1.2,0.6,2.3-0.4,2.9
		c-1,0.5-2,0.2-2.8-1c-1.7-2.8-3.4-5.6-5.2-8.4c-0.2-0.3-0.3-0.7-0.7-0.8c-1,1.1-2,2.3-3.1,3.4c-0.4,0.4-0.5,0.8-0.5,1.3
		c0,1.3,0,2.6,0,3.8c0,1.2-0.7,2-1.8,2c-1.1,0-1.9-0.7-1.9-2c0-8.7,0-17.4,0-26.2c0-1.3,0.7-2,1.9-2c1.1,0,1.8,0.7,1.8,2
		c0,5.3,0,10.7,0,16C247.2,349.6,247.2,349.8,247.2,350.3z"/>
	<path id="XMLID_19_" class="st0" d="M423.1,350.9c-1.1,1.2-2.1,2.4-3.2,3.5c-0.4,0.4-0.5,0.8-0.4,1.3c0,1.3,0,2.6,0,3.8
		c0,1.2-0.8,2-1.9,2c-1.1,0-1.8-0.8-1.8-2c0-8.7,0-17.5,0-26.2c0-1.3,0.7-2,1.8-2c1.2,0,1.9,0.7,1.9,2c0,5.1,0,10.2,0,15.3
		c0,0.4,0,0.8,0,1.6c2.6-3,5-5.7,7.4-8.4c0.4-0.4,0.8-0.9,1.2-1.3c0.7-0.7,1.6-0.8,2.4-0.1c0.7,0.7,0.7,1.6,0,2.4
		c-1.4,1.5-2.8,3.1-4.2,4.6c-0.5,0.5-0.5,0.9-0.1,1.6c2,3.1,3.9,6.3,5.9,9.4c0.6,0.9,0.8,1.9-0.2,2.7c-0.9,0.8-2.1,0.4-2.9-0.8
		c-1.7-2.7-3.4-5.5-5-8.2C423.7,351.7,423.4,351.3,423.1,350.9z"/>
	<path id="XMLID_20_" class="st0" d="M396,342.2c1.4-1.5,3.1-2.3,5.2-2.4c4.5-0.1,7.5,2.5,7.6,6.9c0.2,4.3,0.1,8.5,0,12.8
		c0,1.2-0.8,1.9-1.9,1.9c-1.1,0-1.8-0.8-1.8-2c0-3.3,0-6.7,0-10c0-0.6,0-1.1-0.1-1.7c-0.3-2.9-2-4.5-4.7-4.4c-2.7,0.1-4.5,2-4.6,4.8
		c-0.1,3.5,0,7,0,10.4c0,0.5,0,1.1-0.1,1.6c-0.2,0.9-0.8,1.3-1.7,1.4c-0.9,0-1.6-0.3-1.8-1.3c-0.1-0.4-0.2-0.8-0.2-1.2
		c0-5.5,0-11,0-16.5c0-0.4,0.1-0.9,0.2-1.3c0.3-0.8,0.9-1.1,1.7-1.1c0.8,0,1.3,0.4,1.7,1.1C395.8,341.5,395.6,341.9,396,342.2z"/>
	<path id="XMLID_21_" class="st0" d="M277.6,359.2c-1.8,2.1-4,2.8-6.6,2.5c-3.7-0.5-6-2.9-6.2-6.9c-0.2-4.3-0.1-8.5-0.1-12.8
		c0-1.2,0.8-1.9,1.9-1.9c1.1,0,1.8,0.7,1.8,2c0,3.3,0,6.6,0,9.9c0,0.8,0,1.6,0.2,2.4c0.5,2.6,2.2,4.1,4.6,3.9
		c2.5-0.1,4.4-1.9,4.5-4.5c0.1-3.8,0.1-7.6,0.1-11.4c0-0.7,0.1-1.4,0.7-1.9c0.6-0.5,1.2-0.5,1.9-0.3c0.7,0.3,1.2,0.8,1.2,1.6
		c0,1.1,0,2.1,0,3.2c0,4.6,0,9.3,0,13.9c0,1.8-0.5,2.5-1.7,2.6C278.5,361.6,277.9,360.9,277.6,359.2z"/>
	<path id="XMLID_22_" class="st0" d="M309.3,347.3c1.5-2.1,2.8-4.1,4.2-6c0.4-0.6,0.8-1.1,1.5-1.2c0.7-0.1,1.2,0,1.6,0.6
		c0.5,0.7,0.4,1.5-0.1,2.2c-1.5,2.1-2.9,4.3-4.5,6.4c-0.6,0.8-0.5,1.4,0.1,2.1c1.6,2.1,3.1,4.4,4.7,6.5c0.2,0.3,0.4,0.5,0.5,0.8
		c0.5,0.9,0.5,1.8-0.4,2.4c-0.9,0.6-1.8,0.3-2.4-0.5c-1.4-2-2.8-3.9-4.2-5.9c-0.3-0.4-0.6-0.9-1-1.4c-1.6,2.2-3.1,4.4-4.6,6.5
		c-0.2,0.3-0.5,0.7-0.7,0.9c-0.7,0.7-1.5,1-2.4,0.3c-0.8-0.6-0.9-1.5-0.4-2.4c0.7-1.1,1.5-2.2,2.2-3.3c1-1.4,2-2.9,3.1-4.3
		c0.5-0.6,0.6-1.1,0-1.8c-1.5-2-2.9-4.1-4.3-6.1c-0.9-1.3-0.9-2.3,0-2.9c0.9-0.7,2-0.3,2.9,1C306.5,343.3,307.8,345.3,309.3,347.3z"
		/>
	<path id="XMLID_23_" class="st0" d="M289,350.4c0-1.9-0.1-3.9,0-5.8c0-1-0.2-1.4-1.3-1.4c-1.5,0.1-2.2-1-1.6-2.2
		c0.3-0.7,0.9-0.8,1.6-0.8c1.2,0.2,1.4-0.4,1.4-1.4c-0.1-1.1,0-2.2,0-3.3c0-1.4,0.7-2.1,1.8-2.1c1.1,0,1.8,0.8,1.9,2.1
		c0,1.3,0,2.6,0,3.8c0,0.7,0.2,1,0.9,0.9c0.7-0.1,1.4,0,2.1,0c1,0,1.6,0.5,1.5,1.6c0,1-0.6,1.4-1.5,1.4c0,0-0.1,0-0.1,0
		c-0.9,0.1-2.2-0.5-2.7,0.3c-0.4,0.6-0.1,1.8-0.1,2.7c0,2.9,0,5.8,0,8.7c0,2.4,0.4,2.8,2.8,3c1.3,0.1,1.8,0.7,1.7,1.8
		c-0.1,1-0.7,1.5-1.6,1.6c-3.9,0.2-6.7-0.9-6.6-5.7C289,354,289,352.2,289,350.4z"/>
	<path id="XMLID_24_" class="st1" d="M211.8,351c0,6-4.9,11-10.9,11c-6,0-10.9-4.9-11-10.9c-0.1-5.9,4.9-10.9,10.8-10.9
		C206.8,340.1,211.7,344.9,211.8,351z"/>
	<path id="XMLID_25_" class="st2" d="M94.7,140.2c4.9,0,9,4.1,8.9,9c-0.1,5-4.1,9-9,9c-4.9,0-9-4.1-9-9
		C85.6,144.2,89.7,140.2,94.7,140.2z"/>
	<path id="XMLID_26_" class="st2" d="M94.6,341.9c5,0,9,4,9,8.9c0,5-4.1,9.1-9.1,9c-4.9,0-9-4.1-9-9.1
		C85.6,345.9,89.6,341.9,94.6,341.9z"/>
	<path id="XMLID_27_" class="st2" d="M190.6,214.1c0-5,4-9,9-9c5,0,9,4,9,9.1c0,4.9-4.2,9-9,9C194.6,223.1,190.6,219,190.6,214.1z"
		/>
	<path id="XMLID_28_" class="st2" d="M359.7,350.7c0,1.2,0,2.5-0.3,3.7c-0.6,2.4-2.2,3.7-4.5,3.9c-2.3,0.1-4.1-1.2-4.8-3.5
		c-0.7-2.7-0.7-5.5,0-8.2c0.6-2.1,2.3-3.3,4.5-3.3c2.2,0,3.7,1.1,4.5,3.2C359.7,347.8,359.7,349.3,359.7,350.7z"/>
	<path id="XMLID_29_" class="st2" d="M332,351.9c0.3,0,0.4,0,0.5,0c0.9,0.1,2.1-0.4,2.8,0.3c0.7,0.7-0.2,4-1,4.8
		c-1.6,1.6-5.5,2-7.3,0.7c-1-0.7-1.3-1.7-1.2-2.9c0.1-1.1,0.7-1.9,1.8-2.4C329.1,351.8,330.6,352,332,351.9z"/>
	<path id="XMLID_30_" class="st2" d="M378.2,352c0.5,0,1.1,0,1.6,0c1.8,0,1.7,0,1.8,1.7c0.2,4.1-2.8,4.9-5.6,4.9
		c-0.9,0-1.7-0.1-2.5-0.6c-1.1-0.6-1.6-1.6-1.5-2.9c0.1-1.4,0.8-2.4,2.2-2.8C375.4,351.9,376.8,352,378.2,352z"/>
</g>
</svg>
