<?xml version="1.0" encoding="UTF-8" standalone="no"?>
<!DOCTYPE svg PUBLIC "-//W3C//DTD SVG 1.1//EN" "http://www.w3.org/Graphics/SVG/1.1/DTD/svg11.dtd">
<svg width="650" height="450" viewBox="0 0 650 450" xmlns="http://www.w3.org/2000/svg" xmlns:xlink="http://www.w3.org/1999/xlink">

<title>Gnuplot</title>
<desc>Produced by GNUPLOT 4.6 patchlevel 3 </desc>

<g id="gnuplot_canvas">

<rect x="0" y="0" width="650" height="450" fill="none"/>
<defs>

	<circle id="gpDot" r="0.5" stroke-width="0.5"/>
	<path id="gpPt0" stroke-width="0.267" stroke="currentColor" d="M-1,0 h2 M0,-1 v2"/>
	<path id="gpPt1" stroke-width="0.267" stroke="currentColor" d="M-1,-1 L1,1 M1,-1 L-1,1"/>
	<path id="gpPt2" stroke-width="0.267" stroke="currentColor" d="M-1,0 L1,0 M0,-1 L0,1 M-1,-1 L1,1 M-1,1 L1,-1"/>
	<rect id="gpPt3" stroke-width="0.267" stroke="currentColor" x="-1" y="-1" width="2" height="2"/>
	<rect id="gpPt4" stroke-width="0.267" stroke="currentColor" fill="currentColor" x="-1" y="-1" width="2" height="2"/>
	<circle id="gpPt5" stroke-width="0.267" stroke="currentColor" cx="0" cy="0" r="1"/>
	<use xlink:href="#gpPt5" id="gpPt6" fill="currentColor" stroke="none"/>
	<path id="gpPt7" stroke-width="0.267" stroke="currentColor" d="M0,-1.33 L-1.33,0.67 L1.33,0.67 z"/>
	<use xlink:href="#gpPt7" id="gpPt8" fill="currentColor" stroke="none"/>
	<use xlink:href="#gpPt7" id="gpPt9" stroke="currentColor" transform="rotate(180)"/>
	<use xlink:href="#gpPt9" id="gpPt10" fill="currentColor" stroke="none"/>
	<use xlink:href="#gpPt3" id="gpPt11" stroke="currentColor" transform="rotate(45)"/>
	<use xlink:href="#gpPt11" id="gpPt12" fill="currentColor" stroke="none"/>
</defs>
<g style="fill:none; color:white; stroke:black; stroke-width:1.00; stroke-linecap:butt; stroke-linejoin:miter">
</g>
<g style="fill:none; color:black; stroke:currentColor; stroke-width:1.00; stroke-linecap:butt; stroke-linejoin:miter">
	<path stroke="black" d="M46.5,357.0 L54.0,357.0 M628.9,357.0 L621.4,357.0  h0.01"/>	<g transform="translate(39.5,360.7)" style="stroke:none; fill:black; font-family:arial; font-size:10.00pt; text-anchor:end">
		<text><tspan>0</tspan></text>
	</g>
	<path stroke="black" d="M46.5,325.8 L54.0,325.8 M628.9,325.8 L621.4,325.8  h0.01"/>	<g transform="translate(39.5,329.5)" style="stroke:none; fill:black; font-family:arial; font-size:10.00pt; text-anchor:end">
		<text><tspan>1</tspan></text>
	</g>
	<path stroke="black" d="M46.5,294.6 L54.0,294.6 M628.9,294.6 L621.4,294.6  h0.01"/>	<g transform="translate(39.5,298.3)" style="stroke:none; fill:black; font-family:arial; font-size:10.00pt; text-anchor:end">
		<text><tspan>2</tspan></text>
	</g>
	<path stroke="black" d="M46.5,263.4 L54.0,263.4 M628.9,263.4 L621.4,263.4  h0.01"/>	<g transform="translate(39.5,267.1)" style="stroke:none; fill:black; font-family:arial; font-size:10.00pt; text-anchor:end">
		<text><tspan>3</tspan></text>
	</g>
	<path stroke="black" d="M46.5,232.2 L54.0,232.2 M628.9,232.2 L621.4,232.2  h0.01"/>	<g transform="translate(39.5,235.9)" style="stroke:none; fill:black; font-family:arial; font-size:10.00pt; text-anchor:end">
		<text><tspan>4</tspan></text>
	</g>
	<path stroke="black" d="M46.5,201.0 L54.0,201.0 M628.9,201.0 L621.4,201.0  h0.01"/>	<g transform="translate(39.5,204.7)" style="stroke:none; fill:black; font-family:arial; font-size:10.00pt; text-anchor:end">
		<text><tspan>5</tspan></text>
	</g>
	<path stroke="black" d="M46.5,169.9 L54.0,169.9 M628.9,169.9 L621.4,169.9  h0.01"/>	<g transform="translate(39.5,173.6)" style="stroke:none; fill:black; font-family:arial; font-size:10.00pt; text-anchor:end">
		<text><tspan>6</tspan></text>
	</g>
	<path stroke="black" d="M46.5,138.7 L54.0,138.7 M628.9,138.7 L621.4,138.7  h0.01"/>	<g transform="translate(39.5,142.4)" style="stroke:none; fill:black; font-family:arial; font-size:10.00pt; text-anchor:end">
		<text><tspan>7</tspan></text>
	</g>
	<path stroke="black" d="M46.5,107.5 L54.0,107.5 M628.9,107.5 L621.4,107.5  h0.01"/>	<g transform="translate(39.5,111.2)" style="stroke:none; fill:black; font-family:arial; font-size:10.00pt; text-anchor:end">
		<text><tspan>8</tspan></text>
	</g>
	<path stroke="black" d="M46.5,76.3 L54.0,76.3 M628.9,76.3 L621.4,76.3  h0.01"/>	<g transform="translate(39.5,80.0)" style="stroke:none; fill:black; font-family:arial; font-size:10.00pt; text-anchor:end">
		<text><tspan>9</tspan></text>
	</g>
	<path stroke="black" d="M46.5,45.1 L54.0,45.1 M628.9,45.1 L621.4,45.1  h0.01"/>	<g transform="translate(39.5,48.8)" style="stroke:none; fill:black; font-family:arial; font-size:10.00pt; text-anchor:end">
		<text><tspan>10</tspan></text>
	</g>
	<path stroke="black" d="M46.5,357.0 L46.5,349.5 M46.5,45.1 L46.5,52.6  h0.01"/>	<g transform="translate(46.5,375.7)" style="stroke:none; fill:black; font-family:arial; font-size:10.00pt; text-anchor:middle">
		<text><tspan>-30</tspan></text>
	</g>
	<path stroke="black" d="M143.6,357.0 L143.6,349.5 M143.6,45.1 L143.6,52.6  h0.01"/>	<g transform="translate(143.6,375.7)" style="stroke:none; fill:black; font-family:arial; font-size:10.00pt; text-anchor:middle">
		<text><tspan>-25</tspan></text>
	</g>
	<path stroke="black" d="M240.6,357.0 L240.6,349.5 M240.6,45.1 L240.6,52.6  h0.01"/>	<g transform="translate(240.6,375.7)" style="stroke:none; fill:black; font-family:arial; font-size:10.00pt; text-anchor:middle">
		<text><tspan>-20</tspan></text>
	</g>
	<path stroke="black" d="M337.7,357.0 L337.7,349.5 M337.7,45.1 L337.7,52.6  h0.01"/>	<g transform="translate(337.7,375.7)" style="stroke:none; fill:black; font-family:arial; font-size:10.00pt; text-anchor:middle">
		<text><tspan>-15</tspan></text>
	</g>
	<path stroke="black" d="M434.8,357.0 L434.8,349.5 M434.8,45.1 L434.8,52.6  h0.01"/>	<g transform="translate(434.8,375.7)" style="stroke:none; fill:black; font-family:arial; font-size:10.00pt; text-anchor:middle">
		<text><tspan>-10</tspan></text>
	</g>
	<path stroke="black" d="M531.8,357.0 L531.8,349.5 M531.8,45.1 L531.8,52.6  h0.01"/>	<g transform="translate(531.8,375.7)" style="stroke:none; fill:black; font-family:arial; font-size:10.00pt; text-anchor:middle">
		<text><tspan>-5</tspan></text>
	</g>
	<path stroke="black" d="M628.9,357.0 L628.9,349.5 M628.9,45.1 L628.9,52.6  h0.01"/>	<g transform="translate(628.9,375.7)" style="stroke:none; fill:black; font-family:arial; font-size:10.00pt; text-anchor:middle">
		<text><tspan>0</tspan></text>
	</g>
	<path stroke="black" d="M46.5,45.1 L46.5,357.0 L628.9,357.0 L628.9,45.1 L46.5,45.1 Z  h0.01"/>	<g transform="translate(14.7,201.1) rotate(270)" style="stroke:none; fill:black; font-family:arial; font-size:10.00pt; text-anchor:middle">
		<text><tspan>Rentabilidad</tspan></text>
	</g>
	<g transform="translate(337.7,398.2)" style="stroke:none; fill:black; font-family:arial; font-size:10.00pt; text-anchor:middle">
		<text><tspan>Años hasta jubilación</tspan></text>
	</g>
	<g transform="translate(337.7,26.3)" style="stroke:none; fill:black; font-family:arial; font-size:10.00pt; text-anchor:middle">
		<text><tspan>Rentabilidad por ahorro de IRPF</tspan></text>
	</g>
</g>
	<g id="gnuplot_plot_1"><title>gnuplot_plot_1</title>
<g style="fill:none; color:red; stroke:currentColor; stroke-width:1.00; stroke-linecap:butt; stroke-linejoin:miter">
	<g transform="translate(579.4,423.7)" style="stroke:none; fill:black; font-family:arial; font-size:10.00pt; text-anchor:end">
		<text><tspan>Rentabilidad</tspan></text>
	</g>
	<path d="M586.4,420.0 L621.9,420.0 M65.9,346.6 L85.3,346.3 L104.7,345.9 L124.2,345.5 L143.6,345.0 L163.0,344.0    L182.4,343.5 L201.8,342.8 L221.2,342.2 L240.6,341.4 L260.0,340.6 L279.5,339.7 L298.9,338.7 L318.3,337.5    L337.7,336.2 L357.1,334.7 L376.5,333.0 L395.9,331.0 L415.4,328.6 L434.8,325.8 L454.2,322.3 L473.6,318.0    L493.0,312.5 L512.4,305.0 L531.8,294.6 L551.2,279.0 L570.7,253.0 L590.1,201.0 L609.5,45.1  h0.01"/>	<use xlink:href="#gpPt0" transform="translate(65.9,346.6) scale(3.75)"/>
	<use xlink:href="#gpPt0" transform="translate(85.3,346.3) scale(3.75)"/>
	<use xlink:href="#gpPt0" transform="translate(104.7,345.9) scale(3.75)"/>
	<use xlink:href="#gpPt0" transform="translate(124.2,345.5) scale(3.75)"/>
	<use xlink:href="#gpPt0" transform="translate(143.6,345.0) scale(3.75)"/>
	<use xlink:href="#gpPt0" transform="translate(163.0,344.0) scale(3.75)"/>
	<use xlink:href="#gpPt0" transform="translate(182.4,343.5) scale(3.75)"/>
	<use xlink:href="#gpPt0" transform="translate(201.8,342.8) scale(3.75)"/>
	<use xlink:href="#gpPt0" transform="translate(221.2,342.2) scale(3.75)"/>
	<use xlink:href="#gpPt0" transform="translate(240.6,341.4) scale(3.75)"/>
	<use xlink:href="#gpPt0" transform="translate(260.0,340.6) scale(3.75)"/>
	<use xlink:href="#gpPt0" transform="translate(279.5,339.7) scale(3.75)"/>
	<use xlink:href="#gpPt0" transform="translate(298.9,338.7) scale(3.75)"/>
	<use xlink:href="#gpPt0" transform="translate(318.3,337.5) scale(3.75)"/>
	<use xlink:href="#gpPt0" transform="translate(337.7,336.2) scale(3.75)"/>
	<use xlink:href="#gpPt0" transform="translate(357.1,334.7) scale(3.75)"/>
	<use xlink:href="#gpPt0" transform="translate(376.5,333.0) scale(3.75)"/>
	<use xlink:href="#gpPt0" transform="translate(395.9,331.0) scale(3.75)"/>
	<use xlink:href="#gpPt0" transform="translate(415.4,328.6) scale(3.75)"/>
	<use xlink:href="#gpPt0" transform="translate(434.8,325.8) scale(3.75)"/>
	<use xlink:href="#gpPt0" transform="translate(454.2,322.3) scale(3.75)"/>
	<use xlink:href="#gpPt0" transform="translate(473.6,318.0) scale(3.75)"/>
	<use xlink:href="#gpPt0" transform="translate(493.0,312.5) scale(3.75)"/>
	<use xlink:href="#gpPt0" transform="translate(512.4,305.0) scale(3.75)"/>
	<use xlink:href="#gpPt0" transform="translate(531.8,294.6) scale(3.75)"/>
	<use xlink:href="#gpPt0" transform="translate(551.2,279.0) scale(3.75)"/>
	<use xlink:href="#gpPt0" transform="translate(570.7,253.0) scale(3.75)"/>
	<use xlink:href="#gpPt0" transform="translate(590.1,201.0) scale(3.75)"/>
	<use xlink:href="#gpPt0" transform="translate(609.5,45.1) scale(3.75)"/>
	<use xlink:href="#gpPt0" transform="translate(604.1,420.0) scale(3.75)"/>
</g>
	</g>
	<g id="gnuplot_plot_2"><title>gnuplot_plot_2</title>
<g style="fill:none; color:green; stroke:currentColor; stroke-width:1.00; stroke-linecap:butt; stroke-linejoin:miter">
	<g transform="translate(579.4,438.7)" style="stroke:none; fill:black; font-family:arial; font-size:10.00pt; text-anchor:end">
		<text><tspan>Comisión</tspan></text>
	</g>
	<path d="M586.4,435.0 L621.9,435.0 M65.9,307.1 L85.3,307.1 L104.7,307.1 L124.2,307.1 L143.6,307.1 L163.0,307.1    L182.4,307.1 L201.8,307.1 L221.2,307.1 L240.6,307.1 L260.0,307.1 L279.5,307.1 L298.9,307.1 L318.3,307.1    L337.7,307.1 L357.1,307.1 L376.5,307.1 L395.9,307.1 L415.4,307.1 L434.8,307.1 L454.2,307.1 L473.6,307.1    L493.0,307.1 L512.4,307.1 L531.8,307.1 L551.2,307.1 L570.7,307.1 L590.1,307.1 L609.5,307.1  h0.01"/>	<use xlink:href="#gpPt1" transform="translate(65.9,307.1) scale(3.75)"/>
	<use xlink:href="#gpPt1" transform="translate(85.3,307.1) scale(3.75)"/>
	<use xlink:href="#gpPt1" transform="translate(104.7,307.1) scale(3.75)"/>
	<use xlink:href="#gpPt1" transform="translate(124.2,307.1) scale(3.75)"/>
	<use xlink:href="#gpPt1" transform="translate(143.6,307.1) scale(3.75)"/>
	<use xlink:href="#gpPt1" transform="translate(163.0,307.1) scale(3.75)"/>
	<use xlink:href="#gpPt1" transform="translate(182.4,307.1) scale(3.75)"/>
	<use xlink:href="#gpPt1" transform="translate(201.8,307.1) scale(3.75)"/>
	<use xlink:href="#gpPt1" transform="translate(221.2,307.1) scale(3.75)"/>
	<use xlink:href="#gpPt1" transform="translate(240.6,307.1) scale(3.75)"/>
	<use xlink:href="#gpPt1" transform="translate(260.0,307.1) scale(3.75)"/>
	<use xlink:href="#gpPt1" transform="translate(279.5,307.1) scale(3.75)"/>
	<use xlink:href="#gpPt1" transform="translate(298.9,307.1) scale(3.75)"/>
	<use xlink:href="#gpPt1" transform="translate(318.3,307.1) scale(3.75)"/>
	<use xlink:href="#gpPt1" transform="translate(337.7,307.1) scale(3.75)"/>
	<use xlink:href="#gpPt1" transform="translate(357.1,307.1) scale(3.75)"/>
	<use xlink:href="#gpPt1" transform="translate(376.5,307.1) scale(3.75)"/>
	<use xlink:href="#gpPt1" transform="translate(395.9,307.1) scale(3.75)"/>
	<use xlink:href="#gpPt1" transform="translate(415.4,307.1) scale(3.75)"/>
	<use xlink:href="#gpPt1" transform="translate(434.8,307.1) scale(3.75)"/>
	<use xlink:href="#gpPt1" transform="translate(454.2,307.1) scale(3.75)"/>
	<use xlink:href="#gpPt1" transform="translate(473.6,307.1) scale(3.75)"/>
	<use xlink:href="#gpPt1" transform="translate(493.0,307.1) scale(3.75)"/>
	<use xlink:href="#gpPt1" transform="translate(512.4,307.1) scale(3.75)"/>
	<use xlink:href="#gpPt1" transform="translate(531.8,307.1) scale(3.75)"/>
	<use xlink:href="#gpPt1" transform="translate(551.2,307.1) scale(3.75)"/>
	<use xlink:href="#gpPt1" transform="translate(570.7,307.1) scale(3.75)"/>
	<use xlink:href="#gpPt1" transform="translate(590.1,307.1) scale(3.75)"/>
	<use xlink:href="#gpPt1" transform="translate(609.5,307.1) scale(3.75)"/>
	<use xlink:href="#gpPt1" transform="translate(604.1,435.0) scale(3.75)"/>
</g>
	</g>
<g style="fill:none; color:black; stroke:currentColor; stroke-width:1.00; stroke-linecap:butt; stroke-linejoin:miter">
	<path stroke="black" d="M46.5,45.1 L46.5,357.0 L628.9,357.0 L628.9,45.1 L46.5,45.1 Z  h0.01"/></g>
</g>
</svg>