<?xml version="1.0" encoding="UTF-8" standalone="no"?>
<!-- Created with Inkscape (http://www.inkscape.org/) -->

<svg
   xmlns:dc="http://purl.org/dc/elements/1.1/"
   xmlns:cc="http://creativecommons.org/ns#"
   xmlns:rdf="http://www.w3.org/1999/02/22-rdf-syntax-ns#"
   xmlns:svg="http://www.w3.org/2000/svg"
   xmlns="http://www.w3.org/2000/svg"
   xmlns:xlink="http://www.w3.org/1999/xlink"
   xmlns:sodipodi="http://sodipodi.sourceforge.net/DTD/sodipodi-0.dtd"
   xmlns:inkscape="http://www.inkscape.org/namespaces/inkscape"
   width="248.69899mm"
   height="126.09707mm"
   viewBox="0 0 248.69899 126.09707"
   version="1.1"
   id="svg2428"
   sodipodi:docname="tapestry (apache).svg"
   inkscape:version="0.92.4 5da689c313, 2019-01-14"
   inkscape:export-filename="/run/media/picodotdev/bmovenegro/Descargas/apache-tapestry-5-apache-1200.png"
   inkscape:export-xdpi="122.56"
   inkscape:export-ydpi="122.56">
  <defs
     id="defs2422">
    <linearGradient
       inkscape:collect="always"
       id="linearGradient3073">
      <stop
         style="stop-color:#9cc358;stop-opacity:1"
         offset="0"
         id="stop3069" />
      <stop
         style="stop-color:#72aa40;stop-opacity:1"
         offset="1"
         id="stop3071" />
    </linearGradient>
    <radialGradient
       inkscape:collect="always"
       xlink:href="#linearGradient3073"
       id="radialGradient3075"
       cx="-125.62987"
       cy="156.58308"
       fx="-125.62987"
       fy="156.58308"
       r="37.32515"
       gradientUnits="userSpaceOnUse"
       gradientTransform="matrix(1.2386874,0.09799119,-0.07886251,0.9968855,42.334797,12.798298)" />
    <filter
       style="color-interpolation-filters:sRGB"
       inkscape:label="Drop Shadow"
       id="filter3268">
      <feFlood
         flood-opacity="0.596078"
         flood-color="rgb(143,151,61)"
         result="flood"
         id="feFlood3258" />
      <feComposite
         in="flood"
         in2="SourceGraphic"
         operator="in"
         result="composite1"
         id="feComposite3260" />
      <feGaussianBlur
         in="composite1"
         stdDeviation="4.3"
         result="blur"
         id="feGaussianBlur3262" />
      <feOffset
         dx="0"
         dy="0"
         result="offset"
         id="feOffset3264" />
      <feComposite
         in="SourceGraphic"
         in2="offset"
         operator="over"
         result="composite2"
         id="feComposite3266" />
    </filter>
    <filter
       style="color-interpolation-filters:sRGB"
       inkscape:label="Drop Shadow"
       id="filter3280">
      <feFlood
         flood-opacity="0.243137"
         flood-color="rgb(90,90,90)"
         result="flood"
         id="feFlood3270" />
      <feComposite
         in="flood"
         in2="SourceGraphic"
         operator="in"
         result="composite1"
         id="feComposite3272" />
      <feGaussianBlur
         in="composite1"
         stdDeviation="2"
         result="blur"
         id="feGaussianBlur3274" />
      <feOffset
         dx="0"
         dy="0"
         result="offset"
         id="feOffset3276" />
      <feComposite
         in="SourceGraphic"
         in2="offset"
         operator="over"
         result="composite2"
         id="feComposite3278" />
    </filter>
  </defs>
  <sodipodi:namedview
     id="base"
     pagecolor="#ffffff"
     bordercolor="#666666"
     borderopacity="1.0"
     inkscape:pageopacity="0.0"
     inkscape:pageshadow="2"
     inkscape:zoom="0.98994949"
     inkscape:cx="349.94321"
     inkscape:cy="113.58774"
     inkscape:document-units="mm"
     inkscape:current-layer="layer1"
     showgrid="false"
     inkscape:window-width="2560"
     inkscape:window-height="1376"
     inkscape:window-x="0"
     inkscape:window-y="27"
     inkscape:window-maximized="1"
     fit-margin-top="0"
     fit-margin-left="0"
     fit-margin-right="0"
     fit-margin-bottom="0" />
  <metadata
     id="metadata2425">
    <rdf:RDF>
      <cc:Work
         rdf:about="">
        <dc:format>image/svg+xml</dc:format>
        <dc:type
           rdf:resource="http://purl.org/dc/dcmitype/StillImage" />
        <dc:title />
      </cc:Work>
    </rdf:RDF>
  </metadata>
  <g
     inkscape:label="Layer 1"
     inkscape:groupmode="layer"
     id="layer1"
     transform="translate(243.81565,-24.269176)">
    <rect
       style="opacity:1;fill:#acb59b;fill-opacity:0.26588236;stroke:none;stroke-width:0.30000001;stroke-linecap:round;stroke-linejoin:bevel;stroke-miterlimit:4;stroke-dasharray:none;stroke-opacity:1;filter:url(#filter3280)"
       id="rect2999-8"
       width="74.650299"
       height="74.650299"
       x="-84.843231"
       y="157.72142"
       rx="4.99999"
       ry="4.99999"
       transform="rotate(50.525691)" />
    <rect
       style="opacity:1;fill:url(#radialGradient3075);fill-opacity:1;stroke:none;stroke-width:0.30000001;stroke-linecap:round;stroke-linejoin:bevel;stroke-miterlimit:4;stroke-dasharray:none;stroke-opacity:1;filter:url(#filter3268)"
       id="rect2999"
       width="74.650299"
       height="74.650299"
       x="-162.95502"
       y="119.25794"
       rx="4.99999"
       ry="4.99999"
       transform="rotate(25.476814)" />
    <path
       style="opacity:1;fill:#d7fb98;fill-opacity:0.31294119;stroke:none;stroke-width:0.30000001;stroke-linecap:round;stroke-linejoin:bevel;stroke-miterlimit:4;stroke-dasharray:none;stroke-opacity:1"
       d="m -195.89414,39.019839 c -1.94678,-0.08903 -3.84252,0.972926 -4.73615,2.848407 l -27.80863,58.363364 c -0.0927,0.19452 -0.16717,0.39252 -0.23305,0.59169 a 52.007383,73.478847 83.385261 0 0 56.32059,10.05985 52.007383,73.478847 83.385261 0 0 24.53494,-6.36137 l -13.27878,27.86755 c -0.22252,0.46702 -0.50768,0.88347 -0.83974,1.24437 0.35185,-0.37211 0.65454,-0.80293 0.88728,-1.29139 l 27.80864,-58.363879 c 1.1915,-2.500641 0.13799,-5.472692 -2.36265,-6.664193 l -58.36388,-27.809155 c -0.62515,-0.297876 -1.27963,-0.455565 -1.92857,-0.485244 z m 33.95918,94.613861 c -1.44943,1.53286 -3.76525,2.03053 -5.77743,1.07177 l -58.36388,-27.80915 c -2.30611,-1.09882 -3.3768,-3.71179 -2.5957,-6.07302 a 52.007383,73.478847 83.385261 0 1 -0.0284,-0.016 c -0.82158,2.37763 0.2504,5.02743 2.57712,6.13606 l 58.36388,27.80916 c 2.03362,0.96897 4.37848,0.45275 5.82445,-1.1188 z"
       id="rect2999-6"
       inkscape:connector-curvature="0" />
    <path
       style="fill:#ffffff;fill-opacity:1;stroke:#8dc35e;stroke-width:0.82680392;stroke-miterlimit:4;stroke-dasharray:none;stroke-opacity:1"
       d="m -174.66922,136.89399 c -0.75198,-0.49053 -2.30075,-1.76845 -3.44168,-2.83983 l -2.07445,-1.94795 -6.70006,-0.27616 c -7.58631,-0.31269 -9.45746,-1.04255 -10.03154,-3.91294 -0.32005,-1.60028 -0.42704,-1.65822 -2.46079,-1.33302 -2.94842,0.47146 -4.01814,-0.29085 -5.33065,-3.79882 -1.67101,-4.46618 -1.48679,-7.23833 0.78021,-11.73999 2.24853,-4.46497 2.41945,-6.25813 0.68362,-7.17225 -2.61121,-1.37512 -2.67756,-2.67185 -0.13663,-2.67185 h 1.91416 v -4.016969 c 0,-4.648044 0.73762,-5.737813 4.19598,-6.199045 3.66301,-0.488518 6.71386,3.274763 4.28738,5.288569 -0.65913,0.547013 -0.87824,0.50776 -1.15232,-0.206495 -0.18623,-0.485065 -0.77259,-0.881951 -1.30325,-0.881951 -1.23198,0 -1.90502,4.322695 -1.10653,7.106851 0.30122,1.05036 0.54769,1.95792 0.54769,2.01681 0,0.0589 -0.9927,1.25405 -2.20602,2.65591 -3.24485,3.74911 -4.90363,7.34923 -4.90363,10.64254 0,3.88871 1.20125,6.56338 2.94775,6.56338 2.00092,0 2.13014,-0.70959 0.6126,-3.36416 -1.49516,-2.61539 -1.70584,-4.7957 -0.73716,-7.62889 1.1403,-3.3352 4.70226,-7.94543 8.3592,-10.8193 1.9711,-1.54903 3.58381,-3.162543 3.58381,-3.585578 0,-0.423033 0.67422,-1.570431 1.49828,-2.549759 1.26282,-1.500774 1.52831,-2.388368 1.68933,-5.64765 0.16556,-3.350664 -0.0798,-4.633823 -1.83689,-9.609446 -2.63496,-7.461386 -2.83267,-11.69917 -0.71441,-15.313109 0.79338,-1.35356 3.1869,-7.629193 5.31894,-13.945851 4.30027,-12.740471 7.12275,-20.157356 7.15144,-18.792386 0.0103,0.492734 -0.61807,3.076827 -1.39651,5.742422 -2.11246,7.233584 -4.99231,18.716775 -5.42909,21.648063 -0.35256,2.366214 -0.27681,2.630522 0.90552,3.159077 0.70966,0.317266 3.13107,0.877984 5.38088,1.246036 3.74962,0.613406 4.13609,0.799003 4.63618,2.226355 0.65926,1.881599 -0.32981,2.817273 -3.94143,3.728597 -1.27837,0.322578 -2.32432,0.881787 -2.32432,1.242665 0,1.612661 1.92972,6.931735 3.82081,10.531701 1.13677,2.164016 2.35021,4.747385 2.69651,5.74079 l 0.62966,1.806215 2.21005,-2.322699 c 2.29132,-2.408128 2.61988,-2.541968 4.8048,-1.957293 l 1.30977,0.350482 -0.32959,6.55515 c -0.27109,5.391671 -0.51548,6.759887 -1.37688,7.708748 -0.57601,0.63451 -0.9351,1.46115 -0.79797,1.83697 0.3572,0.979 -1.34493,1.47876 -2.30963,0.67813 -1.13146,-0.93903 -1.01573,-2.23128 0.22898,-2.55679 0.65916,-0.17239 1.16867,-0.945761 1.38589,-2.103638 0.41693,-2.222512 -0.14098,-4.751044 -0.98956,-4.484234 -1.24568,0.391678 -4.73488,6.240365 -5.79237,9.709342 -1.21779,3.99484 -4.05119,7.43492 -7.62565,9.25847 -1.7042,0.86944 -2.21029,1.51052 -2.69951,3.41959 -0.33115,1.29226 -1.47071,3.56187 -2.53231,5.04359 -1.06162,1.48171 -1.93023,2.86502 -1.93023,3.07404 0,0.20899 1.95569,0.55061 4.34595,0.75911 4.77741,0.41673 7.75252,1.9186 6.58571,3.32452 -0.45386,0.54686 -0.14924,1.05569 1.28896,2.15262 2.43581,1.85788 3.4683,4.23652 2.63387,6.06791 -0.71032,1.55896 -0.97856,1.59636 -2.82277,0.39337 z m -6.01587,-70.453012 c 0,-0.803923 -1.16755,-1.078898 -1.81823,-0.428203 -0.49459,0.494574 0.73108,1.888173 1.33331,1.515987 0.26671,-0.164948 0.48492,-0.654332 0.48492,-1.087784 z m 9.40622,18.065227 c -1.53455,-3.158577 -1.51367,-4.603686 0.1128,-7.8135 1.67978,-3.314884 3.53018,-4.414926 5.65263,-3.360441 l 1.50865,0.749519 -1.64069,0.194712 c -2.48078,0.294508 -3.00793,1.429419 -3.00793,6.475814 0,6.846887 -0.66257,7.794177 -2.6255,3.753855 z"
       id="path2986"
       inkscape:connector-curvature="0" />
    <g
       aria-label="    apache tapestry"
       style="font-style:normal;font-variant:normal;font-weight:normal;font-stretch:normal;font-size:17.66440582px;line-height:125%;font-family:Montserrat;-inkscape-font-specification:Montserrat;letter-spacing:0px;word-spacing:0px;fill:#000000;fill-opacity:1;stroke:none;stroke-width:0.64234203px;stroke-linecap:butt;stroke-linejoin:miter;stroke-opacity:1"
       id="text3284">
      <path
         d="m -111.54657,66.788791 h -0.87358 v -0.608084 q -0.56526,0.6766 -1.51593,0.6766 -0.71086,0 -1.18191,-0.402534 -0.46248,-0.402535 -0.46248,-1.07057 0,-0.676601 0.49674,-1.010618 0.49674,-0.334018 1.34464,-0.334018 h 1.24186 v -0.171292 q 0,-0.907843 -1.01062,-0.907843 -0.63378,0 -1.31894,0.462486 l -0.42823,-0.599519 q 0.83076,-0.659471 1.8842,-0.659471 0.80507,0 1.31038,0.411099 0.51387,0.402534 0.51387,1.276119 z m -0.95923,-1.695783 v -0.385406 h -1.07913 q -1.03631,0 -1.03631,0.650907 0,0.334018 0.25693,0.513874 0.25694,0.171291 0.71086,0.171291 0.46249,0 0.80507,-0.256937 0.34258,-0.256937 0.34258,-0.693729 z"
         style="font-size:8.56456089px;fill:#9c9c9c;fill-opacity:1;stroke-width:0.64234203px"
         id="path3292" />
      <path
         d="m -107.76197,62.163928 q 0.91641,0 1.56732,0.633777 0.6509,0.633778 0.6509,1.687219 0,1.053441 -0.6509,1.712912 -0.64235,0.659471 -1.50737,0.659471 -0.85645,0 -1.54162,-0.753681 v 2.34669 h -0.95923 v -6.217872 h 0.95923 v 0.796504 q 0.56526,-0.86502 1.48167,-0.86502 z m -1.4988,2.355254 q 0,0.650907 0.39397,1.07057 0.39397,0.411099 0.95923,0.411099 0.56527,0 0.98493,-0.411099 0.41966,-0.411099 0.41966,-1.062005 0,-0.659472 -0.4111,-1.0877 -0.4111,-0.436792 -0.98492,-0.436792 -0.57383,0 -0.9678,0.436792 -0.39397,0.428228 -0.39397,1.079135 z"
         style="font-size:8.56456089px;fill:#9c9c9c;fill-opacity:1;stroke-width:0.64234203px"
         id="path3294" />
      <path
         d="m -100.75723,66.788791 h -0.87358 v -0.608084 q -0.56526,0.6766 -1.51593,0.6766 -0.71086,0 -1.18191,-0.402534 -0.46249,-0.402535 -0.46249,-1.07057 0,-0.676601 0.49675,-1.010618 0.49674,-0.334018 1.34464,-0.334018 h 1.24186 v -0.171292 q 0,-0.907843 -1.01062,-0.907843 -0.63378,0 -1.31894,0.462486 l -0.42823,-0.599519 q 0.83076,-0.659471 1.8842,-0.659471 0.80507,0 1.31038,0.411099 0.51387,0.402534 0.51387,1.276119 z m -0.95923,-1.695783 v -0.385406 h -1.07913 q -1.03631,0 -1.03631,0.650907 0,0.334018 0.25693,0.513874 0.25694,0.171291 0.71086,0.171291 0.46249,0 0.80507,-0.256937 0.34258,-0.256937 0.34258,-0.693729 z"
         style="font-size:8.56456089px;fill:#9c9c9c;fill-opacity:1;stroke-width:0.64234203px"
         id="path3296" />
      <path
         d="m -97.392292,66.857307 q -0.950666,0 -1.635831,-0.642342 -0.685165,-0.650907 -0.685165,-1.695783 0,-1.044876 0.710859,-1.695783 0.719423,-0.659471 1.74717,-0.659471 1.027747,0 1.738606,0.710858 l -0.565261,0.69373 q -0.590955,-0.513874 -1.190474,-0.513874 -0.599519,0 -1.044877,0.402535 -0.436792,0.393969 -0.436792,1.027747 0,0.625213 0.436792,1.062005 0.436793,0.436793 1.07057,0.436793 0.642343,0 1.207604,-0.58239 l 0.565261,0.616648 q -0.830763,0.839327 -1.918462,0.839327 z"
         style="font-size:8.56456089px;fill:#9c9c9c;fill-opacity:1;stroke-width:0.64234203px"
         id="path3298" />
      <path
         d="m -93.519638,64.322197 v 2.466594 h -0.95923 v -6.34634 h 0.95923 v 2.620756 q 0.20555,-0.419664 0.616649,-0.659471 0.419663,-0.239808 0.899279,-0.239808 0.77081,0 1.241861,0.471051 0.479615,0.471051 0.479615,1.361765 v 2.792047 h -0.95923 v -2.500852 q 0,-1.258991 -1.044877,-1.258991 -0.496744,0 -0.865021,0.334018 -0.368276,0.325454 -0.368276,0.959231 z"
         style="font-size:8.56456089px;fill:#9c9c9c;fill-opacity:1;stroke-width:0.64234203px"
         id="path3300" />
      <path
         d="m -84.702555,64.930281 h -3.571422 q 0.03426,0.496745 0.453922,0.805069 0.419663,0.299759 0.959231,0.299759 0.856456,0 1.301813,-0.539567 l 0.548132,0.599519 q -0.736553,0.762246 -1.918462,0.762246 -0.959231,0 -1.635831,-0.633777 -0.668036,-0.642342 -0.668036,-1.712912 0,-1.079135 0.685165,-1.712913 0.685165,-0.633777 1.610137,-0.633777 0.933538,0 1.584444,0.565261 0.650907,0.556696 0.650907,1.541621 z M -88.273977,64.1766 h 2.612191 q 0,-0.573826 -0.359711,-0.88215 -0.359712,-0.308324 -0.890715,-0.308324 -0.522438,0 -0.942102,0.325453 -0.419663,0.316889 -0.419663,0.865021 z"
         style="font-size:8.56456089px;fill:#9c9c9c;fill-opacity:1;stroke-width:0.64234203px"
         id="path3302" />
      <path
         d="m -119.29707,74.163942 v 7.399781 q 0,1.041451 0.54814,1.671803 0.54813,0.602945 1.53477,0.602945 0.98663,0 1.89105,-0.959231 l 1.2607,2.165121 q -1.61698,1.45255 -3.59026,1.45255 -1.94587,0 -3.3436,-1.342924 -1.37033,-1.370329 -1.37033,-3.672484 v -7.317561 h -1.83625 v -2.466594 h 1.83625 v -4.576901 h 3.06953 v 4.576901 h 3.83693 v 2.466594 z"
         style="font-size:27.40659714px;stroke-width:0.64234203px"
         id="path3304" />
      <path
         d="M -99.811832,86.277658 H -102.6073 V 84.33179 q -1.80884,2.165121 -4.85097,2.165121 -2.27475,0 -3.78211,-1.28811 -1.47996,-1.28811 -1.47996,-3.425825 0,-2.165121 1.58958,-3.233978 1.58959,-1.068858 4.30284,-1.068858 h 3.97396 v -0.548132 q 0,-2.905099 -3.23398,-2.905099 -2.02809,0 -4.22062,1.479956 l -1.37033,-1.918462 q 2.65844,-2.110308 6.02945,-2.110308 2.57622,0 4.19321,1.315517 1.644398,1.28811 1.644398,4.083583 z m -3.069538,-5.426506 v -1.233297 h -3.45323 q -3.3162,0 -3.3162,2.082901 0,1.068858 0.8222,1.644396 0.8222,0.548132 2.27475,0.548132 1.47995,0 2.57622,-0.822198 1.09626,-0.822198 1.09626,-2.219934 z"
         style="font-size:27.40659714px;stroke-width:0.64234203px"
         id="path3306" />
      <path
         d="m -87.701113,71.478095 q 2.932506,0 5.015407,2.028089 2.082901,2.028088 2.082901,5.399099 0,3.371012 -2.082901,5.48132 -2.055495,2.110308 -4.823561,2.110308 -2.74066,0 -4.933188,-2.411781 v 7.509408 h -3.069539 v -19.89719 h 3.069539 v 2.548814 q 1.808836,-2.768067 4.741342,-2.768067 z m -4.796155,7.536815 q 0,2.082901 1.260704,3.425824 1.260703,1.315517 3.069539,1.315517 1.808835,0 3.151758,-1.315517 1.342923,-1.315516 1.342923,-3.398418 0,-2.110308 -1.315516,-3.480638 -1.315517,-1.397736 -3.151759,-1.397736 -1.836242,0 -3.096945,1.397736 -1.260704,1.37033 -1.260704,3.453232 z"
         style="font-size:27.40659714px;stroke-width:0.64234203px"
         id="path3308" />
      <path
         d="m -63.531923,80.330426 h -11.428551 q 0.109626,1.589583 1.45255,2.57622 1.342923,0.959231 3.069539,0.959231 2.740659,0 4.165802,-1.726615 l 1.754023,1.918462 q -2.356968,2.439187 -6.139078,2.439187 -3.069539,0 -5.23466,-2.028088 -2.137715,-2.055495 -2.137715,-5.48132 0,-3.453231 2.192528,-5.481319 2.192528,-2.028089 5.15244,-2.028089 2.987319,0 5.070221,1.808836 2.082901,1.781429 2.082901,4.933187 z m -11.428551,-2.41178 h 8.359012 q 0,-1.836242 -1.151077,-2.82288 -1.151077,-0.986637 -2.850286,-0.986637 -1.671802,0 -3.014726,1.041451 -1.342923,1.014044 -1.342923,2.768066 z"
         style="font-size:27.40659714px;stroke-width:0.64234203px"
         id="path3310" />
      <path
         d="m -49.79608,81.920009 q 0,2.082901 -1.507362,3.343605 -1.507363,1.233297 -3.864331,1.233297 -1.589582,0 -3.316198,-0.575539 -1.699209,-0.575538 -3.014726,-1.616989 l 1.479957,-2.384374 q 2.548813,1.918462 4.933187,1.918462 1.041451,0 1.644396,-0.465912 0.602945,-0.493319 0.602945,-1.233297 0,-1.096264 -2.905099,-1.973275 -0.219253,-0.08222 -0.328879,-0.109627 -4.549496,-1.233296 -4.549496,-4.110989 0,-2.028088 1.562177,-3.233979 1.589582,-1.233297 4.110989,-1.233297 2.521407,0 4.768748,1.479957 l -1.151077,2.274747 q -1.781429,-1.178483 -3.86433,-1.178483 -1.096264,0 -1.781429,0.411099 -0.685165,0.383692 -0.685165,1.178483 0,0.712572 0.712572,1.041451 0.493318,0.246659 1.370329,0.465912 0.904418,0.219253 1.589583,0.438506 0.685165,0.219252 1.315517,0.493318 0.657758,0.274066 1.397736,0.767385 1.479956,0.986638 1.479956,3.069539 z"
         style="font-size:27.40659714px;stroke-width:0.64234203px"
         id="path3312" />
      <path
         d="m -42.537186,74.163942 v 7.399781 q 0,1.041451 0.548132,1.671803 0.548132,0.602945 1.53477,0.602945 0.986637,0 1.891055,-0.959231 l 1.260703,2.165121 q -1.616989,1.45255 -3.590264,1.45255 -1.945868,0 -3.343605,-1.342924 -1.370329,-1.370329 -1.370329,-3.672484 v -7.317561 h -1.836242 v -2.466594 h 1.836242 v -4.576901 h 3.069538 v 4.576901 h 3.836924 v 2.466594 z"
         style="font-size:27.40659714px;stroke-width:0.64234203px"
         id="path3314" />
      <path
         d="m -27.217754,74.575041 q -2.274748,0 -3.425825,1.479956 -1.151077,1.479956 -1.151077,3.973957 v 6.248704 h -3.069539 v -14.58031 h 3.069539 v 2.932506 q 0.739978,-1.37033 2.000682,-2.247341 1.28811,-0.877011 2.713253,-0.904418 l 0.02741,3.096946 q -0.08222,0 -0.164439,0 z"
         style="font-size:27.40659714px;stroke-width:0.64234203px"
         id="path3316" />
      <path
         d="m -22.161666,92.087857 q -2.000681,0 -3.617671,-1.45255 l 1.397737,-2.494 q 0.959231,0.904417 1.973275,0.904417 1.041451,0 1.671802,-0.739978 0.657759,-0.739978 0.657759,-1.616989 0,-0.383692 -5.892419,-14.991409 h 3.288792 l 4.357649,10.743386 4.357649,-10.743386 h 3.288791 l -7.070902,17.32097 q -0.630351,1.425143 -1.808835,2.247341 -1.178484,0.822198 -2.603627,0.822198 z"
         style="font-size:27.40659714px;stroke-width:0.64234203px"
         id="path3318" />
    </g>
    <g
       aria-label="Code less, deliver more."
       style="font-style:normal;font-variant:normal;font-weight:normal;font-stretch:normal;font-size:13.02367687px;line-height:125%;font-family:Montserrat;-inkscape-font-specification:Montserrat;letter-spacing:0px;word-spacing:0px;fill:#000000;fill-opacity:1;stroke:none;stroke-width:0.47358826px;stroke-linecap:butt;stroke-linejoin:miter;stroke-opacity:1"
       id="text3290">
      <path
         d="m -120.01149,94.267134 q 0.56002,0 1.25028,0.156284 0.70328,0.156284 0.80747,0.156284 0.37768,0 0.4949,-0.286521 h 0.26047 l -0.46885,2.604736 -0.23443,-0.06512 q -0.19535,-2.096812 -2.00565,-2.096812 -1.18515,0 -2.10983,0.833516 -0.92468,0.833515 -1.36749,2.005646 -0.4428,1.159107 -0.4428,2.357285 0,1.263297 0.58606,1.966577 0.59909,0.70328 1.68006,0.70328 0.79444,0 1.45865,-0.33862 0.66421,-0.35164 1.53679,-1.2112 l 0.23443,0.19535 q -0.89863,1.01585 -1.73215,1.47168 -0.82049,0.45583 -1.83634,0.45583 -1.49772,0 -2.44845,-0.95073 -0.95073,-0.95073 -0.95073,-2.448451 0,-1.406557 0.72933,-2.682877 0.74235,-1.289344 1.96657,-2.057741 1.23725,-0.768397 2.59171,-0.768397 z"
         style="font-style:italic;font-variant:normal;font-weight:normal;font-stretch:normal;font-family:Norasi;-inkscape-font-specification:'Norasi Italic';stroke-width:0.47358826px"
         id="path3321" />
      <path
         d="m -111.37658,99.0338 q 0,0.872586 -0.53398,1.82331 -0.53397,0.93771 -1.44562,1.58889 -0.89864,0.65119 -1.86239,0.65119 -0.88561,0 -1.40656,-0.4949 -0.52094,-0.4949 -0.52094,-1.34144 0,-1.536795 1.2112,-2.800092 1.2112,-1.263297 2.68288,-1.263297 0.83351,0 1.35446,0.507924 0.52095,0.507923 0.52095,1.328415 z m -3.64663,3.77687 q 0.7163,0 1.31539,-0.72933 0.61211,-0.72933 0.91165,-1.66703 0.31257,-0.937705 0.31257,-1.73215 0,-0.53397 -0.26047,-0.872586 -0.24745,-0.338616 -0.66421,-0.338616 -0.65118,0 -1.27632,0.690255 -0.62513,0.690255 -0.9898,1.667031 -0.36466,0.963756 -0.36466,1.797266 0,0.547 0.2735,0.87259 0.28652,0.31257 0.74235,0.31257 z"
         style="font-style:italic;font-variant:normal;font-weight:normal;font-stretch:normal;font-family:Norasi;-inkscape-font-specification:'Norasi Italic';stroke-width:0.47358826px"
         id="path3323" />
      <path
         d="m -104.96832,101.49527 0.15628,0.13024 q -1.05492,1.4847 -1.88843,1.4847 -0.24745,0 -0.40374,-0.15628 -0.15628,-0.15629 -0.15628,-0.42978 0,-0.37769 0.16931,-1.17214 -0.67724,0.9898 -1.18516,1.36749 -0.50792,0.37769 -1.15911,0.37769 -0.62513,0 -1.00282,-0.40374 -0.36466,-0.40373 -0.36466,-1.09399 0,-0.95072 0.58606,-1.992619 0.59909,-1.041894 1.49773,-1.719125 0.89863,-0.690255 1.73215,-0.690255 0.37768,0 0.57304,0.182332 0.19535,0.169307 0.26047,0.586065 l 0.57304,-2.135883 q 0.19536,-0.677231 0.19536,-0.924681 0,-0.208379 -0.14326,-0.260473 -0.13024,-0.06512 -0.66421,-0.07814 v -0.234426 q 0.97678,-0.07814 1.9796,-0.286521 l 0.0781,0.06512 q -0.95073,3.750819 -1.28934,4.844808 -0.84654,2.826142 -0.84654,3.203822 0,0.26048 0.23442,0.26048 0.16931,0 0.36467,-0.15629 0.19535,-0.16931 0.70328,-0.7684 z m -1.39354,-3.242891 q 0,-0.74235 -0.66421,-0.74235 -0.59908,0 -1.23725,0.703279 -0.62513,0.690255 -1.01584,1.654007 -0.37769,0.963755 -0.37769,1.732145 0,0.37769 0.20838,0.62514 0.20838,0.23443 0.53397,0.23443 0.58607,0 1.18516,-0.63816 0.59908,-0.63816 0.97677,-1.61494 0.39071,-0.989799 0.39071,-1.953551 z"
         style="font-style:italic;font-variant:normal;font-weight:normal;font-stretch:normal;font-family:Norasi;-inkscape-font-specification:'Norasi Italic';stroke-width:0.47358826px"
         id="path3325" />
      <path
         d="m -99.862434,101.53435 0.182332,0.14326 q -0.586068,0.6642 -1.302368,1.04189 -0.7163,0.37769 -1.40656,0.37769 -0.75537,0 -1.23725,-0.4949 -0.48187,-0.50793 -0.48187,-1.30237 0,-1.458652 1.25027,-2.774044 1.2633,-1.328415 2.68288,-1.328415 0.481874,0 0.755371,0.234426 0.273497,0.234427 0.273497,0.638161 0,0.846539 -0.937708,1.52377 -0.92468,0.664212 -2.38333,0.872582 l -0.39071,0.0521 q -0.10419,0.48187 -0.10419,0.79444 0,0.53397 0.32559,0.85957 0.32559,0.32559 0.88561,0.32559 0.41676,0 0.80747,-0.19536 0.39071,-0.19535 1.080966,-0.76839 z m -2.669856,-1.875414 -0.2214,0.573044 q 0.82049,-0.19536 1.27632,-0.403736 0.45583,-0.221403 0.82049,-0.573042 0.65119,-0.612113 0.65119,-1.250273 0,-0.221402 -0.13024,-0.351639 -0.11721,-0.143261 -0.32559,-0.143261 -0.4949,0 -1.12004,0.651184 -0.62514,0.63816 -0.95073,1.497723 z"
         style="font-style:italic;font-variant:normal;font-weight:normal;font-stretch:normal;font-family:Norasi;-inkscape-font-specification:'Norasi Italic';stroke-width:0.47358826px"
         id="path3327" />
      <path
         d="m -91.360413,101.63854 q -0.130236,0.48187 -0.130236,0.65118 0,0.23443 0.195355,0.23443 0.312568,0 0.898633,-0.74235 0.05209,-0.0912 0.182332,-0.23443 0.130237,-0.14326 0.182331,-0.20838 l 0.169308,0.11721 q -0.651184,0.95073 -1.067941,1.30237 -0.416758,0.33862 -0.924681,0.33862 -0.63816,0 -0.63816,-0.74235 0,-0.10419 0.06512,-0.32559 l 1.784244,-6.88953 q 0.05209,-0.156284 0.05209,-0.234426 0,-0.299544 -0.872586,-0.299544 v -0.208379 q 1.27632,-0.182332 2.01867,-0.35164 l 0.05209,0.06512 z"
         style="font-style:italic;font-variant:normal;font-weight:normal;font-stretch:normal;font-family:Norasi;-inkscape-font-specification:'Norasi Italic';stroke-width:0.47358826px"
         id="path3329" />
      <path
         d="m -84.778369,101.53435 0.182331,0.14326 q -0.586065,0.6642 -1.302368,1.04189 -0.716302,0.37769 -1.406557,0.37769 -0.755373,0 -1.237249,-0.4949 -0.481876,-0.50793 -0.481876,-1.30237 0,-1.458652 1.250273,-2.774044 1.263297,-1.328415 2.682877,-1.328415 0.481876,0 0.755374,0.234426 0.273497,0.234427 0.273497,0.638161 0,0.846539 -0.937705,1.52377 -0.924681,0.664212 -2.383333,0.872582 l -0.39071,0.0521 q -0.10419,0.48187 -0.10419,0.79444 0,0.53397 0.325592,0.85957 0.325592,0.32559 0.88561,0.32559 0.416758,0 0.807468,-0.19536 0.390711,-0.19535 1.080966,-0.76839 z m -2.669854,-1.875414 -0.221403,0.573044 q 0.820492,-0.19536 1.276321,-0.403736 0.455828,-0.221403 0.820491,-0.573042 0.651184,-0.612113 0.651184,-1.250273 0,-0.221402 -0.130237,-0.351639 -0.117213,-0.143261 -0.325592,-0.143261 -0.494899,0 -1.120036,0.651184 -0.625136,0.63816 -0.950728,1.497723 z"
         style="font-style:italic;font-variant:normal;font-weight:normal;font-stretch:normal;font-family:Norasi;-inkscape-font-specification:'Norasi Italic';stroke-width:0.47358826px"
         id="path3331" />
      <path
         d="m -81.569864,103.09719 q -0.195355,0 -0.651184,-0.13024 -0.455828,-0.11721 -0.703278,-0.11721 -0.182332,0 -0.312569,0.26047 h -0.208378 l 0.273497,-2.07076 h 0.208379 q 0.260473,1.77122 1.315391,1.77122 0.429781,0 0.703279,-0.2735 0.273497,-0.28652 0.273497,-0.7163 0,-0.33862 -0.24745,-0.7684 -0.24745,-0.44281 -0.546994,-0.79444 -0.286521,-0.364668 -0.533971,-0.807473 -0.24745,-0.455828 -0.24745,-0.820491 0,-0.651184 0.429781,-1.041894 0.442805,-0.390711 1.159107,-0.390711 0.286521,0 0.703279,0.117213 0.416758,0.117213 0.4949,0.117213 0.24745,0 0.39071,-0.247449 h 0.182332 l -0.260474,1.810291 h -0.208379 q -0.208379,-1.4847 -1.211202,-1.4847 -0.325592,0 -0.520947,0.182332 -0.195355,0.182331 -0.195355,0.4949 0,0.403734 0.39071,0.950728 0.403734,0.546994 0.807468,1.146081 0.403734,0.58607 0.403734,1.10702 0,0.75537 -0.53397,1.23724 -0.520948,0.46886 -1.354463,0.46886 z"
         style="font-style:italic;font-variant:normal;font-weight:normal;font-stretch:normal;font-family:Norasi;-inkscape-font-specification:'Norasi Italic';stroke-width:0.47358826px"
         id="path3333" />
      <path
         d="m -76.507928,103.09719 q -0.195356,0 -0.651184,-0.13024 -0.455829,-0.11721 -0.703279,-0.11721 -0.182331,0 -0.312568,0.26047 h -0.208379 l 0.273497,-2.07076 h 0.208379 q 0.260474,1.77122 1.315391,1.77122 0.429782,0 0.703279,-0.2735 0.273497,-0.28652 0.273497,-0.7163 0,-0.33862 -0.24745,-0.7684 -0.247449,-0.44281 -0.546994,-0.79444 -0.286521,-0.364668 -0.533971,-0.807473 -0.24745,-0.455828 -0.24745,-0.820491 0,-0.651184 0.429782,-1.041894 0.442805,-0.390711 1.159107,-0.390711 0.286521,0 0.703278,0.117213 0.416758,0.117213 0.4949,0.117213 0.24745,0 0.39071,-0.247449 h 0.182332 l -0.260474,1.810291 h -0.208378 q -0.208379,-1.4847 -1.211202,-1.4847 -0.325592,0 -0.520947,0.182332 -0.195356,0.182331 -0.195356,0.4949 0,0.403734 0.390711,0.950728 0.403734,0.546994 0.807468,1.146081 0.403734,0.58607 0.403734,1.10702 0,0.75537 -0.533971,1.23724 -0.520947,0.46886 -1.354462,0.46886 z"
         style="font-style:italic;font-variant:normal;font-weight:normal;font-stretch:normal;font-family:Norasi;-inkscape-font-specification:'Norasi Italic';stroke-width:0.47358826px"
         id="path3335" />
      <path
         d="m -72.61812,103.24045 q 0,-0.19536 -0.286521,-0.45583 -0.286521,-0.26047 -0.286521,-0.547 0,-0.26047 0.195355,-0.42978 0.195355,-0.18233 0.481876,-0.18233 0.312569,0 0.520947,0.2735 0.221403,0.26047 0.221403,0.66421 0,1.12003 -1.706102,2.05774 l -0.104189,-0.23443 q 0.963752,-0.61211 0.963752,-1.14608 z"
         style="font-style:italic;font-variant:normal;font-weight:normal;font-stretch:normal;font-family:Norasi;-inkscape-font-specification:'Norasi Italic';stroke-width:0.47358826px"
         id="path3337" />
      <path
         d="m -58.546038,101.49527 0.156284,0.13024 q -1.054918,1.4847 -1.888433,1.4847 -0.24745,0 -0.403734,-0.15628 -0.156284,-0.15629 -0.156284,-0.42978 0,-0.37769 0.169308,-1.17214 -0.677231,0.9898 -1.185155,1.36749 -0.507923,0.37769 -1.159107,0.37769 -0.625136,0 -1.002823,-0.40374 -0.364663,-0.40373 -0.364663,-1.09399 0,-0.95072 0.586065,-1.992619 0.59909,-1.041894 1.497723,-1.719125 0.898634,-0.690255 1.732149,-0.690255 0.377687,0 0.573042,0.182332 0.195355,0.169307 0.260474,0.586065 l 0.573041,-2.135883 q 0.195356,-0.677231 0.195356,-0.924681 0,-0.208379 -0.143261,-0.260473 -0.130237,-0.06512 -0.664207,-0.07814 v -0.234426 q 0.976775,-0.07814 1.979598,-0.286521 l 0.07814,0.06512 q -0.950728,3.750819 -1.289344,4.844808 -0.846539,2.826142 -0.846539,3.203822 0,0.26048 0.234427,0.26048 0.169307,0 0.364663,-0.15629 0.195355,-0.16931 0.703278,-0.7684 z m -1.393533,-3.242891 q 0,-0.74235 -0.664208,-0.74235 -0.599089,0 -1.237249,0.703279 -0.625137,0.690255 -1.015847,1.654007 -0.377686,0.963755 -0.377686,1.732145 0,0.37769 0.208378,0.62514 0.208379,0.23443 0.533971,0.23443 0.586066,0 1.185155,-0.63816 0.599089,-0.63816 0.976775,-1.61494 0.390711,-0.989799 0.390711,-1.953551 z"
         style="font-style:italic;font-variant:normal;font-weight:normal;font-stretch:normal;font-family:Norasi;-inkscape-font-specification:'Norasi Italic';stroke-width:0.47358826px"
         id="path3339" />
      <path
         d="m -53.440147,101.53435 0.182332,0.14326 q -0.586066,0.6642 -1.302368,1.04189 -0.716302,0.37769 -1.406557,0.37769 -0.755374,0 -1.23725,-0.4949 -0.481876,-0.50793 -0.481876,-1.30237 0,-1.458652 1.250273,-2.774044 1.263297,-1.328415 2.682878,-1.328415 0.481876,0 0.755373,0.234426 0.273497,0.234427 0.273497,0.638161 0,0.846539 -0.937704,1.52377 -0.924682,0.664212 -2.383333,0.872582 l -0.390711,0.0521 q -0.104189,0.48187 -0.104189,0.79444 0,0.53397 0.325592,0.85957 0.325592,0.32559 0.88561,0.32559 0.416758,0 0.807468,-0.19536 0.39071,-0.19535 1.080965,-0.76839 z m -2.669854,-1.875414 -0.221402,0.573044 q 0.820491,-0.19536 1.27632,-0.403736 0.455829,-0.221403 0.820492,-0.573042 0.651184,-0.612113 0.651184,-1.250273 0,-0.221402 -0.130237,-0.351639 -0.117213,-0.143261 -0.325592,-0.143261 -0.4949,0 -1.120036,0.651184 -0.625137,0.63816 -0.950729,1.497723 z"
         style="font-style:italic;font-variant:normal;font-weight:normal;font-stretch:normal;font-family:Norasi;-inkscape-font-specification:'Norasi Italic';stroke-width:0.47358826px"
         id="path3341" />
      <path
         d="m -50.661423,101.63854 q -0.130236,0.48187 -0.130236,0.65118 0,0.23443 0.195355,0.23443 0.312568,0 0.898633,-0.74235 0.0521,-0.0912 0.182332,-0.23443 0.130237,-0.14326 0.182331,-0.20838 l 0.169308,0.11721 q -0.651184,0.95073 -1.067941,1.30237 -0.416758,0.33862 -0.924681,0.33862 -0.638161,0 -0.638161,-0.74235 0,-0.10419 0.06512,-0.32559 l 1.784244,-6.88953 q 0.05209,-0.156284 0.05209,-0.234426 0,-0.299544 -0.872586,-0.299544 v -0.208379 q 1.27632,-0.182332 2.01867,-0.35164 l 0.05209,0.06512 z"
         style="font-style:italic;font-variant:normal;font-weight:normal;font-stretch:normal;font-family:Norasi;-inkscape-font-specification:'Norasi Italic';stroke-width:0.47358826px"
         id="path3343" />
      <path
         d="m -46.89249,102.45903 q 0.312568,0 1.067942,-1.00283 l 0.14326,0.14326 q -0.533971,0.8205 -0.950728,1.15911 -0.403734,0.33862 -0.859563,0.33862 -0.612113,0 -0.612113,-0.74235 0,-0.24745 0.286521,-1.43261 l 0.63816,-2.318212 q 0.10419,-0.325592 0.10419,-0.560018 0,-0.182331 -0.143261,-0.234426 -0.14326,-0.05209 -0.677231,-0.07814 v -0.208379 q 0.625136,-0.0521 2.109836,-0.325592 l 0.03907,0.02605 -1.250273,4.480141 q -0.10419,0.39071 -0.10419,0.57305 0,0.0651 0.0521,0.13023 0.06512,0.0521 0.156284,0.0521 z m 0.950728,-8.022588 q 0.273498,0 0.455829,0.208379 0.195355,0.208378 0.195355,0.494899 0,0.273497 -0.195355,0.468853 -0.182331,0.195355 -0.442805,0.195355 -0.286521,0 -0.455829,-0.182332 -0.169307,-0.182331 -0.169307,-0.507923 0,-0.286521 0.169307,-0.481876 0.182332,-0.195355 0.442805,-0.195355 z"
         style="font-style:italic;font-variant:normal;font-weight:normal;font-stretch:normal;font-family:Norasi;-inkscape-font-specification:'Norasi Italic';stroke-width:0.47358826px"
         id="path3345" />
      <path
         d="m -40.258356,98.604018 q 0,-0.195355 -0.273497,-0.429781 -0.273497,-0.234426 -0.273497,-0.533971 0,-0.208379 0.130236,-0.325592 0.143261,-0.117213 0.364663,-0.117213 0.286521,0 0.4949,0.234426 0.221403,0.221403 0.221403,0.533971 0,0.351639 -0.234427,0.924681 -0.221402,0.573042 -0.560018,1.054918 -0.989799,1.393533 -1.810291,2.318213 -0.807468,0.91166 -1.054918,0.91166 -0.117213,0 -0.117213,-0.46885 0,-0.58607 -0.09116,-1.77122 -0.09117,-1.185158 -0.195356,-1.823318 -0.130236,-0.898634 -0.286521,-1.159108 -0.156284,-0.273497 -0.53397,-0.273497 -0.24745,0 -0.390711,0.01302 v -0.169308 q 0.507924,-0.07814 0.911658,-0.156284 0.416757,-0.09117 0.586065,-0.130237 0.182332,-0.03907 0.208379,-0.03907 0.09117,0 0.130237,0.169308 0.0521,0.169308 0.260473,1.185155 0.24745,1.640986 0.325592,3.477326 l 0.390711,-0.42979 q 0.703278,-0.70327 1.250273,-1.614932 0.546994,-0.924681 0.546994,-1.38051 z"
         style="font-style:italic;font-variant:normal;font-weight:normal;font-stretch:normal;font-family:Norasi;-inkscape-font-specification:'Norasi Italic';stroke-width:0.47358826px"
         id="path3347" />
      <path
         d="m -35.100166,101.53435 0.182332,0.14326 q -0.586066,0.6642 -1.302368,1.04189 -0.716302,0.37769 -1.406557,0.37769 -0.755373,0 -1.23725,-0.4949 -0.481876,-0.50793 -0.481876,-1.30237 0,-1.458652 1.250273,-2.774044 1.263297,-1.328415 2.682878,-1.328415 0.481876,0 0.755373,0.234426 0.273497,0.234427 0.273497,0.638161 0,0.846539 -0.937704,1.52377 -0.924681,0.664212 -2.383333,0.872582 l -0.390711,0.0521 q -0.104189,0.48187 -0.104189,0.79444 0,0.53397 0.325592,0.85957 0.325592,0.32559 0.88561,0.32559 0.416758,0 0.807468,-0.19536 0.39071,-0.19535 1.080965,-0.76839 z m -2.669854,-1.875414 -0.221402,0.573044 q 0.820491,-0.19536 1.27632,-0.403736 0.455829,-0.221403 0.820492,-0.573042 0.651184,-0.612113 0.651184,-1.250273 0,-0.221402 -0.130237,-0.351639 -0.117213,-0.143261 -0.325592,-0.143261 -0.4949,0 -1.120036,0.651184 -0.625137,0.63816 -0.950729,1.497723 z"
         style="font-style:italic;font-variant:normal;font-weight:normal;font-stretch:normal;font-family:Norasi;-inkscape-font-specification:'Norasi Italic';stroke-width:0.47358826px"
         id="path3349" />
      <path
         d="m -29.208783,98.512853 q -0.195355,0 -0.312568,-0.06512 -0.10419,-0.07814 -0.130237,-0.169308 -0.02605,-0.09116 -0.09117,-0.156284 -0.06512,-0.07814 -0.156284,-0.07814 -0.325592,0 -1.002823,1.13306 -0.455829,0.755373 -0.729326,1.4326 -0.260473,0.67724 -0.755373,2.33124 h -1.002823 l 1.054918,-3.789887 q 0.208379,-0.898634 0.208379,-1.080965 0,-0.35164 -0.455829,-0.35164 -0.130237,0 -0.442805,0.0521 v -0.234426 q 0.729326,-0.10419 2.031693,-0.338616 l 0.02605,0.02605 -0.677231,2.813111 0.169307,-0.455826 q 0.260474,-0.625136 0.963752,-1.497723 0.703279,-0.88561 1.289344,-0.88561 0.273498,0 0.442805,0.182332 0.169308,0.182331 0.169308,0.481876 0,0.651184 -0.599089,0.651184 z"
         style="font-style:italic;font-variant:normal;font-weight:normal;font-stretch:normal;font-family:Norasi;-inkscape-font-specification:'Norasi Italic';stroke-width:0.47358826px"
         id="path3351" />
      <path
         d="m -15.336939,102.446 q 0.195355,0 0.507923,-0.31257 0.325592,-0.31256 0.59909,-0.7163 l 0.221402,0.15629 -0.299544,0.39071 q -0.312569,0.39071 -0.481876,0.54699 -0.156285,0.15629 -0.4949,0.35164 -0.338616,0.19536 -0.677231,0.19536 -0.507924,0 -0.507924,-0.59909 0,-0.19536 0.143261,-0.85957 l 0.768397,-2.995442 q 0.09117,-0.429781 0.09117,-0.455828 0,-0.10419 -0.07814,-0.195356 -0.07814,-0.09116 -0.182331,-0.09116 -0.286521,0 -0.74235,0.403734 -0.442805,0.39071 -0.924681,1.067941 -0.4949,0.677236 -0.78142,1.380506 -0.273498,0.69026 -0.664208,2.22705 h -0.976776 q 1.23725,-4.597355 1.23725,-4.753639 0,-0.325592 -0.260474,-0.325592 -0.338616,0 -0.872586,0.507923 -0.533971,0.507924 -1.067942,1.341439 -0.351639,0.507919 -0.586065,1.080969 -0.221403,0.57304 -0.703279,2.1489 h -0.963752 q 0.156284,-0.62513 0.4949,-1.87541 0.351639,-1.25027 0.560018,-2.044714 0.221402,-0.794444 0.221402,-0.924681 0,-0.286521 -0.520947,-0.286521 h -0.325592 v -0.208379 q 1.159108,-0.208379 2.109836,-0.403734 l 0.02605,0.02605 -0.755373,2.721948 q 1.745173,-2.747996 2.90428,-2.747996 0.338616,0 0.533971,0.221403 0.208379,0.208379 0.208379,0.560018 0,0.39071 -0.520947,1.979599 0.338615,-0.520947 0.546994,-0.820492 0.208379,-0.312568 0.63816,-0.846539 0.429782,-0.533971 0.859563,-0.807468 0.429781,-0.286521 0.833515,-0.286521 0.338616,0 0.560018,0.234426 0.221403,0.221403 0.221403,0.586066 0,0.208379 -0.03907,0.364663 l -0.88561,3.255924 -0.143261,0.59908 q 0,0.20838 0.169308,0.20838 z"
         style="font-style:italic;font-variant:normal;font-weight:normal;font-stretch:normal;font-family:Norasi;-inkscape-font-specification:'Norasi Italic';stroke-width:0.47358826px"
         id="path3353" />
      <path
         d="m -7.695904,99.0338 q 0,0.872586 -0.5339708,1.82331 -0.5339707,0.93771 -1.4456281,1.58889 -0.8986341,0.65119 -1.8623861,0.65119 -0.88561,0 -1.406557,-0.4949 -0.520947,-0.4949 -0.520947,-1.34144 0,-1.536795 1.211202,-2.800092 1.211202,-1.263297 2.6828775,-1.263297 0.8335153,0 1.3544624,0.507924 0.5209471,0.507923 0.5209471,1.328415 z m -3.64663,3.77687 q 0.716303,0 1.315392,-0.72933 0.6121126,-0.72933 0.9116572,-1.66703 0.3125682,-0.937705 0.3125682,-1.73215 0,-0.53397 -0.2604735,-0.872586 -0.2474499,-0.338616 -0.6642075,-0.338616 -0.6511834,0 -1.2763204,0.690255 -0.625136,0.690255 -0.989799,1.667031 -0.364663,0.963756 -0.364663,1.797266 0,0.547 0.273497,0.87259 0.286521,0.31257 0.742349,0.31257 z"
         style="font-style:italic;font-variant:normal;font-weight:normal;font-stretch:normal;font-family:Norasi;-inkscape-font-specification:'Norasi Italic';stroke-width:0.47358826px"
         id="path3355" />
      <path
         d="m -2.550946,98.512853 q -0.1953551,0 -0.3125682,-0.06512 -0.1041894,-0.07814 -0.1302368,-0.169308 -0.026047,-0.09116 -0.091166,-0.156284 -0.065118,-0.07814 -0.1562841,-0.07814 -0.325592,0 -1.0028232,1.13306 -0.4558286,0.755373 -0.7293259,1.4326 -0.2604735,0.67724 -0.7553732,2.33124 h -1.0028231 l 1.0549178,-3.789887 q 0.2083788,-0.898634 0.2083788,-1.080965 0,-0.35164 -0.4558287,-0.35164 -0.1302367,0 -0.442805,0.0521 v -0.234426 q 0.7293259,-0.10419 2.0316936,-0.338616 l 0.026047,0.02605 -0.6772312,2.813111 0.1693078,-0.455826 q 0.2604735,-0.625136 0.9637521,-1.497723 0.7032785,-0.88561 1.289344,-0.88561 0.2734972,0 0.442805,0.182332 0.1693078,0.182331 0.1693078,0.481876 0,0.651184 -0.5990892,0.651184 z"
         style="font-style:italic;font-variant:normal;font-weight:normal;font-stretch:normal;font-family:Norasi;-inkscape-font-specification:'Norasi Italic';stroke-width:0.47358826px"
         id="path3357" />
      <path
         d="m 1.9613576,101.53435 0.1823314,0.14326 q -0.5860654,0.6642 -1.30236766,1.04189 -0.71630223,0.37769 -1.4065571,0.37769 -0.75537324,0 -1.23724934,-0.4949 -0.481876,-0.50793 -0.481876,-1.30237 0,-1.458652 1.250273,-2.774044 1.26329663,-1.328415 2.6828774,-1.328415 0.481876,0 0.7553733,0.234426 0.2734972,0.234427 0.2734972,0.638161 0,0.846539 -0.9377048,1.52377 -0.92468101,0.664212 -2.38333282,0.872582 l -0.39071028,0.0521 q -0.1041894,0.48187 -0.1041894,0.79444 0,0.53397 0.32559188,0.85957 0.32559192,0.32559 0.88561002,0.32559 0.41675766,0 0.80746797,-0.19536 0.39071033,-0.19535 1.08096523,-0.76839 z m -2.66985381,-1.875414 -0.22140251,0.573044 q 0.82049165,-0.19536 1.27632034,-0.403736 0.45582869,-0.221403 0.82049168,-0.573042 0.6511838,-0.612113 0.6511838,-1.250273 0,-0.221402 -0.1302368,-0.351639 -0.1172131,-0.143261 -0.3255919,-0.143261 -0.49489971,0 -1.1200362,0.651184 -0.62513649,0.63816 -0.95072841,1.497723 z"
         style="font-style:italic;font-variant:normal;font-weight:normal;font-stretch:normal;font-family:Norasi;-inkscape-font-specification:'Norasi Italic';stroke-width:0.47358826px"
         id="path3359" />
      <path
         d="m 3.6460929,101.85994 q 0.2214025,-0.2214 0.5079234,-0.2214 0.2865209,0 0.5079234,0.2214 0.2214025,0.2214 0.2214025,0.53397 0,0.28652 -0.2214025,0.4949 -0.2214025,0.20838 -0.520947,0.20838 -0.2734973,0 -0.4948998,-0.22141 -0.2214025,-0.2214 -0.2214025,-0.48187 0,-0.31257 0.2214025,-0.53397 z"
         style="font-style:italic;font-variant:normal;font-weight:normal;font-stretch:normal;font-family:Norasi;-inkscape-font-specification:'Norasi Italic';stroke-width:0.47358826px"
         id="path3361" />
    </g>
  </g>
</svg>
