<?xml version="1.0" encoding="UTF-8" standalone="no"?>
<!-- Created with Inkscape (http://www.inkscape.org/) -->

<svg
   width="237"
   height="60"
   viewBox="0 0 237.00001 59.999998"
   version="1.1"
   id="svg5"
   inkscape:version="1.1 (c4e8f9ed74, 2021-05-24)"
   sodipodi:docname="blog-bitix.svg"
   xmlns:inkscape="http://www.inkscape.org/namespaces/inkscape"
   xmlns:sodipodi="http://sodipodi.sourceforge.net/DTD/sodipodi-0.dtd"
   xmlns="http://www.w3.org/2000/svg"
   xmlns:svg="http://www.w3.org/2000/svg">
  <sodipodi:namedview
     id="namedview7"
     pagecolor="#ffffff"
     bordercolor="#666666"
     borderopacity="1.0"
     inkscape:pageshadow="2"
     inkscape:pageopacity="0"
     inkscape:pagecheckerboard="false"
     inkscape:document-units="px"
     showgrid="false"
     units="px"
     fit-margin-top="6"
     fit-margin-left="6"
     fit-margin-right="6"
     fit-margin-bottom="6"
     inkscape:zoom="1"
     inkscape:cx="98"
     inkscape:cy="78"
     inkscape:window-width="2560"
     inkscape:window-height="1371"
     inkscape:window-x="0"
     inkscape:window-y="0"
     inkscape:window-maximized="1"
     inkscape:current-layer="layer1"
     showborder="true"
     borderlayer="false"
     inkscape:showpageshadow="true"
     scale-x="1" />
  <defs
     id="defs2" />
  <g
     inkscape:label="Capa 1"
     inkscape:groupmode="layer"
     id="layer1"
     transform="translate(-20.610234,0.81764136)">
    <g
       aria-label="Blog Bitix"
       id="text5972"
       style="font-size:48px;line-height:1.25;font-family:'PT Serif';-inkscape-font-specification:'PT Serif';stroke:#ffffff;stroke-width:2.00005844;stroke-miterlimit:4;stroke-dasharray:none;stroke-opacity:1;paint-order:stroke fill markers"
       transform="matrix(0.99674386,0,0,0.9782847,0.6951572,1.0133961)">
      <path
         d="m 27.243516,41.754238 v -1.824 q 0.912,-0.528 1.92,-0.912 1.056,-0.384 2.016,-0.48 v -27.168 q -0.96,-0.192 -2.016,-0.528 -1.056,-0.384 -1.92,-0.8639999 v -1.824 h 7.728 q 1.824,0 3.456,-0.144 1.632,-0.144 3.744,-0.144 2.304,0 4.464,0.336 2.16,0.336 3.84,1.2 1.68,0.8639999 2.688,2.4479999 1.008,1.536 1.008,3.984 0,1.536 -0.576,2.88 -0.528,1.296 -1.536,2.304 -0.96,1.008 -2.304,1.68 -1.296,0.672 -2.832,0.96 v 0.192 q 1.536,0.192 3.072,0.72 1.584,0.528 2.832,1.536 1.248,1.008 2.016,2.544 0.816,1.488 0.816,3.552 0,2.592 -1.152,4.464 -1.152,1.872 -3.12,3.072 -1.92,1.2 -4.416,1.776 -2.496,0.528 -5.184,0.528 -1.008,0 -2.208,-0.048 -1.2,-0.048 -2.4,-0.096 -1.2,-0.048 -2.352,-0.096 -1.104,-0.048 -1.872,-0.048 z m 14.496,-2.832 q 3.024,0 4.752,-1.776 1.728,-1.824 1.728,-4.8 0,-1.824 -0.576,-2.976 -0.576,-1.2 -1.584,-1.872 -1.008,-0.72 -2.4,-0.96 -1.392,-0.288 -3.024,-0.288 h -2.544 v 12.336 q 0.672,0.144 1.392,0.24 0.768,0.096 2.256,0.096 z m -2.112,-15.792 q 0.816,0 1.632,-0.048 0.816,-0.096 1.536,-0.192 1.872,-0.768 3.024,-2.352 1.152,-1.632 1.152,-3.696 0,-3.024 -1.584,-4.416 -1.584,-1.44 -4.08,-1.44 -1.056,0 -1.824,0.048 -0.768,0.048 -1.392,0.144 v 11.952 z"
         id="path25260"
         style="stroke:#ffffff;stroke-width:2.00005844;stroke-miterlimit:4;stroke-dasharray:none;stroke-opacity:1;paint-order:stroke fill markers" />
      <path
         d="m 72.171432,41.754238 h -13.248 v -1.872 q 1.584,-0.768 3.168,-1.152 V 9.6422381 l -3.648,-0.384 v -1.872 q 0.624,-0.288 1.728,-0.576 1.104,-0.288 2.352,-0.48 1.296,-0.24 2.544,-0.384 1.296,-0.192 2.304,-0.288 h 1.632 V 38.730238 q 1.584,0.384 3.168,1.152 z"
         id="path25262"
         style="stroke:#ffffff;stroke-width:2.00005844;stroke-miterlimit:4;stroke-dasharray:none;stroke-opacity:1;paint-order:stroke fill markers" />
      <path
         d="m 74.859376,29.754238 q 0,-2.928 0.864,-5.232 0.912,-2.352 2.544,-3.984 1.68,-1.632 4.032,-2.496 2.352,-0.864 5.328,-0.864 3.36,0 5.76,0.96 2.448,0.912 3.984,2.592 1.584,1.632 2.304,3.984 0.720004,2.304 0.720004,5.04 0,2.928 -0.864004,5.28 -0.864,2.304 -2.544,3.936 -1.632,1.632 -4.032,2.496 -2.352,0.864 -5.328,0.864 -3.264,0 -5.664,-0.912 -2.4,-0.96 -3.984,-2.592 -1.584,-1.68 -2.352,-3.984 -0.768,-2.352 -0.768,-5.088 z m 7.44,0 q 0,2.16 0.24,3.984 0.288,1.776 0.96,3.024 0.672,1.248 1.824,1.968 1.152,0.672 2.976,0.672 1.056,0 1.92,-0.48 0.864,-0.528 1.488,-1.632 0.624,-1.152 0.912,-2.976 0.336,-1.872 0.336,-4.56 0,-2.208 -0.288,-3.984 -0.24,-1.776 -0.912,-3.024 -0.624,-1.248 -1.728,-1.92 -1.104,-0.72 -2.784,-0.72 -1.248,0 -2.16,0.528 -0.912,0.48 -1.536,1.632 -0.624,1.104 -0.96,2.976 -0.288,1.824 -0.288,4.512 z"
         id="path25264"
         style="stroke:#ffffff;stroke-width:2.00005844;stroke-miterlimit:4;stroke-dasharray:none;stroke-opacity:1;paint-order:stroke fill markers" />
      <path
         d="m 114.55537,17.178238 q 3.12,0 5.184,0.672 2.064,0.624 3.12,1.584 2.256,-2.448 5.184,-3.408 0.336,0.24 0.672,0.72 0.336,0.432 0.576,0.96 0.24,0.528 0.384,1.056 0.144,0.528 0.144,0.864 l -0.624,1.152 h -5.04 q 0.528,0.672 0.96,1.776 0.48,1.056 0.48,2.544 0,1.584 -0.672,2.976 -0.672,1.392 -2.064,2.496 -1.344,1.056 -3.456,1.68 -2.064,0.624 -4.848,0.624 -0.816,0 -1.488,0 -0.624,-0.048 -1.104,-0.144 -0.192,0.288 -0.432,0.72 -0.192,0.384 -0.192,0.768 0,0.816 1.152,1.296 1.152,0.48 2.928,0.864 1.776,0.384 3.792,0.864 2.064,0.48 3.84,1.296 1.776,0.768 2.976,2.064 1.2,1.248 1.248,3.264 0.048,1.92 -0.96,3.408 -1.008,1.488 -2.784,2.496 -1.728,1.056 -4.128,1.584 -2.352,0.576 -5.04,0.576 -3.168,0 -5.424,-0.528 -2.208,-0.48 -3.6,-1.344 -1.392,-0.864 -2.064,-1.968 -0.624,-1.104 -0.624,-2.304 0,-1.344 0.528,-2.304 0.528,-0.96 1.488,-1.68 0.96,-0.72 2.208,-1.2 1.296,-0.48 2.832,-0.864 -0.72,-0.192 -1.392,-0.48 -0.672,-0.288 -1.2,-0.672 -0.528,-0.432 -0.864,-0.96 -0.336,-0.576 -0.336,-1.296 0,-0.624 0.384,-1.2 0.384,-0.624 1.008,-1.104 0.624,-0.528 1.344,-0.912 0.72,-0.432 1.44,-0.72 -3.024,-0.672 -4.8,-2.592 -1.776,-1.968 -1.776,-4.992 0,-3.6 2.976,-5.616 2.976,-2.016 8.064,-2.016 z m 6.048,28.224 q 0,-1.296 -0.816,-2.112 -0.768,-0.768 -2.016,-1.296 -1.248,-0.48 -2.832,-0.816 -1.536,-0.384 -3.072,-0.864 -1.248,0.96 -1.776,1.92 -0.528,0.96 -0.528,2.304 0,2.208 1.488,3.408 1.536,1.248 4.272,1.248 2.688,0 3.984,-1.152 1.296,-1.104 1.296,-2.64 z m -10.176,-20.352 q 0,2.496 0.816,3.792 0.864,1.296 3.312,1.296 2.352,0 3.216,-1.296 0.912,-1.344 0.912,-3.792 0,-2.592 -0.912,-3.84 -0.912,-1.296 -3.216,-1.296 -2.4,0 -3.264,1.248 -0.864,1.248 -0.864,3.888 z"
         id="path25266"
         style="stroke:#ffffff;stroke-width:2.00005844;stroke-miterlimit:4;stroke-dasharray:none;stroke-opacity:1;paint-order:stroke fill markers" />
      <path
         d="m 142.87526,41.754238 v -1.824 q 0.912,-0.528 1.92,-0.912 1.056,-0.384 2.016,-0.48 v -27.168 q -0.96,-0.192 -2.016,-0.528 -1.056,-0.384 -1.92,-0.8639999 v -1.824 h 7.728 q 1.824,0 3.456,-0.144 1.632,-0.144 3.744,-0.144 2.304,0 4.464,0.336 2.16,0.336 3.84,1.2 1.68,0.8639999 2.688,2.4479999 1.008,1.536 1.008,3.984 0,1.536 -0.576,2.88 -0.528,1.296 -1.536,2.304 -0.96,1.008 -2.304,1.68 -1.296,0.672 -2.832,0.96 v 0.192 q 1.536,0.192 3.072,0.72 1.584,0.528 2.832,1.536 1.248,1.008 2.016,2.544 0.816,1.488 0.816,3.552 0,2.592 -1.152,4.464 -1.152,1.872 -3.12,3.072 -1.92,1.2 -4.416,1.776 -2.496,0.528 -5.184,0.528 -1.008,0 -2.208,-0.048 -1.2,-0.048 -2.4,-0.096 -1.2,-0.048 -2.352,-0.096 -1.104,-0.048 -1.872,-0.048 z m 14.496,-2.832 q 3.024,0 4.752,-1.776 1.728,-1.824 1.728,-4.8 0,-1.824 -0.576,-2.976 -0.576,-1.2 -1.584,-1.872 -1.008,-0.72 -2.4,-0.96 -1.392,-0.288 -3.024,-0.288 h -2.544 v 12.336 q 0.672,0.144 1.392,0.24 0.768,0.096 2.256,0.096 z m -2.112,-15.792 q 0.816,0 1.632,-0.048 0.816,-0.096 1.536,-0.192 1.872,-0.768 3.024,-2.352 1.152,-1.632 1.152,-3.696 0,-3.024 -1.584,-4.416 -1.584,-1.44 -4.08,-1.44 -1.056,0 -1.824,0.048 -0.768,0.048 -1.392,0.144 v 11.952 z"
         id="path25268"
         style="stroke:#ffffff;stroke-width:2.00005844;stroke-miterlimit:4;stroke-dasharray:none;stroke-opacity:1;paint-order:stroke fill markers" />
      <path
         d="m 187.80318,41.754238 h -13.248 v -1.872 q 0.72,-0.384 1.488,-0.624 0.768,-0.288 1.68,-0.528 v -17.568 l -3.168,-0.384 v -1.872 q 0.72,-0.288 1.776,-0.576 1.104,-0.288 2.304,-0.48 1.2,-0.24 2.352,-0.384 1.152,-0.192 2.016,-0.288 h 1.632 v 21.552 q 0.96,0.24 1.728,0.528 0.768,0.24 1.44,0.624 z m -10.896,-31.8719999 q 0,-1.68 1.152,-2.64 1.152,-0.96 2.976,-0.96 1.824,0 2.976,0.96 1.152,0.96 1.152,2.64 0,1.6319999 -1.152,2.5919999 -1.152,0.96 -2.976,0.96 -1.824,0 -2.976,-0.96 -1.152,-0.96 -1.152,-2.5919999 z"
         id="path25270"
         style="stroke:#ffffff;stroke-width:2.00005844;stroke-miterlimit:4;stroke-dasharray:none;stroke-opacity:1;paint-order:stroke fill markers" />
      <path
         d="m 189.38712,18.906238 q 1.824,-1.152 3.84,-1.632 v -3.888 q 0.288,-0.288 0.96,-0.528 0.72,-0.288 1.488,-0.48 0.816,-0.24 1.584,-0.432 0.768,-0.192 1.248,-0.288 h 1.632 v 6.096 h 6.336 v 3.024 h -6.336 v 12.432 q 0,2.976 0.72,4.128 0.768,1.152 2.496,1.152 0.864,0 1.92,-0.096 1.104,-0.144 2.016,-0.48 l 0.336,1.584 q -0.432,0.432 -1.296,0.912 -0.816,0.48 -1.92,0.912 -1.056,0.432 -2.352,0.72 -1.248,0.288 -2.64,0.288 -3.12,0 -4.656,-1.632 -1.536,-1.632 -1.536,-5.28 v -14.64 h -3.84 z"
         id="path25272"
         style="stroke:#ffffff;stroke-width:2.00005844;stroke-miterlimit:4;stroke-dasharray:none;stroke-opacity:1;paint-order:stroke fill markers" />
      <path
         d="m 222.89104,41.754238 h -13.248 v -1.872 q 0.72,-0.384 1.488,-0.624 0.768,-0.288 1.68,-0.528 v -17.568 l -3.168,-0.384 v -1.872 q 0.72,-0.288 1.776,-0.576 1.104,-0.288 2.304,-0.48 1.2,-0.24 2.352,-0.384 1.152,-0.192 2.016,-0.288 h 1.632 v 21.552 q 0.96,0.24 1.728,0.528 0.768,0.24 1.44,0.624 z m -10.896,-31.8719999 q 0,-1.68 1.152,-2.64 1.152,-0.96 2.976,-0.96 1.824,0 2.976,0.96 1.152,0.96 1.152,2.64 0,1.6319999 -1.152,2.5919999 -1.152,0.96 -2.976,0.96 -1.824,0 -2.976,-0.96 -1.152,-0.96 -1.152,-2.5919999 z"
         id="path25274"
         style="stroke:#ffffff;stroke-width:2.00005844;stroke-miterlimit:4;stroke-dasharray:none;stroke-opacity:1;paint-order:stroke fill markers" />
      <path
         d="m 240.55498,28.890238 7.584,9.84 q 1.248,0.384 2.352,1.152 v 1.872 h -12.24 v -1.824 q 0.528,-0.384 1.056,-0.672 0.576,-0.336 1.152,-0.528 l -4.56,-6.528 -4.416,6.528 q 0.672,0.24 1.152,0.528 0.528,0.288 1.008,0.624 v 1.872 h -9.072 v -1.872 q 0.672,-0.384 1.2,-0.672 0.576,-0.288 1.296,-0.48 l 7.104,-8.832 -7.152,-9.12 q -0.672,-0.24 -1.2,-0.48 -0.528,-0.288 -0.96,-0.672 v -1.872 h 12.048 v 1.824 q -0.576,0.384 -1.056,0.72 -0.432,0.288 -1.104,0.48 l 4.176,5.952 3.984,-5.952 q -0.816,-0.24 -1.296,-0.528 -0.48,-0.288 -0.864,-0.624 v -1.872 h 8.88 v 1.872 q -0.48,0.336 -1.056,0.624 -0.576,0.288 -1.44,0.528 z"
         id="path25276"
         style="stroke:#ffffff;stroke-width:2.00005844;stroke-miterlimit:4;stroke-dasharray:none;stroke-opacity:1;paint-order:stroke fill markers" />
    </g>
    <text
       xml:space="preserve"
       style="font-style:normal;font-weight:normal;font-size:40px;line-height:1.25;font-family:sans-serif;fill:#000000;fill-opacity:1;stroke:none"
       x="140.5802"
       y="29.222445"
       id="text4701"><tspan
         sodipodi:role="line"
         id="tspan4699"
         x="140.5802"
         y="29.222445"></tspan></text>
  </g>
</svg>
