<?xml version="1.0" encoding="UTF-8" standalone="no"?>
<!-- Created with Inkscape (http://www.inkscape.org/) -->
<svg xmlns:dc="http://purl.org/dc/elements/1.1/" xmlns:cc="http://web.resource.org/cc/" xmlns:rdf="http://www.w3.org/1999/02/22-rdf-syntax-ns#" xmlns:svg="http://www.w3.org/2000/svg" xmlns="http://www.w3.org/2000/svg" xmlns:sodipodi="http://sodipodi.sourceforge.net/DTD/sodipodi-0.dtd" xmlns:inkscape="http://www.inkscape.org/namespaces/inkscape" version="1.0" width="641.30237" height="580.40082" id="svg3699" sodipodi:version="0.32" inkscape:version="0.45.1" sodipodi:docname="ARM powered Badge.svg" inkscape:output_extension="org.inkscape.output.svg.inkscape" sodipodi:docbase="K:\Logos\Vektor\[--in der Wikipedia--]">
  <metadata id="metadata19">
    <rdf:RDF>
      <cc:Work rdf:about="">
        <dc:format>image/svg+xml</dc:format>
        <dc:type rdf:resource="http://purl.org/dc/dcmitype/StillImage"/>
      </cc:Work>
    </rdf:RDF>
  </metadata>
  <sodipodi:namedview inkscape:window-height="573" inkscape:window-width="797" inkscape:pageshadow="2" inkscape:pageopacity="0.0" guidetolerance="10.0" gridtolerance="10.0" objecttolerance="10.0" borderopacity="1.0" bordercolor="#666666" pagecolor="#ffffff" id="base" inkscape:zoom="0.70710678" inkscape:cx="237.02025" inkscape:cy="212.6927" inkscape:window-x="68" inkscape:window-y="132" inkscape:current-layer="svg3699"/>
  <defs id="defs3701"/>
  <path d="M 0,580.40084 L 641.30239,580.40084 L 641.30239,0 L 0,0 L 0,580.40084 z " style="fill:#000000;fill-rule:nonzero;stroke:none" id="path5358"/>
  <path d="M 529.65129,530.57311 L 600.70139,530.57311 L 600.70139,465.98167 L 529.65129,465.98167 L 529.65129,530.57311 z " style="fill:#ffffff;fill-rule:nonzero;stroke:none" id="path5366"/>
  <path d="M 531.49629,400.46743 L 531.49629,378.32182 L 532.41829,377.39902 L 532.41829,373.70802 L 533.34229,373.70802 L 533.34229,372.78532 L 534.26429,371.86252 L 534.26429,370.93982 L 535.18729,370.01712 L 536.10929,369.09432 L 537.03229,368.17162 L 537.95529,367.24891 L 538.87829,367.24891 L 539.80029,366.32621 L 540.72329,366.32621 L 541.64529,365.40341 L 543.49129,365.40341 L 544.41429,364.48071 L 558.25529,364.48071 L 559.17829,365.40341 L 560.10029,365.40341 L 561.02329,366.32621 L 561.94629,366.32621 L 562.86929,367.24891 L 563.79129,367.24891 L 564.71429,368.17162 L 565.63629,368.17162 L 565.63629,369.09432 L 568.40529,371.86252 L 568.40529,372.78532 L 569.32729,373.70802 L 569.32729,374.63072 L 570.25129,375.55352 L 570.25129,379.24452 L 571.17329,381.09002 L 571.17329,393.08543 L 601.62439,393.08543 L 601.62439,400.46743 L 531.49629,400.46743 z M 562.86929,393.08543 L 562.86929,379.24452 L 561.94629,378.32182 L 561.94629,377.39902 L 561.02329,376.47622 L 561.02329,375.55352 L 560.10029,375.55352 L 560.10029,374.63072 L 559.17829,374.63072 L 558.25529,373.70802 L 557.33229,373.70802 L 556.40929,372.78532 L 546.26029,372.78532 L 545.33629,373.70802 L 543.49129,373.70802 L 543.49129,374.63072 L 542.56929,374.63072 L 542.56929,375.55352 L 541.64529,375.55352 L 540.72329,376.47622 L 540.72329,377.39902 L 539.80029,377.39902 L 539.80029,379.24452 L 538.87829,380.16722 L 538.87829,393.08543 L 562.86929,393.08543" style="fill:#ffffff;fill-rule:evenodd;stroke:none" id="path5368"/>
  <path d="M 552.71829,354.33051 L 548.10529,354.33051 L 546.26029,353.40781 L 543.49129,353.40781 L 542.56929,352.48511 L 541.64529,352.48511 L 540.72329,351.56241 L 539.80029,351.56241 L 538.87829,350.6396 L 537.95529,350.6396 L 537.03229,349.7169 L 536.10929,348.7942 L 535.18729,348.7942 L 534.26429,347.8714 L 534.26429,346.9487 L 531.49629,344.1805 L 531.49629,342.3351 L 530.57329,341.4123 L 530.57329,338.6441 L 529.65129,337.7214 L 529.65129,330.33949 L 530.57329,329.41669 L 530.57329,327.57129 L 531.49629,326.64849 L 531.49629,323.88029 L 532.41829,323.88029 L 533.34229,322.95759 L 533.34229,322.03489 L 534.26429,321.11219 L 534.26429,320.18939 L 535.18729,319.26669 L 536.10929,319.26669 L 537.03229,318.34399 L 537.95529,317.42119 L 538.87829,317.42119 L 539.80029,316.49848 L 540.72329,316.49848 L 541.64529,315.57578 L 543.49129,315.57578 L 544.41429,314.65298 L 548.10529,314.65298 L 549.02729,313.73018 L 581.32329,313.73018 L 583.16929,314.65298 L 587.78329,314.65298 L 588.70529,315.57578 L 591.47429,315.57578 L 592.39629,316.49848 L 593.32029,316.49848 L 594.24229,317.42119 L 595.16539,317.42119 L 597.01039,319.26669 L 597.93339,319.26669 L 599.77839,321.11219 L 599.77839,322.03489 L 602.54739,324.80309 L 602.54739,327.57129 L 603.46939,328.49399 L 603.46939,339.5669 L 602.54739,341.4123 L 602.54739,343.2578 L 601.62439,344.1805 L 601.62439,345.1033 L 600.70139,346.026 L 599.77839,346.026 L 599.77839,346.9487 L 597.93339,348.7942 L 597.01039,348.7942 L 595.16539,350.6396 L 594.24229,350.6396 L 593.32029,351.56241 L 592.39629,351.56241 L 591.47429,352.48511 L 589.62929,352.48511 L 588.70529,353.40781 L 585.01429,353.40781 L 583.16929,354.33051 L 552.71829,354.33051 z M 552.71829,346.026 L 582.24729,346.026 L 583.16929,345.1033 L 587.78329,345.1033 L 588.70529,344.1805 L 590.55129,344.1805 L 590.55129,343.2578 L 592.39629,343.2578 L 592.39629,342.3351 L 593.32029,342.3351 L 593.32029,341.4123 L 594.24229,341.4123 L 594.24229,340.4896 L 595.16539,339.5669 L 595.16539,337.7214 L 596.08739,337.7214 L 596.08739,330.33949 L 595.16539,330.33949 L 595.16539,328.49399 L 594.24229,327.57129 L 594.24229,326.64849 L 593.32029,326.64849 L 593.32029,325.72579 L 592.39629,325.72579 L 591.47429,324.80309 L 590.55129,324.80309 L 590.55129,323.88029 L 587.78329,323.88029 L 586.86029,322.95759 L 583.16929,322.95759 L 582.24729,322.03489 L 549.95129,322.03489 L 549.02729,322.95759 L 546.26029,322.95759 L 545.33629,323.88029 L 543.49129,323.88029 L 542.56929,324.80309 L 541.64529,324.80309 L 541.64529,325.72579 L 540.72329,325.72579 L 540.72329,326.64849 L 539.80029,326.64849 L 539.80029,327.57129 L 538.87829,327.57129 L 538.87829,329.41669 L 537.95529,329.41669 L 537.95529,338.6441 L 538.87829,338.6441 L 538.87829,340.4896 L 539.80029,340.4896 L 539.80029,341.4123 L 540.72329,341.4123 L 540.72329,342.3351 L 541.64529,342.3351 L 541.64529,343.2578 L 542.56929,343.2578 L 543.49129,344.1805 L 544.41429,344.1805 L 545.33629,345.1033 L 548.10529,345.1033 L 549.02729,346.026 L 552.71829,346.026" style="fill:#ffffff;fill-rule:evenodd;stroke:none" id="path5370"/>
  <path d="M 531.49629,308.19378 L 531.49629,298.96647 L 592.39629,286.97087 L 531.49629,274.05266 L 531.49629,262.97975 L 592.39629,251.90705 L 531.49629,238.06594 L 531.49629,229.76123 L 601.62439,247.29324 L 601.62439,256.52065 L 540.72329,268.51616 L 540.72329,269.43886 L 601.62439,282.35726 L 601.62439,292.50727 L 531.49629,308.19378" style="fill:#ffffff;fill-rule:evenodd;stroke:none" id="path5372"/>
  <path d="M 531.49629,223.30213 L 531.49629,191.00641 L 538.87829,191.00641 L 538.87829,214.99752 L 561.94629,214.99752 L 561.94629,191.92911 L 570.25129,191.92911 L 570.25129,214.99752 L 594.24229,214.99752 L 594.24229,190.08371 L 601.62439,190.08371 L 601.62439,223.30213 L 531.49629,223.30213" style="fill:#ffffff;fill-rule:evenodd;stroke:none" id="path5374"/>
  <path d="M 531.49629,180.8563 L 531.49629,155.01969 L 532.41829,154.09699 L 532.41829,152.25149 L 533.34229,151.32879 L 533.34229,150.40609 L 534.26429,149.48329 L 534.26429,148.56059 L 535.18729,148.56059 L 536.10929,147.63789 L 537.03229,146.71498 L 537.95529,146.71498 L 537.95529,145.79228 L 538.87829,145.79228 L 539.80029,144.86958 L 540.72329,144.86958 L 541.64529,143.94678 L 545.33629,143.94678 L 546.26029,143.02408 L 551.79629,143.02408 L 552.71829,143.94678 L 555.48729,143.94678 L 556.40929,144.86958 L 558.25529,144.86958 L 558.25529,145.79228 L 559.17829,145.79228 L 560.10029,146.71498 L 561.02329,146.71498 L 561.02329,147.63789 L 561.94629,147.63789 L 561.94629,148.56059 L 562.86929,148.56059 L 562.86929,150.40609 L 563.79129,150.40609 L 563.79129,151.32879 L 564.71429,152.25149 L 564.71429,155.01969 L 565.63629,155.01969 L 565.63629,152.25149 L 566.56029,152.25149 L 566.56029,149.48329 L 567.48229,149.48329 L 567.48229,148.56059 L 568.40529,148.56059 L 568.40529,147.63789 L 569.32729,147.63789 L 569.32729,146.71498 L 571.17329,146.71498 L 572.09629,145.79228 L 573.94229,145.79228 L 574.86529,144.86958 L 585.01429,144.86958 L 586.86029,143.94678 L 595.16539,143.94678 L 597.93339,143.02408 L 599.77839,143.02408 L 600.70139,142.10138 L 601.62439,142.10138 L 601.62439,151.32879 L 599.77839,151.32879 L 598.85639,152.25149 L 592.39629,152.25149 L 588.70529,153.17429 L 577.63329,153.17429 L 576.71029,154.09699 L 573.94229,154.09699 L 573.94229,155.01969 L 573.02029,155.01969 L 572.09629,155.94239 L 571.17329,156.86519 L 571.17329,157.78789 L 570.25129,157.78789 L 570.25129,159.63339 L 569.32729,160.55609 L 569.32729,172.5517 L 601.62439,172.5517 L 601.62439,180.8563 L 531.49629,180.8563 z M 561.94629,172.5517 L 561.94629,159.63339 L 561.02329,158.71059 L 561.02329,156.86519 L 560.10029,155.94239 L 560.10029,155.01969 L 559.17829,155.01969 L 559.17829,154.09699 L 558.25529,154.09699 L 557.33229,153.17429 L 556.40929,153.17429 L 555.48729,152.25149 L 553.64229,152.25149 L 551.79629,151.32879 L 548.10529,151.32879 L 547.18229,152.25149 L 544.41429,152.25149 L 543.49129,153.17429 L 542.56929,153.17429 L 542.56929,154.09699 L 541.64529,154.09699 L 540.72329,155.01969 L 540.72329,155.94239 L 539.80029,155.94239 L 539.80029,157.78789 L 538.87829,158.71059 L 538.87829,172.5517 L 561.94629,172.5517" style="fill:#ffffff;fill-rule:evenodd;stroke:none" id="path5376"/>
  <path d="M 531.49629,132.87408 L 531.49629,99.65556 L 538.87829,99.65556 L 538.87829,124.56937 L 561.94629,124.56937 L 561.94629,101.50096 L 570.25129,101.50096 L 570.25129,124.56937 L 594.24229,124.56937 L 594.24229,98.73276 L 601.62439,98.73276 L 601.62439,132.87408 L 531.49629,132.87408" style="fill:#ffffff;fill-rule:evenodd;stroke:none" id="path5378"/>
  <path d="M 531.49629,89.50545 L 531.49629,65.51434 L 532.41829,64.59164 L 532.41829,61.82333 L 533.34229,60.90063 L 533.34229,59.97783 L 534.26429,59.05513 L 534.26429,58.13243 L 535.18729,58.13243 L 535.18729,57.20963 L 536.10929,57.20963 L 536.10929,56.28693 L 537.03229,56.28693 L 537.03229,55.36423 L 537.95529,55.36423 L 537.95529,54.44143 L 538.87829,54.44143 L 539.80029,53.51873 L 540.72329,53.51873 L 541.64529,52.59603 L 542.56929,52.59603 L 543.49129,51.67333 L 546.26029,51.67333 L 548.10529,50.75053 L 550.87329,50.75053 L 552.71829,49.82783 L 578.55629,49.82783 L 580.40129,50.75053 L 585.93829,50.75053 L 587.78329,51.67333 L 588.70529,51.67333 L 589.62929,52.59603 L 591.47429,52.59603 L 592.39629,53.51873 L 593.32029,53.51873 L 594.24229,54.44143 L 595.16539,54.44143 L 595.16539,55.36423 L 596.08739,55.36423 L 596.08739,56.28693 L 597.01039,56.28693 L 597.01039,57.20963 L 598.85639,59.05513 L 598.85639,59.97783 L 599.77839,60.90063 L 599.77839,61.82333 L 600.70139,62.74604 L 600.70139,63.66874 L 601.62439,65.51434 L 601.62439,89.50545 L 531.49629,89.50545 z M 594.24229,81.20075 L 594.24229,68.28254 L 593.32029,68.28254 L 593.32029,65.51434 L 591.47429,63.66874 L 591.47429,62.74604 L 590.55129,62.74604 L 590.55129,61.82333 L 589.62929,61.82333 L 589.62929,60.90063 L 588.70529,60.90063 L 587.78329,59.97783 L 585.93829,59.97783 L 585.01429,59.05513 L 582.24729,59.05513 L 581.32329,58.13243 L 550.87329,58.13243 L 549.95129,59.05513 L 547.18229,59.05513 L 546.26029,59.97783 L 545.33629,59.97783 L 544.41429,60.90063 L 543.49129,60.90063 L 543.49129,61.82333 L 542.56929,61.82333 L 541.64529,62.74604 L 540.72329,63.66874 L 540.72329,64.59164 L 539.80029,64.59164 L 539.80029,67.35984 L 538.87829,68.28254 L 538.87829,81.20075 L 594.24229,81.20075" style="fill:#ffffff;fill-rule:evenodd;stroke:none" id="path5380"/>
  <g id="g2337" transform="matrix(0.6913407,0,0,0.6242408,19.46536,388.9868)" style="fill:#ffffff">
    <path id="path6949" style="fill:#ffffff;fill-opacity:1;fill-rule:nonzero;stroke:none" d="M 132.76688,68.174938 L 102.16836,150.05664 L 167.03723,150.05664 L 132.76688,68.174938 z M 256.38481,228.51119 L 200.08361,228.51119 L 182.94838,186.77486 L 88.704977,186.77486 L 72.793833,228.51119 L 17.716508,228.51119 L 102.16836,17.748641 L 163.36539,17.748641 L 256.38481,228.51119"/>
    <path id="path6951" style="fill:#ffffff;fill-opacity:1;fill-rule:nonzero;stroke:none" d="M 321.25368,104.28127 L 349.40433,104.28127 C 364.0916,104.28127 377.55499,98.161565 377.55499,80.169651 C 377.55499,64.5032 367.76344,56.425125 348.18035,56.425125 L 321.25368,56.425125 L 321.25368,104.28127 z M 362.86772,17.748641 C 405.70564,17.748641 431.40833,46.878376 431.40833,78.333678 C 431.40833,101.46621 420.39291,118.84614 395.9141,129.98396 C 416.72107,140.75469 424.06465,166.70217 453.43928,228.51119 L 395.9141,228.51119 C 372.65916,183.34781 365.31558,142.95775 335.94095,142.95775 L 321.25368,142.95775 L 321.25368,228.51119 L 268.62422,228.51119 L 268.62422,17.748641 L 362.86772,17.748641"/>
    <path id="path6953" style="fill:#ffffff;fill-opacity:1;fill-rule:nonzero;stroke:none" d="M 649.26977,17.748641 L 694.55555,17.748641 L 694.55555,228.51119 L 641.92608,228.51119 L 641.92608,96.815184 L 585.62488,163.03033 L 577.05721,163.03033 L 520.75601,96.815184 L 520.75601,228.51119 L 468.12655,228.51119 L 468.12655,17.748641 L 513.41233,17.748641 L 581.95304,95.958397 L 649.26977,17.748641"/>
  </g>
</svg>