<?xml version="1.0" encoding="UTF-8"?>
<svg xmlns="http://www.w3.org/2000/svg" xmlns:xlink="http://www.w3.org/1999/xlink" width="141.71pt" height="42.29pt" viewBox="0 0 141.71 42.29" version="1.1">
<defs>
<clipPath id="clip1">
  <path d="M 128 7 L 141.710938 7 L 141.710938 23 L 128 23 Z M 128 7 "/>
</clipPath>
<clipPath id="clip2">
  <path d="M 35 20 L 59 20 L 59 42.289063 L 35 42.289063 Z M 35 20 "/>
</clipPath>
</defs>
<g id="surface1">
<path style=" stroke:none;fill-rule:nonzero;fill:rgb(0%,58.430481%,23.136902%);fill-opacity:1;" d="M 69.839844 26.957031 L 64.292969 26.957031 L 64.292969 30.910156 L 69.632813 30.910156 L 69.632813 32.605469 L 64.292969 32.605469 L 64.292969 36.660156 L 69.992188 36.660156 L 69.992188 38.355469 L 62.445313 38.355469 L 62.445313 25.265625 L 69.839844 25.265625 "/>
<path style=" stroke:none;fill-rule:nonzero;fill:rgb(0%,58.430481%,23.136902%);fill-opacity:1;" d="M 74.074219 38.355469 L 75.765625 38.355469 L 75.765625 25.265625 L 74.074219 25.265625 Z M 74.074219 38.355469 "/>
<path style=" stroke:none;fill-rule:nonzero;fill:rgb(0%,58.430481%,23.136902%);fill-opacity:1;" d="M 84.699219 31.015625 C 85.882813 31.015625 86.648438 31.835938 86.703125 33.171875 L 82.390625 33.171875 C 82.59375 31.785156 83.363281 31.015625 84.699219 31.015625 M 82.339844 34.300781 L 88.394531 34.300781 C 88.394531 31.117188 86.90625 29.578125 84.648438 29.578125 C 82.285156 29.578125 80.644531 31.324219 80.644531 33.941406 C 80.644531 36.300781 82.132813 38.507813 84.800781 38.507813 C 86.238281 38.507813 87.164063 38.148438 88.242188 37.484375 L 88.242188 35.839844 C 87.214844 36.503906 86.238281 36.867188 85.214844 36.867188 C 83.570313 36.867188 82.59375 35.992188 82.339844 34.300781 "/>
<path style=" stroke:none;fill-rule:nonzero;fill:rgb(0%,58.430481%,23.136902%);fill-opacity:1;" d="M 99.152344 31.988281 C 98.175781 31.320313 97.507813 31.117188 96.789063 31.117188 C 95.199219 31.117188 94.171875 32.300781 94.171875 34.042969 C 94.171875 35.839844 95.300781 36.917969 97.046875 36.917969 C 97.761719 36.917969 98.480469 36.714844 99.355469 36.355469 L 99.355469 37.996094 C 98.738281 38.253906 97.660156 38.511719 96.789063 38.511719 C 94.222656 38.511719 92.425781 36.714844 92.425781 34.195313 C 92.425781 31.375 94.070313 29.578125 96.632813 29.578125 C 97.660156 29.578125 98.328125 29.78125 99.152344 30.144531 "/>
<path style=" stroke:none;fill-rule:nonzero;fill:rgb(0%,58.430481%,23.136902%);fill-opacity:1;" d="M 106.796875 29.730469 L 109.519531 29.730469 L 109.519531 31.269531 L 106.796875 31.269531 L 106.796875 35.683594 C 106.796875 36.660156 107.519531 36.96875 108.03125 36.96875 C 108.648438 36.96875 109.265625 36.765625 109.980469 36.355469 L 109.980469 37.945313 C 109.367188 38.253906 108.445313 38.507813 107.878906 38.507813 C 106.027344 38.507813 105.105469 37.332031 105.105469 35.789063 L 105.105469 31.269531 L 103.617188 31.269531 L 103.617188 31.066406 L 106.796875 27.933594 "/>
<path style=" stroke:none;fill-rule:nonzero;fill:rgb(0%,58.430481%,23.136902%);fill-opacity:1;" d="M 115.65625 29.730469 L 115.65625 31.730469 C 116.527344 30.191406 117.347656 29.578125 118.171875 29.578125 C 118.835938 29.578125 119.503906 29.882813 120.222656 30.550781 L 119.296875 32.042969 C 118.785156 31.527344 118.117188 31.21875 117.710938 31.21875 C 116.527344 31.21875 115.65625 32.402344 115.65625 33.835938 L 115.65625 38.355469 L 113.960938 38.355469 L 113.960938 29.730469 "/>
<path style=" stroke:none;fill-rule:nonzero;fill:rgb(0%,58.430481%,23.136902%);fill-opacity:1;" d="M 125.046875 38.355469 L 126.742188 38.355469 L 126.742188 29.730469 L 125.046875 29.730469 Z M 125.046875 38.355469 "/>
<path style=" stroke:none;fill-rule:nonzero;fill:rgb(0%,58.430481%,23.136902%);fill-opacity:1;" d="M 137.753906 31.988281 C 136.777344 31.320313 136.109375 31.117188 135.390625 31.117188 C 133.800781 31.117188 132.773438 32.300781 132.773438 34.042969 C 132.773438 35.839844 133.902344 36.917969 135.648438 36.917969 C 136.367188 36.917969 137.085938 36.714844 137.957031 36.355469 L 137.957031 37.996094 C 137.34375 38.253906 136.265625 38.511719 135.390625 38.511719 C 132.824219 38.511719 131.027344 36.714844 131.027344 34.195313 C 131.027344 31.375 132.671875 29.578125 135.238281 29.578125 C 136.265625 29.578125 136.933594 29.78125 137.753906 30.144531 "/>
<path style=" stroke:none;fill-rule:nonzero;fill:rgb(0%,58.430481%,23.136902%);fill-opacity:1;" d="M 16.128906 6.046875 C 12.890625 4.605469 10.945313 4.101563 9.074219 4.101563 C 7.058594 4.101563 5.761719 4.820313 5.761719 5.902344 C 5.761719 9.285156 17.136719 8.351563 17.136719 16.125 C 17.136719 20.375 13.535156 22.894531 8.570313 22.894531 C 4.609375 22.894531 2.664063 21.886719 0.503906 20.734375 L 0.503906 15.910156 C 3.671875 18.070313 5.617188 18.789063 8.136719 18.789063 C 10.296875 18.789063 11.449219 18.070313 11.449219 16.703125 C 11.449219 13.101563 0 14.398438 0 6.40625 C 0 2.515625 3.382813 -0.00390625 8.570313 -0.00390625 C 11.089844 -0.00390625 13.324219 0.5 16.128906 1.726563 "/>
<path style=" stroke:none;fill-rule:nonzero;fill:rgb(0%,58.430481%,23.136902%);fill-opacity:1;" d="M 32.113281 21.886719 C 30.171875 22.535156 28.585938 22.894531 27.003906 22.894531 C 21.671875 22.894531 18.21875 19.796875 18.21875 15.046875 C 18.21875 10.4375 21.820313 7.199219 26.785156 7.199219 C 28.296875 7.199219 30.316406 7.558594 31.898438 8.207031 L 31.898438 11.734375 C 30.605469 11.085938 29.160156 10.65625 28.011719 10.65625 C 25.132813 10.65625 23.332031 12.378906 23.332031 15.046875 C 23.332031 17.710938 25.132813 19.511719 27.867188 19.511719 C 29.019531 19.511719 30.027344 19.222656 32.113281 18.429688 "/>
<path style=" stroke:none;fill-rule:nonzero;fill:rgb(0%,58.430481%,23.136902%);fill-opacity:1;" d="M 44.429688 20.015625 L 44.429688 13.964844 C 44.429688 11.734375 43.492188 10.65625 41.980469 10.65625 C 40.898438 10.65625 39.964844 11.375 38.8125 12.957031 L 38.8125 22.609375 L 34.058594 22.609375 L 34.058594 0.285156 L 38.8125 0.285156 L 38.8125 9.71875 L 38.882813 9.71875 C 40.253906 7.992188 41.765625 7.199219 43.636719 7.199219 C 46.445313 7.199219 49.179688 8.851563 49.179688 12.957031 L 49.179688 19.078125 C 47.597656 19.078125 45.652344 19.65625 44.429688 20.015625 "/>
<path style=" stroke:none;fill-rule:nonzero;fill:rgb(0%,58.430481%,23.136902%);fill-opacity:1;" d="M 51.414063 18.789063 L 51.414063 7.484375 L 56.164063 7.484375 L 56.164063 9.644531 C 57.679688 7.917969 59.191406 7.195313 61.136719 7.195313 C 63.511719 7.195313 66.605469 8.566406 66.605469 12.957031 L 66.605469 22.605469 L 61.855469 22.605469 L 61.855469 13.390625 C 61.855469 11.230469 60.847656 10.367188 59.476563 10.367188 C 58.324219 10.367188 57.460938 11.015625 56.164063 12.886719 L 56.164063 19.511719 C 54.582031 19.078125 52.925781 18.933594 51.414063 18.789063 "/>
<path style=" stroke:none;fill-rule:nonzero;fill:rgb(0%,58.430481%,23.136902%);fill-opacity:1;" d="M 73.519531 13.320313 C 73.734375 11.230469 74.960938 10.007813 76.832031 10.007813 C 78.632813 10.007813 79.929688 11.304688 80.074219 13.320313 Z M 76.472656 7.195313 C 71.792969 7.195313 68.476563 10.511719 68.476563 15.117188 C 68.476563 19.796875 71.933594 22.894531 77.261719 22.894531 C 78.488281 22.894531 81.296875 22.894531 84.03125 20.878906 L 84.03125 17.925781 C 81.800781 19.511719 80.289063 20.085938 78.414063 20.085938 C 75.460938 20.085938 73.59375 18.503906 73.449219 15.839844 L 84.25 15.839844 C 84.535156 10.296875 80.863281 7.195313 76.472656 7.195313 "/>
<path style=" stroke:none;fill-rule:nonzero;fill:rgb(0%,58.430481%,23.136902%);fill-opacity:1;" d="M 86.121094 22.605469 L 90.875 22.605469 L 90.875 7.484375 L 86.121094 7.484375 Z M 86.121094 22.605469 "/>
<path style=" stroke:none;fill-rule:nonzero;fill:rgb(0%,58.430481%,23.136902%);fill-opacity:1;" d="M 104.050781 18.5 C 103.117188 19.367188 102.253906 19.726563 101.242188 19.726563 C 99.011719 19.726563 97.570313 17.855469 97.570313 15.117188 C 97.570313 12.09375 99.011719 10.367188 101.390625 10.367188 C 102.253906 10.367188 103.402344 10.726563 104.050781 11.230469 Z M 104.050781 0.285156 L 104.050781 8.132813 C 102.824219 7.558594 101.53125 7.195313 100.164063 7.195313 C 95.839844 7.195313 92.820313 10.367188 92.820313 15.046875 C 92.820313 19.582031 95.839844 22.894531 99.875 22.894531 C 101.457031 22.894531 102.753906 22.464844 104.050781 21.382813 L 104.050781 22.605469 L 108.804688 22.605469 L 108.804688 0.285156 "/>
<path style=" stroke:none;fill-rule:nonzero;fill:rgb(0%,58.430481%,23.136902%);fill-opacity:1;" d="M 115.863281 13.320313 C 116.074219 11.230469 117.230469 10.007813 119.101563 10.007813 C 120.972656 10.007813 122.195313 11.304688 122.410156 13.320313 Z M 118.8125 7.195313 C 114.132813 7.195313 110.820313 10.511719 110.820313 15.117188 C 110.820313 19.796875 114.277344 22.894531 119.605469 22.894531 C 120.757813 22.894531 123.636719 22.894531 126.375 20.878906 L 126.375 17.925781 C 124.140625 19.511719 122.628906 20.085938 120.757813 20.085938 C 117.730469 20.085938 115.933594 18.503906 115.714844 15.839844 L 126.589844 15.839844 C 126.804688 10.296875 123.203125 7.195313 118.8125 7.195313 "/>
<g clip-path="url(#clip1)" clip-rule="nonzero">
<path style=" stroke:none;fill-rule:nonzero;fill:rgb(0%,58.430481%,23.136902%);fill-opacity:1;" d="M 133.71875 11.804688 L 133.789063 11.804688 C 135.15625 8.636719 136.742188 7.199219 138.613281 7.199219 C 139.546875 7.199219 140.34375 7.558594 141.710938 8.566406 L 140.414063 12.742188 C 139.191406 11.949219 138.398438 11.660156 137.605469 11.660156 C 135.878906 11.660156 134.726563 13.320313 133.71875 16.054688 L 133.71875 22.609375 L 128.964844 22.609375 L 128.964844 7.488281 L 133.71875 7.488281 "/>
</g>
<path style=" stroke:none;fill-rule:nonzero;fill:rgb(0%,58.430481%,23.136902%);fill-opacity:1;" d="M 91.089844 1.074219 C 91.523438 2.300781 90.730469 3.957031 89.289063 4.75 C 87.847656 5.613281 86.335938 5.324219 85.902344 4.175781 C 85.472656 3.023438 86.265625 1.363281 87.707031 0.5 C 89.148438 -0.363281 90.65625 -0.0742188 91.089844 1.074219 "/>
<path style=" stroke:none;fill-rule:nonzero;fill:rgb(0%,58.430481%,23.136902%);fill-opacity:1;" d="M 126.84375 26.652344 C 126.996094 27.0625 126.691406 27.628906 126.175781 27.933594 C 125.664063 28.242188 125.148438 28.140625 124.996094 27.726563 C 124.84375 27.316406 125.101563 26.753906 125.613281 26.445313 C 126.125 26.136719 126.640625 26.238281 126.84375 26.652344 "/>
<g clip-path="url(#clip2)" clip-rule="nonzero">
<path style=" stroke:none;fill-rule:nonzero;fill:rgb(0%,58.430481%,23.136902%);fill-opacity:1;" d="M 40.097656 25.582031 C 45.046875 20.4375 52.097656 18.828125 55.792969 21.992188 C 59.484375 25.160156 58.460938 31.9375 53.511719 37.078125 C 48.5625 42.222656 41.511719 43.832031 37.820313 40.667969 C 34.125 37.5 35.148438 30.726563 40.097656 25.582031 "/>
</g>
<path style=" stroke:none;fill-rule:nonzero;fill:rgb(0%,58.430481%,23.136902%);fill-opacity:1;" d="M 43.617188 37.855469 L 38.648438 37.855469 L 39.4375 34.816406 L 42.207031 34.84375 C 42.648438 34.847656 43.222656 34.542969 43.316406 34.109375 L 44.539063 28.734375 C 45.042969 26.515625 47.808594 24.765625 50.082031 24.765625 L 54.996094 24.765625 L 54.34375 27.511719 L 51.765625 27.539063 C 51.191406 27.542969 50.988281 27.675781 50.867188 28.132813 L 49.320313 33.972656 C 48.730469 36.199219 45.917969 37.855469 43.617188 37.855469 "/>
<path style=" stroke:none;fill-rule:nonzero;fill:rgb(99.606323%,100%,99.606323%);fill-opacity:1;" d="M 37.296875 29.464844 C 37.648438 28.8125 38.058594 28.160156 38.523438 27.523438 L 41.378906 27.523438 L 40.75 29.464844 "/>
<path style=" stroke:none;fill-rule:nonzero;fill:rgb(99.606323%,100%,99.606323%);fill-opacity:1;" d="M 35.90625 33.15625 C 36.042969 32.515625 36.242188 31.867188 36.492188 31.214844 L 40.464844 31.214844 L 39.835938 33.15625 "/>
<path style=" stroke:none;fill-rule:nonzero;fill:rgb(99.606323%,100%,99.606323%);fill-opacity:1;" d="M 56.605469 32.851563 C 56.273438 33.503906 55.886719 34.15625 55.441406 34.792969 L 51.613281 34.792969 L 52.246094 32.851563 "/>
<path style=" stroke:none;fill-rule:nonzero;fill:rgb(99.606323%,100%,99.606323%);fill-opacity:1;" d="M 57.890625 29.160156 C 57.773438 29.800781 57.597656 30.449219 57.363281 31.101563 L 52.53125 31.101563 L 53.160156 29.160156 "/>
<path style=" stroke:none;fill-rule:nonzero;fill:rgb(99.606323%,100%,99.606323%);fill-opacity:1;" d="M 43.617188 37.855469 L 38.648438 37.855469 L 39.4375 34.816406 L 42.207031 34.84375 C 42.648438 34.847656 43.222656 34.542969 43.316406 34.109375 L 44.539063 28.734375 C 45.042969 26.515625 47.808594 24.765625 50.082031 24.765625 L 54.996094 24.765625 L 54.34375 27.511719 L 51.765625 27.539063 C 51.191406 27.542969 50.988281 27.675781 50.867188 28.132813 L 49.320313 33.972656 C 48.730469 36.199219 45.917969 37.855469 43.617188 37.855469 "/>
</g>
</svg>
