<?xml version="1.0" encoding="UTF-8"?>
<!DOCTYPE svg PUBLIC "-//W3C//DTD SVG 1.1//EN" "http://www.w3.org/Graphics/SVG/1.1/DTD/svg11.dtd">
<svg width="343pt" height="335pt" viewBox="0 0 343 335" version="1.1" xmlns="http://www.w3.org/2000/svg">
<g id="f9146ffff">
<path fill="#9146ff" opacity="1.00" d=" M 165.30 1.16 C 172.35 -0.68 180.19 0.63 186.14 4.87 C 193.44 9.93 197.75 19.08 196.63 27.95 C 195.42 40.06 195.15 53.38 201.88 64.07 C 206.08 71.23 210.19 78.45 214.36 85.63 C 219.72 95.12 228.83 102.37 239.23 105.59 C 247.67 108.12 254.92 114.34 258.68 122.31 C 263.93 133.06 262.51 146.69 255.05 156.07 C 246.93 166.74 231.85 171.05 219.24 166.62 C 212.62 164.58 207.89 159.16 201.62 156.43 C 183.52 147.43 162.68 147.15 142.97 148.81 C 132.38 149.60 122.34 153.30 112.27 156.39 C 104.93 158.45 96.54 154.84 92.87 148.19 C 88.02 140.00 91.36 128.19 100.03 124.05 C 107.97 119.81 113.37 112.41 117.88 104.85 C 126.10 90.71 134.22 76.52 142.41 62.37 C 147.15 54.12 147.48 44.29 147.25 35.02 C 147.22 30.34 145.86 25.65 146.91 21.00 C 148.46 11.54 156.01 3.44 165.30 1.16 M 165.44 59.63 C 159.97 61.71 156.88 67.09 153.62 71.60 C 145.55 83.65 138.50 96.39 132.56 109.62 C 129.21 117.31 132.66 127.04 140.00 131.02 C 144.87 133.69 150.60 133.45 155.97 134.03 C 169.95 134.79 184.05 134.78 197.95 132.95 C 205.36 131.94 211.11 125.31 212.03 118.05 C 212.78 113.27 210.57 108.74 208.45 104.60 C 204.63 96.34 199.99 88.49 195.44 80.62 C 191.79 74.44 188.02 68.20 182.95 63.06 C 178.49 58.48 171.30 57.73 165.44 59.63 Z"/>
</g>
<g id="f280f32ff">
<path fill="#280f32" opacity="1.00" d=" M 1.77 188.43 C 7.69 187.94 13.83 187.36 19.65 188.82 C 19.96 190.53 20.26 192.25 20.26 193.99 C 20.24 232.35 20.25 270.71 20.25 309.06 C 20.27 311.57 20.77 314.57 23.21 315.86 C 26.95 317.99 31.34 316.26 35.37 316.79 C 36.23 320.47 36.13 324.29 35.91 328.04 C 35.93 330.69 32.90 331.38 30.86 331.87 C 23.54 333.26 15.27 333.51 8.84 329.17 C 3.02 325.14 0.83 317.76 0.76 310.98 C 0.73 273.66 0.77 236.33 0.74 199.00 C 0.79 195.46 0.33 191.78 1.77 188.43 Z"/>
<path fill="#280f32" opacity="1.00" d=" M 177.16 243.90 C 187.28 236.39 199.36 231.13 212.06 230.46 C 220.44 229.90 229.69 231.00 236.27 236.71 C 242.34 241.90 244.62 250.20 244.75 257.93 C 244.76 280.64 244.74 303.35 244.76 326.07 C 244.77 327.78 244.48 329.47 244.15 331.16 C 238.89 332.18 233.47 331.76 228.15 331.63 C 225.42 331.33 225.17 328.23 225.24 326.08 C 225.25 305.39 225.25 284.69 225.25 264.00 C 225.16 259.16 224.11 253.95 220.66 250.34 C 216.84 246.53 211.07 245.84 205.93 246.17 C 195.96 246.57 186.49 250.54 178.24 255.98 C 178.25 279.68 178.25 303.37 178.25 327.07 C 178.24 328.77 178.07 331.51 175.81 331.59 C 171.26 331.92 166.68 331.79 162.12 331.68 C 160.16 331.83 158.73 329.92 159.02 328.06 C 158.99 297.69 158.99 267.32 159.02 236.95 C 158.74 235.11 160.19 233.17 162.13 233.32 C 166.43 233.19 170.82 232.91 175.05 233.88 C 176.15 237.13 176.62 240.53 177.16 243.90 Z"/>
<path fill="#280f32" opacity="1.00" d=" M 275.32 235.32 C 287.01 231.30 299.55 229.84 311.87 230.53 C 321.19 231.15 331.53 233.75 337.21 241.80 C 341.10 246.86 341.64 253.37 343.00 259.38 L 343.00 328.46 C 340.82 333.69 334.40 331.33 330.03 331.72 C 324.89 331.84 325.70 325.54 324.79 322.11 C 315.47 329.39 304.03 334.62 292.00 334.28 C 282.39 334.35 272.24 330.32 266.91 322.01 C 258.63 308.83 261.60 288.74 275.40 280.40 C 289.89 271.23 308.00 273.98 323.89 277.18 C 323.77 269.47 325.18 261.27 322.02 253.98 C 319.83 248.83 314.00 246.71 308.82 246.22 C 298.08 245.36 287.17 246.66 276.89 249.89 C 274.68 250.53 272.43 251.18 270.10 251.13 C 268.22 248.13 269.08 244.33 269.06 240.97 C 268.93 237.50 272.71 236.34 275.32 235.32 M 290.72 289.77 C 281.53 293.30 279.39 305.89 284.30 313.65 C 287.00 317.86 292.23 319.46 297.00 319.52 C 306.81 319.51 316.16 315.43 323.99 309.75 C 324.00 303.19 324.00 296.62 324.00 290.06 C 313.16 287.84 301.38 285.77 290.72 289.77 Z"/>
<path fill="#280f32" opacity="1.00" d=" M 51.03 236.94 C 50.82 235.12 52.15 233.16 54.12 233.32 C 59.28 233.26 64.52 232.86 69.63 233.79 C 70.12 235.80 70.58 237.84 70.52 239.93 C 70.48 259.95 70.52 279.97 70.49 300.00 C 70.46 305.01 71.44 310.32 74.68 314.31 C 77.50 317.46 81.84 318.72 85.95 318.90 C 96.42 319.30 106.49 315.26 115.22 309.77 C 115.28 288.51 115.23 267.26 115.25 246.00 C 115.31 241.97 114.90 237.86 115.90 233.90 C 121.87 232.86 128.13 232.86 134.10 233.90 C 134.44 235.56 134.77 237.23 134.76 238.93 C 134.75 265.95 134.75 292.97 134.76 320.00 C 134.73 323.72 135.03 327.50 134.09 331.14 C 129.60 332.06 124.93 331.94 120.40 331.52 C 116.72 329.87 117.66 324.77 116.53 321.54 C 105.14 329.79 91.33 335.48 77.05 334.62 C 70.15 334.29 62.97 332.01 58.18 326.80 C 53.02 321.25 51.00 313.45 50.99 306.02 C 51.03 283.00 50.95 259.97 51.03 236.94 Z"/>
</g>
</svg>