<?xml version="1.0" encoding="UTF-8" standalone="no"?>
<!-- Generator: Adobe Illustrator 22.1.0, SVG Export Plug-In . SVG Version: 6.00 Build 0)  -->

<svg
   version="1.1"
   id="Layer_1"
   x="0px"
   y="0px"
   viewBox="0 0 124 102"
   xml:space="preserve"
   sodipodi:docname="buildpacks-logo.svg"
   width="124"
   height="102"
   inkscape:version="1.2.2 (b0a8486541, 2022-12-01)"
   xmlns:inkscape="http://www.inkscape.org/namespaces/inkscape"
   xmlns:sodipodi="http://sodipodi.sourceforge.net/DTD/sodipodi-0.dtd"
   xmlns="http://www.w3.org/2000/svg"
   xmlns:svg="http://www.w3.org/2000/svg"><defs
   id="defs190">
	
	
	
	
	
</defs><sodipodi:namedview
   id="namedview188"
   pagecolor="#ffffff"
   bordercolor="#666666"
   borderopacity="1.0"
   inkscape:showpageshadow="2"
   inkscape:pageopacity="0.0"
   inkscape:pagecheckerboard="0"
   inkscape:deskcolor="#d1d1d1"
   showgrid="false"
   inkscape:zoom="3.6640625"
   inkscape:cx="192.13646"
   inkscape:cy="51.036247"
   inkscape:window-width="2560"
   inkscape:window-height="1371"
   inkscape:window-x="0"
   inkscape:window-y="0"
   inkscape:window-maximized="1"
   inkscape:current-layer="Layer_1" />
<style
   type="text/css"
   id="style120">
	.st0{enable-background:new    ;}
	.st1{fill:#242960;}
	.st2{fill:#DF0A6B;}
	.st3{fill:#DE156C;}
	.st4{fill:url(#SVGID_1_);}
	.st5{fill:#47529D;}
	.st6{fill:url(#SVGID_2_);}
	.st7{fill:#252960;}
	.st8{fill:url(#SVGID_3_);}
</style>
<g
   transform="translate(172,152)"
   id="g161">
		<path
   class="st3"
   d="m -79.6,-86 -22,-12.7 c -1.9,-1.1 -4.4,-0.5 -5.5,1.5 -0.4,0.6 -0.5,1.3 -0.5,2 v 25.4 c 0,1.4 0.8,2.7 2,3.5 l 26,15 c 1.2,0.7 2.8,0.7 4,0 l 26,-15 c 1.2,-0.7 2,-2 2,-3.5 v -25.4 c 0,-2.2 -1.8,-4 -4,-4 -0.7,0 -1.4,0.2 -2,0.5 l -22,12.7 c -1.2,0.7 -2.7,0.7 -4,0 z"
   id="path152" />
		
			<linearGradient
   id="SVGID_1_"
   gradientUnits="userSpaceOnUse"
   x1="-916.0929"
   y1="430.4137"
   x2="-916.0929"
   y2="429.4137"
   gradientTransform="matrix(30,0,0,-46.1386,27420.227,19759.463)">
			<stop
   offset="0"
   style="stop-color:#FC72C7"
   id="stop154" />
			<stop
   offset="1"
   style="stop-color:#DE156C"
   id="stop156" />
		</linearGradient>
		<path
   class="st4"
   d="m -77.6,-82.5 v 25.4 c 0,2.2 1.8,4 4,4 0.7,0 1.4,-0.2 2,-0.5 l 22,-12.7 c 1.2,-0.7 2,-2 2,-3.5 v -25.4 c 0,-2.2 -1.8,-4 -4,-4 -0.7,0 -1.4,0.2 -2,0.5 l -22,12.7 c -1.2,0.7 -2,2.1 -2,3.5 z"
   id="path159"
   style="fill:url(#SVGID_1_)" />
	</g><g
   transform="translate(140,98)"
   id="g172">
		<path
   class="st5"
   d="m -53.6,-96.7 -22,12.7 c -1.2,0.7 -2.8,0.7 -4,0 l -22,-12.7 c -1.9,-1.1 -4.4,-0.5 -5.5,1.5 -0.4,0.6 -0.5,1.3 -0.5,2 v 25.4 c 0,1.4 0.8,2.7 2,3.5 l 26,15 c 1.2,0.7 2.8,0.7 4,0 l 26,-15 c 1.2,-0.7 2,-2 2,-3.5 v -25.4 c 0,-2.2 -1.8,-4 -4,-4 -0.7,0 -1.4,0.2 -2,0.5 z"
   id="path163" />
		
			<linearGradient
   id="SVGID_2_"
   gradientUnits="userSpaceOnUse"
   x1="-884.0929"
   y1="484.4137"
   x2="-884.0929"
   y2="483.4137"
   gradientTransform="matrix(30,0,0,-46.1386,26460.227,22252.947)">
			<stop
   offset="0"
   style="stop-color:#8896DB"
   id="stop165" />
			<stop
   offset="1"
   style="stop-color:#47529D"
   id="stop167" />
		</linearGradient>
		<path
   class="st6"
   d="m -53.6,-96.7 -22,12.7 c -1.2,0.7 -2,2 -2,3.5 v 25.4 c 0,2.2 1.8,4 4,4 0.7,0 1.4,-0.2 2,-0.5 l 22,-12.7 c 1.2,-0.7 2,-2 2,-3.5 v -25.4 c 0,-2.2 -1.8,-4 -4,-4 -0.7,0 -1.4,0.2 -2,0.5 z"
   id="path170"
   style="fill:url(#SVGID_2_)" />
	</g><g
   transform="translate(108,150)"
   id="g183">
		<path
   class="st7"
   d="m -79.6,-84 -22,-12.7 c -1.9,-1.1 -4.4,-0.5 -5.5,1.5 -0.4,0.6 -0.5,1.3 -0.5,2 v 25.4 c 0,1.4 0.8,2.7 2,3.5 l 26,15 c 1.2,0.7 2.8,0.7 4,0 l 26,-15 c 1.2,-0.7 2,-2 2,-3.5 v -25.4 c 0,-2.2 -1.8,-4 -4,-4 -0.7,0 -1.4,0.2 -2,0.5 l -22,12.7 c -1.2,0.7 -2.7,0.7 -4,0 z"
   id="path174" />
		
			<linearGradient
   id="SVGID_3_"
   gradientUnits="userSpaceOnUse"
   x1="-852.0929"
   y1="432.4137"
   x2="-852.0929"
   y2="431.4137"
   gradientTransform="matrix(30,0,0,-46.1386,25500.227,19853.738)">
			<stop
   offset="0"
   style="stop-color:#757CBA"
   id="stop176" />
			<stop
   offset="1"
   style="stop-color:#252960"
   id="stop178" />
		</linearGradient>
		<path
   class="st8"
   d="m -77.6,-80.5 v 25.4 c 0,2.2 1.8,4 4,4 0.7,0 1.4,-0.2 2,-0.5 l 22,-12.7 c 1.2,-0.7 2,-2 2,-3.5 v -25.4 c 0,-2.2 -1.8,-4 -4,-4 -0.7,0 -1.4,0.2 -2,0.5 l -22,12.7 c -1.2,0.7 -2,2.1 -2,3.5 z"
   id="path181"
   style="fill:url(#SVGID_3_)" />
	</g>
</svg>
