<?xml version="1.0" encoding="UTF-8" standalone="no"?>
<svg
   viewBox="0 0 92.77 69.41"
   version="1.1"
   id="svg156"
   sodipodi:docname="clouding.svg"
   inkscape:version="1.1 (c4e8f9ed74, 2021-05-24)"
   xmlns:inkscape="http://www.inkscape.org/namespaces/inkscape"
   xmlns:sodipodi="http://sodipodi.sourceforge.net/DTD/sodipodi-0.dtd"
   xmlns="http://www.w3.org/2000/svg"
   xmlns:svg="http://www.w3.org/2000/svg"
   xmlns:rdf="http://www.w3.org/1999/02/22-rdf-syntax-ns#"
   xmlns:cc="http://creativecommons.org/ns#"
   xmlns:dc="http://purl.org/dc/elements/1.1/">
  <sodipodi:namedview
     id="namedview158"
     pagecolor="#ffffff"
     bordercolor="#666666"
     borderopacity="1.0"
     inkscape:pageshadow="2"
     inkscape:pageopacity="0"
     inkscape:pagecheckerboard="0"
     showgrid="false"
     inkscape:snap-text-baseline="true"
     inkscape:zoom="16.654661"
     inkscape:cx="46.383413"
     inkscape:cy="34.705"
     inkscape:window-width="2560"
     inkscape:window-height="1371"
     inkscape:window-x="0"
     inkscape:window-y="0"
     inkscape:window-maximized="1"
     inkscape:current-layer="svg156" />
  <defs
     id="defs122">
    <style
       id="style120">.cls-1{fill:#fff;}</style>
  </defs>
  <title
     id="title124">Asset 1</title>
  <g
     id="Layer_1-2"
     data-name="Layer 1"
     style="fill:#000000">
    <path
       class="cls-1"
       d="M 75.89,45.72 A 16.74,16.74 0 0 1 61.42,37.5 l -0.94,-1.57 -1.16,1.42 A 22.74,22.74 0 0 1 41.68,45.72 23,23 0 0 1 25.56,39 l -1.15,-1.14 -0.85,1.37 A 12.44,12.44 0 1 1 17.29,21 L 18.81,21.56 19,20 a 22.85,22.85 0 0 1 44.2,-4.77 l 0.61,1.72 1.41,-1.15 a 16.87,16.87 0 1 1 10.67,29.92 z m 0,-28.65 A 11.77,11.77 0 1 0 87.66,28.84 11.78,11.78 0 0 0 75.89,17.07 Z M 41.68,5.07 A 17.75,17.75 0 1 0 59.43,22.86 17.77,17.77 0 0 0 41.68,5.11 Z M 13,25.36 A 7.32,7.32 0 1 0 20.32,32.68 7.33,7.33 0 0 0 13,25.36 Z"
       id="path126"
       style="fill:#000000" />
    <path
       class="cls-1"
       d="M 5,65.75 A 5.15,5.15 0 0 1 2.94,65.31 4.88,4.88 0 0 1 0.78,63.46 5.12,5.12 0 0 1 0.78,58 4.91,4.91 0 0 1 2.93,56.2 5.16,5.16 0 0 1 5,55.76 5.12,5.12 0 0 1 6.73,56.07 5.56,5.56 0 0 1 8.28,57 a 0.94,0.94 0 0 1 0.3,0.6 0.92,0.92 0 0 1 -0.21,0.64 0.91,0.91 0 0 1 -0.65,0.3 0.82,0.82 0 0 1 -0.6,-0.24 3.25,3.25 0 0 0 -3.48,-0.5 3.23,3.23 0 0 0 0,5.92 A 3.25,3.25 0 0 0 5,64 3.12,3.12 0 0 0 7.13,63.18 1,1 0 0 1 7.72,63 0.89,0.89 0 0 1 8.36,63.28 0.84,0.84 0 0 1 8.58,63.93 0.87,0.87 0 0 1 8.29,64.53 5.58,5.58 0 0 1 6.74,65.46 5.11,5.11 0 0 1 5,65.75 Z"
       id="path128"
       style="fill:#000000" />
    <path
       class="cls-1"
       d="M 11.48,65.75 A 0.86,0.86 0 0 1 10.62,64.89 V 53.25 a 0.87,0.87 0 0 1 0.25,-0.61 0.84,0.84 0 0 1 1.23,0 0.87,0.87 0 0 1 0.25,0.61 v 11.64 a 0.86,0.86 0 0 1 -0.86,0.86 z"
       id="path130"
       style="fill:#000000" />
    <path
       class="cls-1"
       d="m 19.18,65.75 a 4.87,4.87 0 0 1 -1.95,-0.39 5.18,5.18 0 0 1 -1.59,-1.06 5,5 0 0 1 -1.08,-1.58 5,5 0 0 1 0,-3.88 5.06,5.06 0 0 1 2.66,-2.67 5,5 0 0 1 3.88,0 5,5 0 0 1 2.68,2.67 5,5 0 0 1 0,3.88 5,5 0 0 1 -1.08,1.58 5.14,5.14 0 0 1 -1.6,1.06 4.89,4.89 0 0 1 -1.92,0.39 z m 0,-8.23 a 3.21,3.21 0 0 0 -1.26,0.25 3.22,3.22 0 0 0 -1.74,1.74 3.26,3.26 0 0 0 0,2.53 3.22,3.22 0 0 0 1.74,1.74 3.27,3.27 0 0 0 2.53,0 3.22,3.22 0 0 0 1.73,-1.78 3.27,3.27 0 0 0 0,-2.53 3.22,3.22 0 0 0 -1.74,-1.74 3.2,3.2 0 0 0 -1.26,-0.21 z"
       id="path132"
       style="fill:#000000" />
    <path
       class="cls-1"
       d="M 30.64,65.75 A 4.87,4.87 0 0 1 28.69,65.36 5,5 0 0 1 27.11,64.28 5.17,5.17 0 0 1 26.05,62.7 4.87,4.87 0 0 1 25.66,60.75 v -4.13 a 0.86,0.86 0 0 1 1.72,0 v 4.14 a 3.2,3.2 0 0 0 0.26,1.24 3.23,3.23 0 0 0 1.74,1.74 3.27,3.27 0 0 0 2.53,0 3.22,3.22 0 0 0 1.73,-1.74 3.2,3.2 0 0 0 0.25,-1.26 v -4.12 a 0.82,0.82 0 0 1 0.27,-0.61 0.87,0.87 0 0 1 0.61,-0.25 0.86,0.86 0 0 1 0.86,0.86 v 4.14 a 4.88,4.88 0 0 1 -0.39,1.95 5.06,5.06 0 0 1 -2.67,2.66 4.9,4.9 0 0 1 -1.93,0.38 z"
       id="path134"
       style="fill:#000000" />
    <path
       class="cls-1"
       d="m 42.15,65.75 a 4.87,4.87 0 0 1 -1.95,-0.39 5.09,5.09 0 0 1 -2.66,-2.66 5,5 0 0 1 0,-3.88 5.06,5.06 0 0 1 2.66,-2.67 5,5 0 0 1 4.3,0.21 5.11,5.11 0 0 1 0.9,0.62 v -3.75 a 0.83,0.83 0 0 1 0.25,-0.61 0.86,0.86 0 0 1 0.63,-0.25 0.86,0.86 0 0 1 0.86,0.86 v 7.53 a 4.88,4.88 0 0 1 -0.39,1.95 5.06,5.06 0 0 1 -2.67,2.66 4.89,4.89 0 0 1 -1.93,0.38 z m 0,-8.25 a 3.2,3.2 0 0 0 -1.26,0.25 3.22,3.22 0 0 0 -1.74,1.74 3.29,3.29 0 0 0 0,2.54 3.25,3.25 0 0 0 1.74,1.73 3.27,3.27 0 0 0 2.53,0 3.27,3.27 0 0 0 1,-0.7 3.31,3.31 0 0 0 0.7,-1 3.17,3.17 0 0 0 0.25,-1.27 3.21,3.21 0 0 0 -0.25,-1.26 3.22,3.22 0 0 0 -1.74,-1.74 3.21,3.21 0 0 0 -1.23,-0.29 z"
       id="path136"
       style="fill:#000000" />
    <path
       class="cls-1"
       d="m 62.3,65.75 a 0.82,0.82 0 0 1 -0.61,-0.27 0.87,0.87 0 0 1 -0.25,-0.61 v -4.11 a 3.2,3.2 0 0 0 -0.25,-1.26 3.22,3.22 0 0 0 -1.74,-1.74 3.29,3.29 0 0 0 -2.54,0 3.25,3.25 0 0 0 -1.73,1.74 3.21,3.21 0 0 0 -0.25,1.26 v 4.12 a 0.87,0.87 0 0 1 -0.25,0.61 0.82,0.82 0 0 1 -0.61,0.27 0.84,0.84 0 0 1 -0.64,-0.27 0.87,0.87 0 0 1 -0.25,-0.61 v -4.12 a 4.89,4.89 0 0 1 0.39,-1.93 5.07,5.07 0 0 1 2.66,-2.67 5,5 0 0 1 3.88,0 5,5 0 0 1 2.68,2.67 4.91,4.91 0 0 1 0.39,1.93 v 4.12 a 0.87,0.87 0 0 1 -0.25,0.61 0.84,0.84 0 0 1 -0.63,0.26 z"
       id="path138"
       style="fill:#000000" />
    <path
       class="cls-1"
       d="m 76.83,65.46 a 0.86,0.86 0 0 1 -0.86,-0.77 v 0 -0.16 0 a 0.86,0.86 0 0 1 0.86,-0.76 0.87,0.87 0 0 1 0.61,0.25 0.82,0.82 0 0 1 0.26,0.5 v 0 0.16 0 a 0.83,0.83 0 0 1 -0.26,0.53 0.87,0.87 0 0 1 -0.61,0.25 z"
       id="path140"
       style="fill:#000000" />
    <path
       class="cls-1"
       d="m 87.77,65.75 a 4.87,4.87 0 0 1 -1.95,-0.39 5.18,5.18 0 0 1 -1.59,-1.06 5,5 0 0 1 -1.08,-1.58 5,5 0 0 1 0,-3.88 5.06,5.06 0 0 1 2.66,-2.67 5,5 0 0 1 3.88,0 5,5 0 0 1 2.68,2.67 5,5 0 0 1 0,3.88 5,5 0 0 1 -1.07,1.58 5.14,5.14 0 0 1 -1.6,1.06 4.89,4.89 0 0 1 -1.93,0.39 z m 0,-8.23 a 3.21,3.21 0 0 0 -1.26,0.25 3.22,3.22 0 0 0 -1.74,1.74 3.26,3.26 0 0 0 0,2.53 3.22,3.22 0 0 0 1.74,1.74 3.27,3.27 0 0 0 2.53,0 3.22,3.22 0 0 0 1.73,-1.78 3.27,3.27 0 0 0 0,-2.53 A 3.22,3.22 0 0 0 89,57.78 3.2,3.2 0 0 0 87.77,57.52 Z"
       id="path142"
       style="fill:#000000" />
    <path
       class="cls-1"
       d="m 69.74,69.41 h -0.55 -0.24 l -0.28,-0.05 a 5.31,5.31 0 0 1 -2.51,-1.38 0.87,0.87 0 0 1 -0.25,-0.7 0.84,0.84 0 0 1 0.84,-0.76 0.87,0.87 0 0 1 0.63,0.27 3.24,3.24 0 0 0 0.6,0.49 v 0 a 3.07,3.07 0 0 0 1.17,0.44 h 0.17 0.41 a 3,3 0 0 0 2.5,-1.14 3.75,3.75 0 0 0 0.81,-2 5.15,5.15 0 0 1 -1.32,0.82 5,5 0 0 1 -3.88,0 5.18,5.18 0 0 1 -1.59,-1.06 5,5 0 0 1 -1.08,-1.58 5,5 0 0 1 0,-3.88 5.06,5.06 0 0 1 2.66,-2.67 5,5 0 0 1 3.88,0 5,5 0 0 1 2.68,2.67 4.85,4.85 0 0 1 0.37,1.47 1.1,1.1 0 0 1 0,0.2 v 3.87 a 5.09,5.09 0 0 1 -4.94,5 h -0.11 z m 0.05,-11.89 a 3.21,3.21 0 0 0 -1.26,0.25 3.22,3.22 0 0 0 -1.74,1.74 3.26,3.26 0 0 0 0,2.53 3.22,3.22 0 0 0 1.74,1.74 3.27,3.27 0 0 0 2.53,0 3.22,3.22 0 0 0 1.74,-1.78 3.27,3.27 0 0 0 0,-2.53 3.22,3.22 0 0 0 -1.74,-1.74 3.2,3.2 0 0 0 -1.26,-0.21 z"
       id="path144"
       style="fill:#000000" />
    <path
       class="cls-1"
       d="M 79.86,65.75 A 0.83,0.83 0 0 1 79.25,65.5 0.85,0.85 0 0 1 79,64.87 v -8.23 a 0.86,0.86 0 0 1 0.25,-0.63 0.83,0.83 0 0 1 0.61,-0.25 0.87,0.87 0 0 1 0.61,0.25 0.84,0.84 0 0 1 0.27,0.63 v 8.23 a 0.84,0.84 0 0 1 -0.27,0.64 0.87,0.87 0 0 1 -0.61,0.24 z"
       id="path146"
       style="fill:#000000" />
    <path
       class="cls-1"
       d="m 79.86,54.26 a 0.86,0.86 0 0 1 -0.85,-0.75 v 0 -0.16 0 a 0.87,0.87 0 0 1 0.24,-0.51 0.81,0.81 0 0 1 0.61,-0.27 0.9,0.9 0 0 1 0.88,0.77 v 0 0.16 0 a 0.82,0.82 0 0 1 -0.26,0.51 0.87,0.87 0 0 1 -0.62,0.25 z"
       id="path148"
       style="fill:#000000" />
    <path
       class="cls-1"
       d="M 50.25,65.75 A 0.83,0.83 0 0 1 49.64,65.5 0.85,0.85 0 0 1 49.39,64.87 v -8.23 a 0.86,0.86 0 0 1 0.25,-0.63 0.83,0.83 0 0 1 0.61,-0.25 0.87,0.87 0 0 1 0.61,0.25 0.84,0.84 0 0 1 0.27,0.63 v 8.23 a 0.84,0.84 0 0 1 -0.27,0.64 0.87,0.87 0 0 1 -0.61,0.24 z"
       id="path150"
       style="fill:#000000" />
    <path
       class="cls-1"
       d="M 50.25,54.26 A 0.86,0.86 0 0 1 49.4,53.51 v 0 -0.16 0 a 0.87,0.87 0 0 1 0.24,-0.51 0.81,0.81 0 0 1 0.61,-0.27 0.9,0.9 0 0 1 0.88,0.77 v 0 0.16 0 a 0.82,0.82 0 0 1 -0.26,0.51 0.87,0.87 0 0 1 -0.62,0.25 z"
       id="path152"
       style="fill:#000000" />
  </g>
  <metadata
     id="metadata255">
    <rdf:RDF>
      <cc:Work
         rdf:about="">
        <dc:title>Asset 1</dc:title>
      </cc:Work>
    </rdf:RDF>
  </metadata>
</svg>
