<?xml version="1.0" encoding="UTF-8" standalone="no"?>
<svg width="173.51254mm" height="41.231178mm" viewBox="0 0 173.51254 41.231178" version="1.1" id="svg8" sodipodi:docname="Digi_logo.svg" inkscape:version="1.1.1 (3bf5ae0d25, 2021-09-20)" xmlns:inkscape="http://www.inkscape.org/namespaces/inkscape" xmlns:sodipodi="http://sodipodi.sourceforge.net/DTD/sodipodi-0.dtd" xmlns:xlink="http://www.w3.org/1999/xlink" xmlns="http://www.w3.org/2000/svg" xmlns:svg="http://www.w3.org/2000/svg" xmlns:rdf="http://www.w3.org/1999/02/22-rdf-syntax-ns#" xmlns:cc="http://creativecommons.org/ns#" xmlns:dc="http://purl.org/dc/elements/1.1/">
  <sodipodi:namedview id="namedview64" pagecolor="#ffffff" bordercolor="#999999" borderopacity="1" inkscape:pageshadow="0" inkscape:pageopacity="0" inkscape:pagecheckerboard="0" inkscape:document-units="mm" showgrid="false" inkscape:zoom="2.126213" inkscape:cx="327.57771" inkscape:cy="115.4635" inkscape:window-width="1920" inkscape:window-height="1001" inkscape:window-x="-9" inkscape:window-y="-9" inkscape:window-maximized="1" inkscape:current-layer="svg8" fit-margin-top="5" fit-margin-right="5" fit-margin-bottom="5" fit-margin-left="5"/>
  <defs id="defs2">
    <linearGradient id="linearGradient1256">
      <stop style="stop-color:#ffffff;stop-opacity:1" offset="0" id="stop1252"/>
      <stop style="stop-color:#ffffff;stop-opacity:1" offset="0.87190092" id="stop1260"/>
      <stop style="stop-color:#ffffff;stop-opacity:0" offset="1" id="stop1254"/>
    </linearGradient>
    <linearGradient id="linearGradient1250">
      <stop style="stop-color:#1f446e;stop-opacity:0" offset="0" id="stop1236"/>
      <stop style="stop-color:#0e4a6f;stop-opacity:1" offset="0.19173355" id="stop1238"/>
      <stop style="stop-color:#77abd2;stop-opacity:1" offset="0.3553932" id="stop1240"/>
      <stop style="stop-color:#ffffff;stop-opacity:1" offset="0.50465053" id="stop1242"/>
      <stop style="stop-color:#66a1c9;stop-opacity:1" offset="0.66500628" id="stop1244"/>
      <stop style="stop-color:#10496f;stop-opacity:1" offset="0.84411353" id="stop1246"/>
      <stop style="stop-color:#6c5353;stop-opacity:0;" offset="1" id="stop1248"/>
    </linearGradient>
    <linearGradient id="linearGradient1940">
      <stop style="stop-color:#354769;stop-opacity:1" offset="0" id="stop1936"/>
      <stop style="stop-color:#194393;stop-opacity:1" offset="0.19173355" id="stop1946"/>
      <stop style="stop-color:#5f81d2;stop-opacity:1" offset="0.3553932" id="stop1948"/>
      <stop style="stop-color:#ffffff;stop-opacity:1" offset="0.52105194" id="stop1944"/>
      <stop style="stop-color:#8aa9ea;stop-opacity:1" offset="0.67208856" id="stop1950"/>
      <stop style="stop-color:#143e7e;stop-opacity:1" offset="0.84411353" id="stop1952"/>
      <stop style="stop-color:#1e345c;stop-opacity:1" offset="1" id="stop1938"/>
    </linearGradient>
    <linearGradient id="linearGradient1073">
      <stop style="stop-color:#ffffff;stop-opacity:1" offset="0" id="stop1057"/>
      <stop style="stop-color:#3280a7;stop-opacity:1" offset="0.15535364" id="stop1059"/>
      <stop style="stop-color:#1b3d68;stop-opacity:1" offset="0.25768271" id="stop1061"/>
      <stop style="stop-color:#1a4773;stop-opacity:1" offset="0.51831788" id="stop1063"/>
      <stop style="stop-color:#387aa2;stop-opacity:1" offset="0.635297" id="stop1065"/>
      <stop style="stop-color:#ffffff;stop-opacity:1" offset="0.74682128" id="stop1067"/>
      <stop style="stop-color:#3784a9;stop-opacity:1" offset="0.86146075" id="stop1069"/>
      <stop style="stop-color:#1b416c;stop-opacity:1" offset="0.93111163" id="stop1075"/>
      <stop style="stop-color:#0f4767;stop-opacity:1" offset="1" id="stop1071"/>
    </linearGradient>
    <linearGradient id="linearGradient1033">
      <stop style="stop-color:#ffffff;stop-opacity:1" offset="0" id="stop1017"/>
      <stop style="stop-color:#3280a7;stop-opacity:1" offset="0.41816857" id="stop1019"/>
      <stop style="stop-color:#1b3d68;stop-opacity:1" offset="0.46536002" id="stop1021"/>
      <stop style="stop-color:#1a4773;stop-opacity:1" offset="0.51831788" id="stop1023"/>
      <stop style="stop-color:#387aa2;stop-opacity:1" offset="0.58978373" id="stop1025"/>
      <stop style="stop-color:#ffffff;stop-opacity:1" offset="0.71297747" id="stop1027"/>
      <stop style="stop-color:#3784a9;stop-opacity:1" offset="0.82163239" id="stop1029"/>
      <stop style="stop-color:#1c3b66;stop-opacity:1" offset="0.94214451" id="stop1035"/>
      <stop style="stop-color:#0f4767;stop-opacity:1" offset="1" id="stop1031"/>
    </linearGradient>
    <linearGradient id="linearGradient949">
      <stop style="stop-color:#ffffff;stop-opacity:1" offset="0" id="stop945"/>
      <stop style="stop-color:#3280a7;stop-opacity:1" offset="0.15535364" id="stop963"/>
      <stop style="stop-color:#1b3d68;stop-opacity:1" offset="0.25768271" id="stop957"/>
      <stop style="stop-color:#1a4773;stop-opacity:1" offset="0.51831788" id="stop955"/>
      <stop style="stop-color:#387aa2;stop-opacity:1" offset="0.60249537" id="stop959"/>
      <stop style="stop-color:#ffffff;stop-opacity:1" offset="0.74682128" id="stop953"/>
      <stop style="stop-color:#3784a9;stop-opacity:1" offset="0.89396554" id="stop961"/>
      <stop style="stop-color:#0f4767;stop-opacity:1" offset="1" id="stop947"/>
    </linearGradient>
    <linearGradient xlink:href="#linearGradient949" id="linearGradient951" x1="49.703869" y1="175.9841" x2="49.979401" y2="135.63928" gradientUnits="userSpaceOnUse" gradientTransform="matrix(1.9896495,0,0,1.9385834,-116.62209,-123.95223)"/>
    <linearGradient xlink:href="#linearGradient1033" id="linearGradient1013" x1="83.240799" y1="123.76131" x2="83.430527" y2="163.14253" gradientUnits="userSpaceOnUse"/>
    <linearGradient xlink:href="#linearGradient1073" id="linearGradient1015" gradientUnits="userSpaceOnUse" x1="84.11026" y1="111.45076" x2="83.240799" y2="164.71779"/>
    <linearGradient xlink:href="#linearGradient1940" id="linearGradient1942" x1="98.488823" y1="123.61216" x2="41.159508" y2="182.01054" gradientUnits="userSpaceOnUse" gradientTransform="matrix(1.9896495,0,0,1.9385834,-116.62209,-123.95223)"/>
    <radialGradient xlink:href="#linearGradient1256" id="radialGradient1258" cx="22.45064" cy="172.38884" fx="22.45064" fy="172.38884" r="64.679222" gradientTransform="matrix(0.99173549,0,0,0.95454553,0.18554451,7.8358434)" gradientUnits="userSpaceOnUse"/>
  </defs>
  <metadata id="metadata5">
    <rdf:RDF>
      <cc:Work rdf:about="">
        <dc:format>image/svg+xml</dc:format>
        <dc:type rdf:resource="http://purl.org/dc/dcmitype/StillImage"/>
      </cc:Work>
    </rdf:RDF>
  </metadata>
  <g id="layer1" transform="translate(-13.526199,-61.319178)" style="opacity:1;fill:#00a6ff;fill-opacity:1">
    <path id="rect1116" style="fill:#00a6ff;fill-opacity:1;stroke-width:3.14756" d="m -148.18555,350.5625 c -1.67186,0 -3.01757,1.34571 -3.01757,3.01758 v 111.96484 c 0,1.67187 1.34571,3.01758 3.01757,3.01758 H 18.867188 c 5.159021,-0.56846 11.840981,-1.23272 15.53125,-2.21484 4.533374,-1.20733 8.141202,-3.66867 11.769531,-5.64063 9.664135,-5.36466 17.749525,-13.52239 23.066406,-23.21289 5.316881,-9.6905 7.854621,-20.87937 7.285156,-31.91797 -0.731365,-14.17696 -6.684097,-28.06901 -16.626953,-38.20117 -9.94286,-10.13216 -23.81907,-16.3646 -38.007812,-16.8125 -58.834153,-0.005 -119.492797,-6e-5 -170.070316,0 z m 55.863284,14.79492 c 20.576957,-10e-4 45.32946,0.005 69.197266,0 23.0284253,-4.9e-4 41.696979,19.8267 41.697266,44.28516 -2.92e-4,24.45845 -18.66884438,44.28564 -41.697266,44.28515 -0.721271,-0.0176 -2.185793,0.11216 -2.886719,0.12696 -1.760472,0.0375 -2.726451,0.0204 -4.548828,0.0469 -4.312412,0.0628 -8.826543,0.0163 -13.128906,0.0332 -16.225983,0.0637 -32.432888,0.0793 -48.632813,-0.20704 z" transform="matrix(0.26458333,0,0,0.26458333,58.532024,-26.423476)"/>
    <rect style="fill:#00a6ff;fill-opacity:1;stroke-width:0.819686" id="rect1150" width="15.951521" height="31.220835" x="82.026306" y="66.329521" ry="0.56696427"/>
    <path id="rect1152" style="fill:#00a6ff;fill-opacity:1;stroke-width:3.39024" d="m 318.52148,350.52344 c -19.68449,0 -58.48881,-3.5e-4 -79.57617,0.16797 -21.08736,0.16831 -24.54632,0.51449 -30.14062,1.73047 -5.59431,1.21597 -13.50679,3.31948 -21.33594,9.08593 -7.82915,5.76645 -15.57445,15.19467 -20.07813,26.22266 -4.50367,11.02798 -4.49589,28.37848 -0.20605,41.54822 4.28983,13.16974 12.87503,22.00724 22.09863,29.41467 9.2236,7.40743 17.82281,8.5866 22.1211,9.17578 4.29828,0.58918 4.29765,0.58903 4.83593,0.57813 0.0874,-0.002 2.18018,-0.0702 2.34375,-0.0742 0.2513,0.0541 0.51135,0.0859 0.7793,0.0859 h 135.54688 35.13476 c 2.02864,0 3.66211,-1.63347 3.66211,-3.6621 v -59.22071 c 0,-2.02864 -1.63347,-3.66211 -3.66211,-3.66211 h -52.27539 c -2.02864,0 -3.65678,1.63348 -3.66211,3.66211 l -0.12627,48.08931 c 0,0 -43.80662,0.53725 -65.91266,-0.34072 -7.07446,-0.28097 -10.83681,-1.62499 -11.60951,-1.85015 -10.05965,-2.9313 -15.44559,-6.35459 -19.79101,-10.04492 -4.34542,-3.69034 -7.64828,-7.64947 -10.07422,-13.02149 -2.42594,-5.37201 -3.97363,-12.15764 -4.27148,-17.73828 -0.29785,-5.58064 0.65384,-9.95458 1.62109,-13.54101 0.96725,-3.58643 1.9486,-6.38377 4.04687,-9.80664 2.09828,-3.42287 5.31231,-7.47006 9.0625,-10.9375 3.75019,-3.46744 8.03583,-6.35482 12.15821,-8.02149 4.12237,-1.66666 8.08238,-2.11277 21.17773,-2.33594 13.09535,-0.22317 35.32576,-0.22461 47.43164,-0.22461 12.10589,0 14.08515,10e-4 15.39453,-0.0879 1.30939,-0.0894 2.10706,-0.42714 2.72425,-0.8883 0.61719,-0.46117 1.27503,-1.23532 2.15297,-2.57453 0.87795,-1.33921 1.81901,-3.08431 2.54075,-4.60943 0.72174,-1.52512 1.13409,-2.65634 1.06573,-3.63867 -0.0684,-0.98234 -0.29537,-1.49858 -0.72662,-2.05901 -0.43125,-0.56044 -1.19401,-1.16359 -1.69848,-1.29256 -0.50447,-0.12897 -1.06746,-0.1289 -20.75196,-0.1289 z" transform="matrix(0.26458333,0,0,0.26458333,58.532024,-26.423476)"/>
    <rect style="fill:#00a6ff;fill-opacity:1;stroke-width:0.819686" id="rect1150-5" width="15.951521" height="31.220835" x="166.08722" y="66.329521" ry="0.56696427"/>
  </g>
</svg>