<?xml version="1.0" encoding="UTF-8" standalone="no"?>
<svg
   xmlns:dc="http://purl.org/dc/elements/1.1/"
   xmlns:cc="http://creativecommons.org/ns#"
   xmlns:rdf="http://www.w3.org/1999/02/22-rdf-syntax-ns#"
   xmlns:svg="http://www.w3.org/2000/svg"
   xmlns="http://www.w3.org/2000/svg"
   xmlns:sodipodi="http://sodipodi.sourceforge.net/DTD/sodipodi-0.dtd"
   xmlns:inkscape="http://www.inkscape.org/namespaces/inkscape"
   width="52"
   height="43"
   viewBox="0 0 52 43"
   version="1.1"
   id="svg12"
   sodipodi:docname="gradle.svg"
   inkscape:export-filename="/run/media/picodotdev/Tarjeta SD 32GB/Descargas/gradle.png"
   inkscape:export-xdpi="369.23001"
   inkscape:export-ydpi="369.23001"
   inkscape:version="0.92.1 r">
  <metadata
     id="metadata18">
    <rdf:RDF>
      <cc:Work
         rdf:about="">
        <dc:format>image/svg+xml</dc:format>
        <dc:type
           rdf:resource="http://purl.org/dc/dcmitype/StillImage" />
        <dc:title>Gradle-Buildtool</dc:title>
      </cc:Work>
    </rdf:RDF>
  </metadata>
  <defs
     id="defs16" />
  <sodipodi:namedview
     pagecolor="#ffffff"
     bordercolor="#666666"
     borderopacity="1"
     objecttolerance="10"
     gridtolerance="10"
     guidetolerance="10"
     inkscape:pageopacity="0"
     inkscape:pageshadow="2"
     inkscape:window-width="1600"
     inkscape:window-height="836"
     id="namedview14"
     showgrid="false"
     inkscape:zoom="1.6337449"
     inkscape:cx="121.5"
     inkscape:cy="21.5"
     inkscape:window-x="0"
     inkscape:window-y="27"
     inkscape:window-maximized="1"
     inkscape:current-layer="svg12" />
  <title
     id="title2">Gradle-Buildtool</title>
  <path
     style="fill:#02303a;fill-rule:evenodd"
     inkscape:connector-curvature="0"
     id="path4"
     d="M 46.876,7.888 C 45.32,5.089 42.538,4.253 40.573,4.213 38.162,4.165 36.181,5.5 36.556,6.377 c 0.08,0.188 0.532,1.17 0.81,1.576 0.402,0.586 1.12,0.136 1.373,0.002 0.752,-0.4 1.555,-0.53 2.467,-0.423 0.871,0.101 2.03,0.638 2.806,2.13 1.828,3.513 -3.815,10.742 -10.878,5.736 -7.062,-5.006 -13.93,-3.347 -17.04,-2.338 -3.11,1.008 -4.54,2.023 -3.31,4.369 1.67,3.188 1.116,2.21 2.735,4.85 2.572,4.19 8.201,-1.93 8.201,-1.93 -4.193,6.182 -7.788,4.688 -9.167,2.527 C 13.31,20.929 12.345,18.683 12.345,18.683 1.723,22.429 4.597,38.966 4.597,38.966 h 5.275 c 1.345,-6.089 6.153,-5.864 6.977,0 h 4.025 c 3.56,-11.89 12.581,0 12.581,0 h 5.247 c -1.47,-8.11 2.951,-10.659 5.737,-15.413 2.786,-4.755 5.426,-10.571 2.437,-15.665 z m -13.533,15.66 c -2.774,-0.906 -1.781,-3.666 -1.781,-3.666 0,0 2.422,0.783 5.699,1.852 -0.189,0.856 -1.819,2.498 -3.918,1.813 z" />
  <path
     style="fill:#00303a;fill-rule:evenodd"
     inkscape:connector-curvature="0"
     id="path6"
     d="m 35.804,21.466 c 0.083,0.764 -0.501,1.451 -1.306,1.535 -0.804,0.083 -1.523,-0.468 -1.606,-1.232 -0.082,-0.764 0.502,-1.452 1.306,-1.535 0.804,-0.084 1.523,0.468 1.606,1.232" />
</svg>
