<svg id="LOGOS" xmlns="http://www.w3.org/2000/svg" viewBox="0 0 207 258"><defs><style>.cls-1{fill:#0f4bd7;}.cls-2{fill:#1563ff;}</style></defs><path d="M32.62,186v-4.82H28.2V186H26V174.44H28.2v4.86h4.42v-4.86h2.26V186Zm10.52,0H41.35l-.16-.56a4.9,4.9,0,0,1-2.59.74c-1.59,0-2.27-1.05-2.27-2.49,0-1.71.77-2.36,2.54-2.36H41v-.87c0-.93-.27-1.26-1.66-1.26a13.08,13.08,0,0,0-2.42.26l-.27-1.6a11.87,11.87,0,0,1,3-.39c2.74,0,3.54.92,3.54,3ZM41,182.87H39.35c-.72,0-.91.19-.91.83s.19.84.87.84a3.58,3.58,0,0,0,1.65-.43Zm6.75,3.34a10.41,10.41,0,0,1-3-.49l.3-1.59a10.46,10.46,0,0,0,2.6.36c1,0,1.11-.21,1.11-.84s-.11-.78-1.53-1.1c-2.12-.5-2.37-1-2.37-2.63s.76-2.42,3.25-2.42a11.8,11.8,0,0,1,2.61.29l-.21,1.67a14.8,14.8,0,0,0-2.4-.25c-1,0-1.11.21-1.11.73,0,.67.06.72,1.24,1,2.43.62,2.66.93,2.66,2.64S50.34,186.21,47.71,186.21Zm10-.18v-5.84c0-.44-.19-.67-.69-.67a6.16,6.16,0,0,0-2.28.71V186H52.55V174.28l2.18.32v3.7a8,8,0,0,1,3.19-.8c1.45,0,2,1,2,2.47V186Zm4-9.55v-2H63.9v2Zm0,9.55v-8.36H63.9V186Zm3.93-8.29c0-2.1,1.27-3.32,4.24-3.32a14,14,0,0,1,3.23.38l-.25,1.87a18.36,18.36,0,0,0-2.91-.29c-1.56,0-2.06.52-2.06,1.74v4.39c0,1.22.5,1.74,2.06,1.74a18.36,18.36,0,0,0,2.91-.29l.25,1.87a14,14,0,0,1-3.23.38c-3,0-4.24-1.22-4.24-3.32Zm12.29,8.47c-3,0-3.79-1.58-3.79-3.3v-2.12c0-1.71.81-3.29,3.79-3.29s3.8,1.58,3.8,3.29v2.12C81.74,184.63,80.93,186.21,77.94,186.21Zm0-6.93c-1.16,0-1.61.5-1.61,1.45V183c0,.94.45,1.44,1.61,1.44s1.61-.5,1.61-1.44v-2.25C79.55,179.78,79.11,179.28,77.94,179.28Zm9.94.14a17.6,17.6,0,0,0-2.31,1.22V186H83.39v-8.36h1.84l.15.93a9.58,9.58,0,0,1,2.29-1.1Zm8.73,3.83c0,1.86-.86,3-2.88,3A13.22,13.22,0,0,1,91.4,186v3.41l-2.18.33v-12H91l.22.7a4.71,4.71,0,0,1,2.75-.87c1.76,0,2.69,1,2.69,2.9Zm-5.21.95a10.09,10.09,0,0,0,1.93.22c.79,0,1.09-.36,1.09-1.12v-3c0-.69-.26-1.07-1.07-1.07a3.2,3.2,0,0,0-1.95.76Z"/><path d="M49.28,194.46h6.77L45.77,228.85h-9.6L25.89,194.46h6.77L41,223.12Z"/><path d="M74.84,228.85H69.68l-.46-1.7a13.84,13.84,0,0,1-7.49,2.22c-4.6,0-6.56-3.15-6.56-7.49,0-5.11,2.22-7.08,7.33-7.08h6v-2.63c0-2.79-.77-3.77-4.8-3.77a34.78,34.78,0,0,0-7,.78L56,204.37a32.88,32.88,0,0,1,8.62-1.18c7.9,0,10.22,2.78,10.22,9.08Zm-6.3-9.5H63.9c-2.07,0-2.64.57-2.64,2.48,0,1.75.57,2.53,2.53,2.53a9.89,9.89,0,0,0,4.75-1.29Z"/><path d="M86.87,222.08a2.72,2.72,0,0,0-1.49,2c0,.67.41,1,1.39,1.08,2.79.31,4.34.47,7.28.78,4.08.46,5.37,2.48,5.37,6.09,0,5.37-2,7.49-11.36,7.49a36.55,36.55,0,0,1-9.71-1.29l.78-4.7a34.9,34.9,0,0,0,8.47,1.08c5,0,6-.36,6-2s-.47-1.81-2.38-2c-2.89-.31-4.08-.47-7.28-.83-3.56-.41-5-1.6-5-4.8a5.34,5.34,0,0,1,2.64-4.29c-2.33-1.39-3.41-3.72-3.41-6.76v-2.38c.1-5.21,2.84-8.36,10.12-8.36a17.16,17.16,0,0,1,4.29.51h7.74v3.15c-.88.26-1.91.52-2.79.78a8.55,8.55,0,0,1,.88,3.92v2.38c0,5.11-3.1,8.21-10.12,8.21A11.33,11.33,0,0,1,86.87,222.08Zm1.45-13.83c-3.1,0-4.18,1.13-4.18,3.51v1.91c0,2.48,1.24,3.41,4.18,3.41s4.23-1,4.23-3.41v-1.91C92.55,209.38,91.47,208.25,88.32,208.25Z"/><path d="M116.15,209a48.11,48.11,0,0,0-6.66,3.67v16.21h-6.3V203.7h5.32l.41,2.79a28.29,28.29,0,0,1,6.61-3.3Z"/><path d="M137.22,228.85h-5.17l-.46-1.7a13.82,13.82,0,0,1-7.49,2.22c-4.59,0-6.56-3.15-6.56-7.49,0-5.11,2.22-7.08,7.34-7.08h6v-2.63c0-2.79-.78-3.77-4.8-3.77a34.7,34.7,0,0,0-7,.78l-.78-4.81a33,33,0,0,1,8.62-1.18c7.9,0,10.23,2.78,10.23,9.08Zm-6.3-9.5h-4.65c-2.06,0-2.63.57-2.63,2.48,0,1.75.57,2.53,2.53,2.53a9.93,9.93,0,0,0,4.75-1.29Z"/><path d="M156,228.85V211.29c0-1.34-.57-2-2-2a17.34,17.34,0,0,0-6.56,2.12v17.45h-6.3V203.7h4.8l.62,2.12a25.19,25.19,0,0,1,10.07-2.63c4.18,0,5.68,2.94,5.68,7.43v18.23Z"/><path d="M180.8,228.38a17.49,17.49,0,0,1-5.53,1c-4.59,0-6.92-2.17-6.92-6.67v-14h-3.77v-5h3.77v-6.25l6.3-.87v7.12h6.46l-.42,5h-6v13.17a2,2,0,0,0,2.27,2.22,12.1,12.1,0,0,0,3.15-.52Z"/><polygon class="cls-1" points="166.18 49.83 166.18 37.96 137.69 54.53 137.69 64.55 114.89 113.73 103.49 121.58 103.49 157.59 127.92 143.51 166.18 49.83"/><polygon class="cls-1" points="103.49 95.94 86.4 56.05 86.4 44.78 86.28 44.72 69.31 54.53 69.31 64.55 92.1 115.89 103.49 110.25 103.49 95.94"/><polygon class="cls-2" points="149.09 27.99 120.61 44.67 120.59 44.66 120.59 44.68 120.59 44.68 120.59 44.68 120.59 56.05 103.49 95.94 103.49 109.28 92.1 115.89 69.31 64.55 69.31 54.52 86.41 44.68 57.91 27.99 40.82 37.96 40.82 50.19 79.29 143.62 103.49 157.59 103.49 122.49 114.89 115.89 114.75 115.8 137.69 64.55 137.69 54.53 137.69 54.52 166.18 37.96 149.09 27.99"/></svg>