<svg id="LOGOS" xmlns="http://www.w3.org/2000/svg" viewBox="0 0 251 258"><defs><style>.cls-1{fill:#14c6cb;}</style></defs><path d="M34.7,186v-4.83H30.28V186H28v-11.6h2.25v4.87H34.7v-4.87H37V186Zm10.52,0H43.43l-.16-.57a4.85,4.85,0,0,1-2.59.74c-1.59,0-2.27-1-2.27-2.49,0-1.7.77-2.35,2.54-2.35H43v-.88c0-.93-.27-1.25-1.66-1.25a12.28,12.28,0,0,0-2.42.26l-.27-1.6a11.93,11.93,0,0,1,3-.4c2.74,0,3.54.93,3.54,3ZM43,182.83H41.43c-.71,0-.91.19-.91.82s.2.85.88.85a3.57,3.57,0,0,0,1.64-.43Zm6.76,3.33a10.54,10.54,0,0,1-3-.48l.3-1.6a10,10,0,0,0,2.6.36c1,0,1.11-.2,1.11-.84s-.11-.77-1.52-1.1c-2.13-.5-2.38-1-2.38-2.63s.77-2.42,3.25-2.42a12.59,12.59,0,0,1,2.62.29l-.22,1.67a16,16,0,0,0-2.4-.24c-.94,0-1.11.21-1.11.72,0,.67.06.72,1.24,1,2.43.61,2.66.92,2.66,2.64S52.43,186.16,49.8,186.16Zm10-.17v-5.84c0-.45-.2-.67-.7-.67a6.27,6.27,0,0,0-2.27.7V186H54.64V174.23l2.18.33v3.7a7.92,7.92,0,0,1,3.18-.81c1.45,0,2,1,2,2.48V186Zm4-9.55v-2.05H66v2.05Zm0,9.55v-8.37H66V186Zm3.93-8.3c0-2.09,1.27-3.31,4.24-3.31a14,14,0,0,1,3.24.38L75,176.63a18.48,18.48,0,0,0-2.92-.29c-1.55,0-2.06.51-2.06,1.73v4.4c0,1.22.51,1.73,2.06,1.73a18.48,18.48,0,0,0,2.92-.29l.25,1.87a14,14,0,0,1-3.24.38c-3,0-4.24-1.22-4.24-3.31ZM80,186.16c-3,0-3.79-1.58-3.79-3.3v-2.11c0-1.72.8-3.3,3.79-3.3s3.79,1.58,3.79,3.3v2.11C83.82,184.58,83,186.16,80,186.16Zm0-6.92c-1.16,0-1.61.5-1.61,1.44v2.25c0,.95.45,1.45,1.61,1.45s1.61-.5,1.61-1.45v-2.25C81.64,179.74,81.19,179.24,80,179.24Zm9.94.14a17.6,17.6,0,0,0-2.31,1.22V186H85.48v-8.37h1.84l.15.93a10,10,0,0,1,2.29-1.1Zm8.73,3.83c0,1.85-.86,2.95-2.89,2.95a12.32,12.32,0,0,1-2.32-.24v3.42l-2.18.33v-12H93l.22.71a4.72,4.72,0,0,1,2.75-.88c1.75,0,2.69,1,2.69,2.91Zm-5.21.94a10.09,10.09,0,0,0,1.93.23c.79,0,1.09-.37,1.09-1.12v-3c0-.68-.27-1.06-1.07-1.06a3.09,3.09,0,0,0-2,.76Z"/><path d="M62.13,221.08l6.55-26.64h6.46l-8.52,34.39H57.84l-6.3-27.68-6.3,27.68H36.46l-8.52-34.39H34.4L41,221.08l6.24-26.64h8.68Z"/><path d="M94.55,228.83H89.39l-.47-1.71a13.73,13.73,0,0,1-7.49,2.22c-4.59,0-6.55-3.15-6.55-7.48,0-5.11,2.22-7.08,7.33-7.08h6v-2.63c0-2.79-.78-3.77-4.8-3.77a35.51,35.51,0,0,0-7,.77l-.78-4.8a33,33,0,0,1,8.63-1.19c7.9,0,10.22,2.79,10.22,9.09Zm-6.3-9.5H83.6c-2.06,0-2.63.57-2.63,2.48,0,1.75.57,2.53,2.53,2.53a9.82,9.82,0,0,0,4.75-1.3Z"/><path d="M112.21,228.83,108.85,239h-6L106,228.83h-2.22l-8-25.15h6.45L108,222.79l5.79-19.11h6.45Z"/><path d="M143.13,220.46c0,5.58-2.47,8.88-8.31,8.88a34.93,34.93,0,0,1-6.71-.72V239l-6.3.88v-36.2h5l.62,2.12a13.24,13.24,0,0,1,7.95-2.64c5.06,0,7.74,3,7.74,8.73Zm-15,2.84a28,28,0,0,0,5.57.67c2.28,0,3.15-1.08,3.15-3.35v-8.88c0-2.07-.77-3.2-3.09-3.2a8.89,8.89,0,0,0-5.63,2.27Z"/><path d="M157.07,229.34c-8.62,0-10.94-4.75-10.94-9.91v-6.35c0-5.16,2.32-9.92,10.94-9.92s11,4.76,11,9.92v6.35C168,224.59,165.7,229.34,157.07,229.34Zm0-20.8c-3.35,0-4.64,1.49-4.64,4.33v6.77c0,2.84,1.29,4.33,4.64,4.33s4.65-1.49,4.65-4.33v-6.77C161.72,210,160.43,208.54,157.07,208.54Z"/><path d="M171.84,200.12v-7.28h6.3v7.28Zm0,28.71V203.68h6.3v25.15Z"/><path d="M198.17,228.83V211.27c0-1.34-.57-2-2-2a17.48,17.48,0,0,0-6.56,2.11v17.46h-6.3V203.68h4.8l.62,2.12a25.21,25.21,0,0,1,10.07-2.64c4.18,0,5.68,3,5.68,7.44v18.23Z"/><path d="M222.75,228.36a17.49,17.49,0,0,1-5.53,1c-4.59,0-6.92-2.16-6.92-6.66v-14h-3.77v-5h3.77v-6.25l6.3-.87v7.12h6.46l-.42,5h-6v13.17a2,2,0,0,0,2.27,2.22,12.1,12.1,0,0,0,3.15-.52Z"/><polygon class="cls-1" points="212.83 41.05 191.02 78.83 169.21 41.05 212.83 41.05"/><polygon class="cls-1" points="96.39 66.27 81.84 66.27 118.22 129.29 103.67 154.5 38.17 41.05 110.95 41.05 147.34 104.08 154.61 91.48 125.5 41.05 154.61 41.05 169.17 66.27 183.72 91.48 147.34 154.5 96.39 66.27"/></svg>