<svg id="LOGOS" xmlns="http://www.w3.org/2000/svg" viewBox="0 0 180 258"><path d="M62.15,194.56h6.76L58.64,228.94H49L38.76,194.56h6.76l8.32,28.65Z"/><path d="M87.7,228.94H82.54l-.46-1.7a13.76,13.76,0,0,1-7.49,2.22C70,229.46,68,226.31,68,222c0-5.11,2.22-7.07,7.33-7.07h6v-2.63c0-2.79-.77-3.77-4.8-3.77a35.51,35.51,0,0,0-7,.77l-.77-4.8a32.87,32.87,0,0,1,8.62-1.19c7.9,0,10.22,2.79,10.22,9.09Zm-6.3-9.5H76.76c-2.07,0-2.63.57-2.63,2.48s.56,2.53,2.53,2.53a9.89,9.89,0,0,0,4.74-1.29Z"/><path d="M97.62,203.8v17.55c0,1.35.56,2,2,2a17.39,17.39,0,0,0,6.56-2.12V203.8h6.29v25.14h-4.8l-.62-2.11A25.14,25.14,0,0,1,97,229.46c-4.19,0-5.68-2.94-5.68-7.44V203.8Z"/><path d="M115.84,228.94V193.53l6.3-.88v36.29Z"/><path d="M140.93,228.48a17.39,17.39,0,0,1-5.53,1c-4.59,0-6.91-2.17-6.91-6.66v-14h-3.77v-5h3.77v-6.25l6.3-.87v7.12h6.45l-.41,5h-6V222a2,2,0,0,0,2.27,2.22,12.13,12.13,0,0,0,3.15-.51Z"/><path d="M45.46,186.13V181.3H41.05v4.83H38.79v-11.6h2.26v4.86h4.41v-4.86h2.26v11.6Zm10.52,0H54.19l-.16-.57a4.85,4.85,0,0,1-2.59.74c-1.59,0-2.27-1.05-2.27-2.49,0-1.7.77-2.36,2.54-2.36H53.8v-.87c0-.93-.27-1.26-1.66-1.26a13.08,13.08,0,0,0-2.42.26l-.27-1.6a11.94,11.94,0,0,1,3-.39c2.74,0,3.54.93,3.54,3ZM53.8,183H52.19c-.71,0-.91.19-.91.82s.2.84.87.84a3.46,3.46,0,0,0,1.65-.43Zm6.75,3.33a10.76,10.76,0,0,1-3-.48l.3-1.6a10,10,0,0,0,2.6.36c1,0,1.11-.21,1.11-.84s-.11-.77-1.52-1.1c-2.13-.5-2.38-1-2.38-2.63s.77-2.42,3.25-2.42a11.8,11.8,0,0,1,2.61.29l-.21,1.67a16,16,0,0,0-2.4-.24c-.95,0-1.11.2-1.11.72s.06.72,1.24,1c2.43.62,2.66.93,2.66,2.65S63.18,186.3,60.55,186.3Zm10-.17v-5.84c0-.45-.2-.67-.7-.67a6.21,6.21,0,0,0-2.27.7v5.81H65.39V174.37l2.19.32v3.71a7.92,7.92,0,0,1,3.18-.81c1.45,0,2,1,2,2.47v6.07Zm4-9.55v-2.05h2.18v2.05Zm0,9.55v-8.37h2.18v8.37Zm3.93-8.3c0-2.1,1.27-3.31,4.24-3.31a14,14,0,0,1,3.23.37l-.25,1.88a17.32,17.32,0,0,0-2.91-.3c-1.56,0-2.06.52-2.06,1.74v4.4c0,1.21.5,1.73,2.06,1.73a18.36,18.36,0,0,0,2.91-.29l.25,1.87a14,14,0,0,1-3.23.38c-3,0-4.24-1.22-4.24-3.32Zm12.3,8.47c-3,0-3.8-1.58-3.8-3.3v-2.11c0-1.72.81-3.3,3.8-3.3s3.79,1.58,3.79,3.3V183C94.58,184.72,93.77,186.3,90.79,186.3Zm0-6.92c-1.17,0-1.61.49-1.61,1.44v2.25c0,.94.44,1.44,1.61,1.44s1.61-.5,1.61-1.44v-2.25C92.4,179.87,92,179.38,90.79,179.38Zm9.93.13a16.87,16.87,0,0,0-2.3,1.22v5.4H96.23v-8.37h1.85l.14.93a10,10,0,0,1,2.29-1.1Zm8.73,3.83c0,1.86-.86,3-2.88,3a12.34,12.34,0,0,1-2.33-.24v3.42l-2.18.32v-12h1.74l.21.71a4.65,4.65,0,0,1,2.75-.88c1.76,0,2.69,1,2.69,2.9Zm-5.21.95a10.09,10.09,0,0,0,1.93.22c.79,0,1.1-.36,1.1-1.11v-3c0-.69-.27-1.06-1.08-1.06a3.19,3.19,0,0,0-2,.75Z"/><path d="M25.71,28.54,89.77,157.11,154.29,28.54Zm71.68,25.8h7.45V61.8H97.39ZM82.55,84.16H75.09V76.7h7.46Zm0-11.18H75.09V65.52h7.46Zm0-11.18H75.09V54.34h7.46ZM93.73,95.34H86.27V87.88h7.46Zm0-11.18H86.27V76.7h7.46Zm0-11.18H86.27V65.52h7.46Zm0-11.18H86.27V54.34h7.46Zm3.66,3.72h7.45V73H97.39Zm.06,18.64V76.7h7.46v7.46Z"/></svg>