<?xml version="1.0" encoding="UTF-8" standalone="no"?>
<svg id="svg96" xmlns:rdf="http://www.w3.org/1999/02/22-rdf-syntax-ns#" xmlns="http://www.w3.org/2000/svg" xml:space="preserve" height="626.85" width="383.9" version="1.1" xmlns:cc="http://creativecommons.org/ns#" xmlns:dc="http://purl.org/dc/elements/1.1/" viewBox="0 0 383.90149 626.84998"><metadata id="metadata2"><rdf:RDF><cc:Work rdf:about=""><dc:format>image/svg+xml</dc:format><dc:type rdf:resource="http://purl.org/dc/dcmitype/StillImage"/></cc:Work></rdf:RDF></metadata><style id="style4" type="text/css">
	.st0{display:none;}
	.st1{fill-opacity:0.35;}
	.st2{display:inline;fill:#FFFFFF;stroke:#000000;stroke-width:19;stroke-miterlimit:10;}
	.st3{display:inline;}
	.st4{fill:none;stroke:#000000;stroke-width:19;stroke-miterlimit:10;}
	.st5{display:inline;fill:none;stroke:#000000;stroke-width:19;stroke-miterlimit:10;}
	.st6{display:inline;fill:#FFFFFF;stroke:#000000;stroke-width:22.3391;stroke-miterlimit:10;}
	.st7{fill-opacity:0.3;}
	.st8{fill:#FFFFFF;stroke:#000000;stroke-miterlimit:10;}
	.st9{display:inline;fill:#FFFFFF;stroke:#000000;stroke-width:15.2803;stroke-miterlimit:10;}
	.st10{fill:#FFFFFF;stroke:#000000;stroke-width:19;stroke-miterlimit:10;}
	.st11{fill:none;stroke:#000000;stroke-width:19;stroke-linecap:round;stroke-miterlimit:10;}
	.st12{display:inline;fill:#FFFFFF;stroke:#000000;stroke-width:12;stroke-miterlimit:10;}
	.st13{display:inline;fill:#FFFFFF;}
	.st14{display:inline;fill:none;stroke:#000000;stroke-width:14.4734;stroke-linecap:round;stroke-miterlimit:10;}
		.st15{display:inline;fill:#FFFFFF;stroke:#000000;stroke-width:14.4734;stroke-linecap:round;stroke-linejoin:round;stroke-miterlimit:10;}
	.st16{fill:#FFFFFF;}
</style><g id="g26" display="none" class="st0" transform="translate(-164.35 -84.05)"><title id="title6">Artboard 4</title><path id="path8" fill-opacity=".35" class="st1" d="m612.4 85.7h-424.7c-35.2 0-63.7 28.6-63.6 63.8v50.5h-5.4c-19.6 0-35.5 15.9-35.5 35.5v25c0 19.6 15.9 35.5 35.5 35.5h5.4v56.2h-5.4c-19.6 0-35.5 15.9-35.5 35.5v25c0 19.6 15.9 35.5 35.5 35.5h5.4v50.6c0.1 35.1 28.5 63.6 63.6 63.6h3.3l10.2 34.7c5.8 19.5 23.7 32.9 44.1 33h32.2c20.4-0.1 38.3-13.5 44.1-33l10.2-34.6h139.6l10.2 34.7c5.9 19.5 23.8 32.8 44.1 32.9h32.3c20.4-0.1 38.3-13.5 44.1-33l10.2-34.7c35.2 0 63.6-28.5 63.6-63.7v-349.3c0.1-35.1-28.4-63.7-63.5-63.7zm-499.1 174.8v-25c0-2.9 2.4-5.3 5.3-5.3h69.6v35.5h-69.6c-2.9 0.1-5.3-2.3-5.3-5.2zm41 35.5h33.8v56.2h-33.8zm-41 116.7v-25c0-2.9 2.4-5.3 5.3-5.3h69.6v35.6h-69.6c-2.9 0-5.3-2.4-5.3-5.3zm179.4 175.9c-2 6.7-8.1 11.3-15.1 11.4h-32.2c-7 0-13.1-4.6-15.1-11.3l-7.7-26.1h77.9zm265.4 11.3h-32.2c-7 0-13.1-4.6-15.1-11.3l-7.7-26.1h77.9l-7.7 26c-2.1 6.8-8.2 11.4-15.2 11.4zm87.6-101.1c0 18.4-15 33.4-33.4 33.4h-424.6c-18.4 0-33.4-15-33.4-33.4v-50.6h33.8v33.2c0 8.4 6.8 15.1 15.1 15.1h393.3c8.4 0 15.1-6.8 15.1-15.1v-314.5c0-8.4-6.8-15.1-15.1-15.1h-393.3c-8.4 0-15.1 6.8-15.1 15.1v33.1h-33.8v-50.6c0-18.5 14.9-33.5 33.4-33.5h424.7c18.5 0 33.4 15 33.4 33.5v349.4zm-64-138.3h-45.9c-0.3 0-0.5-0.2-0.5-0.5v-68.1c0-0.3 0.2-0.5 0.5-0.5h45.9zm0-99.3h-45.9c-17 0-30.8 13.8-30.8 30.8v68c0 17 13.8 30.8 30.8 30.8h45.9v75.6h-363v-284.4h363z"/><rect id="rect10" class="st2" height="439" width="528" stroke="#000" stroke-miterlimit="10" y="99" x="136" stroke-width="19" display="inline" fill="#fff"/><g id="g14" class="st3" display="inline"><rect id="rect12" height="314" width="391" stroke="#000" stroke-miterlimit="10" y="168" x="205" stroke-width="19" class="st4" fill="none"/></g><rect id="rect16" class="st5" height="85.5" width="74" stroke="#000" stroke-miterlimit="10" y="283" x="521.5" stroke-width="19" display="inline" fill="none"/><rect id="rect18" class="st2" height="58.5" width="100.5" stroke="#000" stroke-miterlimit="10" y="368.5" x="101" stroke-width="19" display="inline" fill="#fff"/><rect id="rect20" class="st2" height="58.5" width="100.5" stroke="#000" stroke-miterlimit="10" y="214.2" x="102" stroke-width="19" display="inline" fill="#fff"/><polygon id="polygon22" display="inline" stroke="#000" points="312.5 540.3 300.4 614.3 222.5 614.3 210.5 540.3" stroke-miterlimit="10" stroke-width="22.339" class="st6" fill="#fff"/><polygon id="polygon24" display="inline" stroke="#000" points="586.3 540.3 574.2 614.3 496.3 614.3 484.3 540.3" stroke-miterlimit="10" stroke-width="22.339" class="st6" fill="#fff"/></g><g id="g56" display="none" class="st0" transform="translate(-164.35 -84.05)"><path id="path28" fill-opacity=".3" class="st7" d="m254.1 378.1c4.2 7.2 13.4 9.7 20.6 5.6l31.8-18.2c7.5 7.5 16.8 12.9 27.1 15.6v36.7c0 8.4 6.8 15.1 15.1 15.1s15.1-6.8 15.1-15.1v-36.8c10.3-2.7 19.6-8.1 27.1-15.6l31.8 18.2c7.3 4.1 16.5 1.6 20.6-5.7 4.1-7.2 1.6-16.3-5.5-20.5l-31.8-18.2c2.9-10.2 2.9-21.1 0-31.3l31.8-18.2c7.2-4.2 9.6-13.5 5.4-20.7-4.2-7.1-13.3-9.6-20.5-5.5l-31.7 18.2c-7.5-7.5-16.8-12.9-27.1-15.6v-36.7c0-8.4-6.8-15.1-15.1-15.1s-15.1 6.8-15.1 15.1v36.7c-10.3 2.7-19.6 8.1-27.1 15.6l-31.8-18.2c-7.3-4.1-16.5-1.6-20.6 5.7-4.1 7.2-1.6 16.3 5.5 20.5l31.8 18.2c-2.9 10.2-2.9 21.1 0 31.3l-31.8 18.2c-7.3 4.1-9.8 13.4-5.7 20.6 0 0 0 0.1 0.1 0.1zm94.6-83.8c16.1 0 29.2 13.1 29.2 29.2s-13.1 29.2-29.2 29.2-29.2-13.1-29.2-29.2 13.1-29.2 29.2-29.2z"/><g id="g36" display="inline" class="st3" stroke="#000" stroke-miterlimit="10" fill="#fff"><path id="path30" d="m1425.2 302.4c-23.4-0.6-21.5-18.7-21.5-18.7l-1.5-172.7 187.5-0.3-0.1 177.3s1.4 20.8-18.8 20.7c-20.6-0.1-18.4-19-18.4-19v-52.3s1.6-12-15.5-12.2-17.7 9.9-17.7 9.9l-0.1 92.5s2.2 15.7-18.4 15.7-18.7-15.9-18.7-15.9v-118s0.6-16.3-17.7-16.3c-18.4 0-18.4 16.3-18.4 16.3l-0.6 74.5s1.9 18-21.5 18.7" class="st8"/><path id="path32" d="m1061.6 104.9 1.1 122.9s-2.9 17.3 19.7 18.3c22.6-1 20.9-18.3 20.9-18.3l0.6-74.1s0-16.2 18.4-16.2 17.7 16.2 17.7 16.2v117.4s-1.9 15.8 18.7 15.8 18.4-15.6 18.4-15.6l0.1-91.9s0.6-10 17.7-9.8 15.5 12.2 15.5 12.2v52.1s0.2 18.5 18.4 18.9c25.4-0.8 24.1-38.1 24.1-38.1s-1.3 21.8 16 22.3c13.7 0.2 12.4-19.9 12.4-19.9l0.1-49.5s-2.7-22.5 13.7-22.5 17.6 22.5 17.6 22.5v114s2.5 18 21.3 19.5 20.1-16.5 20.1-16.5l0.9-174.5z" class="st8"/><polygon id="polygon34" class="st8" points="1224 124.4 1347.8 117.2 1348 91.9 1409 96.9 1409.3 119.5 1582.5 131.4 1582.5 85.4 1068.5 93.9 1068.5 119.4"/></g><path id="path38" d="m298.6 406.2v103s4 16.2 17.3 15c13-1.2 14.4-17 14.4-17v-46s1.8-13 13.7-12c11.8 1 11.1 14 11.1 14v100s1.2 19 15 19 13.1-20 13.1-20l-0.3-111.8s-0.9-17.7 12.4-17.7c5.1 0 11.7 5.2 12 13 0.7 17 1 39.5 1 39.5s-2.5 22.5 13 22c14.9-0.5 14.7-19.3 14.7-19.3l0.6-114.3-24.8 23.9-35.3 18.7-26.6 3.7-25.5-2.8z" class="st9" stroke="#000" stroke-miterlimit="10" stroke-width="15.28" display="inline" fill="#fff"/><g id="g50" display="inline" class="st3" stroke="#000" stroke-miterlimit="10" stroke-width="19"><circle id="circle40" class="st10" cy="323.5" cx="348.7" r="96.7" fill="#fff"/><line id="line42" y2="418.6" y1="228.4" stroke-linecap="round" x2="348.7" x1="348.7" class="st11" fill="none"/><line id="line44" y2="371" y1="276" stroke-linecap="round" x2="266.3" x1="431" class="st11" fill="none"/><line id="line46" y2="371" y1="276" stroke-linecap="round" x2="431" x1="266.3" class="st11" fill="none"/><circle id="circle48" class="st10" cy="323.5" cx="348.7" r="50" fill="#fff"/></g><ellipse id="ellipse52" rx="15.2" ry="23.4" stroke="#000" class="st12" cy="590.8" cx="426" stroke-miterlimit="10" stroke-width="12" display="inline" fill="#fff"/><ellipse id="ellipse54" rx="15.2" ry="23.4" stroke="#000" class="st12" cy="739.4" cx="1052.9" stroke-miterlimit="10" stroke-width="12" display="inline" fill="#fff"/></g><g id="g80" display="none" class="st0" transform="translate(-164.35 -84.05)"><path id="path58" display="inline" fill="#fff" class="st13" d="m555.3 541.1s9.6 47.7 46.1 50.9-38.6 63.8-105.1-3.2c0 0-34.8 83.1-89 11.3 0 0-47.7 77.7-92.7 1.1 0 0-46.6 68.6-88.4 3.8 0 0-56.3 62.2-104-5.9 0 0 55.7-8 60-40.7s-1.6-278.7-1.6-278.7 22.5-176.9 178.5-186 188.7 159.2 188.7 159.2z"/><path id="path60" display="inline" class="st3" d="m342.5 88.8c41.7-6 85.1 3.8 121.1 26.8 31 19.6 56.5 48.7 73.4 82.5 15.3 30.4 23.6 64.6 24.4 99 0.1 1.9 0.4 3.8 0.4 5.6v220.6c0 2.2-0.1 4.4 0.2 6.6 0.5 3.9 0 7.8 0.8 11.7 1.1 5.3 2.5 10.7 5.1 15.4 7.2 14.2 21 23.8 35.6 27 3 0.7 6.5 0.6 8.8 3.2 3.6 3.5 3.2 10.5-0.9 13.4-2 1.2-3.2 3.5-4.8 5.2-12.7 15.1-31.5 23.8-50.4 24.6-21.4 1.4-43.3-7.3-58-24-2.4 4.1-5 8.1-8.3 11.7-3.2 3.8-7.1 6.7-10.9 9.5-3 1.5-5.8 3.5-9 4.7-8.8 3.9-18.6 4.7-28 3.7-13.5-1.8-26-9-35.1-19.7-10.2 16.4-28.4 26.8-47 26.4-5.3 0.3-10.5-1.1-15.5-2.2-12.1-3.7-22.9-11.9-30.2-22.7-7.8 10.9-19.4 18.4-31.9 21.4-9.7 2.2-20 1.9-29.5-1.4-7.6-2.5-14.5-6.8-20.4-12.4-2-1.7-3.5-4.1-5.5-5.9-12.2 11.4-28.2 18.2-44.5 19.1-18.4 1.3-37.3-4.6-51.6-17.1-4.3-3.6-8-7.8-11.4-12.4-1.3-1.8-1.6-4.1-2.9-6-2.5-3.8-1.3-9.4 2.3-11.9 2.4-1.9 5.6-1.5 8.4-1.9 10.6-1.5 20.8-6.3 28.9-13.6 9.6-8.7 16.2-21.7 16.3-35.2 0.5-12.7 0.1-25.4 0.2-38.1v-199c0.2-2.8-0.5-5.7-0.4-8.5 1.1-30.3 7.9-60.4 20.2-87.8 13.7-30.6 34.2-57.8 59.6-78.3 26.5-21.4 57.8-35.5 90.5-40m14.4 16.2c-25.6 1.6-50.8 9.6-73.2 22.8-21.4 12.6-40.3 30.1-55.2 50.7-23.3 31.9-36.9 71.5-39.1 111.8 0.3 8.3 0.1 16.7 0.2 25v148.9c-0.1 25.6 0.2 51.2-0.1 76.7-0.4 11.7-3.8 23.2-9.9 33-9.3 15.5-24.7 26.3-41.3 30.9 5.3 5.1 11.4 9.2 18.1 11.9 8.7 3.7 18.3 4.7 27.6 3.9 12.8-1.1 25.2-7 34.4-16.5 1.6-1.4 1.4-3.9 2.8-5.5 2.5-3.5 7.7-4.4 11.1-1.9 2.1 1.4 3.1 4 4.4 6.1 1.8 2.8 3.8 5.5 6 7.9 5.2 5.7 12.1 9.4 19.4 11.1 3.8 0.9 7.7 0.8 11.5 0.7 14.2-0.9 27.4-10.7 33-24.6 2.2-6.4 11.3-8.1 15.4-3 1.7 2 2.1 4.8 3.4 7.2 4.9 10.1 13.7 17.9 23.9 21.1 4.2 1 8.5 1.9 12.8 1.6 14-0.3 27.5-9.2 33.7-22.5 1.6-2.8 2-6.3 4-8.9 2.7-3.6 8.3-4.1 11.6-1.2 1.7 1.3 2.3 3.6 3.6 5.2 1.4 1.8 2.5 3.8 3.9 5.6 7.6 9.7 19.2 16 31.2 15.5 6.3 0.1 12.8-1.4 18.3-4.8 5.8-3.3 11-8.1 14.7-14 1.8-2.8 2.7-6.1 4.3-9 1.1-1.7 0.6-4 1.6-5.7 1.7-3.9 6.2-5.9 10-4.4 3.1 1 4.8 4.1 6.8 6.7 3.4 5.7 8 10.6 13.2 14.6 17.1 13 40.9 14.7 59.8 5.1 4.4-2.2 8.4-5.3 12.3-8.5-10.3-3.9-19.6-10.3-27.3-18.5-6.7-7.4-12-16.5-14.7-26.4-1.9-6-2.4-12.4-3-18.7v-226.8c0-1.9-0.4-3.8-0.4-5.7-0.1-18.8-2.5-37.6-7.4-55.7-10.3-39.1-32.1-74.8-61.8-100.5-13.8-11.7-29.2-21.7-45.7-28.3-23.8-10.2-49-14.5-73.9-12.9z"/><path id="path62" display="inline" class="st3" d="m441.4 296.9c-9.5 3.3-20 3.8-29.8 1.1-11.6-3.1-22-10.4-28.7-20.4-6.3-9.2-9.4-20.5-8.7-31.6 0.6-11 5-21.8 12.3-30.2 0.5-0.6 1.2-0.9 1.9-1.1 16.7-4.6 33.4-9.3 50.1-14 1.3-0.4 2.6 0.4 3.9 0.8 12 4.4 22.1 13.5 27.7 24.9 4.2 8.5 6 18.2 5 27.6-1.1 11.1-6.1 21.9-13.9 30-5.4 5.9-12.3 10.3-19.8 12.9z"/><path id="path64" display="inline" class="st3" d="m300.2 299.4c-11.6-1.2-22.6-6.5-30.8-14.9-12.2-12.3-17.4-31.1-12.9-47.9 4.1-16.7 17.4-30.9 33.9-35.8 17.1 4.3 34.1 9.1 51.2 13.6 1.6 0.2 2.5 1.7 3.4 2.8 4.9 6.1 8.4 13.2 10 20.9 2.4 10.3 1.3 21.5-3 31.2-4.2 9.8-11.6 18.1-20.8 23.4-9.2 5.5-20.3 7.9-31 6.7z"/><path id="path66" d="m282.8 345.2s78 36.2 163.2 0" class="st14" stroke="#000" stroke-linecap="round" stroke-miterlimit="10" stroke-width="14.473" display="inline" fill="none"/><path id="path68" stroke-linejoin="round" d="m149.3 428.8s-30.6-18.5-57.3 10.4c-15.1 20.6-19.1 43.6-19.1 43.6l23.5-13.9 3.9 26.3 18.3-15 10.4 21.1s9.7-34.1 19-31.7c9.4 2.3 15.3-28.6 1.3-40.8z" class="st15" stroke="#000" stroke-linecap="round" stroke-miterlimit="10" stroke-width="14.473" display="inline" fill="#fff"/><path id="path70" stroke-linejoin="round" d="m647.6 389.2s-15.9-34.1-41.2-30.8c-25.4 3.4-9.4 19.3-9.4 19.3s-24.8 6-9.8 20.6-17 5.3-4.9 17.7 19.2 23.3 41 20.2c-0.1 0.1 35.9-8.2 24.3-47z" class="st15" stroke="#000" stroke-linecap="round" stroke-miterlimit="10" stroke-width="14.473" display="inline" fill="#fff"/><path id="path72" display="inline" class="st3" d="m742.1 226.3c8.8-22.8 22.9-53.1 23-53.4 1.4-3.1 0.1-6.7-3-8.1s-6.7-0.1-8.1 3c-0.1 0.2-6.9 14.8-14 31.4l-10.3-20.2c-1.5-3-5.2-4.2-8.2-2.7s-4.2 5.2-2.7 8.2l14.7 28.8c0.1 0.2 0.2 0.4 0.4 0.6-1.1 2.7-2.2 5.4-3.2 8-6.3 16.3-7.9 26.7-8.2 32.7l-32.9 38-4.4-25.9c-0.6-3.3-3.8-5.6-7.1-5s-5.6 3.7-5 7.1l6.1 35.8-49.8 57.6c-1.1 1.3-1.6 2.9-1.5 4.6 0.2 1.7 1 3.2 2.3 4.2l6.7 5.3c1.3 1 2.9 1.5 4.5 1.3s3.1-1 4.1-2.3l86.1-110.3 32.7-16.3c3-1.5 4.3-5.2 2.8-8.2s-5.2-4.3-8.2-2.8l-22.7 11.3-0.7-0.5c0.9-5.1 2.8-12.4 6.6-22.2z"/><g id="g76" class="st3" display="inline"><path id="path74" d="m587.3 421.3-10.8 14.9c-1.1 1.3-1.6 2.9-1.5 4.6 0.2 1.7 1 3.2 2.3 4.2l6.7 5.3c1.3 1 2.9 1.5 4.5 1.3s3.1-1 4.1-2.3l13.8-17.6h-11.6z"/></g><path id="path78" display="inline" class="st3" d="m624.1 371.3 8.9 8.8c15.4-15.6 28.4-33.2 38.8-52.5 0.1 0.1 0.3 0.2 0.4 0.3 23.3 16 55.2 10.2 71.3-13 2-2.8 1.2-6.7-1.6-8.7-18.5-12.7-43.1-12-60.7 1.8 4.1-9.6 7.5-19.6 10.2-29.7 0.2 0.1 0.4 0.3 0.6 0.4 25 13.2 56 3.6 69.2-21.4 1.6-3 0.4-6.8-2.6-8.4-21.5-11.3-48-6-63.5 12.7 1.2-6.4 2.1-12.8 2.8-19.2 21.5-16.5 26.4-46.9 11.2-69.3-1.9-2.9-5.8-3.6-8.7-1.7 0 0-0.1 0-0.1 0.1-22.7 15.4-29.2 45.9-14.8 69.3-0.3 2.9-0.6 5.8-1 8.6-5.6-20.8-23.5-35.8-45-37.8-3.4-0.3-6.5 2.2-6.8 5.7-2.5 28.2 18.3 53.1 46.5 55.7h0.6c-2.8 10.8-6.4 21.3-10.7 31.6-2.6-22.6-19.6-40.8-42-44.7-3.4-0.6-6.6 1.7-7.2 5-4.8 27.1 12.8 53.2 39.7 58.9-9.6 17.4-21.5 33.4-35.5 47.5zm104.8-58.2c-11.4 11.5-28.8 14.7-43.6 8 11.4-11.5 28.8-14.7 43.6-8zm17.7-55.8c-10 12.8-26.9 18-42.4 13.1 10-12.8 26.9-18 42.4-13.1zm-72.9 2.1c-15.7-4.3-27-17.9-28.4-34 15.7 4.2 27 17.8 28.4 34zm-35.1 36.6c-4.5-6.5-7-14.2-7-22.1 15.2 5.7 25.3 20.2 25.3 36.4-7.4-2.9-13.8-7.8-18.3-14.3zm52.6-89.4c1.5-7.8 5.3-14.9 11.1-20.5 6.6 14.8 3.2 32.2-8.4 43.5-3.3-7.2-4.2-15.2-2.7-23z"/></g><g id="g94" fill="#ff9600" transform="translate(-163.02 -80.066)"><ellipse id="ellipse82" cy="698" cx="366.6" rx="9.7" ry="12.9"/><path id="path84" d="m543.4 166.2c-61-26.7-121.8-53.8-182.4-81.1-2.8-1.4-6.1-1.4-8.8 0-61.1 27.1-122.1 54.2-183.1 81.2-3.1 0.8-5.1 3.8-4.7 6.9 0.4 41.6 0 83.2 0.4 124.7 0.2 52.8 16.1 104.2 45.5 147.8 0 0.9-0.1 1.8-0.1 2.5-0.8 9.6 5.6 26.1 13.6 19.9 0.9-0.7 1.6-1 2.2-1.2 1.2 1.5 2.4 2.9 3.6 4.3 0.7 4.5 0.1 11.3 0.2 15.1 0.1 7 1.1 25.1 15 18.1 3.8-1.9 6.5-5 8.5-8.5 1 0.9 1.9 1.8 2.9 2.6 0.1 1.3 0.4 2.6 0.8 4.1 2.6 9.8 1.1 81 1.1 81s1.7 15.7 12.2 15.7 11.3-15.7 11.3-15.7v-47.9s2.2-8.8 12.9-6.1 10.7 13.5 10.7 13.5v107.6s1.3 11.1 11.3 11.1c9.1 0 10.5-12.8 10.5-12.8l5.5-104.5c4.9 1.8 9.9 3.5 15 5 2.6 0.8 5.4 1.3 8.1 1.3l0.4 56.7s1.2 26.5 14.4 26c13-0.5 13.1-27.8 13.1-27.8v-41.8s2.5-13 10.3-13 9.8 10.7 9.8 16.5 1 20.8 1.4 24.5 4.8 10.9 12 11c7.1 0.1 11.5-10.7 11.5-14.5s0.8-50 0.8-50-0.8-17.5 10.2-18.6c13.9-1.5 10.7 8.5 12.7 11.4s5 3.5 8.5 3.7 10.3-4.2 11-12.9c0.4-5.5 1.4-25.8 2-39.8 5.6-6 11-12.4 16-19 38-47.8 58.6-107.1 58.4-168.1v-53.9c-0.2-22.4-0.2-44.9 0.1-67.3 0.4-3.3-1.6-6.5-4.8-7.7zm-28.3 32.4v100.5c0.2 33-7.1 65.4-20.8 95-16.8 40.5-39.5 73.5-46.2 73.7-3.3 0.1-4.6 3-6.4 7.4-2 4.8-4.2 11.5-6.8 12.9-4 2.2-5.5 1.7-10 2.1-7.6 0.7-6 21.2-7.9 26.7-0.6 1.7-2.7 6.5-6.8 7.5-1.9 0.5-4.5-0.3-6.8-2.2-4.3-3.4-2.3-12.9-8.3-17.1-10.4-7.4-16.6 7-16.6 7v15.6s-0.4 11.7-6.6 9.4c-6.2-2.2-5.2-15.5-5.2-15.5v-12.5c-1 0.3-2 0.6-3.1 1-4.8 1.5-10 1.5-14.8 0-5.6-1.7-11.1-3.6-16.4-5.8-0.5 4.1-1.3 9.1-2.6 10.1-2.5 1.8-6.5 2.5-10.5-0.2-3.7-2.5-5.7-11.4-6.1-17.5 0-0.5 0-0.9-0.1-1.3-28.2-14.8-52.8-36.1-71.5-62.4-28.5-38-43.9-84.2-44.2-131.6-0.4-34.5 0-68.9 0-103.4-0.3-2.6 1.3-5 3.8-5.7 50.4-22.3 100.9-44.8 151.4-67.4 2.3-1.2 5-1.2 7.3 0 50.4 22.6 100.8 45 151.2 67.2 2.8 1 4.4 3.7 4 6.5z"/><path id="path88" d="m359.5 155c-1.9-1-4.2-1-6.2 0-42.7 19-85.2 37.9-127.8 56.8-2 0.7-3.3 2.6-3.2 4.7v87.3c0.1 9.5 0.8 19.1 2.3 28.5 1.5 9.3 3.6 18.4 6.4 27.4l202.5-171.7z"/><path id="path90" d="m487.1 211.7-23.7-10.5-220.6 186.8c2.3 4.4 4.7 8.8 7.3 13v22.7s-1.1 8.3 5.2 9.7c6.2 1.4 6.6-5.9 6.6-5.9v-9.6c3.4 4.4 7 8.7 10.8 12.8l176.3-149.2v6.1s-1.1 8.3 5.2 9.7c6.2 1.4 6.6-5.9 6.6-5.9v-19.9l9.6-8.1c0.8 1.4 2 2.6 4 3 6.2 1.4 6.6-5.9 6.6-5.9v-6.2l9.4-8v-29.3c0.4-2.3-1-4.6-3.3-5.3z"/><path id="path92" d="m490.5 285-196.1 166.1c3.4 2.7 7 5.2 10.6 7.7 0.1 0.3 0.3 0.7 0.4 1.1 1.4 3.8 7.8 11.6 12.6 8.4 2.4-1.6 6.4 3.9 6.4 6.8s2.3 6.8 7.3 6.8c3.7 0 5.9-2.7 7.1-5.7 3.7 1.4 7.4 2.6 11.1 3.7 4.1 1.3 8.4 1.3 12.5 0 11.4-3.4 22.4-8 32.7-13.6v17.3s2.5 6.6 8.2 6.6c5 0 7.3-4.2 8-8.4 0.7-4.1 1.5-22.5 4.8-25.2 3.3-2.8 4.9 6.8 15.3 6.9 8.2 0.1 9.4-18.4 16.5-34.3 2.7-6 15.5-29.7 15.5-29.7 17.7-29.3 27.1-63.1 27-97.7 0.1-5.5 0.1-11.2 0.1-16.8z"/></g></svg>
