<?xml version="1.0" encoding="UTF-8"?>
<svg width="544px" height="136px" viewBox="0 0 544 136" version="1.1" xmlns="http://www.w3.org/2000/svg" xmlns:xlink="http://www.w3.org/1999/xlink">
    <g id="Artboard" stroke="none" stroke-width="1" fill="none" fill-rule="evenodd">
        <g id="Group">
            <rect id="Rectangle" x="0" y="0" width="544" height="136"/>
            <g id="logo-pepephone-(2)-(2)" transform="translate(9.000000, 23.000000)">
                <path d="M350.8,74.8 C351.1,70.7 351.5,66.6 351.8,62.5 C352.3,56.9 352.5,52.2 352.5,48.3 C352.5,34.1 349.1,27.1 342.3,27.1 C326.2,27.1 316.3,27.9 312.4,29.6 C313,20.6 313.3,10.8 313.2,0.1 L299,1.6 C299.1,13 298.1,37.6 295.7,73.9 L309.9,73.5 C310.5,62.7 310.9,54.6 311.1,48.8 C311.1,47.9 311.5,47.1 312.2,46.5 C314.8,44.3 336.4,42.5 337.9,43.3 C339.4,44.1 339.2,45.5 339.2,49.7 C339.2,53 339,57.7 338.4,63.9 C338.1,67.5 337.7,71 337.4,74.5 L350.8,74.8 Z" id="_Trazado__2_" fill="#000000" fill-rule="nonzero"/>
                <path d="M398.4,59.5 C396.6,61.2 393.1,60.5 383.9,60.7 C377.7,60.8 372.5,60.9 370.1,60.8 C368.9,60.7 368.2,58.1 368.1,56.9 C368,53.5 368.4,47.9 368.6,45.3 C368.6,44.5 369.6,42.3 370.4,42 C374.9,40.5 380.8,41 388.2,41 C393.4,41 401.1,40.3 401.1,43.7 C401.1,43.7 400.5,57.4 398.4,59.5 Z M413.8,39.6 C413,32.5 406.1,26.4 397.2,26.4 C396.2,26.4 373.6,26.4 368.1,27.9 C364,29 360.7,31.2 359.1,34.4 C357.7,37.2 356.5,41.1 356,48.4 C355.9,50.8 355.8,52.8 355.8,54.6 C355.8,61.3 356.8,66.3 358.9,69.2 C360.9,72.2 367.1,74.1 372,74.1 L388.9,74.1 C399,74 408.6,70.8 410.2,62.8 C411.1,58.5 413.9,50.4 413.9,42.8 C413.9,41.8 413.9,40.7 413.8,39.6 L413.8,39.6 Z" id="_Trazado_compuesto__2_" fill="#000000" fill-rule="nonzero"/>
                <path d="M104.9,52.1 C107.8,52 110.5,50.7 112.3,48.4 C113.8,46.5 114.6,44.1 115,37.5 C115.5,29.6 113.2,24 107.8,20.8 C104.2,18.5 99.5,17.5 93.6,17.5 C85.6,17.5 78.6,18.6 75.2,20.2 C68.8,23.4 64.1,31.8 63.1,41.7 L59.7,41.9 C59,30.5 54.7,26.8 46.8,26.8 C43.2,26.6 39.6,26.6 36.1,26.8 C32.8,27.1 29.5,27.6 26.3,28.3 C22.4,29.2 19.2,32.9 17.1,34.6 L16.9,28.3 L2.3,29.6 C2.6,33.8 3.1,39.8 3.1,44.8 C3.1,49.4 2.3,64.4 0.8,89.9 L14.9,89.9 C15.4,81.3 15.8,75.4 16,72.2 C20.5,73.4 25.1,73.9 29.7,73.8 C35.2,73.7 40.8,73.3 46.3,72.7 C50.1,72.3 53.2,70 55.6,66 C57.3,63 58.5,59.7 59.1,56.3 L64.2,56 C64.6,57.8 65,59.5 65.3,60.9 C66.9,67.5 72.4,71.8 77.7,73.9 C80.6,75 85.3,75.6 91.9,75.6 C99.4,75.6 106.8,74.2 113.8,71.5 L112.4,57 C105.8,59.5 99.2,60.3 91.1,60.7 C81.1,61.2 79.9,56.5 77.9,53.5 C83.3,52.9 88.8,52.6 94.3,52.7 C95.2,52.7 104.1,52.1 104.9,52.1 Z M47.8,51.3 C47.7,53.5 46.7,55.7 45.1,57.2 C44.3,57.8 43.5,58.9 37.2,59 C31.4,59.1 20.8,60.2 18.7,58.6 C17.1,57.3 17.3,45.1 18.1,44.3 C20,42.3 23.3,42.4 30.5,41.7 C35,41.3 39.4,41.2 43.9,41.3 C46.7,41.3 48,43.1 48,46.9 C48,47.7 47.9,49.1 47.8,51.3 Z M75.7,41.4 C75.7,41.4 77.2,35.4 77.9,34.6 C80.5,31.3 84.3,30.4 92.2,30.4 C98.6,30.4 102.3,31.1 103.9,33.7 C104.4,34.5 105,40.3 103.2,40.3 C101.1,40.4 75.6,41.6 75.7,41.4 L75.7,41.4 Z" id="Shape" fill="#CC0000"/>
                <path d="M518.8,20.7 C515.2,18.4 510.5,17.4 504.6,17.4 C496.6,17.4 489.6,18.5 486.2,20.1 C479.8,23.3 475.1,31.7 474.1,41.6 L470.5,41.8 C469.6,31.7 466.3,26.6 460.6,26.6 C459.5,26.6 450.2,26.3 448.8,26.3 C439.6,26.3 435.1,27.9 430.2,31.7 L429.8,22.7 L417.4,25.9 C417.6,30.7 417.7,35.2 417.7,39.4 C417.6,50.8 416.8,62.2 415.1,73.5 L427.4,74.1 C428.4,67.7 429,61.8 429.5,56.5 C429.7,54.1 430.2,51.7 430.9,49.4 C431.7,47 433.2,44.9 435.4,43.4 C438.3,41.6 450.5,41.8 454.3,42 C456.4,42.1 458,43.8 458.2,45.9 C458.2,46.6 458.3,47.4 458.3,48.3 C458.3,51 458.1,54.3 457.7,58.3 C457.3,63.4 457.3,68.5 457.7,73.7 L470.5,73.3 C470.2,68 469.8,62.7 470,61 C470.1,59.4 470.3,57.9 470.4,56.4 L475,56.2 C475.4,58 475.8,59.7 476.1,61.1 C477.7,67.7 483.2,72 488.5,74.1 C491.4,75.2 496.1,75.8 502.7,75.8 C510.2,75.8 517.6,74.4 524.6,71.7 L523.2,57.2 C516.6,59.7 510,60.5 501.9,60.9 C491.9,61.4 490.7,56.7 488.7,53.7 C494.1,53.1 499.6,52.8 505.1,52.9 C506,52.9 514.9,52.3 515.6,52.3 C518.5,52.2 521.2,50.9 523,48.6 C524.5,46.7 525.3,44.3 525.7,37.7 L525.9,37.6 C526.5,29.6 524.1,24 518.8,20.7 Z M514.2,40.4 C512,40.4 486.5,41.6 486.6,41.5 C486.7,41.4 488.1,35.5 488.8,34.7 C491.4,31.4 495.2,30.5 503.1,30.5 C509.5,30.5 513.2,31.2 514.8,33.8 C515.4,34.5 516,40.3 514.2,40.4 Z" id="Shape" fill="#000000" fill-rule="nonzero"/>
                <path d="M282.3,51.3 C282.2,53.5 281.2,55.7 279.6,57.2 C278.8,57.8 278,58.9 271.7,59 C265.9,59.1 255.3,60.2 253.2,58.6 C251.6,57.3 251.8,45.1 252.6,44.3 C254.5,42.3 257.8,42.4 265,41.7 C269.5,41.3 273.9,41.2 278.4,41.3 C281.2,41.3 282.5,43.1 282.5,46.9 C282.5,47.7 282.4,49.1 282.3,51.3 M294.3,50.5 C294.4,48.8 294.4,47.1 294.4,45.6 C294.4,31.3 290.1,26.7 281.4,26.7 C277.8,26.5 274.2,26.5 270.7,26.7 C267.4,27 264.1,27.5 260.9,28.2 C257,29.1 253.8,32.8 251.7,34.5 L251.5,28.2 L236.9,29.5 C237.2,33.7 237.7,39.7 237.7,44.7 C237.7,49.3 236.9,64.3 235.4,89.8 L249.5,89.8 C250,81.2 250.4,75.3 250.6,72.1 C255.1,73.3 259.7,73.9 264.3,73.8 C269.8,73.7 275.4,73.3 280.9,72.7 C284.7,72.3 287.8,70 290.2,66 C292.7,61.1 294.1,55.8 294.3,50.5" id="_Trazado_compuesto_3_2_" fill="#000000" fill-rule="nonzero"/>
                <path d="M221.7,52.1 C224.6,52 227.3,50.7 229.1,48.4 C230.6,46.5 231.4,44.1 231.8,37.5 C232.3,29.6 230,24 224.6,20.8 C221,18.5 216.3,17.5 210.4,17.5 C202.4,17.5 195.4,18.6 192,20.2 C185.6,23.4 180.9,31.8 179.9,41.7 L176.3,41.9 C175.6,30.5 171.3,26.8 163.4,26.8 C159.8,26.6 156.2,26.6 152.7,26.8 C149.4,27.1 146.1,27.6 142.9,28.3 C139,29.2 135.8,32.9 133.7,34.6 L133.5,28.3 L119,29.5 C119.3,33.7 119.8,39.7 119.8,44.7 C119.8,49.3 119,64.3 117.5,89.8 L131.6,89.8 C132.1,81.2 132.5,75.3 132.7,72.1 C137.2,73.3 141.8,73.8 146.4,73.7 C151.9,73.6 157.5,73.2 163,72.6 C166.8,72.2 169.9,69.9 172.3,65.9 C174,62.9 175.2,59.6 175.8,56.2 L181.1,55.9 C181.5,57.7 181.9,59.4 182.2,60.8 C183.8,67.4 189.3,71.7 194.6,73.8 C197.5,74.9 202.2,75.5 208.8,75.5 C216.3,75.5 223.7,74.1 230.7,71.4 L229.3,56.9 C222.7,59.4 216.1,60.2 208,60.6 C198,61.1 196.8,56.4 194.8,53.4 C200.2,52.8 205.7,52.5 211.2,52.6 C212.1,52.7 221,52.1 221.7,52.1 Z M164.5,51.3 C164.4,53.5 163.4,55.7 161.8,57.2 C161,57.8 160.2,58.9 153.9,59 C148.1,59.1 137.5,60.2 135.4,58.6 C133.8,57.3 134,45.1 134.8,44.3 C136.7,42.3 140,42.4 147.2,41.7 C151.7,41.3 156.1,41.2 160.6,41.3 C163.4,41.3 164.7,43.1 164.7,46.9 C164.7,47.7 164.6,49.1 164.5,51.3 L164.5,51.3 Z M192.5,41.4 C192.5,41.4 194,35.4 194.7,34.6 C197.3,31.3 201.1,30.4 209,30.4 C215.4,30.4 219.1,31.1 220.7,33.7 C221.2,34.5 221.8,40.3 220,40.3 C218,40.4 192.5,41.6 192.5,41.4 L192.5,41.4 Z" id="Shape" fill="#CC0000"/>
            </g>
        </g>
    </g>
</svg>