<svg width="286" height="40" viewBox="0 0 286 40" fill="none" xmlns="http://www.w3.org/2000/svg">
<path fill-rule="evenodd" clip-rule="evenodd" d="M197.81 17.5166C197.767 17.5166 197.661 17.5208 197.506 17.5287C197.287 17.5394 196.582 17.5656 195.619 17.6013C192.835 17.7047 187.903 17.8877 186.391 18.0078C185.713 18.0617 185.035 18.1255 184.358 18.1997C184.475 18.3805 184.587 18.5744 184.702 18.7743L184.715 18.7962L184.734 18.8295C184.847 19.0276 184.964 19.2317 185.093 19.4354C185.162 19.5432 185.233 19.6509 185.309 19.7579C185.991 20.7199 187.028 21.6132 189.253 21.8035C189.747 21.8457 190.3 21.8532 190.921 21.8188C192.427 21.7359 193.833 21.624 195.174 21.4503C197.408 21.1614 199.462 20.7017 201.501 19.9249L202.218 27.2741C198.747 28.6519 195.052 29.3537 191.324 29.3442C188.043 29.3442 185.704 29.0316 184.275 28.4654C183.283 28.077 182.282 27.5286 181.376 26.8177C180.47 26.1069 179.659 25.2335 179.044 24.1952C178.942 24.0219 178.846 23.8441 178.754 23.6621C178.573 23.2973 178.415 22.9143 178.285 22.5131C178.219 22.3125 178.161 22.1073 178.11 21.8971C178.024 21.4747 177.918 21.0167 177.804 20.5231C177.723 20.1725 177.638 19.804 177.553 19.4176L175.446 19.4926L175.4 21.5407C175.355 22.0816 175.339 26.7319 175.505 29.42L168.588 29.6418C168.361 27.0594 168.361 24.4642 168.588 21.8826C168.81 19.8648 168.951 16.7154 168.951 15.3745C168.951 15.1457 168.94 14.9277 168.929 14.7204C168.919 14.5325 168.909 14.3534 168.909 14.1832C168.832 13.1357 167.943 12.3026 166.825 12.2304C164.783 12.1131 158.171 11.9958 156.622 12.9268C155.601 13.5753 155.295 14.4955 154.94 15.5645C154.899 15.6858 154.858 15.8091 154.816 15.934C154.62 16.527 154.445 19.1679 154.254 22.0571C154.066 24.8936 153.863 27.9695 153.608 29.5821L146.291 29.6157C146.647 23.0155 146.806 19.224 146.895 13.1407C146.914 11.8678 146.79 10.3858 146.663 8.87898C146.579 7.87398 146.493 6.85795 146.449 5.88558L153.789 5.33138L153.828 8.50568C156.187 5.96972 158.87 4.57284 163.837 4.57284C164.136 4.57284 164.501 4.58175 164.927 4.59219C165.528 4.60691 166.253 4.62465 167.094 4.62465C168.532 4.72911 169.581 4.72911 170.185 4.72911C172.986 4.72911 174.708 7.78692 175.353 12.2653L177.072 12.2047C177.159 11.2696 177.311 10.3606 177.523 9.4893C178.441 5.71563 180.473 2.66155 183.077 1.36C183.811 0.998546 184.894 0.693055 186.212 0.463418C186.589 0.397926 186.984 0.338652 187.397 0.28601C188.016 0.207253 188.671 0.143005 189.355 0.095751C189.811 0.064663 190.28 0.0402071 190.758 0.0240414C191.237 0.00787563 191.725 0 192.221 0C195.15 0 197.489 0.513988 199.271 1.65305C199.601 1.8574 199.909 2.08041 200.194 2.32248C200.337 2.4431 200.473 2.56911 200.604 2.69927C200.997 3.09056 201.339 3.52372 201.629 3.99792C202.209 4.94755 202.585 6.06382 202.757 7.34216C202.843 7.98174 202.879 8.66153 202.865 9.38194C202.86 9.62194 202.85 9.8665 202.834 10.1152C202.697 12.4244 202.464 13.7305 202.092 14.6263C201.99 14.8704 201.878 15.0839 201.755 15.2791C201.674 15.4093 201.587 15.5311 201.494 15.6485C201.383 15.7923 201.265 15.9291 201.14 16.0584C201.015 16.1877 200.883 16.3088 200.746 16.4223C200.334 16.7626 199.87 17.0308 199.374 17.2161C199.209 17.2779 199.04 17.3309 198.868 17.374C198.525 17.4607 198.17 17.5092 197.81 17.5166ZM183.444 12.1198C183.581 12.1189 183.817 12.1131 184.131 12.1032C184.445 12.0936 184.837 12.0791 185.288 12.0621C187.079 11.994 189.79 11.8765 192.161 11.7737C194.562 11.6697 196.615 11.5807 197.009 11.5734C197.385 11.5647 197.544 11.0018 197.583 10.3357C197.594 10.1455 197.595 9.94691 197.589 9.75002C197.586 9.65179 197.581 9.55396 197.574 9.45821C197.56 9.26629 197.54 9.08184 197.516 8.91521C197.468 8.58194 197.401 8.32039 197.335 8.21428C197.135 7.89055 196.872 7.62402 196.539 7.40682C195.541 6.75397 193.92 6.54174 191.517 6.54174C188.32 6.54174 186.451 6.85096 185.175 7.85407C185.077 7.93117 184.982 8.01241 184.891 8.0978C184.708 8.26899 184.538 8.45718 184.378 8.6636C184.272 8.79997 184.125 9.18878 183.973 9.65883C183.912 9.8466 183.851 10.0476 183.791 10.2507C183.768 10.3276 183.746 10.4051 183.723 10.4824L183.702 10.5558C183.471 11.3649 183.282 12.1198 183.282 12.1202L183.307 12.1135C183.306 12.1181 183.353 12.1202 183.444 12.1198Z" fill="black"></path>
<path fill-rule="evenodd" clip-rule="evenodd" d="M141.743 1.70972C139.962 0.570659 137.623 0.0566708 134.694 0.0566708C130.727 0.0566708 127.228 0.590141 125.549 1.41667C122.345 3.01832 120.006 7.2753 119.544 12.2614L116.142 12.5366V19.7743L120 19.4999C120.086 19.8898 120.171 20.2615 120.253 20.6149C120.366 21.105 120.472 21.5605 120.557 21.9799C121.371 25.3387 124.075 27.5128 126.722 28.5478C128.151 29.1144 130.49 29.4269 133.771 29.4269C137.498 29.4365 141.194 28.7347 144.665 27.3565L143.948 20.0077C140.686 21.2508 137.385 21.6806 133.368 21.902C129.032 22.1404 128.003 20.3458 127.167 18.8902C127.046 18.6781 126.928 18.4733 126.805 18.2829C129.512 17.9866 139.846 17.599 140.205 17.599C141.647 17.5696 143 16.884 143.89 15.7312C144.627 14.7936 145.031 13.5567 145.229 10.198L145.203 10.4587C145.459 6.47489 144.39 3.34371 141.743 1.70972ZM139.487 11.6301C139.017 11.6301 136.301 11.7496 133.407 11.877C129.719 12.0393 125.743 12.2143 125.761 12.1706C125.767 12.1561 125.796 12.0437 125.843 11.8673C126.047 11.0895 126.58 9.06943 126.857 8.71406C128.138 7.06059 130.06 6.5922 133.996 6.5922C137.2 6.5922 139.013 6.9694 139.814 8.26473C140.064 8.69457 140.353 11.6106 139.487 11.6301Z" fill="black"></path>
<path d="M278.524 3.41192L275.58 12.9145L268.381 2.67203L261.614 5.93047L272.754 21.7418C272.282 26.1944 271.25 29.5134 269.606 30.3851C266.821 31.8632 264.192 31.8711 262.609 31.8758C262.516 31.8761 262.427 31.8764 262.342 31.8769L262.331 38.2093C265.501 38.589 271.883 37.2087 273.652 36.1816C273.759 36.1193 273.866 36.0591 273.973 35.9989C275.887 34.9189 277.76 33.8627 280.395 21.9018C280.535 21.2676 285.957 3.42685 285.957 3.42685L278.524 3.41192Z" fill="black"></path>
<path d="M233.068 14.2769C232.684 8.72753 230.891 4.7292 227.688 4.7292C227.399 4.7292 226.103 4.69355 224.749 4.65631C223.268 4.61558 221.717 4.57293 221.34 4.57293C216.374 4.57293 213.691 5.96982 211.331 8.50577L211.293 5.33148L203.952 5.88567C203.996 6.85696 204.082 7.87181 204.166 8.87571C204.293 10.3836 204.417 11.867 204.399 13.1408C204.309 19.2241 204.15 23.0156 203.794 29.6158L211.111 29.5822C211.365 27.9702 211.569 24.896 211.757 22.0604C211.948 19.1699 212.123 16.5273 212.319 15.9341C212.362 15.8089 212.403 15.6854 212.443 15.5638L212.444 15.5624C212.799 14.4944 213.105 13.5749 214.126 12.9269C215.675 11.9959 222.287 12.1132 224.329 12.2305C225.446 12.3027 226.335 13.1358 226.412 14.1829C226.412 14.5414 226.454 15.3741 226.454 15.3741L233.068 14.2769Z" fill="black"></path>
<path fill-rule="evenodd" clip-rule="evenodd" d="M261.89 13.2933C261.857 13.7364 261.637 16.8042 261.433 19.6808C261.568 20.3026 260.788 31.83 260.629 32.5513C259.739 35.9125 256.785 38.0845 253.896 39.1208C252.337 39.6849 249.887 40 246.304 40C242.232 40.0082 237.453 39.0217 233.662 37.6414L233.731 36.9823L234.425 30.4746L234.445 30.2926C234.553 30.3293 234.772 30.4082 235.016 30.4962C235.404 30.6357 235.855 30.798 236.025 30.8514C239.318 31.8876 242.701 32.269 246.745 32.4721C249.765 32.6259 251.211 31.9502 252.174 31.0632C252.892 30.4037 253.371 29.6414 253.712 27.7471C252.619 28.1989 250.987 28.4186 246.012 28.4062C242.197 28.3975 239.507 27.8462 237.932 27.2908C237.238 27.0425 236.63 26.5654 236.104 25.9357C234.802 24.3813 234.006 21.8777 233.7 19.5275C233.557 18.4207 233.52 17.3426 233.594 16.4141C233.875 12.771 234.071 10.7437 235.002 9.04045C236.153 6.96336 238.519 5.8902 240.931 5.30989C245.118 4.30223 254.222 4.91155 255.867 5.25145C257.854 5.66222 259.282 6.76066 260.531 8.33579C261.78 9.90677 262.061 11.0798 261.89 13.2933ZM255.295 17.0943C255.308 16.8207 255.32 16.572 255.332 16.3482L255.336 16.2659C255.367 15.6252 255.389 15.1667 255.373 14.8684C255.373 14.1509 255.279 13.571 255.091 13.1271C255.022 12.97 254.94 12.8332 254.851 12.7088C254.516 12.2529 254.014 12.0245 253.341 12.0245C252.231 11.9959 251.117 11.9959 250.007 12.029C249.452 12.0456 248.897 12.0705 248.342 12.1037C247.787 12.1368 247.236 12.1779 246.681 12.2239C246.037 12.2891 245.456 12.3411 244.933 12.3879C244.359 12.4393 243.852 12.4847 243.404 12.5347C243.261 12.5472 243.122 12.5638 242.992 12.5799C242.727 12.6176 242.486 12.6549 242.261 12.7001C242.041 12.742 241.837 12.7959 241.649 12.8535C241.184 13.0031 240.817 13.2141 240.515 13.525C240.319 13.7285 240.192 15.3161 240.209 16.9613C240.217 18.0435 240.286 19.1503 240.446 19.9047C240.474 20.0497 240.511 20.1824 240.548 20.298C240.621 20.5306 240.707 20.696 240.813 20.7789C240.927 20.8659 241.098 20.9409 241.311 20.999C241.927 21.1689 242.914 21.2141 244.045 21.2062C244.551 21.2021 245.085 21.1855 245.628 21.1648C245.654 21.164 245.679 21.1633 245.705 21.1626C245.836 21.1589 245.968 21.1551 246.097 21.1482C246.664 21.1248 247.236 21.0959 247.785 21.0683C247.916 21.0616 248.046 21.0551 248.174 21.0487C248.844 21.0155 249.468 20.9903 250.015 20.9824C250.986 20.9658 251.692 20.9032 252.214 20.8162C252.847 20.7088 253.215 20.5679 253.463 20.4228C253.629 20.3323 253.742 20.2393 253.844 20.1556C253.873 20.1319 253.901 20.109 253.929 20.087C254.087 19.9295 254.238 19.7592 254.373 19.5814C254.41 19.5353 254.439 19.4943 254.471 19.4483C254.949 18.7648 255.23 17.9523 255.275 17.1022L255.295 17.0943Z" fill="black"></path>
<path fill-rule="evenodd" clip-rule="evenodd" d="M56.0917 5.00309C56.2399 5.35625 56.3652 5.72807 56.468 6.1177C56.6732 6.8978 56.7883 7.75044 56.8136 8.67479C56.8202 8.90609 56.821 9.14153 56.8161 9.38194C56.8112 9.62194 56.8006 9.86609 56.7846 10.1152C56.761 10.5193 56.7336 10.8912 56.7038 11.2369C56.701 11.2663 56.6985 11.2961 56.6961 11.3251C56.6655 11.6634 56.632 11.9768 56.5953 12.2653C56.5374 12.7171 56.4708 13.1108 56.3953 13.4578C56.3452 13.6891 56.2905 13.8996 56.2317 14.0936C56.0264 14.7705 55.7677 15.2381 55.4453 15.6485C55.2234 15.9357 54.9728 16.1939 54.6994 16.4203C54.0154 16.9861 53.1883 17.3529 52.3072 17.4735C52.1314 17.498 51.953 17.5125 51.7735 17.5166C51.5715 17.5166 41.7503 17.9067 40.3934 18.0149C39.7148 18.0688 39.0374 18.1326 38.3604 18.2064C38.4834 18.3967 38.6009 18.6015 38.7226 18.8135C39.1393 19.5397 39.6044 20.3502 40.5036 20.9508C40.7619 21.1233 41.0558 21.2783 41.3949 21.4088C41.734 21.5398 42.118 21.6459 42.5558 21.7214C42.9937 21.7968 43.4859 21.8408 44.0412 21.8466C44.3191 21.8495 44.6121 21.8428 44.9227 21.8254C47.9363 21.6596 50.546 21.3765 53.0389 20.7208C53.8698 20.5023 54.6875 20.2424 55.5029 19.9315L56.2207 27.2803C52.7492 28.6582 49.0536 29.3603 45.3263 29.3504C44.9162 29.3504 44.5211 29.3458 44.1404 29.3359C43.3426 29.3156 42.613 29.2733 41.9433 29.2124C40.3755 29.0698 39.1533 28.819 38.2772 28.4716C37.7809 28.2772 37.2827 28.0434 36.7954 27.769C35.3329 26.9458 33.9679 25.7591 33.0468 24.2014C32.9444 24.0281 32.8477 23.8507 32.7567 23.6683C32.5751 23.3036 32.4172 22.921 32.2866 22.5197C32.2217 22.3187 32.1634 22.1135 32.1124 21.9034C32.0268 21.4837 31.9216 21.0289 31.8084 20.539C31.7267 20.1855 31.6408 19.8138 31.5549 19.4238L29.0363 19.5602C28.96 19.9883 28.8661 20.4128 28.7555 20.8323C28.6445 21.2509 28.5172 21.6654 28.3731 22.0737C28.0846 22.8899 27.7304 23.6824 27.3126 24.4422C26.0883 26.5056 24.5633 27.6451 22.6793 27.8532C19.9419 28.1893 17.189 28.3784 14.4316 28.4194C12.1252 28.4662 9.82403 28.1856 7.59389 27.5862C7.58999 27.6439 7.58598 27.7036 7.58183 27.7653C7.57253 27.9037 7.56259 28.0517 7.55186 28.2068L7.54574 28.3029C7.51473 28.7647 7.47882 29.3031 7.43923 29.9174L7.43066 30.0443C7.39026 30.6673 7.34578 31.3657 7.29722 32.1384C7.21765 33.4051 7.12828 34.8675 7.02993 36.5305H0C0.756166 23.6741 1.16628 16.0712 1.16628 13.7475C1.16628 12.8099 1.132 11.806 1.08099 10.8054C1.02917 9.77407 0.959388 8.74609 0.890423 7.79936C0.866575 7.46904 0.842843 7.14843 0.820082 6.84095C0.8 6.56966 0.780675 6.30859 0.762695 6.06009L8.03584 5.40931L8.11297 8.59189C8.35149 8.39618 8.61687 8.15111 8.90649 7.88365C9.26646 7.55123 9.66389 7.18421 10.0938 6.83438C10.288 6.67646 10.4888 6.52226 10.6957 6.37636C11.3168 5.93739 11.9934 5.57263 12.714 5.40931C13.5183 5.23563 14.3263 5.086 15.1388 4.9604C15.9505 4.83439 16.7662 4.73201 17.5844 4.65367C18.4748 4.60061 19.3657 4.57408 20.2569 4.57408C21.1482 4.57408 22.039 4.60061 22.9294 4.65367C24.4001 4.65367 25.6174 4.92227 26.5841 5.56019C26.9061 5.77242 27.2003 6.02651 27.4672 6.32496C27.4816 6.34107 27.4947 6.35882 27.5079 6.3766C27.5195 6.39221 27.5311 6.40783 27.5435 6.42237C28.0393 7.00682 28.438 7.74879 28.7339 8.68516C28.9563 9.39023 29.1203 10.2076 29.2301 11.1382C29.2742 11.5088 29.3117 11.8934 29.3374 12.3021L31.0232 12.2047C31.1958 10.3349 31.6333 8.56785 32.2809 7.00433C32.3886 6.74402 32.5025 6.4891 32.622 6.2404C33.2191 4.99646 33.9564 3.90714 34.8024 3.0288C35.4794 2.32663 36.2266 1.76041 37.0276 1.36C38.7069 0.53347 42.2057 0 46.1726 0C46.5387 0 46.8953 0.00746112 47.243 0.0240414C48.6337 0.0895334 49.8784 0.286424 50.9806 0.629221C51.8069 0.88663 52.5537 1.22611 53.2217 1.65305C54.2142 2.26611 54.9993 3.0487 55.5796 3.99792C55.773 4.3146 55.9436 4.64993 56.0917 5.00309ZM49.7229 11.6157C50.3652 11.5888 50.8169 11.571 50.9851 11.5668C51.4144 11.5573 51.5621 10.8232 51.569 10.0385C51.5698 9.9407 51.5686 9.84204 51.5654 9.74381C51.5429 9.05531 51.427 8.39334 51.3119 8.20764C50.6109 7.07438 49.1348 6.64371 46.6305 6.55376C46.2726 6.54091 45.8935 6.53511 45.4932 6.53511C43.5258 6.53511 42.0613 6.65242 40.9288 6.97615C40.504 7.0976 40.1257 7.24806 39.7854 7.4321C39.5585 7.55521 39.3479 7.69283 39.1517 7.84702C38.8574 8.07873 38.5946 8.34692 38.3543 8.65697C38.3331 8.68433 38.3098 8.72205 38.2857 8.76764C38.2617 8.81365 38.2359 8.86878 38.2094 8.93096C38.1033 9.17925 37.9801 9.54609 37.8585 9.94236C37.5536 10.9339 37.2582 12.1135 37.2582 12.1135H37.2521C37.2431 12.1339 38.24 12.1015 39.7022 12.0439C40.027 12.0311 40.3751 12.017 40.7399 12.002C41.1047 11.9871 41.4867 11.9714 41.8797 11.9548C43.4325 11.8893 45.1586 11.8139 46.691 11.7471C47.679 11.7039 48.5865 11.6643 49.3152 11.6331C49.399 11.6297 49.4806 11.6262 49.5596 11.6227C49.6153 11.6203 49.6698 11.6179 49.7229 11.6157ZM18.1427 12.029C17.0303 12.0605 15.9191 12.1235 14.8099 12.2176C14.1486 12.2846 13.5549 12.337 13.0204 12.3843C11.5533 12.514 10.5313 12.6044 9.77792 12.8468C9.31108 12.9973 8.94708 13.2062 8.6451 13.5195C8.54553 13.6223 8.4631 14.0858 8.40801 14.7345C8.38067 15.0582 8.35985 15.4284 8.3472 15.823C8.30354 17.2024 8.36026 18.8758 8.57369 19.8955C8.60429 20.041 8.63816 20.1732 8.6753 20.2893C8.74916 20.5218 8.8373 20.6897 8.93973 20.7709C9.07889 20.8783 9.30047 20.9595 9.57796 21.0225C10.1995 21.1639 11.1221 21.2074 12.1737 21.1995C12.825 21.1954 13.5241 21.1718 14.2268 21.1415C14.7177 21.1201 15.2106 21.0956 15.6906 21.0718C15.8977 21.0615 16.1024 21.0513 16.3035 21.0416C16.5259 21.0308 16.7438 21.0209 16.9556 21.0118C17.3792 20.9935 17.7791 20.9794 18.1423 20.9728C19.3077 20.9558 20.0921 20.87 20.6389 20.7531C20.7299 20.7336 20.8143 20.7129 20.8931 20.6922C21.3644 20.5657 21.6223 20.4145 21.8105 20.2756C21.863 20.2366 21.91 20.1987 21.9547 20.1626C21.99 20.1342 22.0238 20.1069 22.0578 20.0812C22.4601 19.6878 22.7817 19.224 23.0102 18.717C23.2383 18.2101 23.3734 17.6596 23.4036 17.0934C23.4278 16.4999 23.4536 16.0274 23.4744 15.6459C23.4774 15.5904 23.4804 15.5369 23.4832 15.4851L23.4837 15.4749C23.4965 15.2346 23.5077 15.0254 23.5125 14.8737C23.5125 12.9595 22.8523 12.029 21.4807 12.029C20.9245 12.0132 20.3683 12.0058 19.8117 12.0058C19.2555 12.0058 18.6989 12.0132 18.1427 12.029Z" fill="#CC0000"></path>
<path fill-rule="evenodd" clip-rule="evenodd" d="M113.736 3.99792C114.316 4.94755 114.691 6.06382 114.864 7.34215C114.951 7.98174 114.986 8.66153 114.972 9.38194C114.967 9.62194 114.957 9.8665 114.941 10.1152C114.804 12.4244 114.571 13.7305 114.199 14.6263C114.097 14.8704 113.985 15.0839 113.862 15.2791C113.78 15.4093 113.694 15.5311 113.601 15.6485C113.49 15.7923 113.372 15.9291 113.247 16.0584C113.122 16.1877 112.99 16.3088 112.853 16.4223C112.441 16.7626 111.978 17.0308 111.481 17.2161C111.316 17.2779 111.147 17.3309 110.975 17.374C110.632 17.4607 110.277 17.5092 109.917 17.5166C109.874 17.5166 109.768 17.5208 109.613 17.5287C109.395 17.5394 108.689 17.5656 107.726 17.6013C104.943 17.7047 100.01 17.8877 98.4984 18.0078C97.8198 18.0617 97.142 18.1255 96.4654 18.1997C96.5823 18.3805 96.694 18.5744 96.8091 18.7744L96.8216 18.7962C96.9408 19.0047 97.064 19.2203 97.2003 19.4354C97.2685 19.5432 97.3399 19.6509 97.4158 19.7579C98.0977 20.7199 99.1346 21.6132 101.359 21.8035C101.854 21.8457 102.407 21.8532 103.028 21.8188C104.534 21.7359 105.94 21.624 107.281 21.4503C109.516 21.1614 111.569 20.7017 113.608 19.9249L114.326 27.2741C110.854 28.6519 107.158 29.3537 103.431 29.3442C100.15 29.3442 97.8108 29.0316 96.3821 28.4654C95.3897 28.077 94.3891 27.5286 93.4832 26.8177C92.5768 26.1069 91.7656 25.2335 91.1518 24.1952C91.0494 24.0219 90.9523 23.8441 90.8617 23.6621C90.6797 23.2973 90.5218 22.9143 90.3916 22.5131C90.3263 22.3125 90.2679 22.1073 90.2173 21.8971C90.1312 21.4758 90.0256 21.0192 89.9119 20.5271C89.8306 20.1753 89.7451 19.8055 89.6595 19.4176L87.0449 19.5539C86.7393 21.2663 86.1566 22.916 85.3212 24.436C84.0974 26.499 82.572 27.6385 80.6879 27.8466C79.3192 28.0148 77.9465 28.1458 76.5717 28.2403C75.1964 28.3348 73.8192 28.3925 72.4403 28.4132C70.7158 28.448 68.9937 28.3 67.3022 27.973C66.7382 27.864 66.1779 27.7351 65.6217 27.5867C65.5128 29.1879 65.3141 32.1885 65.0578 36.5305H58.0662C58.1609 34.9234 58.2498 33.3985 58.3335 31.9556C58.3636 31.4391 58.3926 30.9334 58.4211 30.4382C58.4324 30.2414 58.4436 30.0463 58.4547 29.8528C58.9619 21.0084 59.2325 15.6356 59.2325 13.7475C59.2325 13.43 59.2288 13.105 59.2219 12.7751C59.2003 11.7857 59.1497 10.7519 59.0884 9.74712C59.0476 9.07769 59.0019 8.42112 58.957 7.79936C58.9353 7.5004 58.9137 7.20941 58.8929 6.92889C58.8704 6.626 58.8488 6.33533 58.8289 6.06009L66.1025 5.40931L66.1792 8.59189C66.4172 8.39649 66.6818 8.15218 66.9706 7.88556C67.9805 6.95316 69.2857 5.74809 70.7806 5.40931C71.9865 5.149 73.2026 4.94216 74.4256 4.78879C74.8333 4.73781 75.2417 4.69304 75.651 4.65367C76.0958 4.62755 76.5411 4.60724 76.9867 4.59398C77.8775 4.56745 78.7687 4.56745 79.66 4.59398C80.1052 4.60724 80.5504 4.62755 80.9956 4.65367C81.4857 4.65367 81.9477 4.68392 82.3819 4.74693C82.816 4.81035 83.2221 4.90776 83.6 5.04164C83.9782 5.17594 84.328 5.34755 84.6503 5.56061C86.2614 6.62423 87.1755 8.71666 87.404 12.3088L89.1792 12.2047C89.2657 11.2696 89.4183 10.3606 89.6301 9.4893C90.5479 5.71563 92.5805 2.66155 95.1836 1.36C95.9182 0.998546 97.0012 0.693055 98.3193 0.463418C98.6955 0.397926 99.0918 0.338652 99.5039 0.28601C100.123 0.207253 100.778 0.143005 101.462 0.095751C101.918 0.064663 102.387 0.0402071 102.866 0.0240414C103.344 0.00787563 103.832 0 104.329 0C107.257 0 109.596 0.513988 111.378 1.65305C111.709 1.8574 112.016 2.08041 112.301 2.32248C112.444 2.4431 112.58 2.56911 112.711 2.69927C113.104 3.09056 113.445 3.52372 113.736 3.99792ZM95.5513 12.1198C95.6884 12.1189 95.9243 12.1131 96.2381 12.1032C96.5523 12.0936 96.9441 12.0791 97.3946 12.0621C99.1868 11.9939 101.901 11.8763 104.273 11.7735C106.672 11.6695 108.722 11.5807 109.115 11.5734C109.491 11.5647 109.651 11.0018 109.69 10.3357C109.701 10.1455 109.702 9.94691 109.696 9.75002C109.693 9.65179 109.687 9.55396 109.681 9.45821C109.667 9.26629 109.647 9.08184 109.623 8.91521C109.574 8.58194 109.508 8.32039 109.442 8.21428C109.242 7.89055 108.979 7.62402 108.646 7.40682C107.647 6.75397 106.027 6.54174 103.623 6.54174C100.427 6.54174 98.558 6.85096 97.2824 7.85407C97.184 7.93117 97.0893 8.01241 96.9979 8.0978C96.8151 8.26899 96.6449 8.45718 96.4846 8.6636C96.3785 8.79997 96.2316 9.18878 96.0798 9.65883C96.0194 9.8466 95.9577 10.0476 95.8978 10.2507C95.868 10.3519 95.8382 10.4539 95.8092 10.5558C95.6003 11.2864 95.426 11.9726 95.3938 12.0994C95.3903 12.113 95.3885 12.1202 95.3885 12.1202L95.4142 12.1135C95.4126 12.1181 95.4599 12.1202 95.5513 12.1198ZM81.4955 16.4435L81.5004 16.3452C81.5355 15.6642 81.5596 15.1796 81.54 14.8671C81.54 14.1496 81.4474 13.5701 81.2588 13.1262C81.1923 12.9687 81.1115 12.8306 81.0201 12.7071C80.6838 12.2503 80.1831 12.0228 79.5086 12.0228C78.3982 11.9933 77.287 11.9958 76.1766 12.0294C75.6217 12.046 75.0671 12.0708 74.5125 12.1036C73.9579 12.1359 73.4038 12.1761 72.8504 12.2242C72.1899 12.2911 71.597 12.3435 71.063 12.3907C70.5049 12.4401 70.0113 12.4837 69.5723 12.5322C69.4291 12.5479 69.2916 12.5641 69.1598 12.5811C68.8961 12.6155 68.6542 12.6536 68.4318 12.6984C68.2089 12.7423 68.0057 12.7933 67.8188 12.8534C67.3516 13.0039 66.988 13.2132 66.6856 13.5262C66.3628 13.859 66.2175 18.0087 66.6146 19.9017C66.6448 20.0476 66.6787 20.1794 66.7158 20.2959C66.7901 20.528 66.8778 20.6959 66.9802 20.7776C67.432 21.1253 68.6937 21.2169 70.2142 21.2062C70.8655 21.2016 71.5646 21.1784 72.2673 21.1477C72.7356 21.1275 73.2057 21.1042 73.6647 21.0815C73.8944 21.0701 74.1214 21.0589 74.344 21.0482C75.0112 21.0163 75.6388 20.989 76.1828 20.9794C77.154 20.9653 77.8608 20.9032 78.3856 20.8157C79.0156 20.71 79.3841 20.567 79.6343 20.4236C79.7896 20.3351 79.8996 20.2464 79.9985 20.1667C80.0326 20.1392 80.0654 20.1128 80.0983 20.0878C80.2994 19.8909 80.4806 19.6766 80.6398 19.4482C81.1176 18.7626 81.3992 17.9494 81.4441 17.1001L81.4633 17.0934C81.4745 16.8602 81.4854 16.6437 81.4955 16.4435Z" fill="#CC0000"></path>
</svg>
