<?xml version="1.0" encoding="UTF-8"?>
<!-- Generator: Adobe Illustrator 16.0.0, SVG Export Plug-In . SVG Version: 6.00 Build 0)  -->
<!DOCTYPE svg PUBLIC "-//W3C//DTD SVG 1.1//EN" "http://www.w3.org/Graphics/SVG/1.1/DTD/svg11.dtd">
<svg version="1.1" id="Capa_1" xmlns="http://www.w3.org/2000/svg" xmlns:xlink="http://www.w3.org/1999/xlink" x="0px" y="0px" width="595.28px" height="264px" viewBox="0 0 595.28 264" enable-background="new 0 0 595.28 264" xml:space="preserve">
<g>
	<g>
		<path fill-rule="evenodd" clip-rule="evenodd" fill="#C90203" d="M382.811,141.403c-0.831-0.544-1.595-0.322-2.309-0.324    c-6.913-0.02-13.825-0.037-20.738,0.009c-1.321,0.008-1.892-0.12-1.729-1.767c0.896-9.118,1.605-18.252,2.456-27.374    c0.131-1.417-0.122-1.966-1.661-1.885c-3.945,0.208-7.905,0.217-11.824,1.244c1.623,2.701,1.425,5.561,1.348,8.324    c-0.173,6.216-0.613,12.425-0.804,18.642c-0.047,1.496-0.527,1.768-1.896,1.758c-8.417-0.061-16.837,0.035-25.254-0.075    c-2.176-0.029-4.162,0.645-6.243,0.946c-7.39,1.067-14.821,1.588-22.286,1.417c-1.221-0.028-1.449,0.254-1.5,1.399    c-0.194,4.369-0.558,8.729-0.756,13.098c-0.049,1.071-0.343,1.402-1.413,1.397c-8.896-0.036-17.795-0.053-26.691,0.012    c-1.439,0.011-1.493-0.613-1.418-1.719c0.392-5.728,0.734-11.459,1.089-17.188c0.025-0.403,0.004-0.808,0.004-1.408    c-3.281,0.45-6.433,1.24-9.662,1.504c-7.328,0.599-14.638,0.647-21.825-1.081c-5.476-1.316-10.013-4.259-13.545-8.69    c-0.381-0.479-0.782-0.942-1.181-1.407c-0.036-0.042-0.125-0.039-0.34-0.099c-1.782,3.167-3.981,6.062-6.85,8.411    c-4.244,3.476-9.311,4.38-14.559,4.734c-5.52,0.373-11.033,1.026-16.577,0.6c-1.236-0.095-1.294,0.593-1.346,1.475    c-0.244,4.23-0.577,8.458-0.727,12.691c-0.054,1.523-0.546,1.964-2.055,1.953c-8.623-0.066-17.247-0.063-25.87-0.001    c-1.392,0.01-1.737-0.416-1.646-1.742c0.38-5.524,0.643-11.056,1.02-16.581c0.099-1.441-0.125-1.786-1.718-1.45    c-8.917,1.883-17.908,2.1-26.907,0.62c-6.749-1.11-12.294-4.326-16.472-9.801c-0.241-0.316-0.533-0.595-0.93-1.034    c-1.544,2.637-3.201,5.045-5.301,7.104c-4.405,4.319-9.898,5.779-15.863,6.141c-5.591,0.339-11.167,1.015-16.782,0.64    c-1.374-0.092-1.526,0.646-1.581,1.76c-0.212,4.232-0.547,8.458-0.743,12.69c-0.054,1.162-0.261,1.666-1.602,1.656    c-8.76-0.065-17.52-0.057-26.281-0.01c-1.405,0.007-1.639-0.431-1.564-1.805c1.011-18.356,2.623-36.686,2.807-55.08    c0.054-5.387-0.486-10.784-0.874-16.167c-0.091-1.265,0.268-1.84,1.404-2.28c8.336-3.221,16.654-6.488,24.975-9.749    c1.187-0.466,2.365-1.131,2.289,1.112c-0.041,1.216,0.936,0.871,1.652,0.817c5.863-0.438,11.693-1.238,17.576-1.473    c6.471-0.258,12.372,1.011,17.039,5.912c0.827-0.58,0.994-1.503,1.437-2.245c3.888-6.517,9.324-11.082,16.818-12.715    c9.523-2.075,19.12-2.59,28.61,0.181c6.7,1.956,11.96,5.923,15.187,12.232c0.694,1.357,1.402,1.24,2.505,0.798    c4.486-1.799,8.987-3.559,13.776-5.45c-0.544,2.866,0.958,2.9,2.93,2.707c4.965-0.489,9.924-1.033,14.909-1.352    c7.013-0.448,13.498,0.541,18.752,5.991c2.761-5.755,6.684-10.188,12.221-13.004c5.49-2.793,11.472-3.447,17.516-3.614    c6.578-0.181,13.135-0.134,19.363,2.509c5.741,2.436,10.25,6.214,13.003,11.875c0.586,1.206,1.087,1.324,2.295,0.817    c4.088-1.715,8.256-3.241,12.362-4.914c1.106-0.451,1.855-0.597,1.823,0.919c-0.029,1.379,0.846,1.259,1.772,1.188    c6.133-0.474,12.231-1.342,18.39-1.522c3.106-0.09,6.146,0.215,9.062,1.32c1.13,0.429,1.531,0.293,1.579-1.044    c0.247-6.909,0.234-13.818,0.119-20.726c-0.023-1.397,0.286-2.024,1.757-2.297c8.797-1.635,17.583-3.337,26.354-5.107    c1.359-0.274,1.454,0.201,1.449,1.293c-0.042,8.69-0.008,17.38-0.098,26.069c-0.014,1.356,0.256,1.777,1.644,1.665    c5.523-0.446,11.065-0.433,16.604-0.507c5.407-0.072,10.057,1.628,13.774,5.65c0.417,0.451,0.726,1.209,1.619,0.487    c4.648-3.76,10.391-4.33,15.965-5.2c8.812-1.375,17.71-1.111,26.591-0.949c1.929,0.035,3.849,0.41,5.594,1.161    c2.038,0.876,3.882,0.621,5.901,0.001c7.375-2.263,14.8-4.363,22.173-6.634c1.458-0.449,1.832-0.054,1.82,1.282    c-0.017,1.899-0.004,3.798-0.004,5.822c8.637-1.729,16.983-0.896,25.302-0.676c3.909,0.104,6.256,1.492,11.404,5.636    c1.298-2.889,2.842-5.612,4.921-7.979c4.009-4.565,8.977-7.498,14.979-8.596c8.75-1.601,17.503-2.091,26.231,0.139    c11.412,2.916,18.869,12.291,19.238,24.092c0.188,5.989-0.327,11.878-2.331,17.566c-0.29,0.825-0.181,1.628-0.12,2.431    c0.569,7.566,1.128,15.135,1.8,22.693c0.109,1.219-0.251,1.72-1.3,2.106c-3.004,1.105-5.982,2.278-9.12,3.482    c8.369,6.937,10.051,16.374,10.21,26.29c0.156,9.646-0.941,19.247-1.429,28.871c-0.125,2.459-0.338,4.916-0.373,7.375    c-0.02,1.44-0.575,1.824-1.97,1.808c-6.227-0.07-12.455-0.039-18.683-0.02c-0.751,0.002-1.588-0.301-2.012,0.856    c-0.271,0.741-1.228,0.365-1.872,0.367c-6.98,0.023-13.961,0.042-20.941-0.01c-1.291-0.01-1.885,0.246-2.139,1.691    c-0.748,4.257-0.847,4.264-4.883,2.512c-5.941-2.581-11.897-5.136-17.783-7.84c-1.635-0.75-2.835-0.832-4.473,0.149    c-4.735,2.837-10.094,3.145-15.457,3.25c-5.946,0.117-11.894,0.247-17.841,0.387c-3.486,0.083-6.794-0.691-9.94-2.125    c-0.915-0.417-1.775-0.565-2.762-0.49c-11.384,0.869-22.776,1.572-34.191,1.913c-9.195,0.274-17.835-1.313-25.165-7.345    c-0.971-0.799-1.264-0.062-1.764,0.445c-4.835,4.915-10.669,7.127-17.577,6.737c-10-0.563-19.032-9.449-19.686-19.516    c-0.854-13.152,8.995-23.766,21.887-23.536c2.891,0.052,5.701,0.588,8.348,1.843c0.595,0.283,1.379,0.827,1.586-0.499    c0.531-3.388,1.536-6.653,2.808-9.828C378.889,146.987,380.688,144.113,382.811,141.403z M517.723,109.827    c8.894-0.769,17.339-1.338,25.836-0.697c5.217,0.394,8.228-1.82,9.906-6.738c1.229-3.603,1.606-7.359,1.68-11.107    c0.177-9.05-3.606-15.704-13.929-17.795c-5.778-1.171-11.561-0.772-17.35-0.056c-3.657,0.453-7.086,1.442-9.99,3.832    c-4.731,3.896-6.603,9.239-7.418,15.037c-0.237,1.684-0.464,2.884-2.54,2.761c-0.817-0.049-1.571,0.209-1.568,1.402    c0.012,4.583-0.046,9.166-0.114,13.749c-0.013,0.866,0.203,1.151,1.149,1.148c1.119-0.004,2.506-0.896,3.28,0.033    c0.669,0.802,0.652,2.18,0.931,3.305c0.164,0.663,0.287,1.337,0.472,1.994c1.705,6.029,5.109,10.525,11.348,12.379    c3.438,1.022,6.995,1.134,10.553,1.258c7.811,0.271,15.393-0.865,22.747-3.504c0.716-0.256,1.349-0.482,1.25-1.539    c-0.454-4.887-0.828-9.781-1.233-14.696c-0.294,0.025-0.51,0-0.694,0.066c-8.376,2.964-16.993,3.999-25.821,3.119    C523.096,113.466,520.084,112.731,517.723,109.827z M230.325,109.651c6.454-1.449,12.769-0.729,19-1.033    c2.889-0.14,5.872,0.348,8.786,0.13c2.993-0.223,5.371-1.967,6.672-4.604c1.815-3.679,1.938-7.827,2.555-11.818    c0.422-2.733-0.146-5.426-0.823-8.037c-0.73-2.823-2.094-5.49-4.43-7.267c-3.773-2.868-8.11-4.458-12.939-4.352    c-5.1,0.112-10.205-0.366-15.286,0.769c-3.098,0.691-5.955,1.718-8.3,3.817c-3.985,3.565-5.919,8.171-6.748,13.411    c-0.284,1.797-0.052,4.558-3.359,4.248c-0.636-0.059-0.672,0.54-0.697,1.035c-0.215,4.288-0.482,8.573-0.632,12.862    c-0.081,2.304,0.228,2.427,2.443,1.928c0.802-0.181,1.947-0.82,2.358,0.612c0.59,2.054,0.985,4.171,1.679,6.187    c1.548,4.503,4.002,8.231,8.599,10.305c3.692,1.665,7.629,1.893,11.501,2.211c3.423,0.281,6.891-0.019,10.373-0.44    c4.461-0.541,8.721-1.664,13.008-2.802c1.193-0.317,1.737-1.079,1.787-2.519c0.14-4.123-0.889-8.141-0.88-12.229    c0.004-1.922-0.989-1.811-2.207-1.373c-1.773,0.638-3.649,0.965-5.394,1.571c-2.139,0.743-4.306,0.507-6.426,0.927    c-5.422,1.072-10.85,0.939-16.175-0.446C233.219,112.335,231.417,111.748,230.325,109.651z M115.309,109.743    c6.588-1.594,12.98-0.789,19.279-1.142c2.739-0.153,5.603,0.389,8.371,0.151c3.034-0.26,5.703-1.496,6.995-4.641    c0.822-2,1.316-4.065,1.84-6.161c0.937-3.751,0.758-7.49,0.503-11.195c-0.207-2.992-1.379-5.901-3.477-8.193    c-3.441-3.759-7.931-5.603-12.884-5.784c-5.634-0.207-11.297-0.561-16.924,0.673c-3.728,0.817-7.129,2.207-9.556,5.095    c-3.244,3.862-5.208,8.397-5.547,13.525c-0.111,1.681-0.649,2.963-2.688,2.777c-1.077-0.098-1.393,0.394-1.388,1.444    c0.019,4.447-0.027,8.895-0.075,13.343c-0.013,1.214,0.178,1.761,1.637,1.215c2.023-0.756,3.03-0.264,3.222,1.689    c0.148,1.516,0.628,2.9,1.018,4.312c1.208,4.375,3.7,7.828,7.604,10.275c3.841,2.407,8.23,2.544,12.468,2.93    c5.414,0.491,10.805-0.23,16.164-1.343c2.516-0.522,4.938-1.314,7.423-1.903c1.646-0.39,2.718-1.313,1.895-3.316    c-0.583-1.417-0.345-2.971-0.396-4.469c-0.081-2.385-0.099-4.751-0.612-7.126c-0.358-1.657-1.074-1.604-2.254-1.156    c-1.691,0.642-3.448,1.039-5.192,1.5c-2.081,0.551-4.198,0.458-6.241,0.881c-5.429,1.124-10.821,0.957-16.152-0.292    C118.609,112.427,116.82,111.612,115.309,109.743z M155.61,141.469c0,1.778,0.039,3.557-0.015,5.333    c-0.031,1.029,0.296,1.489,1.394,1.462c2.255-0.056,4.514-0.062,6.769,0c1.277,0.036,1.702-0.603,1.731-1.732    c0.118-4.429,0.046-8.854,0.777-13.264c0.383-2.309,0.634-2.727,2.836-2.114c4.31,1.198,8.757,1.273,13.133,0.969    c4.474-0.311,8.959-0.257,13.445-0.921c4.055-0.601,7.033-2.457,9.11-5.609c3.581-5.435,4.6-11.729,5.044-18.089    c0.362-5.182-0.233-10.321-1.633-15.31c-1.268-4.514-4.504-8.988-10.965-8.965c-5.395,0.021-10.722,0.635-16.075,1.026    c-3.427,0.25-6.829,0.7-10.214,1.436c-1.262,0.274-2.622,3.057-4.194,0.353c-0.03-0.051-0.484,0.129-0.733,0.221    c-1.954,0.725-3.877,1.546-5.866,2.159c-2.353,0.726-2.951,2.096-2.895,4.579c0.188,8.337,0.494,16.72-0.153,25.015    C156.497,125.833,156.776,133.692,155.61,141.469z M281.414,131.099c1.471,0.29,2.67,0.544,3.876,0.759    c8.324,1.486,16.626,0.466,24.938-0.197c5.079-0.405,8.556-3.099,10.667-7.518c5.078-10.623,5.304-21.674,1.914-32.734    c-1.828-5.968-5.798-8.236-12.08-7.946c-3.685,0.17-7.391,0.321-11.031,0.857c-5.812,0.855-12.004-0.079-17.54,3.824    c0.436-1.992-0.448-1.782-1.467-1.375c-2.28,0.911-4.537,1.895-6.859,2.685c-1.255,0.427-1.639,1.049-1.52,2.354    c0.804,8.879,0.316,17.759-0.15,26.633c-0.491,9.349-1.039,18.694-1.653,28.035c-0.109,1.67,0.424,2.1,1.996,1.993    c1.908-0.128,3.837-0.13,5.744,0c1.658,0.113,2.226-0.393,2.285-2.132C280.705,141.286,281.1,136.245,281.414,131.099z     M94.921,104.718c0.228-5.021-0.215-10.12-2.466-14.898c-1.963-4.166-4.971-6.681-9.907-6.56c-4.975,0.123-9.93,0.26-14.875,0.916    c-4.855,0.645-9.914,0.225-14.337,2.953c-0.282,0.174-0.819,0.419-0.876,0.072c-0.321-1.962-1.452-0.715-2.121-0.492    c-2.278,0.762-4.521,1.632-6.747,2.539c-0.776,0.316-1.314,0.917-1.215,1.905c0.164,1.626,0.005,3.257,0.285,4.898    c0.542,3.17,0.791,6.43,0.365,9.592c-1.049,7.795-0.739,15.653-1.305,23.471c-0.417,5.765-1.255,11.539-1.021,17.354    c0.035,0.868-0.232,1.831,1.228,1.794c2.461-0.063,4.925-0.034,7.387-0.009c0.845,0.008,1.308-0.291,1.249-1.181    c-0.305-4.592,1.03-9.078,0.855-13.67c-0.094-2.488,0.475-2.905,2.856-2.254c4.13,1.129,8.392,1.341,12.559,0.995    c4.604-0.383,9.221-0.319,13.84-0.896c4.851-0.605,7.888-3.14,10.067-6.874C94.227,118.403,95.206,111.747,94.921,104.718z     M461.613,192.651c6.64-0.136,12.054,0.24,17.39-0.851c1.655-0.338,3.267-0.779,4.521-2.051    c5.094-5.158,8.189-11.346,9.866-18.372c1.056-4.426,1.027-8.901,1.052-13.365c0.016-2.82-0.293-5.722-2.3-8.047    c-2.329-2.698-5.343-4.096-8.839-4.145c-6.567-0.094-13.138,0.002-19.707,0.037c-0.539,0.002-1.08,0.117-1.615,0.21    c-2.587,0.453-5.159,1.001-7.759,1.358c-6.716,0.924-9.866,3.78-11.166,10.458c-0.474,2.435-0.466,4.871-0.87,7.271    c-1.143,6.799-0.911,13.478,0.913,20.159c1.096,4.008,5.112,7.307,9.298,7.332C455.887,192.667,459.376,192.651,461.613,192.651z     M403.161,131.091c0-0.165,0.001-0.328,0.001-0.491c5.054,0,10.108,0.061,15.161-0.019c4.643-0.072,8.72-1.356,11.435-5.561    c2.489-3.855,4.796-7.81,6.224-12.171c1.986-6.068,2.153-12.383,1.698-18.667c-0.372-5.113-3.351-8.333-8.348-9.644    c-1.933-0.507-3.91-0.797-5.881-0.703c-9.061,0.432-18.177,0.008-27.137,2.024c-4.719,1.062-8.244,3.284-9.384,8.225    c-2.095,9.07-2.869,18.238-1.121,27.443c1.204,6.346,4.749,9.217,11.21,9.547C399.062,131.178,401.114,131.091,403.161,131.091z     M554.07,166.618c0.186-5.117,0.054-10.25-1.654-15.245c-1.722-5.037-5.367-8.173-9.47-8.738    c-6.091-0.839-11.847,0.407-16.8,4.321c-0.563,0.445-1.024,0.617-1.632,0.229c-3.252-2.077-6.66-1.795-10.127-0.678    c-0.895,0.288-1.98,1.013-2.666,0.744c-2.868-1.128-5.785-0.215-8.649-0.529c-0.909-0.1-1.602,0.051-1.628,1.236    c-0.088,3.953-1.097,7.842-0.82,11.826c0.066,0.951,0.062,1.932-0.1,2.867c-0.949,5.513-0.779,11.126-1.536,16.651    c-0.432,3.148-0.576,6.341-1.438,9.429c-0.31,1.112-0.241,1.861,1.183,2.483c2.135,0.933,4.396,1.604,6.41,2.858    c1.052,0.654,1.827,0.013,2.013-1.181c0.448-2.864,1.116-5.697,1.566-8.546c0.815-5.163,1.293-10.389,1.698-15.604    c0.293-3.762,2.733-6.686,6.488-7.238c1.501-0.221,3.231,0.8,3.397,2.217c0.298,2.552,1.101,5.027,0.924,7.661    c-0.168,2.521-0.173,5.069-0.022,7.592c0.242,4.058-0.815,8.005-0.831,12.038c-0.004,1.229,0.298,1.713,1.596,1.663    c2.323-0.09,4.652-0.022,6.979-0.029c0.611-0.001,1.238,0.07,1.344-0.842c0.188-1.621,0.616-3.229,0.654-4.85    c0.179-7.456,0.292-14.915,0.063-22.374c-0.019-0.61,0.061-1.326-0.223-1.804c-0.684-1.151-0.214-1.694,0.756-2.276    c2.688-1.616,5.633-1.679,8.622-1.572c2.678,0.096,3.921,1.339,4.057,3.973c0.428,8.281-0.441,16.513-0.942,24.758    c-0.028,0.464-0.189,0.937-0.368,1.372c-0.662,1.615-0.046,2.345,1.601,2.359c2.053,0.017,4.11-0.077,6.158,0.031    c1.821,0.096,2.528-0.78,2.462-2.435C552.838,181.522,554.362,174.141,554.07,166.618z M410.66,191.802    c6.505,0.63,13.883-1.013,21.333-0.84c0.931,0.021,1.36-0.321,1.391-1.293c0.117-3.745,0.826-7.442,0.758-11.214    c-0.08-4.31-0.061-4.345-4.429-3.802c-7.646,0.951-15.316,1.534-23.029,1.535c-4.069,0.001-7.814-0.766-11.391-2.939    c-1.586-0.963-1.894-2.037-2.15-3.517c-0.294-1.704,0.56-3.198,0.747-4.812c0.218-1.888,1.211-3.419,2.83-4.393    c2.145-1.289,4.584-1.809,7.011-1.435c7.022,1.084,14.146,0.184,21.188,1.342c3.574,0.588,7.217,0.78,10.771,1.649    c0.752,0.184,2.233,0.983,2.515-0.626c0.326-1.862,0.753-3.708,0.994-5.601c0.289-2.261,0.471-4.571,0.978-6.794    c0.585-2.563,0.307-2.851-2.362-3.301c-3.303-0.558-6.622-0.649-9.934-0.961c-9.511-0.895-19.012-1.793-28.581-1.5    c-2.604,0.08-4.865,1.108-6.856,2.649c-5.449,4.221-7.247,10.396-8.292,16.745c-0.682,4.14-1.399,8.369-0.863,12.615    c0.397,3.142,0.813,6.35,2.667,9.03c3.287,4.755,8.272,6.699,13.701,7.384C402.953,192.142,406.347,191.802,410.66,191.802z     M331.472,70.491c-0.041,0-0.081,0.001-0.121,0.002c-0.385,8.6-0.7,17.204-1.168,25.799c-0.578,10.642-1.255,21.279-1.963,31.914    c-0.104,1.557,0.199,2.167,1.895,2.036c2.109-0.163,4.242-0.102,6.359-0.016c1.236,0.05,1.763-0.201,1.816-1.615    c0.25-6.622,0.681-13.237,0.956-19.857c0.215-5.146,0.444-5.515,5.491-6.941c0.525-0.148,1.059-0.266,1.594-0.37    c5.877-1.138,11.826-1.2,17.775-1.127c6.555,0.08,6.077-0.94,6.236,6.267c0.17,7.657-0.81,15.28-1.672,22.883    c-0.192,1.694,0.262,1.979,1.761,1.905c2.184-0.107,4.381-0.097,6.566-0.001c1.249,0.055,1.626-0.378,1.716-1.601    c0.592-7.974,1.529-15.927,1.562-23.934c0.022-5.129-0.159-10.253-1.966-15.159c-1.713-4.648-4.33-6.523-9.222-6.522    c-2.531,0-5.062,0-7.593,0.064c-6.355,0.161-12.722,0.333-18.953,1.734c-1.6,0.36-1.945,0.291-1.806-1.488    c0.67-8.525,0.691-17.074,0.663-25.622c-0.004-1.064-0.193-1.454-1.384-1.171c-2.391,0.566-4.812,1.029-7.24,1.403    c-1.037,0.16-1.346,0.549-1.326,1.572C331.508,63.926,331.472,67.209,331.472,70.491z M453.375,81.311    c-3.051,0.895-5.926,1.743-8.804,2.58c-0.779,0.227-1.161,0.497-1.115,1.53c0.666,14.923-0.048,29.792-2.094,44.586    c-0.177,1.278,0.318,1.547,1.287,1.74c2.275,0.451,4.575,0.815,6.812,1.413c1.265,0.338,1.516-0.107,1.636-1.19    c0.619-5.567,1.427-11.117,1.888-16.697c0.486-5.895,5.431-12.226,11.094-13.881c5.8-1.695,11.658-1.043,17.498-0.48    c4.768,0.459,4.725,0.569,4.815,5.43c0.093,5.003-0.691,9.95-0.874,14.934c-0.134,3.64-0.046,7.277,0.435,11.006    c2.846-0.843,5.439-1.69,8.078-2.362c1.348-0.343,1.888-0.897,1.729-2.36c-0.573-5.253-0.095-10.493,0.254-15.745    c0.408-6.145,0.389-12.292-1.105-18.342c-1.523-6.167-4.38-8.469-10.643-8.504c-0.887-0.004-1.775-0.063-2.662-0.106    c-9.586-0.466-19.128-0.689-27.718,5.107C453.713,87.033,453.552,84.322,453.375,81.311z M364.643,191.854    c8.12,0.077,11.822-6.358,11.711-11.775c-0.13-6.364-4.356-11.521-11.756-11.637c-6.487-0.102-11.963,4.771-11.897,12.249    C352.746,185.861,358.216,192.638,364.643,191.854z"/>
		<path fill-rule="evenodd" clip-rule="evenodd" fill="#FEFEFE" d="M517.723,109.827c2.361,2.905,5.373,3.639,8.493,3.95    c8.828,0.88,17.445-0.155,25.821-3.119c0.185-0.065,0.4-0.041,0.694-0.066c0.405,4.915,0.779,9.809,1.233,14.696    c0.099,1.056-0.534,1.282-1.25,1.539c-7.354,2.64-14.937,3.775-22.747,3.504c-3.558-0.124-7.115-0.236-10.553-1.258    c-6.238-1.854-9.643-6.35-11.348-12.379c-0.185-0.657-0.308-1.331-0.472-1.994c-0.278-1.125-0.262-2.502-0.931-3.305    c-0.774-0.929-2.161-0.037-3.28-0.033c-0.946,0.003-1.162-0.282-1.149-1.148c0.068-4.583,0.126-9.166,0.114-13.749    c-0.003-1.193,0.751-1.451,1.568-1.402c2.076,0.123,2.303-1.077,2.54-2.761c0.815-5.798,2.687-11.141,7.418-15.037    c2.904-2.39,6.333-3.378,9.99-3.832c5.789-0.717,11.571-1.115,17.35,0.056c10.322,2.091,14.105,8.745,13.929,17.795    c-0.073,3.748-0.451,7.504-1.68,11.107c-1.679,4.918-4.689,7.132-9.906,6.738C535.062,108.489,526.616,109.058,517.723,109.827z     M545.011,92.362c-1.273-1.378-2.434-2.019-3.752-2.467c-3.516-1.196-7.151-0.995-10.756-0.903    c-4.455,0.114-8.847,0.677-12.83,2.931c-0.521,0.295-1.248,0.593-0.972,1.337c0.253,0.679,0.934,0.245,1.422,0.213    c5.719-0.373,11.414-1.092,17.155-1.109C538.389,92.355,541.499,92.362,545.011,92.362z"/>
		<path fill-rule="evenodd" clip-rule="evenodd" fill="#251E1F" d="M230.325,109.651c1.092,2.097,2.894,2.684,4.467,3.093    c5.325,1.385,10.753,1.518,16.175,0.446c2.12-0.419,4.287-0.184,6.426-0.927c1.744-0.606,3.62-0.933,5.394-1.571    c1.218-0.438,2.211-0.549,2.207,1.373c-0.009,4.088,1.02,8.106,0.88,12.229c-0.05,1.44-0.594,2.202-1.787,2.519    c-4.287,1.138-8.547,2.261-13.008,2.802c-3.482,0.422-6.95,0.722-10.373,0.44c-3.872-0.318-7.809-0.546-11.501-2.211    c-4.597-2.073-7.051-5.802-8.599-10.305c-0.693-2.016-1.088-4.132-1.679-6.187c-0.412-1.432-1.556-0.793-2.358-0.612    c-2.216,0.5-2.524,0.376-2.443-1.928c0.15-4.29,0.417-8.575,0.632-12.862c0.025-0.496,0.061-1.094,0.697-1.035    c3.307,0.31,3.075-2.451,3.359-4.248c0.829-5.24,2.763-9.846,6.748-13.411c2.345-2.099,5.202-3.125,8.3-3.817    c5.081-1.135,10.186-0.657,15.286-0.769c4.829-0.105,9.166,1.484,12.939,4.352c2.336,1.776,3.699,4.444,4.43,7.267    c0.677,2.611,1.245,5.304,0.823,8.037c-0.616,3.992-0.739,8.14-2.555,11.818c-1.301,2.636-3.679,4.381-6.672,4.604    c-2.914,0.217-5.897-0.271-8.786-0.13C243.094,108.922,236.779,108.202,230.325,109.651z M255.59,92.247    c0.164-0.029,0.749,0.247,0.971-0.365c0.253-0.696-0.307-0.856-0.773-1.183c-2.298-1.611-4.999-1.994-7.629-2.233    c-3.38-0.308-6.761,0.04-10.161,0.537c-2.984,0.436-5.702,1.278-8.353,2.596c-0.585,0.291-0.93,0.604-0.758,1.217    c0.181,0.647,0.787,0.36,1.219,0.396c2.266,0.189,4.458-0.708,6.656-0.677C242.952,92.623,249.122,91.371,255.59,92.247z"/>
		<path fill-rule="evenodd" clip-rule="evenodd" fill="#251E1F" d="M115.309,109.743c1.512,1.87,3.301,2.684,5.032,3.089    c5.331,1.249,10.724,1.417,16.152,0.292c2.042-0.423,4.16-0.33,6.241-0.881c1.744-0.461,3.5-0.858,5.192-1.5    c1.18-0.448,1.896-0.5,2.254,1.156c0.513,2.375,0.532,4.741,0.612,7.126c0.051,1.498-0.187,3.051,0.396,4.469    c0.824,2.003-0.248,2.926-1.895,3.316c-2.485,0.588-4.907,1.38-7.423,1.903c-5.359,1.112-10.75,1.834-16.164,1.343    c-4.238-0.385-8.627-0.523-12.468-2.93c-3.904-2.447-6.396-5.9-7.604-10.275c-0.39-1.412-0.87-2.796-1.018-4.312    c-0.192-1.953-1.199-2.445-3.222-1.689c-1.458,0.545-1.649-0.001-1.637-1.215c0.048-4.448,0.094-8.896,0.075-13.343    c-0.005-1.05,0.311-1.542,1.388-1.444c2.039,0.187,2.578-1.096,2.688-2.777c0.339-5.128,2.303-9.663,5.547-13.525    c2.427-2.888,5.828-4.277,9.556-5.095c5.626-1.234,11.29-0.88,16.924-0.673c4.953,0.181,9.443,2.025,12.884,5.784    c2.098,2.292,3.271,5.201,3.477,8.193c0.255,3.705,0.434,7.444-0.503,11.195c-0.524,2.096-1.018,4.161-1.84,6.161    c-1.292,3.145-3.961,4.38-6.995,4.641c-2.768,0.237-5.632-0.305-8.371-0.151C128.289,108.954,121.897,108.148,115.309,109.743z     M113.797,92.864c0.918,0.561,1.675,0.301,2.397,0.338c2.948,0.147,5.761-0.998,8.738-0.816    c5.302,0.324,10.601-1.133,15.918-0.111c0.328,0.063,0.773,0.043,0.869-0.339c0.071-0.283-0.009-0.742-0.206-0.925    c-0.435-0.404-0.955-0.748-1.494-1.004c-2.163-1.027-4.513-1.328-6.849-1.587c-4.037-0.448-8.05,0.145-11.978,0.878    C118.579,89.785,115.721,90.285,113.797,92.864z"/>
		<path fill-rule="evenodd" clip-rule="evenodd" fill="#251E1F" d="M155.61,141.469c1.166-7.776,0.887-15.636,1.497-23.451    c0.647-8.295,0.341-16.677,0.153-25.015c-0.057-2.483,0.542-3.854,2.895-4.579c1.989-0.612,3.913-1.434,5.866-2.159    c0.249-0.092,0.703-0.272,0.733-0.221c1.572,2.705,2.932-0.078,4.194-0.353c3.385-0.736,6.787-1.186,10.214-1.436    c5.353-0.391,10.68-1.005,16.075-1.026c6.461-0.023,9.698,4.451,10.965,8.965c1.4,4.989,1.995,10.128,1.633,15.31    c-0.444,6.36-1.463,12.654-5.044,18.089c-2.078,3.152-5.056,5.008-9.11,5.609c-4.485,0.664-8.971,0.61-13.445,0.921    c-4.375,0.304-8.823,0.229-13.133-0.969c-2.202-0.612-2.453-0.195-2.836,2.114c-0.73,4.41-0.659,8.835-0.777,13.264    c-0.03,1.129-0.454,1.768-1.731,1.732c-2.255-0.062-4.514-0.057-6.769,0c-1.098,0.027-1.425-0.433-1.394-1.462    C155.648,145.026,155.61,143.247,155.61,141.469z M182.91,115.419c0-0.008,0-0.015,0-0.022c3.688,0,7.377,0,11.066-0.001    c0.205,0,0.41-0.006,0.615-0.017c2.39-0.128,4.368-1.201,4.527-2.909c0.257-2.777,1.311-5.547,0.795-8.31    c-0.675-3.62-0.885-4.776-4.971-4.716c-6.256,0.094-12.531,0.278-18.714,1.305c-1.92,0.319-4.301,0.379-5.554,2.028    c-1.616,2.126-2.723,4.66-3.361,7.303c-0.64,2.647,1.566,5.318,4.328,5.333C175.396,115.434,179.153,115.419,182.91,115.419z"/>
		<path fill-rule="evenodd" clip-rule="evenodd" fill="#FEFEFE" d="M281.414,131.099c-0.314,5.146-0.709,10.188-0.881,15.236    c-0.06,1.74-0.627,2.245-2.285,2.132c-1.907-0.13-3.836-0.128-5.744,0c-1.572,0.107-2.105-0.322-1.996-1.993    c0.614-9.341,1.162-18.687,1.653-28.035c0.467-8.874,0.954-17.754,0.15-26.633c-0.119-1.304,0.265-1.926,1.52-2.354    c2.322-0.79,4.579-1.773,6.859-2.685c1.019-0.407,1.902-0.617,1.467,1.375c5.536-3.903,11.729-2.968,17.54-3.824    c3.641-0.536,7.347-0.688,11.031-0.857c6.282-0.29,10.252,1.979,12.08,7.946c3.39,11.061,3.164,22.111-1.914,32.734    c-2.111,4.418-5.588,7.112-10.667,7.518c-8.312,0.663-16.613,1.683-24.938,0.197C284.084,131.643,282.885,131.388,281.414,131.099    z M299.618,115.941c4.479-0.043,8.027-0.082,11.565-0.495c1.372-0.16,2.466-0.697,2.809-2.002    c0.922-3.522,1.358-7.117,0.627-10.732c-0.401-1.991-1.713-2.971-3.815-2.971c-7.12-0.001-14.203,0.421-21.207,1.756    c-1.332,0.254-2.916,0.385-3.703,1.536c-1.729,2.526-3.335,5.183-3.378,8.407c-0.035,2.638,1.706,4.628,4.331,4.332    C291.441,115.25,295.978,116.435,299.618,115.941z"/>
		<path fill-rule="evenodd" clip-rule="evenodd" fill="#251E1F" d="M94.921,104.718c0.285,7.028-0.695,13.685-4.179,19.656    c-2.179,3.734-5.216,6.268-10.067,6.874c-4.619,0.577-9.236,0.513-13.84,0.896c-4.167,0.347-8.429,0.134-12.559-0.995    c-2.381-0.65-2.95-0.233-2.856,2.254c0.175,4.592-1.16,9.078-0.855,13.67c0.059,0.89-0.403,1.189-1.249,1.181    c-2.462-0.025-4.925-0.054-7.387,0.009c-1.46,0.037-1.193-0.926-1.228-1.794c-0.234-5.815,0.604-11.59,1.021-17.354    c0.565-7.818,0.255-15.676,1.305-23.471c0.426-3.163,0.177-6.422-0.365-9.592c-0.28-1.641-0.122-3.272-0.285-4.898    c-0.099-0.987,0.439-1.588,1.215-1.905c2.226-0.906,4.469-1.777,6.747-2.539c0.668-0.224,1.8-1.47,2.121,0.492    c0.057,0.347,0.594,0.102,0.876-0.072c4.423-2.729,9.481-2.308,14.337-2.953c4.945-0.656,9.9-0.793,14.875-0.916    c4.937-0.121,7.944,2.394,9.907,6.56C94.707,94.598,95.149,99.697,94.921,104.718z M68.365,115.419c0-0.016,0-0.032,0-0.048    c3.897,0,7.794,0.045,11.691-0.015c2.626-0.041,3.403-0.963,4.327-3.302c1.005-2.545,0.587-5.106,0.652-7.656    c0.09-3.528-1.385-5.005-4.892-4.972c-3.34,0.032-6.68,0.394-10.016,0.343c-3.096-0.048-6.047,0.865-9.109,1.069    c-1.534,0.103-3.48,0.308-4.675,1.631c-2.324,2.574-3.673,5.654-3.624,9.148c0.032,2.301,1.819,3.782,4.16,3.795    C60.708,115.435,64.537,115.419,68.365,115.419z"/>
		<path fill-rule="evenodd" clip-rule="evenodd" fill="#251E1F" d="M461.613,192.651c-2.237,0-5.727,0.017-9.216-0.004    c-4.186-0.025-8.202-3.324-9.298-7.332c-1.824-6.681-2.056-13.36-0.913-20.159c0.404-2.4,0.396-4.837,0.87-7.271    c1.3-6.678,4.45-9.534,11.166-10.458c2.6-0.357,5.172-0.906,7.759-1.358c0.535-0.094,1.076-0.208,1.615-0.21    c6.569-0.035,13.14-0.131,19.707-0.037c3.496,0.049,6.51,1.447,8.839,4.145c2.007,2.325,2.315,5.227,2.3,8.047    c-0.024,4.464,0.004,8.939-1.052,13.365c-1.677,7.026-4.772,13.214-9.866,18.372c-1.255,1.271-2.866,1.712-4.521,2.051    C473.667,192.891,468.253,192.515,461.613,192.651z M466.296,176.238c0-0.033,0-0.067,0-0.1c4.1,0,8.198,0.007,12.298-0.004    c1.663-0.004,2.902-0.466,3.599-2.28c0.356-0.928,0.643-1.95,0.872-2.842c0.634-2.46,1.465-4.944,1.23-7.574    c-0.062-0.688-0.157-1.185-1.007-1.205c-2.852-0.069-5.603-0.935-8.505-0.849c-5.03,0.15-10.054-0.031-15.074,0.738    c-1.949,0.299-3.812,0.926-5.769,1.177c-0.677,0.086-1.83,0.33-1.777,1.596c0.136,3.258-0.743,6.485-0.117,9.785    c0.234,1.239,0.58,1.586,1.747,1.574C457.96,176.211,462.129,176.238,466.296,176.238z"/>
		<path fill-rule="evenodd" clip-rule="evenodd" fill="#FEFEFE" d="M403.161,131.091c-2.047,0-4.1,0.087-6.142-0.017    c-6.461-0.33-10.006-3.201-11.21-9.547c-1.748-9.205-0.974-18.373,1.121-27.443c1.14-4.941,4.665-7.162,9.384-8.225    c8.96-2.016,18.076-1.593,27.137-2.024c1.971-0.094,3.948,0.196,5.881,0.703c4.997,1.31,7.976,4.531,8.348,9.644    c0.455,6.284,0.288,12.6-1.698,18.667c-1.428,4.362-3.734,8.316-6.224,12.171c-2.715,4.204-6.792,5.488-11.435,5.561    c-5.053,0.079-10.107,0.019-15.161,0.019C403.162,130.763,403.161,130.926,403.161,131.091z M407.89,114.692    c5.36-0.11,10.151-0.002,14.921-0.501c0.98-0.103,1.981-0.002,2.444-1.346c1.207-3.503,2.169-7.04,2.457-10.751    c0.078-1.009-0.165-1.413-1.244-1.584c-3.051-0.482-6.112-0.692-9.192-0.742c-6.576-0.107-13.126,0.04-19.551,1.708    c-1.42,0.369-2.39,0.8-2.435,2.629c-0.07,2.937-0.153,5.87-0.13,8.811c0.012,1.397,0.561,1.711,1.821,1.747    C400.811,114.768,404.638,114.847,407.89,114.692z"/>
		<path fill-rule="evenodd" clip-rule="evenodd" fill="#251E1F" d="M554.07,166.618c0.292,7.522-1.232,14.904-0.936,22.366    c0.066,1.655-0.641,2.53-2.462,2.435c-2.048-0.107-4.105-0.014-6.158-0.031c-1.646-0.014-2.263-0.744-1.601-2.359    c0.179-0.436,0.34-0.908,0.368-1.372c0.501-8.245,1.37-16.477,0.942-24.758c-0.136-2.634-1.379-3.877-4.057-3.973    c-2.989-0.106-5.935-0.044-8.622,1.572c-0.97,0.583-1.439,1.125-0.756,2.276c0.283,0.478,0.204,1.194,0.223,1.804    c0.229,7.458,0.115,14.917-0.063,22.374c-0.038,1.621-0.467,3.229-0.654,4.85c-0.105,0.912-0.732,0.84-1.344,0.842    c-2.327,0.007-4.656-0.061-6.979,0.029c-1.298,0.051-1.6-0.434-1.596-1.663c0.016-4.032,1.073-7.98,0.831-12.038    c-0.15-2.522-0.146-5.071,0.022-7.592c0.177-2.634-0.626-5.109-0.924-7.661c-0.166-1.417-1.896-2.438-3.397-2.217    c-3.755,0.552-6.195,3.477-6.488,7.238c-0.405,5.216-0.883,10.441-1.698,15.604c-0.45,2.849-1.118,5.682-1.566,8.546    c-0.186,1.194-0.961,1.835-2.013,1.181c-2.015-1.253-4.275-1.925-6.41-2.858c-1.424-0.622-1.492-1.371-1.183-2.483    c0.862-3.088,1.007-6.281,1.438-9.429c0.757-5.525,0.587-11.139,1.536-16.651c0.162-0.935,0.166-1.917,0.1-2.867    c-0.276-3.984,0.732-7.873,0.82-11.826c0.026-1.185,0.719-1.335,1.628-1.236c2.864,0.314,5.781-0.599,8.649,0.529    c0.686,0.27,1.771-0.456,2.666-0.744c3.467-1.117,6.875-1.398,10.127,0.678c0.607,0.388,1.068,0.215,1.632-0.229    c4.953-3.914,10.709-5.161,16.8-4.321c4.103,0.565,7.748,3.701,9.47,8.738C554.124,156.369,554.256,161.501,554.07,166.618z"/>
		<path fill-rule="evenodd" clip-rule="evenodd" fill="#251E1F" d="M410.66,191.802c-4.313,0-7.707,0.34-11.005-0.077    c-5.429-0.686-10.414-2.629-13.701-7.384c-1.854-2.68-2.27-5.889-2.667-9.03c-0.536-4.246,0.182-8.475,0.863-12.615    c1.045-6.349,2.843-12.524,8.292-16.745c1.991-1.541,4.253-2.569,6.856-2.649c9.569-0.293,19.07,0.605,28.581,1.5    c3.312,0.312,6.631,0.403,9.934,0.961c2.669,0.45,2.947,0.738,2.362,3.301c-0.507,2.223-0.688,4.533-0.978,6.794    c-0.241,1.892-0.668,3.738-0.994,5.601c-0.281,1.609-1.763,0.81-2.515,0.626c-3.555-0.869-7.197-1.061-10.771-1.649    c-7.041-1.159-14.165-0.258-21.188-1.342c-2.427-0.374-4.866,0.146-7.011,1.435c-1.619,0.974-2.612,2.504-2.83,4.393    c-0.188,1.615-1.041,3.108-0.747,4.812c0.257,1.48,0.564,2.554,2.15,3.517c3.576,2.174,7.321,2.94,11.391,2.939    c7.713-0.001,15.384-0.584,23.029-1.535c4.368-0.543,4.349-0.508,4.429,3.802c0.068,3.772-0.641,7.469-0.758,11.214    c-0.03,0.972-0.46,1.314-1.391,1.293C424.543,190.789,417.165,192.432,410.66,191.802z"/>
		<path fill-rule="evenodd" clip-rule="evenodd" fill="#FEFEFE" d="M331.472,70.491c0-3.282,0.036-6.565-0.021-9.845    c-0.02-1.022,0.289-1.412,1.326-1.572c2.429-0.374,4.85-0.836,7.24-1.403c1.19-0.282,1.38,0.107,1.384,1.171    c0.028,8.547,0.007,17.096-0.663,25.622c-0.14,1.779,0.206,1.848,1.806,1.488c6.231-1.402,12.598-1.573,18.953-1.734    c2.53-0.064,5.062-0.064,7.593-0.064c4.892-0.001,7.509,1.874,9.222,6.522c1.807,4.906,1.988,10.03,1.966,15.159    c-0.033,8.006-0.971,15.96-1.562,23.934c-0.09,1.222-0.467,1.655-1.716,1.601c-2.186-0.096-4.383-0.106-6.566,0.001    c-1.499,0.074-1.953-0.211-1.761-1.905c0.862-7.603,1.842-15.226,1.672-22.883c-0.159-7.207,0.318-6.187-6.236-6.267    c-5.949-0.073-11.898-0.01-17.775,1.127c-0.535,0.104-1.068,0.222-1.594,0.37c-5.047,1.426-5.276,1.796-5.491,6.941    c-0.275,6.621-0.706,13.236-0.956,19.857c-0.054,1.414-0.58,1.665-1.816,1.615c-2.117-0.086-4.25-0.147-6.359,0.016    c-1.695,0.131-1.998-0.479-1.895-2.036c0.708-10.634,1.385-21.271,1.963-31.914c0.468-8.596,0.783-17.199,1.168-25.799    C331.391,70.492,331.431,70.491,331.472,70.491z"/>
		<path fill-rule="evenodd" clip-rule="evenodd" fill="#FEFEFE" d="M453.375,81.311c0.177,3.012,0.338,5.723,0.511,8.658    c8.59-5.796,18.132-5.573,27.718-5.107c0.887,0.043,1.775,0.102,2.662,0.106c6.263,0.035,9.119,2.337,10.643,8.504    c1.494,6.05,1.514,12.198,1.105,18.342c-0.349,5.251-0.827,10.492-0.254,15.745c0.159,1.463-0.381,2.017-1.729,2.36    c-2.639,0.672-5.232,1.519-8.078,2.362c-0.48-3.729-0.568-7.366-0.435-11.006c0.183-4.983,0.967-9.93,0.874-14.934    c-0.091-4.86-0.048-4.97-4.815-5.43c-5.84-0.563-11.698-1.215-17.498,0.48c-5.663,1.655-10.607,7.987-11.094,13.881    c-0.461,5.58-1.269,11.13-1.888,16.697c-0.12,1.083-0.371,1.528-1.636,1.19c-2.237-0.597-4.537-0.962-6.812-1.413    c-0.969-0.193-1.464-0.461-1.287-1.74c2.046-14.795,2.76-29.664,2.094-44.586c-0.046-1.034,0.336-1.304,1.115-1.53    C447.449,83.053,450.324,82.205,453.375,81.311z"/>
		<path fill-rule="evenodd" clip-rule="evenodd" fill="#251E1F" d="M364.643,191.854c-6.427,0.783-11.896-5.993-11.942-11.164    c-0.065-7.479,5.41-12.351,11.897-12.249c7.399,0.116,11.626,5.273,11.756,11.637    C376.465,185.497,372.763,191.931,364.643,191.854z"/>
		<path fill-rule="evenodd" clip-rule="evenodd" fill="#C90203" d="M545.011,92.362c-3.512,0-6.622-0.007-9.732,0.002    c-5.741,0.017-11.437,0.737-17.155,1.109c-0.488,0.031-1.169,0.466-1.422-0.213c-0.276-0.745,0.45-1.042,0.972-1.337    c3.983-2.253,8.375-2.816,12.83-2.931c3.604-0.092,7.24-0.293,10.756,0.903C542.577,90.344,543.737,90.984,545.011,92.362z"/>
		<path fill-rule="evenodd" clip-rule="evenodd" fill="#C90203" d="M255.59,92.247c-6.468-0.876-12.638,0.376-18.828,0.289    c-2.198-0.031-4.39,0.866-6.656,0.677c-0.433-0.037-1.039,0.251-1.219-0.396c-0.171-0.614,0.173-0.926,0.758-1.217    c2.651-1.318,5.369-2.16,8.353-2.596c3.4-0.498,6.781-0.845,10.161-0.537c2.63,0.24,5.331,0.622,7.629,2.233    c0.467,0.327,1.026,0.487,0.773,1.183C256.339,92.494,255.754,92.218,255.59,92.247z"/>
		<path fill-rule="evenodd" clip-rule="evenodd" fill="#C90203" d="M113.797,92.864c1.923-2.579,4.782-3.079,7.396-3.567    c3.928-0.733,7.941-1.326,11.978-0.878c2.336,0.259,4.687,0.56,6.849,1.587c0.539,0.256,1.059,0.6,1.494,1.004    c0.196,0.183,0.276,0.642,0.206,0.925c-0.096,0.382-0.541,0.403-0.869,0.339c-5.317-1.022-10.616,0.435-15.918,0.111    c-2.977-0.182-5.79,0.963-8.738,0.816C115.473,93.165,114.715,93.425,113.797,92.864z"/>
		<path fill-rule="evenodd" clip-rule="evenodd" fill="#C90203" d="M182.91,115.419c-3.757,0-7.514,0.015-11.27-0.005    c-2.762-0.015-4.968-2.686-4.328-5.333c0.639-2.643,1.745-5.176,3.361-7.303c1.253-1.649,3.633-1.709,5.554-2.028    c6.183-1.027,12.458-1.211,18.714-1.305c4.086-0.061,4.296,1.096,4.971,4.716c0.515,2.763-0.539,5.532-0.795,8.31    c-0.159,1.708-2.137,2.78-4.527,2.909c-0.205,0.011-0.41,0.017-0.615,0.017c-3.688,0.001-7.377,0.001-11.066,0.001    C182.91,115.404,182.91,115.411,182.91,115.419z"/>
		<path fill-rule="evenodd" clip-rule="evenodd" fill="#C90203" d="M299.618,115.941c-3.641,0.494-8.177-0.691-12.771-0.169    c-2.625,0.297-4.366-1.694-4.331-4.332c0.043-3.225,1.649-5.881,3.378-8.407c0.787-1.151,2.371-1.282,3.703-1.536    c7.004-1.335,14.087-1.758,21.207-1.756c2.103,0,3.414,0.98,3.815,2.971c0.731,3.615,0.295,7.209-0.627,10.732    c-0.343,1.306-1.437,1.843-2.809,2.002C307.646,115.859,304.097,115.898,299.618,115.941z"/>
		<path fill-rule="evenodd" clip-rule="evenodd" fill="#C90203" d="M68.365,115.419c-3.829,0-7.657,0.016-11.485-0.006    c-2.341-0.013-4.127-1.494-4.16-3.795c-0.049-3.494,1.3-6.574,3.624-9.148c1.195-1.323,3.141-1.528,4.675-1.631    c3.062-0.205,6.013-1.118,9.109-1.069c3.336,0.051,6.676-0.311,10.016-0.343c3.507-0.034,4.982,1.443,4.892,4.972    c-0.065,2.55,0.353,5.11-0.652,7.656c-0.924,2.339-1.701,3.262-4.327,3.302c-3.896,0.06-7.794,0.015-11.691,0.015    C68.365,115.387,68.365,115.403,68.365,115.419z"/>
		<path fill-rule="evenodd" clip-rule="evenodd" fill="#C90203" d="M466.296,176.238c-4.167,0-8.336-0.027-12.503,0.017    c-1.167,0.013-1.513-0.334-1.747-1.574c-0.626-3.3,0.253-6.527,0.117-9.785c-0.053-1.267,1.101-1.51,1.777-1.596    c1.956-0.251,3.819-0.878,5.769-1.177c5.021-0.769,10.044-0.588,15.074-0.738c2.902-0.086,5.653,0.78,8.505,0.849    c0.85,0.02,0.944,0.517,1.007,1.205c0.234,2.629-0.597,5.114-1.23,7.574c-0.229,0.892-0.516,1.914-0.872,2.842    c-0.696,1.814-1.936,2.276-3.599,2.28c-4.1,0.011-8.198,0.004-12.298,0.004C466.296,176.171,466.296,176.205,466.296,176.238z"/>
		<path fill-rule="evenodd" clip-rule="evenodd" fill="#C90203" d="M407.89,114.692c-3.252,0.155-7.079,0.076-10.908-0.031    c-1.261-0.036-1.81-0.35-1.821-1.747c-0.023-2.941,0.06-5.874,0.13-8.811c0.045-1.829,1.015-2.26,2.435-2.629    c6.425-1.668,12.975-1.815,19.551-1.708c3.08,0.05,6.142,0.26,9.192,0.742c1.079,0.171,1.322,0.576,1.244,1.584    c-0.288,3.711-1.25,7.248-2.457,10.751c-0.463,1.343-1.464,1.243-2.444,1.346C418.041,114.689,413.25,114.582,407.89,114.692z"/>
	</g>
</g>
</svg>