<?xml version="1.0" encoding="UTF-8" standalone="no"?>
<!-- Created with Inkscape (http://www.inkscape.org/) -->

<svg
   xmlns:dc="http://purl.org/dc/elements/1.1/"
   xmlns:cc="http://creativecommons.org/ns#"
   xmlns:rdf="http://www.w3.org/1999/02/22-rdf-syntax-ns#"
   xmlns:svg="http://www.w3.org/2000/svg"
   xmlns="http://www.w3.org/2000/svg"
   xmlns:sodipodi="http://sodipodi.sourceforge.net/DTD/sodipodi-0.dtd"
   xmlns:inkscape="http://www.inkscape.org/namespaces/inkscape"
   width="354.78394"
   height="474.23804"
   id="svg5673"
   version="1.1"
   inkscape:version="0.48.1 "
   sodipodi:docname="linux--android--replicant--replicant_banner.svg">
  <defs
     id="defs5675" />
  <sodipodi:namedview
     id="base"
     pagecolor="#ffffff"
     bordercolor="#666666"
     borderopacity="1.0"
     inkscape:pageopacity="0.0"
     inkscape:pageshadow="2"
     inkscape:zoom="0.35"
     inkscape:cx="275.4508"
     inkscape:cy="166.7249"
     inkscape:document-units="px"
     inkscape:current-layer="layer1"
     showgrid="false"
     fit-margin-top="0"
     fit-margin-left="0"
     fit-margin-right="0"
     fit-margin-bottom="0"
     inkscape:window-width="667"
     inkscape:window-height="431"
     inkscape:window-x="100"
     inkscape:window-y="100"
     inkscape:window-maximized="0" />
  <metadata
     id="metadata5678">
    <rdf:RDF>
      <cc:Work
         rdf:about="">
        <dc:format>image/svg+xml</dc:format>
        <dc:type
           rdf:resource="http://purl.org/dc/dcmitype/StillImage" />
        <dc:title />
      </cc:Work>
    </rdf:RDF>
  </metadata>
  <g
     inkscape:label="Capa 1"
     inkscape:groupmode="layer"
     id="layer1"
     transform="translate(367.39197,-320.95746)">
    <rect
       y="320.95746"
       x="-367.39197"
       height="474.23804"
       width="354.78394"
       id="rect5577"
       style="font-size:244.21325684000001000px;font-style:normal;font-variant:normal;font-weight:bold;font-stretch:normal;text-align:start;line-height:125%;letter-spacing:0px;word-spacing:0px;writing-mode:lr-tb;text-anchor:start;fill:#ffffff;fill-opacity:1;stroke:none;font-family:DejaVu Sans;-inkscape-font-specification:DejaVu Sans Bold" />
    <g
       transform="translate(-265.84425,928.08762)"
       id="g5581">
      <path
         d="m 56.302765,-206.42777 0,33.78002 7.719048,0 0,-33.78002 -7.719048,0 z m 15.182866,0 0,6.34084 7.724696,0 0,-6.34084 -7.724696,0 z m -110.454316,1.36685 0,32.41317 8.308887,0 0,-12.26199 2.353711,0 c 1.351899,1e-5 2.431549,0.29702 3.24415,0.89044 0.812568,0.59345 1.613726,1.69682 2.404762,3.31788 l 3.924742,8.05367 8.8476848,0 -4.5089168,-9.205 c -0.920478,-1.86712 -1.829185,-3.26085 -2.728033,-4.17996 -0.898908,-0.91908 -1.915162,-1.50333 -3.051319,-1.76387 2.070988,-0.65131 3.616691,-1.66494 4.645035,-3.03997 1.028285,-1.37501 1.542642,-3.1381 1.542672,-5.28026 -3e-5,-3.09738 -0.98874,-5.36163 -2.966244,-6.79456 -1.977557,-1.4329 -5.087093,-2.14951 -9.329773,-2.14955 l -12.687358,0 z m 213.943895,1.19672 0,6.90232 -3.83968,0 0,5.55816 3.83968,0 0,10.31097 c 0,3.06847 0.63285,5.24706 1.90565,6.528 1.2728,1.28095 3.43363,1.917 6.48263,1.917 l 6.62441,0 0,-5.55816 -3.97008,0 c -1.32317,10e-6 -2.20846,-0.19749 -2.65433,-0.59551 -0.44582,-0.39805 -0.66356,-1.16236 -0.66356,-2.29133 l 0,-10.31097 7.95725,0 0,-5.55816 -7.95725,0 0,-6.90232 -7.72472,0 z m -205.635008,4.86056 3.493703,0 c 1.740208,1e-5 2.988177,0.32166 3.743251,0.95848 0.755037,0.63688 1.134297,1.69411 1.134322,3.17043 -2.5e-5,1.49083 -0.379285,2.55882 -1.134322,3.21012 -0.755074,0.65135 -2.003043,0.97553 -3.743251,0.97552 l -3.493703,0 0,-8.31455 z m 36.9334293,1.45759 c -4.1708067,2e-5 -7.4486565,1.13625 -9.8288795,3.40862 -2.380229,2.27243 -3.567436,5.39231 -3.567431,9.35814 -5e-6,4.03823 1.212113,7.17296 3.635489,9.40918 2.423372,2.23621 5.8197045,3.3519 10.1918566,3.3519 1.8265024,0 3.6522256,-0.17285 5.4787636,-0.52745 1.826493,-0.35461 3.652212,-0.88195 5.478758,-1.5767 l 0,-5.98921 c -1.797778,0.98423 -3.547646,1.71571 -5.251894,2.20057 -1.704295,0.48488 -3.3715187,0.72598 -4.9966746,0.72597 -2.0135023,1e-5 -3.5799706,-0.45499 -4.7017515,-1.36685 -1.1218134,-0.91186 -1.77541522,-2.27685 -1.96237622,-4.10057 l 18.05836032,0 0,-2.21759 c -2.9e-5,-3.85004 -1.140446,-6.92631 -3.419973,-9.22769 -2.279576,-2.30131 -5.317414,-3.4483 -9.1142477,-3.44832 z m 34.0862897,0 c -1.682731,2e-5 -3.17486,0.33654 -4.469215,1.00955 -1.294393,0.67306 -2.469169,1.71797 -3.533415,3.13638 l 0,-3.56176 -7.72471,0 0,33.56451 7.72471,0 0,-12.76677 c 1.064246,1.41845 2.239022,2.46336 3.533415,3.1364 1.294355,0.67303 2.786484,1.00953 4.469215,1.00953 2.977032,0 5.420518,-1.18647 7.333362,-3.56743 1.91279,-2.38095 2.869811,-5.44491 2.869828,-9.19365 -1.7e-5,-3.74873 -0.957038,-6.81834 -2.869828,-9.19932 -1.912844,-2.38094 -4.35633,-3.56742 -7.333362,-3.56744 z m 58.417413,0 c -4.357762,2e-5 -7.766557,1.12392 -10.225881,3.37459 -2.459332,2.25072 -3.686543,5.38291 -3.686543,9.39217 0,4.00928 1.227211,7.1358 3.686543,9.38648 2.459324,2.2507 5.868119,3.3746 10.225881,3.3746 1.251216,0 2.499186,-0.11027 3.743266,-0.33462 1.24401,-0.22434 2.47274,-0.56085 3.68086,-1.00954 l 0,-6.35786 c -0.92048,0.70922 -1.9258,1.24322 -3.01163,1.60506 -1.08587,0.36185 -2.23457,0.53881 -3.44265,0.5388 -2.157326,1e-5 -3.83549,-0.62784 -5.03638,-1.89431 -1.200905,-1.26646 -1.797907,-3.03621 -1.797907,-5.30861 0,-2.2724 0.597002,-4.04214 1.797907,-5.30862 1.20089,-1.26644 2.879054,-1.89996 5.03638,-1.89997 1.13614,1e-5 2.23243,0.17442 3.28952,0.52178 1.05705,0.34739 2.11484,0.88137 3.16476,1.60506 l 0,-6.34085 c -1.22249,-0.44866 -2.45124,-0.78516 -3.68086,-1.00953 -1.22969,-0.22432 -2.47766,-0.33461 -3.743266,-0.33463 z m 24.421866,0 c -1.6683,2e-5 -3.33969,0.10209 -5.00801,0.31195 -1.66831,0.20987 -3.32573,0.51921 -4.97966,0.92445 l 0,5.92682 c 1.22247,-0.66578 2.5463,-1.16438 3.97013,-1.4973 1.42381,-0.33288 2.96274,-0.49908 4.61667,-0.4991 2.04224,2e-5 3.5453,0.28471 4.5089,0.85642 0.96358,0.57173 1.44625,1.47508 1.44627,2.70534 l 0,0.60686 -4.5543,0 c -4.1708,3e-5 -7.23353,0.66481 -9.18229,1.9964 -1.94879,1.33162 -2.92085,3.42144 -2.92085,6.27278 0,2.34479 0.78188,4.25355 2.34234,5.72265 1.56044,1.46909 3.58883,2.20057 6.09129,2.20057 1.85528,0 3.43005,-0.3365 4.72445,-1.00953 1.29437,-0.67304 2.46382,-1.74513 3.49936,-3.22147 l 0,3.60146 7.7871,0 0,-13.87273 c 0,-3.89345 -0.96949,-6.704 -2.90386,-8.43365 -1.93442,-1.72961 -5.07977,-2.5919 -9.43754,-2.59192 z m 35.33406,0 c -1.58206,2e-5 -3.02436,0.33654 -4.33309,1.00955 -1.30878,0.67306 -2.54428,1.71797 -3.70926,3.13638 l 0,-3.56176 -7.72469,0 0,24.31413 7.72469,0 0,-11.9614 c 0,-2.21449 0.45776,-3.94884 1.37822,-5.20085 0.92044,-1.25197 2.18917,-1.87727 3.79998,-1.87729 0.66154,2e-5 1.24611,0.14314 1.76386,0.42536 0.51773,0.28226 0.9287,0.6788 1.23073,1.18537 0.2301,0.37633 0.39426,0.96215 0.48774,1.7582 0.0935,0.79607 0.14181,2.24007 0.14181,4.33876 l 0,8.9271 0,2.40475 7.76441,0 0,-14.80286 c -2e-5,-3.28556 -0.72118,-5.79245 -2.16655,-7.51486 -1.44541,-1.72238 -3.56774,-2.58056 -6.35785,-2.58058 z m -87.047629,0.58417 0,24.31413 7.724696,0 0,-24.31413 -7.724696,0 z m -65.2573789,4.58265 c 1.3806672,2e-5 2.5018381,0.45091 3.3575835,1.35552 0.8557184,0.90463 1.2817634,2.09677 1.2817854,3.5731 l -10.03305052,0 c 0.23010272,-1.59211 0.81200502,-2.81144 1.74684862,-3.65818 0.9348201,-0.84672 2.1510916,-1.27042 3.646833,-1.27044 z m 31.2618229,0.47641 c 1.653928,2e-5 2.912823,0.61046 3.782965,1.82626 0.870086,1.21583 1.304449,2.98145 1.304468,5.29727 -1.9e-5,2.31583 -0.434382,4.08147 -1.304468,5.29727 -0.870142,1.21582 -2.129037,1.82059 -3.782965,1.82058 -1.653943,1e-5 -2.926817,-0.60888 -3.811312,-1.83193 -0.884494,-1.22303 -1.321491,-2.98457 -1.321472,-5.28592 -1.9e-5,-2.30134 0.436978,-4.06855 1.321472,-5.2916 0.884495,-1.22303 2.157369,-1.83191 3.811312,-1.83193 z m 86.247945,8.31456 4.01548,0 0,0.89044 c -2e-5,1.57766 -0.49931,2.89241 -1.49163,3.94176 -0.99237,1.04936 -2.21694,1.57104 -3.66952,1.57103 -1.16495,1e-5 -2.07366,-0.27647 -2.72805,-0.83372 -0.65437,-0.55725 -0.98118,-1.32978 -0.98116,-2.31401 -2e-5,-1.07107 0.40678,-1.87743 1.21939,-2.42745 0.81257,-0.54999 2.02471,-0.82805 3.63549,-0.82805 z"
         id="path5558"
         inkscape:connector-curvature="0"
         style="font-size:244.21325684px;font-style:normal;font-variant:normal;font-weight:bold;font-stretch:normal;text-align:start;line-height:125%;letter-spacing:0px;word-spacing:0px;writing-mode:lr-tb;text-anchor:start;fill:#000000;fill-opacity:1;stroke:none;font-family:DejaVu Sans;-inkscape-font-specification:DejaVu Sans Bold" />
      <g
         transform="translate(74.832792,-876.81241)"
         id="g5514">
        <path
           sodipodi:nodetypes="cccsccc"
           inkscape:connector-curvature="0"
           style="fill:#ffffff;fill-opacity:1;stroke:none"
           d="m -47.07346,317.315 c 2.738414,-3.14047 6.473059,-2.32261 9.613529,0.41581 7.775788,6.89287 15.588222,13.71732 23.455369,20.47677 3.140469,2.73842 4.4691822,6.34679 1.730766,9.48727 -2.738416,3.14047 -6.346792,2.82767 -9.487261,0.0892 -7.873202,-6.78085 -15.628934,-13.64804 -23.449166,-20.50609 -3.361745,-3.28906 -4.830022,-6.49566 -1.863237,-9.96302 z"
           id="rect3026-3-90-5" />
        <path
           sodipodi:nodetypes="cccsccc"
           inkscape:connector-curvature="0"
           style="fill:#ffffff;fill-opacity:1;stroke:none"
           d="m -13.0703,300.34908 c 4.0708064,-0.8888 6.5816209,1.99431 7.4704337,6.06512 2.1335619,10.16968 4.3373401,20.30628 6.623798,30.42331 0.8888052,4.0708 -0.19561182,7.75996 -4.2664317,8.64877 -4.0708113,0.88881 -6.781357,-1.51352 -7.670145,-5.58435 -2.278549,-10.13783 -4.411334,-20.27494 -6.60134,-30.44315 -0.738181,-4.64483 -0.0054,-8.09461 4.443708,-9.10973 z"
           id="rect3026-3-90-5-6" />
        <path
           inkscape:connector-curvature="0"
           style="fill:#ffffff;fill-opacity:1;stroke:none"
           d="m 1.9047861,428.41899 c 4.9604944,12.63635 -0.1564387,26.38564 -11.4640518,30.82454 l -91.2902443,35.83671 c -11.30764,4.43891 -24.37866,-2.17057 -29.33915,-14.8069 -4.9605,-12.63634 0.12359,-26.37272 11.43123,-30.81163 l 91.290243,-35.83672 c 11.307613,-4.43889 24.4114777,2.15767 29.3719731,14.794 z"
           id="rect5773-0-3-74-7-1-4-2"
           sodipodi:nodetypes="sssssss" />
        <path
           inkscape:connector-curvature="0"
           style="fill:#ff0000;fill-opacity:1;stroke:none"
           d="M -0.90288048,429.76614 C 3.51537,441.02118 -1.6288422,453.4978 -12.428496,457.73729 l -87.189301,34.22686 c -10.799693,4.23951 -23.026383,-1.41804 -27.444633,-12.67306 -4.41825,-11.25502 0.69458,-23.71931 11.49427,-27.95881 l 87.1893,-34.22686 c 10.799654,-4.23949 23.057729,1.4057 27.47597952,12.66072 z"
           id="rect5773-0-3-74-7-2-4"
           sodipodi:nodetypes="sssssss" />
        <path
           inkscape:connector-curvature="0"
           style="fill:#ffffff;fill-opacity:1;stroke:none"
           d="m 22.264821,505.53538 c -13.5751063,0 -24.5038067,9.78723 -24.5038067,21.9349 l 0,98.07231 c 0,12.1477 10.9287004,21.89963 24.5038067,21.89963 13.575107,0 24.503788,-9.75193 24.503788,-21.89963 l 0,-98.07231 c 0,-12.14767 -10.928681,-21.9349 -24.503788,-21.9349 z"
           id="rect5773-0-3-74-7-1"
           sodipodi:nodetypes="sssssss" />
        <path
           inkscape:connector-curvature="0"
           style="fill:#ff0000;fill-opacity:1;stroke:none"
           d="m 22.036783,508.64115 c -12.0911766,0 -21.82524336,9.34757 -21.82524336,20.94954 l 0,93.66671 c 0,11.60201 9.73406676,20.91586 21.82524336,20.91586 12.091177,0 21.825215,-9.31385 21.825215,-20.91586 l 0,-93.66671 c 0,-11.60197 -9.734038,-20.94954 -21.825215,-20.94954 z"
           id="rect5773-0-3-74-7"
           sodipodi:nodetypes="sssssss" />
        <path
           sodipodi:open="true"
           sodipodi:end="10.055371"
           sodipodi:start="3.9333012"
           transform="matrix(1.7379215,0,0,1.9139237,-370.23571,-578.71754)"
           d="m 209.09564,629.75389 c 3.05262,-2.73716 7.97086,-2.70898 10.98519,0.0629 3.01433,2.77192 2.9833,7.23791 -0.0693,9.97506 -3.05262,2.73715 -7.97086,2.70897 -10.98519,-0.063 -2.67638,-2.46114 -2.9926,-6.32139 -0.74667,-9.11501"
           sodipodi:ry="7.0535712"
           sodipodi:rx="7.7678571"
           sodipodi:cy="634.77289"
           sodipodi:cx="214.55357"
           id="path4954-0-3-5"
           style="fill:#ffffff;fill-opacity:1;stroke:none"
           sodipodi:type="arc" />
        <path
           sodipodi:open="true"
           sodipodi:end="10.055371"
           sodipodi:start="3.9333012"
           transform="matrix(1.7379215,0,0,1.9139237,-350.90607,-578.71766)"
           d="m 209.09564,629.75389 c 3.05262,-2.73716 7.97086,-2.70898 10.98519,0.0629 3.01433,2.77192 2.9833,7.23791 -0.0693,9.97506 -3.05262,2.73715 -7.97086,2.70897 -10.98519,-0.063 -2.67638,-2.46114 -2.9926,-6.32139 -0.74667,-9.11501"
           sodipodi:ry="7.0535712"
           sodipodi:rx="7.7678571"
           sodipodi:cy="634.77289"
           sodipodi:cx="214.55357"
           id="path4954-0-3-5-3"
           style="fill:#ffffff;fill-opacity:1;stroke:none"
           sodipodi:type="arc" />
        <path
           sodipodi:open="true"
           sodipodi:end="10.055371"
           sodipodi:start="3.9333012"
           transform="matrix(1.7379215,0,0,1.9139237,-331.71348,-578.71766)"
           d="m 209.09564,629.75389 c 3.05262,-2.73716 7.97086,-2.70898 10.98519,0.0629 3.01433,2.77192 2.9833,7.23791 -0.0693,9.97506 -3.05262,2.73715 -7.97086,2.70897 -10.98519,-0.063 -2.67638,-2.46114 -2.9926,-6.32139 -0.74667,-9.11501"
           sodipodi:ry="7.0535712"
           sodipodi:rx="7.7678571"
           sodipodi:cy="634.77289"
           sodipodi:cx="214.55357"
           id="path4954-0-3-5-3-6"
           style="fill:#ffffff;fill-opacity:1;stroke:none"
           sodipodi:type="arc" />
        <path
           sodipodi:open="true"
           sodipodi:end="10.055371"
           sodipodi:start="3.9333012"
           transform="matrix(1.2413723,0,0,1.3670887,-263.69935,-231.60126)"
           d="m 209.09564,629.75389 c 3.05262,-2.73716 7.97086,-2.70898 10.98519,0.0629 3.01433,2.77192 2.9833,7.23791 -0.0693,9.97506 -3.05262,2.73715 -7.97086,2.70897 -10.98519,-0.063 -2.67638,-2.46114 -2.9926,-6.32139 -0.74667,-9.11501"
           sodipodi:ry="7.0535712"
           sodipodi:rx="7.7678571"
           sodipodi:cy="634.77289"
           sodipodi:cx="214.55357"
           id="path4954-0-9"
           style="fill:#000000;fill-opacity:1;stroke:none"
           sodipodi:type="arc" />
        <path
           sodipodi:open="true"
           sodipodi:end="10.055371"
           sodipodi:start="3.9333012"
           transform="matrix(0.41710119,0,0,-0.45934171,-86.849035,927.76711)"
           d="m 209.09564,629.75389 c 3.05262,-2.73716 7.97086,-2.70898 10.98519,0.0629 3.01433,2.77192 2.9833,7.23791 -0.0693,9.97506 -3.05262,2.73715 -7.97086,2.70897 -10.98519,-0.063 -2.67638,-2.46114 -2.9926,-6.32139 -0.74667,-9.11501"
           sodipodi:ry="7.0535712"
           sodipodi:rx="7.7678571"
           sodipodi:cy="634.77289"
           sodipodi:cx="214.55357"
           id="path4954-0-5-4"
           style="fill:#ffffff;fill-opacity:1;stroke:none"
           sodipodi:type="arc" />
        <path
           sodipodi:open="true"
           sodipodi:end="10.055371"
           sodipodi:start="3.9333012"
           transform="matrix(1.2413723,0,0,1.3670887,-244.3697,-231.60134)"
           d="m 209.09564,629.75389 c 3.05262,-2.73716 7.97086,-2.70898 10.98519,0.0629 3.01433,2.77192 2.9833,7.23791 -0.0693,9.97506 -3.05262,2.73715 -7.97086,2.70897 -10.98519,-0.063 -2.67638,-2.46114 -2.9926,-6.32139 -0.74667,-9.11501"
           sodipodi:ry="7.0535712"
           sodipodi:rx="7.7678571"
           sodipodi:cy="634.77289"
           sodipodi:cx="214.55357"
           id="path4954-0-9-8"
           style="fill:#000000;fill-opacity:1;stroke:none"
           sodipodi:type="arc" />
        <path
           sodipodi:open="true"
           sodipodi:end="10.055371"
           sodipodi:start="3.9333012"
           transform="matrix(0.41710119,0,0,-0.45934171,-67.519386,927.76703)"
           d="m 209.09564,629.75389 c 3.05262,-2.73716 7.97086,-2.70898 10.98519,0.0629 3.01433,2.77192 2.9833,7.23791 -0.0693,9.97506 -3.05262,2.73715 -7.97086,2.70897 -10.98519,-0.063 -2.67638,-2.46114 -2.9926,-6.32139 -0.74667,-9.11501"
           sodipodi:ry="7.0535712"
           sodipodi:rx="7.7678571"
           sodipodi:cy="634.77289"
           sodipodi:cx="214.55357"
           id="path4954-0-5-4-1"
           style="fill:#ffffff;fill-opacity:1;stroke:none"
           sodipodi:type="arc" />
        <path
           sodipodi:open="true"
           sodipodi:end="10.055371"
           sodipodi:start="3.9333012"
           transform="matrix(1.2413723,0,0,1.3670887,-225.17711,-231.60131)"
           d="m 209.09564,629.75389 c 3.05262,-2.73716 7.97086,-2.70898 10.98519,0.0629 3.01433,2.77192 2.9833,7.23791 -0.0693,9.97506 -3.05262,2.73715 -7.97086,2.70897 -10.98519,-0.063 -2.67638,-2.46114 -2.9926,-6.32139 -0.74667,-9.11501"
           sodipodi:ry="7.0535712"
           sodipodi:rx="7.7678571"
           sodipodi:cy="634.77289"
           sodipodi:cx="214.55357"
           id="path4954-0-9-8-5"
           style="fill:#000000;fill-opacity:1;stroke:none"
           sodipodi:type="arc" />
        <path
           sodipodi:open="true"
           sodipodi:end="10.055371"
           sodipodi:start="3.9333012"
           transform="matrix(0.41710119,0,0,-0.45934171,-48.326789,927.76705)"
           d="m 209.09564,629.75389 c 3.05262,-2.73716 7.97086,-2.70898 10.98519,0.0629 3.01433,2.77192 2.9833,7.23791 -0.0693,9.97506 -3.05262,2.73715 -7.97086,2.70897 -10.98519,-0.063 -2.67638,-2.46114 -2.9926,-6.32139 -0.74667,-9.11501"
           sodipodi:ry="7.0535712"
           sodipodi:rx="7.7678571"
           sodipodi:cy="634.77289"
           sodipodi:cx="214.55357"
           id="path4954-0-5-4-1-2"
           style="fill:#ffffff;fill-opacity:1;stroke:none"
           sodipodi:type="arc" />
        <path
           inkscape:connector-curvature="0"
           style="fill:#ffffff;fill-opacity:1;stroke:none"
           d="m 21.123686,521.80367 c -9.426844,-9.76822 -24.0585469,-10.83571 -32.799629,-2.40011 l -70.569756,68.10352 c -8.741103,8.43562 -8.169165,23.07152 1.25768,32.83974 9.426844,9.76822 24.033139,10.8602 32.774242,2.42458 l 70.569756,-68.10351 c 8.741082,-8.4356 8.194552,-23.09599 -1.232293,-32.86422 z"
           id="rect5773-0-3-74-7-1-5"
           sodipodi:nodetypes="sssssss" />
        <path
           inkscape:connector-curvature="0"
           style="fill:#ff0000;fill-opacity:1;stroke:none"
           d="m 18.730518,523.7963 c -8.396372,-8.70044 -21.8821325,-9.21361 -30.230548,-1.15695 l -67.399619,65.04416 c -8.348444,8.05668 -8.290852,21.52875 0.105519,30.22918 8.396373,8.70044 21.857849,9.23701 30.206293,1.18032 l 67.399619,-65.04416 c 8.348415,-8.05667 8.315108,-21.55212 -0.08126,-30.25255 z"
           id="rect5773-0-3-74-7-9"
           sodipodi:nodetypes="sssssss" />
        <path
           sodipodi:open="true"
           sodipodi:end="10.055371"
           sodipodi:start="3.9333012"
           transform="matrix(1.2068499,1.2505537,-1.3771994,1.3290695,528.75726,-513.5558)"
           d="m 209.09564,629.75389 c 3.05262,-2.73716 7.97086,-2.70898 10.98519,0.0629 3.01433,2.77192 2.9833,7.23791 -0.0693,9.97506 -3.05262,2.73715 -7.97086,2.70897 -10.98519,-0.063 -2.67638,-2.46114 -2.9926,-6.32139 -0.74667,-9.11501"
           sodipodi:ry="7.0535712"
           sodipodi:rx="7.7678571"
           sodipodi:cy="634.77289"
           sodipodi:cx="214.55357"
           id="path4954-0-3-5-9"
           style="fill:#ffffff;fill-opacity:1;stroke:none"
           sodipodi:type="arc" />
        <path
           sodipodi:open="true"
           sodipodi:end="10.055371"
           sodipodi:start="3.9333012"
           transform="matrix(1.2068499,1.2505537,-1.3771994,1.3290695,542.18025,-499.64688)"
           d="m 209.09564,629.75389 c 3.05262,-2.73716 7.97086,-2.70898 10.98519,0.0629 3.01433,2.77192 2.9833,7.23791 -0.0693,9.97506 -3.05262,2.73715 -7.97086,2.70897 -10.98519,-0.063 -2.67638,-2.46114 -2.9926,-6.32139 -0.74667,-9.11501"
           sodipodi:ry="7.0535712"
           sodipodi:rx="7.7678571"
           sodipodi:cy="634.77289"
           sodipodi:cx="214.55357"
           id="path4954-0-3-5-3-54"
           style="fill:#ffffff;fill-opacity:1;stroke:none"
           sodipodi:type="arc" />
        <path
           sodipodi:open="true"
           sodipodi:end="10.055371"
           sodipodi:start="3.9333012"
           transform="matrix(1.2068499,1.2505537,-1.3771994,1.3290695,555.50801,-485.8365)"
           d="m 209.09564,629.75389 c 3.05262,-2.73716 7.97086,-2.70898 10.98519,0.0629 3.01433,2.77192 2.9833,7.23791 -0.0693,9.97506 -3.05262,2.73715 -7.97086,2.70897 -10.98519,-0.063 -2.67638,-2.46114 -2.9926,-6.32139 -0.74667,-9.11501"
           sodipodi:ry="7.0535712"
           sodipodi:rx="7.7678571"
           sodipodi:cy="634.77289"
           sodipodi:cx="214.55357"
           id="path4954-0-3-5-3-6-5"
           style="fill:#ffffff;fill-opacity:1;stroke:none"
           sodipodi:type="arc" />
        <path
           sodipodi:open="true"
           sodipodi:end="10.055371"
           sodipodi:start="3.9333012"
           transform="matrix(0.86203548,0.8932525,-0.98371407,0.94933561,352.96442,-195.85061)"
           d="m 209.09564,629.75389 c 3.05262,-2.73716 7.97086,-2.70898 10.98519,0.0629 3.01433,2.77192 2.9833,7.23791 -0.0693,9.97506 -3.05262,2.73715 -7.97086,2.70897 -10.98519,-0.063 -2.67638,-2.46114 -2.9926,-6.32139 -0.74667,-9.11501"
           sodipodi:ry="7.0535712"
           sodipodi:rx="7.7678571"
           sodipodi:cy="634.77289"
           sodipodi:cx="214.55357"
           id="path4954-0-9-46"
           style="fill:#000000;fill-opacity:1;stroke:none"
           sodipodi:type="arc" />
        <path
           sodipodi:open="true"
           sodipodi:end="10.055371"
           sodipodi:start="3.9333012"
           transform="matrix(0.28964399,0.30013291,0.33052786,-0.31897671,-358.472,736.49552)"
           d="m 209.09564,629.75389 c 3.05262,-2.73716 7.97086,-2.70898 10.98519,0.0629 3.01433,2.77192 2.9833,7.23791 -0.0693,9.97506 -3.05262,2.73715 -7.97086,2.70897 -10.98519,-0.063 -2.67638,-2.46114 -2.9926,-6.32139 -0.74667,-9.11501"
           sodipodi:ry="7.0535712"
           sodipodi:rx="7.7678571"
           sodipodi:cy="634.77289"
           sodipodi:cx="214.55357"
           id="path4954-0-5-4-4"
           style="fill:#ffffff;fill-opacity:1;stroke:none"
           sodipodi:type="arc" />
        <path
           sodipodi:open="true"
           sodipodi:end="10.055371"
           sodipodi:start="3.9333012"
           transform="matrix(0.86203548,0.8932525,-0.98371407,0.94933561,366.38739,-181.94165)"
           d="m 209.09564,629.75389 c 3.05262,-2.73716 7.97086,-2.70898 10.98519,0.0629 3.01433,2.77192 2.9833,7.23791 -0.0693,9.97506 -3.05262,2.73715 -7.97086,2.70897 -10.98519,-0.063 -2.67638,-2.46114 -2.9926,-6.32139 -0.74667,-9.11501"
           sodipodi:ry="7.0535712"
           sodipodi:rx="7.7678571"
           sodipodi:cy="634.77289"
           sodipodi:cx="214.55357"
           id="path4954-0-9-8-51"
           style="fill:#000000;fill-opacity:1;stroke:none"
           sodipodi:type="arc" />
        <path
           sodipodi:open="true"
           sodipodi:end="10.055371"
           sodipodi:start="3.9333012"
           transform="matrix(0.28964399,0.30013291,0.33052786,-0.31897671,-345.04902,750.40446)"
           d="m 209.09564,629.75389 c 3.05262,-2.73716 7.97086,-2.70898 10.98519,0.0629 3.01433,2.77192 2.9833,7.23791 -0.0693,9.97506 -3.05262,2.73715 -7.97086,2.70897 -10.98519,-0.063 -2.67638,-2.46114 -2.9926,-6.32139 -0.74667,-9.11501"
           sodipodi:ry="7.0535712"
           sodipodi:rx="7.7678571"
           sodipodi:cy="634.77289"
           sodipodi:cx="214.55357"
           id="path4954-0-5-4-1-1"
           style="fill:#ffffff;fill-opacity:1;stroke:none"
           sodipodi:type="arc" />
        <path
           sodipodi:open="true"
           sodipodi:end="10.055371"
           sodipodi:start="3.9333012"
           transform="matrix(0.86203548,0.8932525,-0.98371407,0.94933561,379.71512,-168.13125)"
           d="m 209.09564,629.75389 c 3.05262,-2.73716 7.97086,-2.70898 10.98519,0.0629 3.01433,2.77192 2.9833,7.23791 -0.0693,9.97506 -3.05262,2.73715 -7.97086,2.70897 -10.98519,-0.063 -2.67638,-2.46114 -2.9926,-6.32139 -0.74667,-9.11501"
           sodipodi:ry="7.0535712"
           sodipodi:rx="7.7678571"
           sodipodi:cy="634.77289"
           sodipodi:cx="214.55357"
           id="path4954-0-9-8-5-69"
           style="fill:#000000;fill-opacity:1;stroke:none"
           sodipodi:type="arc" />
        <path
           sodipodi:open="true"
           sodipodi:end="10.055371"
           sodipodi:start="3.9333012"
           transform="matrix(0.28964399,0.30013291,0.33052786,-0.31897671,-331.72127,764.21487)"
           d="m 209.09564,629.75389 c 3.05262,-2.73716 7.97086,-2.70898 10.98519,0.0629 3.01433,2.77192 2.9833,7.23791 -0.0693,9.97506 -3.05262,2.73715 -7.97086,2.70897 -10.98519,-0.063 -2.67638,-2.46114 -2.9926,-6.32139 -0.74667,-9.11501"
           sodipodi:ry="7.0535712"
           sodipodi:rx="7.7678571"
           sodipodi:cy="634.77289"
           sodipodi:cx="214.55357"
           id="path4954-0-5-4-1-2-2"
           style="fill:#ffffff;fill-opacity:1;stroke:none"
           sodipodi:type="arc" />
        <path
           sodipodi:nodetypes="csssscc"
           inkscape:connector-curvature="0"
           style="fill:#ffffff;fill-opacity:1;stroke:none"
           d="m -91.238817,416.5094 0,144.55269 c 0,11.70494 10.187106,21.11708 22.854335,21.11708 l 135.667894,0 c 12.667133,0 22.712925,-9.4134 22.884334,-21.11708 l 0,-144.55269 z"
           id="rect5777-9" />
        <path
           inkscape:connector-curvature="0"
           style="fill:#ffffff;fill-opacity:1;stroke:none"
           d="M 0.01047964,332.96219 C -23.198705,332.82615 -46.468246,340.91129 -64.28823,357.25603 l -9.508469,10.27337 c -11.556632,14.7045 -17.296885,31.89371 -17.437424,49.02481 l 181.343381,0 C 89.937896,395.38603 81.751951,373.75363 64.473629,357.50038 46.877227,340.94804 23.219961,333.09823 0.01047964,332.96219 z"
           id="path5779-6"
           sodipodi:nodetypes="sccccss" />
        <path
           inkscape:connector-curvature="0"
           style="fill:#ff0000;fill-opacity:1;stroke:none"
           d="m -12.496482,303.92215 c -1.170685,0.2556 -1.90739,1.40386 -1.65178,2.57454 l 7.5051417,34.37409 c 0.2556067,1.17071 1.4038592,1.9074 2.5745426,1.65179 1.1706988,-0.2556 1.90739,-1.40385 1.6517853,-2.57454 l -7.5051412,-34.3741 c -0.2555994,-1.1707 -1.4038584,-1.90738 -2.5745484,-1.65178 z"
           id="rect3026-3-5-0" />
        <path
           inkscape:connector-curvature="0"
           style="fill:#ff0000;fill-opacity:1;stroke:none"
           d="m -44.482617,319.84158 c -0.787525,0.90313 -0.694442,2.26422 0.208706,3.05173 l 26.518286,23.12328 c 0.903146,0.78753 2.264225,0.69444 3.051736,-0.20871 0.787525,-0.90314 0.694441,-2.26422 -0.208706,-3.05174 l -26.518287,-23.12328 c -0.903144,-0.78752 -2.264224,-0.69442 -3.051735,0.20872 z"
           id="rect3026-3-5" />
        <path
           inkscape:connector-curvature="0"
           style="fill:#ff0000;fill-opacity:1;stroke:none"
           d="m 0.5982555,335.86623 c -22.4455205,-0.12759 -44.9494145,7.4553 -62.1830605,22.78471 l -9.195607,9.63519 c -11.176378,13.79106 -16.727756,29.91249 -16.863672,45.97941 l 175.376555,0 C 87.566745,394.41232 79.161704,374.59742 62.451881,359.35381 45.434475,343.8297 23.044064,335.99383 0.5982555,335.86623 z"
           id="path5779"
           sodipodi:nodetypes="sccccss" />
        <path
           sodipodi:nodetypes="csssscc"
           inkscape:connector-curvature="0"
           style="fill:#ff0000;fill-opacity:1;stroke:none"
           d="m -87.696048,421.14459 0,136.5527 c 0,11.70495 10.187105,21.11708 22.854333,21.11708 l 129.667901,0 c 12.667133,0 22.884325,-9.41213 22.884325,-21.11708 l 0,-136.5527 z"
           id="rect5777" />
        <path
           style="fill:#ffffff;fill-opacity:1;stroke:none"
           d="m 51.844549,355.72623 c -2.297423,-0.0145 -4.632305,0.83912 -6.396128,2.58092 l -0.935176,1.08473 c -2.595586,3.55546 -2.232667,8.46313 0.860249,11.59543 3.483594,3.52784 9.189799,3.5584 12.71757,0.0749 3.527876,-3.48358 3.558404,-9.15233 0.07543,-12.68017 -1.741797,-1.76392 -4.024018,-2.64123 -6.321441,-2.65572 z"
           id="path5805"
           inkscape:connector-curvature="0"
           sodipodi:nodetypes="cccccccc" />
        <path
           inkscape:connector-curvature="0"
           style="fill:#ffffff;fill-opacity:1;stroke:none"
           d="m 0.11812751,439.53644 c -4.96049441,12.63635 0.15643868,26.38564 11.46405149,30.82454 l 91.290241,35.83671 c 11.30764,4.43891 24.37867,-2.17057 29.33916,-14.8069 4.96049,-12.63634 -0.12359,-26.37272 -11.43124,-30.81163 L 29.4901,424.74244 c -11.307613,-4.4389 -24.4114771,2.15767 -29.37197249,14.794 z"
           id="rect5773-0-3-74-7-1-4"
           sodipodi:nodetypes="sssssss" />
        <path
           inkscape:connector-curvature="0"
           style="fill:#ff0000;fill-opacity:1;stroke:none"
           d="m 2.9257941,440.88359 c -4.4182505,11.25504 0.7259617,23.73166 11.5256159,27.97115 l 87.1893,34.22686 c 10.79969,4.23951 23.02639,-1.41804 27.44464,-12.67306 4.41824,-11.25502 -0.69459,-23.71931 -11.49428,-27.95881 L 30.401774,428.22287 C 19.60212,423.98338 7.3440445,429.62857 2.9257941,440.88359 z"
           id="rect5773-0-3-74-7-2"
           sodipodi:nodetypes="sssssss" />
        <path
           style="fill:#ffffff;fill-opacity:1;stroke:none"
           d="m -87.740688,414.1803 175.406542,0 0,6.94917 -175.406542,0 z"
           id="rect5834-1"
           inkscape:connector-curvature="0" />
        <path
           style="fill:#ffffff;fill-opacity:1;stroke:none"
           d="m 9.7366069,375.25 c -1.69601,-1.76815 -4.84678,0.29844 -3.21875,2.03125 4.5492301,4.98227 9.9542001,9.67372 16.2187501,14 18.25342,12.60576 41.173064,20.17877 64.993304,22.80134 0.02684,-1.38846 -0.186549,-4.41039 -0.186549,-4.41039 C 64.164479,406.92639 41.771205,399.3899 23.830357,387 18.519684,383.33247 13.814897,379.40043 9.7366069,375.25 z"
           id="path5422"
           inkscape:connector-curvature="0"
           sodipodi:nodetypes="ccsccsc" />
      </g>
    </g>
  </g>
</svg>
