<svg xmlns="http://www.w3.org/2000/svg" width="178" height="47" viewBox="0 0 178 47"><defs><linearGradient x1="0%" y1="50%" y2="50%" id="a"><stop stop-color="#FEDA31" offset="0%"/><stop stop-color="#E3147D" offset="100%"/></linearGradient></defs><path d="M122.917 33.324v1.992c0 6.835 3.418 11.66 10.588 11.66 3.62 0 6.5-1.54 8.176-3.82l.67 3.15h6.906V33.324h-8.042v.854c0 3.282-2.076 5.762-5.427 5.762-3.15 0-4.757-2.144-4.757-5.093v-1.523h-8.11zm-13.77 12.982h8.04V33.324h-8.04v12.982zm-32.66-12.982v.92c0 7.438 3.818 12.733 11.19 12.733 3.55 0 6.3-1.474 7.974-3.753l.607 3.082h6.902V33.324h-8.04v.854c0 3.282-2.08 5.762-5.43 5.762-3.35 0-5.093-2.412-5.093-5.628v-.988H76.49zm-13.21 12.982h8.042V33.324h-8.045v12.982zM31.463 33.324v.45c0 8.11 5.428 13.203 13.402 13.203 7.974 0 13.335-5.093 13.335-13.202v-.45h-8.042v1.053c0 3.35-1.943 5.763-5.294 5.763-3.35 0-5.294-2.41-5.294-5.76v-1.053h-8.108zM18.648 46.306h8.042V33.324h-8.042v12.982zm-18.63 0h8.11V33.324H.018v12.982zM26.69 26.49v-1.426c0-7.17-3.484-12.264-10.856-12.264-3.35 0-5.964 1.34-7.706 3.284V.94H.018v25.55h8.11v-.824c0-3.35 2.077-5.83 5.428-5.83 3.35 0 5.092 2.413 5.092 5.697v.958h8.042zm31.51 0v-.488c0-8.042-5.362-13.202-13.336-13.202s-13.402 5.16-13.402 13.202v.49h8.108v-1.026c0-3.35 1.943-5.83 5.294-5.83 3.35 0 5.294 2.48 5.294 5.83v1.025h8.04zm5.078 0h8.04V.94h-8.04v25.55zm39.878 0V13.47h-6.902l-.603 3.083c-1.67-2.21-4.42-3.753-7.97-3.753-7.37 0-11.19 5.294-11.19 12.733v.958h8.107v-.954c0-3.284 1.742-5.696 5.093-5.696 3.35 0 5.427 2.48 5.427 5.83v.823h8.04zm5.99 0h8.042V.94h-8.04v25.55zm13.77 0h8.11V13.47h-8.11v13.02zm18.295 0h8.046V13.47h-8.042v13.02zm31.026 0l5.432-8.33v-4.69H154.08v6.635h13.602l-4.196 6.386h8.75zM178 46.307V39.74h-14.407l4.184-6.416h-8.785l-5.45 8.292v4.69H178z" fill="url(#a)"/></svg>